<?xml version="1.0" encoding="UTF-8" standalone="no"?>
<!DOCTYPE svg PUBLIC "-//W3C//DTD SVG 1.1//EN" "http://www.w3.org/Graphics/SVG/1.1/DTD/svg11.dtd">
<svg xmlns="http://www.w3.org/2000/svg" version="1.1" viewBox="0 0 960 960">
<g stroke-width="2.00" fill="none" stroke-linecap="butt">
<path stroke="#cab24d" vector-effect="non-scaling-stroke" d="
  M 685.00 230.96
  Q 682.05 236.53 680.04 242.50"
/>
<path stroke="#fde580" vector-effect="non-scaling-stroke" d="
  M 680.04 242.50
  Q 675.60 254.30 672.46 266.75
  A 0.63 0.62 44.9 0 1 671.25 266.75
  Q 666.07 246.99 656.23 228.62"
/>
<path stroke="#cab24d" vector-effect="non-scaling-stroke" d="
  M 656.23 228.62
  Q 650.77 216.64 639.25 210.46"
/>
<path stroke="#4d4d4d" vector-effect="non-scaling-stroke" d="
  M 711.04 584.70
  Q 704.22 589.19 695.25 589.29"
/>
<path stroke="#cc4d4d" vector-effect="non-scaling-stroke" d="
  M 695.25 589.29
  L 685.60 587.21
  Q 685.00 587.08 684.80 587.67
  Q 672.07 625.88 657.50 662.46"
/>
<path stroke="#c04d4d" vector-effect="non-scaling-stroke" d="
  M 657.50 662.46
  L 646.04 689.75"
/>
<path stroke="#b34d4d" vector-effect="non-scaling-stroke" d="
  M 646.04 689.75
  L 633.96 716.50"
/>
<path stroke="#4d4d4d" vector-effect="non-scaling-stroke" d="
  M 633.96 716.50
  L 628.75 727.21"
/>
<path stroke="#b34d4d" vector-effect="non-scaling-stroke" d="
  M 628.75 727.21
  L 610.46 760.50"
/>
<path stroke="#4d4d4d" vector-effect="non-scaling-stroke" d="
  M 610.46 760.50
  L 601.74 774.39"
/>
<path stroke="#c04d4d" vector-effect="non-scaling-stroke" d="
  M 601.74 774.39
  C 594.24 783.74 588.46 792.22 578.31 800.50"
/>
<path stroke="#cc4d4d" vector-effect="non-scaling-stroke" d="
  M 578.31 800.50
  C 540.34 827.39 519.26 749.58 513.29 727.99
  Q 503.62 693.03 494.14 658.03
  C 490.92 646.12 486.69 630.88 479.07 621.01
  A 1.25 1.25 0.0 0 0 477.20 620.88
  Q 471.20 626.70 467.80 635.14
  Q 460.29 653.81 454.91 673.23
  Q 446.21 704.63 437.25 735.96"
/>
<path stroke="#c04d4d" vector-effect="non-scaling-stroke" d="
  M 437.25 735.96
  Q 431.14 756.11 422.96 775.50"
/>
<path stroke="#4d4d4d" vector-effect="non-scaling-stroke" d="
  M 422.96 775.50
  Q 417.20 787.58 408.67 797.45"
/>
<path stroke="#b34d4d" vector-effect="non-scaling-stroke" d="
  M 408.67 797.45
  Q 395.53 808.78 381.32 799.37
  C 368.12 790.62 357.93 775.95 349.29 762.50"
/>
<path stroke="#c04d4d" vector-effect="non-scaling-stroke" d="
  M 349.29 762.50
  Q 339.38 746.79 330.46 730.50"
/>
<path stroke="#cc4d4d" vector-effect="non-scaling-stroke" d="
  M 330.46 730.50
  C 313.68 699.03 300.69 669.71 286.66 635.97"
/>
<path stroke="#4d4d4d" vector-effect="non-scaling-stroke" d="
  M 286.66 635.97
  L 271.29 595.24"
/>
<path stroke="#cccccc" vector-effect="non-scaling-stroke" d="
  M 680.04 242.50
  C 706.30 261.30 716.07 293.56 718.72 324.25
  Q 721.63 357.95 717.47 392.84
  Q 717.41 393.30 716.96 393.32
  C 690.23 394.60 675.26 422.74 676.45 446.53
  C 677.36 464.61 687.27 479.37 698.72 492.54
  Q 700.10 494.12 698.46 495.72
  Q 691.57 502.47 685.83 511.35
  Q 685.54 511.80 685.01 511.70
  C 669.01 508.70 651.55 519.84 658.42 538.09
  Q 660.17 542.73 664.13 547.73
  Q 664.41 548.09 664.36 548.54
  Q 662.64 566.21 674.17 579.27
  Q 674.52 579.67 674.35 580.17
  C 657.07 633.27 636.37 686.11 610.35 735.58
  Q 597.57 759.86 585.57 775.31
  C 580.37 782.00 572.71 791.22 565.74 793.53
  C 545.67 800.18 526.55 730.63 522.74 716.75
  C 514.18 685.63 508.73 661.30 499.37 634.34
  Q 495.74 623.88 491.82 617.68
  C 480.39 599.60 466.18 610.60 459.56 624.32
  Q 452.67 638.59 448.11 653.78
  Q 438.47 685.86 429.51 718.14
  C 426.83 727.81 407.40 801.66 389.35 790.13
  C 379.24 783.66 370.60 772.07 364.00 762.20
  Q 347.98 738.23 335.50 713.72
  Q 301.37 646.69 277.19 573.90
  Q 277.02 573.40 277.28 572.94
  Q 283.48 561.68 282.40 548.74
  Q 282.35 548.23 282.67 547.81
  Q 286.42 542.88 287.87 539.10
  C 295.01 520.49 278.92 508.62 261.90 511.58
  Q 261.42 511.66 261.09 511.31
  C 255.18 504.97 254.54 496.30 252.45 488.42
  A 2.30 2.29 -31.8 0 1 252.95 486.32
  C 266.75 470.61 274.39 449.05 268.23 428.27
  C 264.06 414.21 253.92 398.98 239.10 394.90
  A 1.73 1.73 0.0 0 1 237.83 393.33
  Q 236.15 365.49 238.76 337.98"
/>
<path stroke="#cccccc" vector-effect="non-scaling-stroke" d="
  M 656.23 228.62
  C 623.32 217.04 589.27 213.50 554.43 212.08
  Q 509.75 210.26 448.19 211.11
  Q 411.04 211.63 374.18 216.05
  C 338.35 220.35 301.41 230.01 274.00 254.79"
/>
<path stroke="#da0000" vector-effect="non-scaling-stroke" d="
  M 612.60 932.49
  C 613.58 927.29 611.87 923.42 612.16 919.26
  Q 612.93 908.01 613.37 896.74
  C 613.58 891.16 612.89 884.80 613.04 878.75"
/>
<path stroke="#8c2626" vector-effect="non-scaling-stroke" d="
  M 613.04 878.75
  L 613.66 879.73
  Q 613.99 880.25 614.49 879.89
  C 615.72 879.00 614.67 876.88 613.50 876.46"
/>
<path stroke="#670000" vector-effect="non-scaling-stroke" d="
  M 613.50 876.46
  Q 613.77 866.10 613.26 839.19
  Q 612.37 791.81 610.73 763.50
  Q 610.68 762.69 611.05 761.69
  Q 611.18 761.34 610.94 761.06
  L 610.46 760.50"
/>
<path stroke="#670000" vector-effect="non-scaling-stroke" d="
  M 628.75 727.21
  L 629.28 727.26
  Q 629.78 727.30 629.93 727.78
  Q 636.66 749.23 645.98 769.71
  A 0.73 0.73 0.0 0 0 647.35 769.23
  L 633.96 716.50"
/>
<path stroke="#262626" vector-effect="non-scaling-stroke" d="
  M 947.71 887.50
  Q 946.53 888.08 946.75 889.21"
/>
<path stroke="#800000" vector-effect="non-scaling-stroke" d="
  M 286.66 635.97
  Q 283.52 702.77 282.32 742.25
  Q 281.72 761.94 281.76 790.99
  C 281.78 812.09 283.82 833.43 285.04 854.50"
/>
<path stroke="#740000" vector-effect="non-scaling-stroke" d="
  M 285.04 854.50
  L 285.28 859.07
  Q 285.31 859.70 285.92 859.55
  L 312.50 852.96"
/>
<path stroke="#670000" vector-effect="non-scaling-stroke" d="
  M 312.50 852.96
  C 317.14 852.22 321.78 850.41 326.49 850.63
  Q 330.79 850.82 335.06 850.34
  C 337.79 850.03 340.51 850.82 343.27 850.70
  Q 357.75 850.06 372.22 850.32
  C 382.89 850.52 393.76 853.11 404.27 855.04"
/>
<path stroke="#740000" vector-effect="non-scaling-stroke" d="
  M 404.27 855.04
  Q 432.05 861.51 457.46 873.50"
/>
<path stroke="#800000" vector-effect="non-scaling-stroke" d="
  M 457.46 873.50
  Q 485.07 887.54 512.44 902.06
  Q 527.33 909.96 562.53 924.25"
/>
<path stroke="#740000" vector-effect="non-scaling-stroke" d="
  M 562.53 924.25
  C 579.14 930.71 595.00 933.36 612.60 932.49"
/>
<path stroke="#670000" vector-effect="non-scaling-stroke" d="
  M 612.60 932.49
  Q 625.66 927.43 638.48 921.81
  Q 643.46 919.62 647.36 916.66
  Q 664.42 903.70 680.05 884.56
  Q 691.94 870.00 710.28 858.89
  C 720.38 852.77 733.39 849.63 744.50 845.54"
/>
<path stroke="#740000" vector-effect="non-scaling-stroke" d="
  M 744.50 845.54
  C 748.05 844.99 750.94 843.58 754.50 843.57
  C 769.92 843.56 785.33 844.16 800.75 843.96"
/>
<path stroke="#800000" vector-effect="non-scaling-stroke" d="
  M 800.75 843.96
  C 842.93 849.54 881.51 856.39 920.53 869.56
  A 1.34 0.58 -53.2 0 0 921.61 868.94
  C 922.18 868.27 892.93 836.53 889.81 833.29
  C 840.05 781.49 795.00 725.79 750.75 667.00
  Q 720.17 626.37 695.25 589.29"
/>
<path stroke="#da0000" vector-effect="non-scaling-stroke" d="
  M 744.50 845.54
  Q 742.61 841.58 741.20 840.05
  Q 706.78 802.77 680.23 759.54
  C 667.14 738.22 660.74 721.08 647.88 691.06
  Q 647.69 690.60 647.24 690.37
  L 646.04 689.75"
/>
<path stroke="#f30000" vector-effect="non-scaling-stroke" d="
  M 578.31 800.50
  Q 580.61 804.81 581.01 810.75
  Q 582.67 835.47 579.51 858.26
  Q 575.32 888.58 562.53 924.25"
/>
<path stroke="#f30000" vector-effect="non-scaling-stroke" d="
  M 457.46 873.50
  Q 459.55 870.18 457.71 866.57
  C 454.90 861.02 453.62 855.93 452.72 849.19
  Q 445.99 798.49 439.79 747.73
  C 439.49 745.27 440.48 735.99 437.25 735.96"
/>
<path stroke="#992626" vector-effect="non-scaling-stroke" d="
  M 612.96 878.00
  L 613.04 878.75"
/>
<path stroke="#da0000" vector-effect="non-scaling-stroke" d="
  M 349.29 762.50
  L 349.22 763.07
  Q 349.20 763.20 349.07 763.24
  Q 348.96 763.27 348.81 763.25
  Q 348.68 763.24 348.66 763.36
  Q 338.25 809.28 313.66 849.37
  C 312.93 850.55 312.85 851.65 312.50 852.96"
/>
<path stroke="#f30000" vector-effect="non-scaling-stroke" d="
  M 330.46 730.50
  Q 328.69 731.14 328.28 732.76
  Q 318.84 770.47 307.78 804.76
  Q 303.28 818.72 290.12 851.87
  Q 289.93 852.36 289.45 852.57
  L 285.04 854.50"
/>
<path stroke="#262626" vector-effect="non-scaling-stroke" d="
  M 613.50 876.46
  L 612.96 878.00"
/>
<path stroke="#740000" vector-effect="non-scaling-stroke" d="
  M 612.96 878.00
  Q 609.25 837.56 603.22 785.75
  Q 602.24 777.35 601.74 774.39"
/>
<path stroke="#cab24d" vector-effect="non-scaling-stroke" d="
  M 264.48 247.23
  Q 268.59 251.93 274.00 254.79"
/>
<path stroke="#fde580" vector-effect="non-scaling-stroke" d="
  M 274.00 254.79
  C 288.34 264.14 305.69 268.04 322.05 272.21
  A 0.35 0.35 0.0 0 1 322.03 272.90
  C 306.96 275.85 292.00 278.24 277.69 284.46
  C 254.91 294.38 248.32 322.03 242.09 344.16
  A 0.52 0.52 0.0 0 1 241.10 344.20
  L 238.76 337.98"
/>
<path stroke="#cab24d" vector-effect="non-scaling-stroke" d="
  M 238.76 337.98
  Q 235.98 327.17 231.27 316.86
  Q 231.07 316.42 230.75 316.06
  L 230.04 315.25"
/>
<path stroke="#670000" vector-effect="non-scaling-stroke" d="
  M 408.67 797.45
  L 407.03 818.61
  Q 406.99 819.05 407.42 818.93
  Q 407.68 818.85 407.65 818.66"
/>
<path stroke="#f30000" vector-effect="non-scaling-stroke" d="
  M 800.75 843.96
  Q 799.91 842.70 799.15 841.41
  Q 798.36 840.07 797.23 839.15
  C 763.87 812.17 735.29 777.65 709.45 741.05
  Q 681.35 701.26 658.74 663.75
  Q 658.47 663.30 657.50 662.46"
/>
<path stroke="#da0000" vector-effect="non-scaling-stroke" d="
  M 404.27 855.04
  L 407.65 818.66"
/>
<path stroke="#740000" vector-effect="non-scaling-stroke" d="
  M 407.65 818.66
  Q 414.14 809.25 417.09 798.15
  C 417.46 796.74 417.11 795.22 418.75 794.14
  Q 419.16 793.87 419.27 793.40
  C 420.38 788.71 420.85 782.30 423.08 777.76
  Q 423.30 777.32 423.21 776.83
  L 422.96 775.50"
/>
<path stroke="#fde533" vector-effect="non-scaling-stroke" d="
  M 673.32 158.59
  Q 662.06 182.74 638.36 194.92
  A 0.65 0.65 0.0 0 0 638.40 196.10
  C 654.98 203.35 663.56 214.31 670.94 230.49
  A 0.38 0.38 0.0 0 0 671.63 230.49
  C 679.40 213.08 688.82 200.52 707.48 194.18
  A 0.62 0.62 0.0 0 0 707.52 193.02
  Q 683.60 182.86 674.43 158.63
  A 0.60 0.60 0.0 0 0 673.32 158.59"
/>
<path stroke="#fde533" vector-effect="non-scaling-stroke" d="
  M 277.40 270.68
  C 260.24 262.68 251.18 252.90 243.77 235.61
  Q 243.45 234.88 243.13 235.60
  Q 231.91 260.37 207.61 272.59
  A 0.43 0.43 0.0 0 0 207.63 273.36
  C 224.56 280.86 232.83 291.30 240.57 307.70
  A 0.55 0.55 0.0 0 0 241.58 307.68
  C 249.34 289.30 258.60 278.83 277.38 271.35
  A 0.37 0.36 -43.6 0 0 277.40 270.68"
/>
<path stroke="#cccccc" vector-effect="non-scaling-stroke" d="
  M 606.18 228.22
  C 571.21 217.96 521.63 231.60 499.07 261.84
  A 0.49 0.49 0.0 0 0 499.68 262.57
  C 518.45 253.42 537.97 245.51 558.13 240.06
  Q 582.03 233.61 606.15 228.97
  A 0.39 0.38 47.5 0 0 606.18 228.22"
/>
<path stroke="#cccccc" vector-effect="non-scaling-stroke" d="
  M 485.81 253.94
  C 455.16 225.54 413.98 219.30 374.87 230.26
  A 0.40 0.40 0.0 0 0 374.90 231.04
  C 395.43 235.24 416.44 236.24 436.96 240.75
  C 452.97 244.28 469.89 249.92 486.05 255.01
  A 0.30 0.30 0.0 0 0 486.43 254.65
  Q 486.28 254.03 485.81 253.94"
/>
<path stroke="#cccccc" vector-effect="non-scaling-stroke" d="
  M 491.69 260.51
  C 478.36 250.75 452.84 253.37 454.59 275.03
  A 0.85 0.85 0.0 0 0 455.90 275.67
  C 467.18 268.32 478.90 265.09 492.04 262.72
  A 0.79 0.79 0.0 0 0 492.69 261.99
  Q 492.72 261.27 491.69 260.51"
/>
<path stroke="#a5a5a5" vector-effect="non-scaling-stroke" d="
  M 415.3500 457.2500
  A 29.05 15.88 90.0 0 0 431.2300 428.2000
  A 29.05 15.88 90.0 0 0 415.3500 399.1500
  A 29.05 15.88 90.0 0 0 399.4700 428.2000
  A 29.05 15.88 90.0 0 0 415.3500 457.2500"
/>
<path stroke="#a5a5a5" vector-effect="non-scaling-stroke" d="
  M 537.2000 457.2900
  A 29.07 15.85 90.0 0 0 553.0500 428.2200
  A 29.07 15.85 90.0 0 0 537.2000 399.1500
  A 29.07 15.85 90.0 0 0 521.3500 428.2200
  A 29.07 15.85 90.0 0 0 537.2000 457.2900"
/>
<path stroke="#a5a5a5" vector-effect="non-scaling-stroke" d="
  M 441.14 471.63
  C 449.82 494.01 470.70 509.50 495.18 508.41
  C 511.55 507.67 526.76 497.21 526.84 479.40
  A 0.60 0.60 0.0 0 0 525.70 479.14
  C 520.40 490.38 510.61 495.26 498.26 496.20
  C 476.55 497.86 458.10 484.55 441.80 471.16
  A 0.42 0.42 0.0 0 0 441.14 471.63"
/>
<path stroke="#cccccc" vector-effect="non-scaling-stroke" d="
  M 254.57 527.78
  C 247.09 505.73 222.18 488.57 202.05 479.80
  A 0.42 0.42 0.0 0 1 202.20 479.00
  Q 219.50 478.40 232.67 489.32
  Q 233.12 489.69 233.53 489.28
  C 248.21 474.41 262.70 454.83 256.36 432.41
  C 251.61 415.62 238.15 400.25 218.69 408.46
  C 205.76 413.91 198.38 421.06 189.04 432.57
  Q 176.43 448.11 167.43 467.42
  C 156.14 491.65 151.96 524.76 177.70 542.01
  C 195.57 553.99 218.73 553.68 239.16 553.44
  Q 239.71 553.43 239.74 553.97
  C 240.24 562.02 237.30 576.44 249.75 576.47
  C 265.89 576.50 272.89 558.09 268.61 544.31
  Q 268.45 543.81 268.87 543.49
  C 274.20 539.47 282.76 528.50 271.70 524.47
  C 265.22 522.11 260.75 525.00 255.19 528.03
  Q 254.74 528.27 254.57 527.78"
/>
<path stroke="#cccccc" vector-effect="non-scaling-stroke" d="
  M 744.69 479.03
  A 0.37 0.37 0.0 0 1 744.82 479.74
  C 724.45 488.47 699.48 505.96 692.08 527.96
  A 0.46 0.46 0.0 0 1 691.36 528.17
  C 686.76 524.54 680.53 522.29 674.77 524.51
  C 663.91 528.69 672.60 539.53 677.71 543.68
  Q 678.11 544.01 677.95 544.50
  C 674.03 556.54 679.03 571.47 691.71 575.55
  C 708.91 581.09 706.89 563.71 707.06 553.89
  Q 707.07 553.35 707.61 553.37
  C 729.07 553.96 756.67 553.72 773.81 538.39
  C 793.93 520.38 789.88 490.37 779.58 468.18
  C 769.09 445.57 750.70 416.54 726.64 407.90
  C 711.76 402.57 701.86 409.62 694.55 422.41
  C 680.21 447.52 695.03 470.93 713.01 489.25
  A 0.79 0.78 -42.1 0 0 714.06 489.30
  Q 727.39 478.42 744.69 479.03"
/>
</g>
<path fill="#faca00" d="
  M 685.00 230.96
  Q 682.05 236.53 680.04 242.50
  Q 675.60 254.30 672.46 266.75
  A 0.63 0.62 44.9 0 1 671.25 266.75
  Q 666.07 246.99 656.23 228.62
  Q 650.77 216.64 639.25 210.46
  C 627.48 203.37 614.18 199.93 601.04 196.16
  A 0.47 0.47 0.0 0 1 601.05 195.26
  C 623.29 189.44 644.38 182.48 657.61 161.91
  C 668.23 145.39 670.04 126.60 673.47 107.76
  A 0.39 0.39 0.0 0 1 674.23 107.76
  Q 677.08 122.78 680.17 137.26
  C 683.44 152.65 690.40 168.75 703.51 176.94
  C 718.61 186.37 735.25 190.31 752.25 194.79
  A 0.41 0.41 0.0 0 1 752.22 195.59
  C 735.23 198.52 714.40 201.84 700.25 211.25
  C 693.14 215.99 688.43 223.44 685.00 230.96
  Z
  M 673.32 158.59
  Q 662.06 182.74 638.36 194.92
  A 0.65 0.65 0.0 0 0 638.40 196.10
  C 654.98 203.35 663.56 214.31 670.94 230.49
  A 0.38 0.38 0.0 0 0 671.63 230.49
  C 679.40 213.08 688.82 200.52 707.48 194.18
  A 0.62 0.62 0.0 0 0 707.52 193.02
  Q 683.60 182.86 674.43 158.63
  A 0.60 0.60 0.0 0 0 673.32 158.59
  Z"
/>
<path fill="#ffff66" d="
  M 673.32 158.59
  A 0.60 0.60 0.0 0 1 674.43 158.63
  Q 683.60 182.86 707.52 193.02
  A 0.62 0.62 0.0 0 1 707.48 194.18
  C 688.82 200.52 679.40 213.08 671.63 230.49
  A 0.38 0.38 0.0 0 1 670.94 230.49
  C 663.56 214.31 654.98 203.35 638.40 196.10
  A 0.65 0.65 0.0 0 1 638.36 194.92
  Q 662.06 182.74 673.32 158.59
  Z"
/>
<path fill="#faca00" d="
  M 264.48 247.23
  Q 268.59 251.93 274.00 254.79
  C 288.34 264.14 305.69 268.04 322.05 272.21
  A 0.35 0.35 0.0 0 1 322.03 272.90
  C 306.96 275.85 292.00 278.24 277.69 284.46
  C 254.91 294.38 248.32 322.03 242.09 344.16
  A 0.52 0.52 0.0 0 1 241.10 344.20
  L 238.76 337.98
  Q 235.98 327.17 231.27 316.86
  Q 231.07 316.42 230.75 316.06
  L 230.04 315.25
  Q 230.02 314.04 229.56 312.95
  C 225.90 304.18 220.56 295.32 212.46 289.99
  C 199.73 281.63 185.43 277.93 170.98 273.66
  A 0.48 0.47 -45.1 0 1 170.98 272.75
  Q 179.10 270.31 187.39 267.78
  C 215.08 259.32 232.86 240.03 238.30 211.57
  Q 240.89 198.01 243.19 184.60
  A 0.33 0.32 -45.8 0 1 243.83 184.59
  C 248.05 206.64 250.61 228.68 264.48 247.23
  Z
  M 277.40 270.68
  C 260.24 262.68 251.18 252.90 243.77 235.61
  Q 243.45 234.88 243.13 235.60
  Q 231.91 260.37 207.61 272.59
  A 0.43 0.43 0.0 0 0 207.63 273.36
  C 224.56 280.86 232.83 291.30 240.57 307.70
  A 0.55 0.55 0.0 0 0 241.58 307.68
  C 249.34 289.30 258.60 278.83 277.38 271.35
  A 0.37 0.36 -43.6 0 0 277.40 270.68
  Z"
/>
<path fill="#999999" d="
  M 639.25 210.46
  Q 650.77 216.64 656.23 228.62
  C 623.32 217.04 589.27 213.50 554.43 212.08
  Q 509.75 210.26 448.19 211.11
  Q 411.04 211.63 374.18 216.05
  C 338.35 220.35 301.41 230.01 274.00 254.79
  Q 268.59 251.93 264.48 247.23
  C 284.59 227.50 311.00 216.62 338.03 210.36
  C 367.91 203.44 400.44 200.50 429.32 199.82
  Q 492.18 198.34 544.81 199.67
  C 575.20 200.43 608.21 203.39 639.25 210.46
  Z"
/>
<path fill="#ffffff" d="
  M 656.23 228.62
  Q 666.07 246.99 671.25 266.75
  A 0.63 0.62 44.9 0 0 672.46 266.75
  Q 675.60 254.30 680.04 242.50
  C 706.30 261.30 716.07 293.56 718.72 324.25
  Q 721.63 357.95 717.47 392.84
  Q 717.41 393.30 716.96 393.32
  C 690.23 394.60 675.26 422.74 676.45 446.53
  C 677.36 464.61 687.27 479.37 698.72 492.54
  Q 700.10 494.12 698.46 495.72
  Q 691.57 502.47 685.83 511.35
  Q 685.54 511.80 685.01 511.70
  C 669.01 508.70 651.55 519.84 658.42 538.09
  Q 660.17 542.73 664.13 547.73
  Q 664.41 548.09 664.36 548.54
  Q 662.64 566.21 674.17 579.27
  Q 674.52 579.67 674.35 580.17
  C 657.07 633.27 636.37 686.11 610.35 735.58
  Q 597.57 759.86 585.57 775.31
  C 580.37 782.00 572.71 791.22 565.74 793.53
  C 545.67 800.18 526.55 730.63 522.74 716.75
  C 514.18 685.63 508.73 661.30 499.37 634.34
  Q 495.74 623.88 491.82 617.68
  C 480.39 599.60 466.18 610.60 459.56 624.32
  Q 452.67 638.59 448.11 653.78
  Q 438.47 685.86 429.51 718.14
  C 426.83 727.81 407.40 801.66 389.35 790.13
  C 379.24 783.66 370.60 772.07 364.00 762.20
  Q 347.98 738.23 335.50 713.72
  Q 301.37 646.69 277.19 573.90
  Q 277.02 573.40 277.28 572.94
  Q 283.48 561.68 282.40 548.74
  Q 282.35 548.23 282.67 547.81
  Q 286.42 542.88 287.87 539.10
  C 295.01 520.49 278.92 508.62 261.90 511.58
  Q 261.42 511.66 261.09 511.31
  C 255.18 504.97 254.54 496.30 252.45 488.42
  A 2.30 2.29 -31.8 0 1 252.95 486.32
  C 266.75 470.61 274.39 449.05 268.23 428.27
  C 264.06 414.21 253.92 398.98 239.10 394.90
  A 1.73 1.73 0.0 0 1 237.83 393.33
  Q 236.15 365.49 238.76 337.98
  L 241.10 344.20
  A 0.52 0.52 0.0 0 0 242.09 344.16
  C 248.32 322.03 254.91 294.38 277.69 284.46
  C 292.00 278.24 306.96 275.85 322.03 272.90
  A 0.35 0.35 0.0 0 0 322.05 272.21
  C 305.69 268.04 288.34 264.14 274.00 254.79
  C 301.41 230.01 338.35 220.35 374.18 216.05
  Q 411.04 211.63 448.19 211.11
  Q 509.75 210.26 554.43 212.08
  C 589.27 213.50 623.32 217.04 656.23 228.62
  Z
  M 606.18 228.22
  C 571.21 217.96 521.63 231.60 499.07 261.84
  A 0.49 0.49 0.0 0 0 499.68 262.57
  C 518.45 253.42 537.97 245.51 558.13 240.06
  Q 582.03 233.61 606.15 228.97
  A 0.39 0.38 47.5 0 0 606.18 228.22
  Z
  M 485.81 253.94
  C 455.16 225.54 413.98 219.30 374.87 230.26
  A 0.40 0.40 0.0 0 0 374.90 231.04
  C 395.43 235.24 416.44 236.24 436.96 240.75
  C 452.97 244.28 469.89 249.92 486.05 255.01
  A 0.30 0.30 0.0 0 0 486.43 254.65
  Q 486.28 254.03 485.81 253.94
  Z
  M 491.69 260.51
  C 478.36 250.75 452.84 253.37 454.59 275.03
  A 0.85 0.85 0.0 0 0 455.90 275.67
  C 467.18 268.32 478.90 265.09 492.04 262.72
  A 0.79 0.79 0.0 0 0 492.69 261.99
  Q 492.72 261.27 491.69 260.51
  Z
  M 415.3500 457.2500
  A 29.05 15.88 90.0 0 0 431.2300 428.2000
  A 29.05 15.88 90.0 0 0 415.3500 399.1500
  A 29.05 15.88 90.0 0 0 399.4700 428.2000
  A 29.05 15.88 90.0 0 0 415.3500 457.2500
  Z
  M 537.2000 457.2900
  A 29.07 15.85 90.0 0 0 553.0500 428.2200
  A 29.07 15.85 90.0 0 0 537.2000 399.1500
  A 29.07 15.85 90.0 0 0 521.3500 428.2200
  A 29.07 15.85 90.0 0 0 537.2000 457.2900
  Z
  M 441.14 471.63
  C 449.82 494.01 470.70 509.50 495.18 508.41
  C 511.55 507.67 526.76 497.21 526.84 479.40
  A 0.60 0.60 0.0 0 0 525.70 479.14
  C 520.40 490.38 510.61 495.26 498.26 496.20
  C 476.55 497.86 458.10 484.55 441.80 471.16
  A 0.42 0.42 0.0 0 0 441.14 471.63
  Z"
/>
<path fill="#999999" d="
  M 606.18 228.22
  A 0.39 0.38 47.5 0 1 606.15 228.97
  Q 582.03 233.61 558.13 240.06
  C 537.97 245.51 518.45 253.42 499.68 262.57
  A 0.49 0.49 0.0 0 1 499.07 261.84
  C 521.63 231.60 571.21 217.96 606.18 228.22
  Z"
/>
<path fill="#999999" d="
  M 485.81 253.94
  Q 486.28 254.03 486.43 254.65
  A 0.30 0.30 0.0 0 1 486.05 255.01
  C 469.89 249.92 452.97 244.28 436.96 240.75
  C 416.44 236.24 395.43 235.24 374.90 231.04
  A 0.40 0.40 0.0 0 1 374.87 230.26
  C 413.98 219.30 455.16 225.54 485.81 253.94
  Z"
/>
<path fill="#999999" d="
  M 685.00 230.96
  C 720.24 255.63 730.52 297.65 731.71 338.25
  Q 732.54 366.63 729.44 394.85
  Q 729.39 395.38 729.89 395.56
  C 741.56 399.70 750.39 405.77 759.17 415.12
  C 781.70 439.14 804.17 476.73 800.46 511.21
  C 796.70 546.29 768.88 561.85 737.00 565.21
  Q 727.05 566.26 720.17 565.99
  Q 719.63 565.97 719.55 566.51
  C 718.38 574.39 717.10 579.36 711.04 584.70
  Q 704.22 589.19 695.25 589.29
  L 685.60 587.21
  Q 685.00 587.08 684.80 587.67
  Q 672.07 625.88 657.50 662.46
  L 646.04 689.75
  L 633.96 716.50
  L 628.75 727.21
  L 610.46 760.50
  L 601.74 774.39
  C 594.24 783.74 588.46 792.22 578.31 800.50
  C 540.34 827.39 519.26 749.58 513.29 727.99
  Q 503.62 693.03 494.14 658.03
  C 490.92 646.12 486.69 630.88 479.07 621.01
  A 1.25 1.25 0.0 0 0 477.20 620.88
  Q 471.20 626.70 467.80 635.14
  Q 460.29 653.81 454.91 673.23
  Q 446.21 704.63 437.25 735.96
  Q 431.14 756.11 422.96 775.50
  Q 417.20 787.58 408.67 797.45
  Q 395.53 808.78 381.32 799.37
  C 368.12 790.62 357.93 775.95 349.29 762.50
  Q 339.38 746.79 330.46 730.50
  C 313.68 699.03 300.69 669.71 286.66 635.97
  L 271.29 595.24
  L 267.69 584.04
  Q 267.51 583.47 267.01 583.79
  C 250.68 594.14 228.00 589.01 227.44 566.52
  Q 227.43 566.06 226.97 566.07
  C 204.06 566.60 175.08 561.12 159.44 542.87
  C 149.27 531.00 144.89 514.46 146.04 498.98
  C 148.42 467.05 167.87 434.98 190.09 412.35
  Q 204.65 397.53 225.10 393.64
  Q 225.59 393.55 225.59 393.05
  C 225.60 385.82 225.06 377.44 225.04 371.40
  C 224.99 352.46 226.12 333.41 230.04 315.25
  L 230.75 316.06
  Q 231.07 316.42 231.27 316.86
  Q 235.98 327.17 238.76 337.98
  Q 236.15 365.49 237.83 393.33
  A 1.73 1.73 0.0 0 0 239.10 394.90
  C 253.92 398.98 264.06 414.21 268.23 428.27
  C 274.39 449.05 266.75 470.61 252.95 486.32
  A 2.30 2.29 -31.8 0 0 252.45 488.42
  C 254.54 496.30 255.18 504.97 261.09 511.31
  Q 261.42 511.66 261.90 511.58
  C 278.92 508.62 295.01 520.49 287.87 539.10
  Q 286.42 542.88 282.67 547.81
  Q 282.35 548.23 282.40 548.74
  Q 283.48 561.68 277.28 572.94
  Q 277.02 573.40 277.19 573.90
  Q 301.37 646.69 335.50 713.72
  Q 347.98 738.23 364.00 762.20
  C 370.60 772.07 379.24 783.66 389.35 790.13
  C 407.40 801.66 426.83 727.81 429.51 718.14
  Q 438.47 685.86 448.11 653.78
  Q 452.67 638.59 459.56 624.32
  C 466.18 610.60 480.39 599.60 491.82 617.68
  Q 495.74 623.88 499.37 634.34
  C 508.73 661.30 514.18 685.63 522.74 716.75
  C 526.55 730.63 545.67 800.18 565.74 793.53
  C 572.71 791.22 580.37 782.00 585.57 775.31
  Q 597.57 759.86 610.35 735.58
  C 636.37 686.11 657.07 633.27 674.35 580.17
  Q 674.52 579.67 674.17 579.27
  Q 662.64 566.21 664.36 548.54
  Q 664.41 548.09 664.13 547.73
  Q 660.17 542.73 658.42 538.09
  C 651.55 519.84 669.01 508.70 685.01 511.70
  Q 685.54 511.80 685.83 511.35
  Q 691.57 502.47 698.46 495.72
  Q 700.10 494.12 698.72 492.54
  C 687.27 479.37 677.36 464.61 676.45 446.53
  C 675.26 422.74 690.23 394.60 716.96 393.32
  Q 717.41 393.30 717.47 392.84
  Q 721.63 357.95 718.72 324.25
  C 716.07 293.56 706.30 261.30 680.04 242.50
  Q 682.05 236.53 685.00 230.96
  Z
  M 254.57 527.78
  C 247.09 505.73 222.18 488.57 202.05 479.80
  A 0.42 0.42 0.0 0 1 202.20 479.00
  Q 219.50 478.40 232.67 489.32
  Q 233.12 489.69 233.53 489.28
  C 248.21 474.41 262.70 454.83 256.36 432.41
  C 251.61 415.62 238.15 400.25 218.69 408.46
  C 205.76 413.91 198.38 421.06 189.04 432.57
  Q 176.43 448.11 167.43 467.42
  C 156.14 491.65 151.96 524.76 177.70 542.01
  C 195.57 553.99 218.73 553.68 239.16 553.44
  Q 239.71 553.43 239.74 553.97
  C 240.24 562.02 237.30 576.44 249.75 576.47
  C 265.89 576.50 272.89 558.09 268.61 544.31
  Q 268.45 543.81 268.87 543.49
  C 274.20 539.47 282.76 528.50 271.70 524.47
  C 265.22 522.11 260.75 525.00 255.19 528.03
  Q 254.74 528.27 254.57 527.78
  Z
  M 744.69 479.03
  A 0.37 0.37 0.0 0 1 744.82 479.74
  C 724.45 488.47 699.48 505.96 692.08 527.96
  A 0.46 0.46 0.0 0 1 691.36 528.17
  C 686.76 524.54 680.53 522.29 674.77 524.51
  C 663.91 528.69 672.60 539.53 677.71 543.68
  Q 678.11 544.01 677.95 544.50
  C 674.03 556.54 679.03 571.47 691.71 575.55
  C 708.91 581.09 706.89 563.71 707.06 553.89
  Q 707.07 553.35 707.61 553.37
  C 729.07 553.96 756.67 553.72 773.81 538.39
  C 793.93 520.38 789.88 490.37 779.58 468.18
  C 769.09 445.57 750.70 416.54 726.64 407.90
  C 711.76 402.57 701.86 409.62 694.55 422.41
  C 680.21 447.52 695.03 470.93 713.01 489.25
  A 0.79 0.78 -42.1 0 0 714.06 489.30
  Q 727.39 478.42 744.69 479.03
  Z"
/>
<path fill="#ffff66" d="
  M 277.40 270.68
  A 0.37 0.36 -43.6 0 1 277.38 271.35
  C 258.60 278.83 249.34 289.30 241.58 307.68
  A 0.55 0.55 0.0 0 1 240.57 307.70
  C 232.83 291.30 224.56 280.86 207.63 273.36
  A 0.43 0.43 0.0 0 1 207.61 272.59
  Q 231.91 260.37 243.13 235.60
  Q 243.45 234.88 243.77 235.61
  C 251.18 252.90 260.24 262.68 277.40 270.68
  Z"
/>
<path fill="#999999" d="
  M 491.69 260.51
  Q 492.72 261.27 492.69 261.99
  A 0.79 0.79 0.0 0 1 492.04 262.72
  C 478.90 265.09 467.18 268.32 455.90 275.67
  A 0.85 0.85 0.0 0 1 454.59 275.03
  C 452.84 253.37 478.36 250.75 491.69 260.51
  Z"
/>
<ellipse fill="#4b4b4b" cx="0.00" cy="0.00" transform="translate(415.35,428.20) rotate(90.0)" rx="29.05" ry="15.88"/>
<ellipse fill="#4b4b4b" cx="0.00" cy="0.00" transform="translate(537.20,428.22) rotate(90.0)" rx="29.07" ry="15.85"/>
<path fill="#ffffff" d="
  M 255.19 528.03
  C 260.75 525.00 265.22 522.11 271.70 524.47
  C 282.76 528.50 274.20 539.47 268.87 543.49
  Q 268.45 543.81 268.61 544.31
  C 272.89 558.09 265.89 576.50 249.75 576.47
  C 237.30 576.44 240.24 562.02 239.74 553.97
  Q 239.71 553.43 239.16 553.44
  C 218.73 553.68 195.57 553.99 177.70 542.01
  C 151.96 524.76 156.14 491.65 167.43 467.42
  Q 176.43 448.11 189.04 432.57
  C 198.38 421.06 205.76 413.91 218.69 408.46
  C 238.15 400.25 251.61 415.62 256.36 432.41
  C 262.70 454.83 248.21 474.41 233.53 489.28
  Q 233.12 489.69 232.67 489.32
  Q 219.50 478.40 202.20 479.00
  A 0.42 0.42 0.0 0 0 202.05 479.80
  C 222.18 488.57 247.09 505.73 254.57 527.78
  Q 254.74 528.27 255.19 528.03
  Z"
/>
<path fill="#ffffff" d="
  M 744.69 479.03
  Q 727.39 478.42 714.06 489.30
  A 0.79 0.78 -42.1 0 1 713.01 489.25
  C 695.03 470.93 680.21 447.52 694.55 422.41
  C 701.86 409.62 711.76 402.57 726.64 407.90
  C 750.70 416.54 769.09 445.57 779.58 468.18
  C 789.88 490.37 793.93 520.38 773.81 538.39
  C 756.67 553.72 729.07 553.96 707.61 553.37
  Q 707.07 553.35 707.06 553.89
  C 706.89 563.71 708.91 581.09 691.71 575.55
  C 679.03 571.47 674.03 556.54 677.95 544.50
  Q 678.11 544.01 677.71 543.68
  C 672.60 539.53 663.91 528.69 674.77 524.51
  C 680.53 522.29 686.76 524.54 691.36 528.17
  A 0.46 0.46 0.0 0 0 692.08 527.96
  C 699.48 505.96 724.45 488.47 744.82 479.74
  A 0.37 0.37 0.0 0 0 744.69 479.03
  Z"
/>
<path fill="#4b4b4b" d="
  M 495.18 508.41
  C 470.70 509.50 449.82 494.01 441.14 471.63
  A 0.42 0.42 0.0 0 1 441.80 471.16
  C 458.10 484.55 476.55 497.86 498.26 496.20
  C 510.61 495.26 520.40 490.38 525.70 479.14
  A 0.60 0.60 0.0 0 1 526.84 479.40
  C 526.76 497.21 511.55 507.67 495.18 508.41
  Z"
/>
<path fill="#000000" d="
  M 711.04 584.70
  C 779.49 685.21 854.22 777.02 935.62 872.14
  Q 938.46 875.46 940.85 876.96
  Q 941.27 877.22 941.49 877.66
  Q 944.11 882.90 947.71 887.50
  Q 946.53 888.08 946.75 889.21
  L 944.76 889.28
  Q 944.26 889.30 943.90 888.94
  C 940.49 885.44 937.00 886.25 933.48 885.39
  C 887.77 874.12 841.91 862.36 794.96 857.71
  C 782.08 856.44 764.78 855.09 752.34 858.80
  C 747.18 860.33 741.65 861.26 737.79 863.02
  C 719.35 871.43 703.71 884.51 690.01 899.26
  Q 688.44 900.96 684.61 904.09
  Q 665.92 919.41 647.15 934.64
  Q 646.02 935.56 644.64 936.05
  C 631.55 940.69 618.99 946.16 604.94 946.91
  C 583.53 948.06 558.59 943.78 538.49 932.08
  Q 500.21 909.81 489.08 903.16
  Q 447.21 878.14 399.99 871.00
  Q 388.47 869.25 365.19 867.87
  C 363.27 867.75 361.05 868.14 359.44 868.16
  C 344.34 868.40 329.25 868.87 314.15 869.17
  Q 294.21 869.57 274.80 873.23
  A 1.26 1.26 0.0 0 1 273.35 872.29
  C 269.82 857.76 266.65 843.15 265.18 828.31
  Q 263.48 811.23 263.11 794.94
  C 262.54 770.03 262.56 744.11 263.71 718.50
  Q 266.49 656.82 271.29 595.24
  L 286.66 635.97
  Q 283.52 702.77 282.32 742.25
  Q 281.72 761.94 281.76 790.99
  C 281.78 812.09 283.82 833.43 285.04 854.50
  L 285.28 859.07
  Q 285.31 859.70 285.92 859.55
  L 312.50 852.96
  C 317.14 852.22 321.78 850.41 326.49 850.63
  Q 330.79 850.82 335.06 850.34
  C 337.79 850.03 340.51 850.82 343.27 850.70
  Q 357.75 850.06 372.22 850.32
  C 382.89 850.52 393.76 853.11 404.27 855.04
  Q 432.05 861.51 457.46 873.50
  Q 485.07 887.54 512.44 902.06
  Q 527.33 909.96 562.53 924.25
  C 579.14 930.71 595.00 933.36 612.60 932.49
  Q 625.66 927.43 638.48 921.81
  Q 643.46 919.62 647.36 916.66
  Q 664.42 903.70 680.05 884.56
  Q 691.94 870.00 710.28 858.89
  C 720.38 852.77 733.39 849.63 744.50 845.54
  C 748.05 844.99 750.94 843.58 754.50 843.57
  C 769.92 843.56 785.33 844.16 800.75 843.96
  C 842.93 849.54 881.51 856.39 920.53 869.56
  A 1.34 0.58 -53.2 0 0 921.61 868.94
  C 922.18 868.27 892.93 836.53 889.81 833.29
  C 840.05 781.49 795.00 725.79 750.75 667.00
  Q 720.17 626.37 695.25 589.29
  Q 704.22 589.19 711.04 584.70
  Z"
/>
<path fill="#ff0000" d="
  M 695.25 589.29
  Q 720.17 626.37 750.75 667.00
  C 795.00 725.79 840.05 781.49 889.81 833.29
  C 892.93 836.53 922.18 868.27 921.61 868.94
  A 1.34 0.58 -53.2 0 1 920.53 869.56
  C 881.51 856.39 842.93 849.54 800.75 843.96
  Q 799.91 842.70 799.15 841.41
  Q 798.36 840.07 797.23 839.15
  C 763.87 812.17 735.29 777.65 709.45 741.05
  Q 681.35 701.26 658.74 663.75
  Q 658.47 663.30 657.50 662.46
  Q 672.07 625.88 684.80 587.67
  Q 685.00 587.08 685.60 587.21
  L 695.25 589.29
  Z"
/>
<path fill="#ff0000" d="
  M 578.31 800.50
  Q 580.61 804.81 581.01 810.75
  Q 582.67 835.47 579.51 858.26
  Q 575.32 888.58 562.53 924.25
  Q 527.33 909.96 512.44 902.06
  Q 485.07 887.54 457.46 873.50
  Q 459.55 870.18 457.71 866.57
  C 454.90 861.02 453.62 855.93 452.72 849.19
  Q 445.99 798.49 439.79 747.73
  C 439.49 745.27 440.48 735.99 437.25 735.96
  Q 446.21 704.63 454.91 673.23
  Q 460.29 653.81 467.80 635.14
  Q 471.20 626.70 477.20 620.88
  A 1.25 1.25 0.0 0 1 479.07 621.01
  C 486.69 630.88 490.92 646.12 494.14 658.03
  Q 503.62 693.03 513.29 727.99
  C 519.26 749.58 540.34 827.39 578.31 800.50
  Z"
/>
<path fill="#ff0000" d="
  M 286.66 635.97
  C 300.69 669.71 313.68 699.03 330.46 730.50
  Q 328.69 731.14 328.28 732.76
  Q 318.84 770.47 307.78 804.76
  Q 303.28 818.72 290.12 851.87
  Q 289.93 852.36 289.45 852.57
  L 285.04 854.50
  C 283.82 833.43 281.78 812.09 281.76 790.99
  Q 281.72 761.94 282.32 742.25
  Q 283.52 702.77 286.66 635.97
  Z"
/>
<path fill="#e70000" d="
  M 657.50 662.46
  Q 658.47 663.30 658.74 663.75
  Q 681.35 701.26 709.45 741.05
  C 735.29 777.65 763.87 812.17 797.23 839.15
  Q 798.36 840.07 799.15 841.41
  Q 799.91 842.70 800.75 843.96
  C 785.33 844.16 769.92 843.56 754.50 843.57
  C 750.94 843.58 748.05 844.99 744.50 845.54
  Q 742.61 841.58 741.20 840.05
  Q 706.78 802.77 680.23 759.54
  C 667.14 738.22 660.74 721.08 647.88 691.06
  Q 647.69 690.60 647.24 690.37
  L 646.04 689.75
  L 657.50 662.46
  Z"
/>
<path fill="#cd0000" d="
  M 646.04 689.75
  L 647.24 690.37
  Q 647.69 690.60 647.88 691.06
  C 660.74 721.08 667.14 738.22 680.23 759.54
  Q 706.78 802.77 741.20 840.05
  Q 742.61 841.58 744.50 845.54
  C 733.39 849.63 720.38 852.77 710.28 858.89
  Q 691.94 870.00 680.05 884.56
  Q 664.42 903.70 647.36 916.66
  Q 643.46 919.62 638.48 921.81
  Q 625.66 927.43 612.60 932.49
  C 613.58 927.29 611.87 923.42 612.16 919.26
  Q 612.93 908.01 613.37 896.74
  C 613.58 891.16 612.89 884.80 613.04 878.75
  L 613.66 879.73
  Q 613.99 880.25 614.49 879.89
  C 615.72 879.00 614.67 876.88 613.50 876.46
  Q 613.77 866.10 613.26 839.19
  Q 612.37 791.81 610.73 763.50
  Q 610.68 762.69 611.05 761.69
  Q 611.18 761.34 610.94 761.06
  L 610.46 760.50
  L 628.75 727.21
  L 629.28 727.26
  Q 629.78 727.30 629.93 727.78
  Q 636.66 749.23 645.98 769.71
  A 0.73 0.73 0.0 0 0 647.35 769.23
  L 633.96 716.50
  L 646.04 689.75
  Z"
/>
<path fill="#000000" d="
  M 633.96 716.50
  L 647.35 769.23
  A 0.73 0.73 0.0 0 1 645.98 769.71
  Q 636.66 749.23 629.93 727.78
  Q 629.78 727.30 629.28 727.26
  L 628.75 727.21
  L 633.96 716.50
  Z"
/>
<path fill="#e70000" d="
  M 330.46 730.50
  Q 339.38 746.79 349.29 762.50
  L 349.22 763.07
  Q 349.20 763.20 349.07 763.24
  Q 348.96 763.27 348.81 763.25
  Q 348.68 763.24 348.66 763.36
  Q 338.25 809.28 313.66 849.37
  C 312.93 850.55 312.85 851.65 312.50 852.96
  L 285.92 859.55
  Q 285.31 859.70 285.28 859.07
  L 285.04 854.50
  L 289.45 852.57
  Q 289.93 852.36 290.12 851.87
  Q 303.28 818.72 307.78 804.76
  Q 318.84 770.47 328.28 732.76
  Q 328.69 731.14 330.46 730.50
  Z"
/>
<path fill="#e70000" d="
  M 437.25 735.96
  C 440.48 735.99 439.49 745.27 439.79 747.73
  Q 445.99 798.49 452.72 849.19
  C 453.62 855.93 454.90 861.02 457.71 866.57
  Q 459.55 870.18 457.46 873.50
  Q 432.05 861.51 404.27 855.04
  L 407.65 818.66
  Q 414.14 809.25 417.09 798.15
  C 417.46 796.74 417.11 795.22 418.75 794.14
  Q 419.16 793.87 419.27 793.40
  C 420.38 788.71 420.85 782.30 423.08 777.76
  Q 423.30 777.32 423.21 776.83
  L 422.96 775.50
  Q 431.14 756.11 437.25 735.96
  Z"
/>
<path fill="#000000" d="
  M 610.46 760.50
  L 610.94 761.06
  Q 611.18 761.34 611.05 761.69
  Q 610.68 762.69 610.73 763.50
  Q 612.37 791.81 613.26 839.19
  Q 613.77 866.10 613.50 876.46
  L 612.96 878.00
  Q 609.25 837.56 603.22 785.75
  Q 602.24 777.35 601.74 774.39
  L 610.46 760.50
  Z"
/>
<path fill="#cd0000" d="
  M 349.29 762.50
  C 357.93 775.95 368.12 790.62 381.32 799.37
  Q 395.53 808.78 408.67 797.45
  L 407.03 818.61
  Q 406.99 819.05 407.42 818.93
  Q 407.68 818.85 407.65 818.66
  L 404.27 855.04
  C 393.76 853.11 382.89 850.52 372.22 850.32
  Q 357.75 850.06 343.27 850.70
  C 340.51 850.82 337.79 850.03 335.06 850.34
  Q 330.79 850.82 326.49 850.63
  C 321.78 850.41 317.14 852.22 312.50 852.96
  C 312.85 851.65 312.93 850.55 313.66 849.37
  Q 338.25 809.28 348.66 763.36
  Q 348.68 763.24 348.81 763.25
  Q 348.96 763.27 349.07 763.24
  Q 349.20 763.20 349.22 763.07
  L 349.29 762.50
  Z"
/>
<path fill="#e70000" d="
  M 601.74 774.39
  Q 602.24 777.35 603.22 785.75
  Q 609.25 837.56 612.96 878.00
  L 613.04 878.75
  C 612.89 884.80 613.58 891.16 613.37 896.74
  Q 612.93 908.01 612.16 919.26
  C 611.87 923.42 613.58 927.29 612.60 932.49
  C 595.00 933.36 579.14 930.71 562.53 924.25
  Q 575.32 888.58 579.51 858.26
  Q 582.67 835.47 581.01 810.75
  Q 580.61 804.81 578.31 800.50
  C 588.46 792.22 594.24 783.74 601.74 774.39
  Z"
/>
<path fill="#000000" d="
  M 422.96 775.50
  L 423.21 776.83
  Q 423.30 777.32 423.08 777.76
  C 420.85 782.30 420.38 788.71 419.27 793.40
  Q 419.16 793.87 418.75 794.14
  C 417.11 795.22 417.46 796.74 417.09 798.15
  Q 414.14 809.25 407.65 818.66
  Q 407.68 818.85 407.42 818.93
  Q 406.99 819.05 407.03 818.61
  L 408.67 797.45
  Q 417.20 787.58 422.96 775.50
  Z"
/>
<path fill="#4b4b4b" d="
  M 613.50 876.46
  C 614.67 876.88 615.72 879.00 614.49 879.89
  Q 613.99 880.25 613.66 879.73
  L 613.04 878.75
  L 612.96 878.00
  L 613.50 876.46
  Z"
/>
<path fill="#4b4b4b" d="
  M 947.71 887.50
  L 953.42 893.01
  Q 954.86 894.40 953.17 893.32
  L 946.75 889.21
  Q 946.53 888.08 947.71 887.50
  Z"
/>
</svg>
