<?xml version="1.0" encoding="UTF-8" standalone="no"?>
<!-- Created with Inkscape (http://www.inkscape.org/) -->

<svg
   width="9.5166016mm"
   height="9.9511795mm"
   viewBox="0 0 9.5166016 9.9511795"
   version="1.1"
   id="svg37113"
   xmlns:inkscape="http://www.inkscape.org/namespaces/inkscape"
   xmlns:sodipodi="http://sodipodi.sourceforge.net/DTD/sodipodi-0.dtd"
   xmlns="http://www.w3.org/2000/svg"
   xmlns:svg="http://www.w3.org/2000/svg">
  <sodipodi:namedview
     id="namedview37115"
     pagecolor="#ffffff"
     bordercolor="#000000"
     borderopacity="0.25"
     inkscape:showpageshadow="2"
     inkscape:pageopacity="0.0"
     inkscape:pagecheckerboard="0"
     inkscape:deskcolor="#d1d1d1"
     inkscape:document-units="mm"
     showgrid="false"
     showguides="false" />
  <defs
     id="defs37110" />
  <g
     inkscape:label="Camada 1"
     inkscape:groupmode="layer"
     id="layer1"
     transform="translate(-41.553563,-70.029493)">
    <g
       id="g2181"
       transform="matrix(0.00999991,0,0,0.00999991,9.7130394,18.94872)"
       style="clip-rule:evenodd;fill-rule:evenodd;image-rendering:optimizeQuality;shape-rendering:geometricPrecision;text-rendering:geometricPrecision"
       inkscape:export-filename="g2181.svg"
       inkscape:export-xdpi="32"
       inkscape:export-ydpi="32">
   <g
   id="g2183">
    <path
   style="fill:#000000;fill-opacity:0.101961"
   inkscape:connector-curvature="0"
   id="path2185"
   d="m 3348,5208 c 214,-38 425,-38 634,0 67,12 110,57 123,123 41,212 41,423 0,634 -12,67 -56,118 -123,124 -209,19 -420,19 -634,0 -68,-6 -116,-56 -124,-124 -23,-211 -28,-422 0,-634 9,-67 57,-111 124,-123 z"
   class="fil1" />

    <path
   style="fill:#e6e6e6"
   inkscape:connector-curvature="0"
   id="path2187"
   d="m 3327,5160 c 214,-38 425,-38 634,0 67,12 111,57 123,123 41,212 41,423 0,634 -12,67 -55,118 -123,124 -209,19 -420,19 -634,0 -68,-6 -116,-56 -123,-124 -24,-211 -29,-422 0,-634 9,-67 56,-111 123,-123 z"
   class="fil2" />

    <path
   style="fill:#ffffff"
   inkscape:connector-curvature="0"
   id="path2189"
   d="m 3327,5137 c 214,-38 425,-39 634,0 67,12 111,57 123,123 41,212 41,423 0,634 -12,67 -55,118 -123,124 -209,19 -420,19 -634,0 -68,-6 -116,-56 -123,-124 -24,-211 -29,-422 0,-634 9,-67 56,-111 123,-123 z"
   class="fil3" />

    <path
   style="fill:#e6e6e6"
   inkscape:connector-curvature="0"
   id="path2191"
   d="m 3374,5198 c 192,-34 381,-34 569,0 60,11 99,51 111,111 36,189 36,379 0,568 -12,60 -51,106 -111,111 -188,17 -377,17 -569,0 -60,-5 -104,-50 -110,-111 -22,-189 -26,-379 0,-568 8,-60 50,-100 110,-111 z"
   class="fil2" />

    <path
   style="fill:#cc191c"
   inkscape:connector-curvature="0"
   id="path2193"
   d="m 3360,5182 c 192,-34 381,-35 569,0 60,11 99,50 111,110 36,190 36,379 0,569 -12,60 -51,105 -111,111 -188,17 -377,17 -569,0 -60,-6 -104,-51 -110,-111 -22,-190 -26,-379 0,-569 8,-60 50,-100 110,-110 z"
   class="fil47" />

    <path
   style="fill:#ff6595"
   inkscape:connector-curvature="0"
   id="path2195"
   d="m 3360,5143 c 192,-34 381,-34 569,0 60,11 99,51 111,111 36,189 36,379 0,568 -12,60 -51,105 -111,111 -188,17 -377,17 -569,0 -60,-5 -104,-50 -110,-111 -22,-189 -26,-379 0,-568 8,-61 50,-100 110,-111 z"
   class="fil48" />

    <g
   id="g2197">
     <path
   style="fill:#fd628e"
   inkscape:connector-curvature="0"
   id="path2199"
   d="m 3364,5148 c 189,-33 376,-34 561,0 59,11 98,50 109,110 37,186 36,373 0,560 -11,59 -49,104 -109,110 -185,17 -372,16 -561,0 -60,-6 -102,-50 -109,-110 -21,-187 -25,-374 0,-560 8,-60 50,-99 109,-110 z"
   class="fil49" />

     <path
   style="fill:#fa5e87"
   inkscape:connector-curvature="0"
   id="path2201"
   d="m 3368,5153 c 187,-33 371,-33 553,0 59,11 97,50 108,108 36,185 35,369 0,554 -11,58 -49,102 -108,107 -182,17 -366,17 -553,0 -59,-5 -101,-48 -108,-107 -21,-185 -25,-369 0,-554 8,-59 50,-97 108,-108 z"
   class="fil50" />

     <path
   style="fill:#f85b80"
   inkscape:connector-curvature="0"
   id="path2203"
   d="m 3372,5159 c 184,-33 366,-34 546,0 57,10 95,48 106,106 35,182 35,364 0,546 -11,57 -48,101 -106,106 -180,17 -362,16 -546,0 -58,-5 -100,-48 -107,-106 -20,-182 -24,-364 0,-546 8,-58 49,-96 107,-106 z"
   class="fil51" />

     <path
   style="fill:#f65879"
   inkscape:connector-curvature="0"
   id="path2205"
   d="m 3376,5164 c 181,-33 361,-33 538,0 57,10 94,48 105,105 35,179 34,358 0,538 -11,57 -48,100 -105,105 -177,16 -357,16 -538,0 -58,-5 -99,-48 -105,-105 -20,-180 -25,-359 0,-538 7,-58 48,-95 105,-105 z"
   class="fil52" />

     <path
   style="fill:#f35572"
   inkscape:connector-curvature="0"
   id="path2207"
   d="m 3379,5169 c 179,-32 356,-32 531,0 56,10 93,47 104,103 34,177 33,354 0,531 -11,56 -47,98 -104,103 -175,17 -352,16 -531,0 -56,-5 -97,-46 -103,-103 -20,-177 -24,-354 0,-531 8,-56 47,-93 103,-103 z"
   class="fil53" />

     <path
   style="fill:#f1516c"
   inkscape:connector-curvature="0"
   id="path2209"
   d="m 3383,5174 c 177,-31 351,-32 524,0 55,10 91,47 102,102 33,174 33,349 0,523 -11,55 -47,97 -102,102 -173,16 -347,16 -524,0 -56,-5 -95,-46 -102,-102 -19,-174 -23,-349 0,-523 8,-56 47,-92 102,-102 z"
   class="fil54" />

     <path
   style="fill:#ee4e65"
   inkscape:connector-curvature="0"
   id="path2211"
   d="m 3387,5179 c 174,-31 346,-31 516,0 54,10 90,46 100,101 34,172 33,343 0,515 -10,55 -45,96 -100,101 -170,15 -342,15 -516,0 -55,-5 -94,-46 -100,-101 -20,-172 -24,-343 0,-515 7,-55 46,-91 100,-101 z"
   class="fil55" />

     <path
   style="fill:#ec4b5e"
   inkscape:connector-curvature="0"
   id="path2213"
   d="m 3391,5184 c 171,-30 341,-31 508,0 54,10 89,46 99,99 33,170 32,339 0,509 -10,53 -45,94 -99,99 -167,15 -337,15 -508,0 -54,-5 -93,-45 -99,-99 -19,-170 -23,-339 0,-509 7,-54 45,-89 99,-99 z"
   class="fil56" />

     <path
   style="fill:#ea4857"
   inkscape:connector-curvature="0"
   id="path2215"
   d="m 3395,5189 c 169,-30 335,-30 501,0 52,10 87,45 97,98 32,167 32,334 0,501 -10,52 -44,92 -97,97 -166,15 -332,15 -501,0 -54,-5 -92,-44 -98,-97 -19,-167 -22,-334 0,-501 7,-53 45,-88 98,-98 z"
   class="fil57" />

     <path
   style="fill:#e74450"
   inkscape:connector-curvature="0"
   id="path2217"
   d="m 3399,5195 c 166,-30 330,-30 493,0 52,9 86,44 96,96 32,164 31,328 0,493 -10,52 -44,91 -96,96 -163,15 -327,15 -493,0 -53,-5 -91,-44 -97,-96 -18,-165 -22,-329 0,-493 8,-53 45,-87 97,-96 z"
   class="fil58" />

    </g>

    <path
   style="fill:#e54149"
   inkscape:connector-curvature="0"
   id="path2219"
   d="m 3402,5200 c 164,-29 326,-30 486,0 51,9 85,43 95,94 31,162 31,324 0,486 -10,51 -43,90 -95,95 -160,14 -322,14 -486,0 -51,-5 -88,-43 -94,-95 -18,-162 -22,-324 0,-486 7,-51 43,-85 94,-94 z"
   class="fil59" />

    <path
   style="fill:#ffffff;fill-opacity:0.290196"
   inkscape:connector-curvature="0"
   id="path2221"
   d="m 3360,5143 c 192,-34 381,-34 569,0 60,11 99,51 111,111 16,86 25,171 27,257 -356,-145 -595,243 -835,-1 1,-86 6,-171 18,-256 8,-61 50,-100 110,-111 z"
   class="fil17" />

    <path
   style="fill:#ffffff"
   inkscape:connector-curvature="0"
   id="path2223"
   d="m 3354,5169 c 41,0 75,34 75,75 0,41 -34,75 -75,75 -41,0 -75,-34 -75,-75 0,-41 34,-75 75,-75 z"
   class="fil3" />

    <path
   style="fill:#ffffff"
   inkscape:connector-curvature="0"
   id="path2225"
   d="m 3469,5137 c 20,0 37,17 37,37 0,21 -17,38 -37,38 -21,0 -38,-17 -38,-38 0,-20 17,-37 38,-37 z"
   class="fil3" />

    <path
   style="fill:#ffffff"
   inkscape:connector-curvature="0"
   id="path2227"
   d="m 3946,5826 c 25,0 45,20 45,44 0,25 -20,45 -45,45 -25,0 -45,-20 -45,-45 0,-24 20,-44 45,-44 z"
   class="fil3" />

   </g>

   <g
   id="g2229">
    <path
   style="fill:#cc191c;fill-rule:nonzero"
   inkscape:connector-curvature="0"
   id="path2231"
   d="m 3520,5774 c -22,9 -43,14 -63,7 -22,-9 -37,-29 -37,-70 h -1 v -392 h 1 c -1,-28 9,-47 26,-57 17,-10 37,-10 60,0 h 2 l 2,2 362,209 3,1 2,2 c 17,15 24,31 23,48 v 1 c -1,16 -10,31 -25,43 l -2,2 -2,2 -348,200 -1,1 z m -41,-53 c 1,1 7,-2 15,-5 l 337,-194 -348,-201 v 390 0 c 0,8 -6,10 -4,10 z m -1,-405 c -1,1 0,1 1,1 0,-1 0,-1 -1,-1 z"
   class="fil60" />

    <path
   style="fill:#ffffff"
   inkscape:connector-curvature="0"
   id="path2233"
   d="m 3508,5745 c -30,12 -56,16 -57,-34 v -392 c 0,-32 16,-39 43,-28 l 362,209 c 18,15 15,30 -1,44 z"
   class="fil3" />

    <path
   style="fill:#000000;fill-opacity:0.101961"
   inkscape:connector-curvature="0"
   id="path2235"
   d="m 3538,5687 c -31,12 -57,16 -57,-34 v -366 c -5,-1 -8,-1 -12,0 -5,0 -10,3 -13,8 -3,5 -5,13 -5,24 v 392 c 0,17 3,28 9,34 4,5 10,8 18,7 8,0 19,-3 30,-7 l 347,-201 c 16,-13 19,-28 3,-42 z"
   class="fil1" />

   </g>

  </g>
  </g>
</svg>
