<?xml version="1.0" encoding="UTF-8" standalone="no"?>
<!DOCTYPE svg PUBLIC "-//W3C//DTD SVG 1.1//EN" "http://www.w3.org/Graphics/SVG/1.1/DTD/svg11.dtd">
<svg xmlns="http://www.w3.org/2000/svg" version="1.1" viewBox="0 0 640 400">
<g stroke-width="2.00" fill="none" stroke-linecap="butt">
<path stroke="#81bd25" vector-effect="non-scaling-stroke" d="
  M 83.83 199.90
  A 0.39 0.39 0.0 0 0 83.83 200.56
  L 319.83 351.34
  A 0.39 0.39 0.0 0 0 320.25 351.34
  L 556.21 200.60
  A 0.39 0.39 0.0 0 0 556.21 199.94
  L 320.20 49.17
  A 0.39 0.39 0.0 0 0 319.78 49.17
  L 83.83 199.90"
/>
<path stroke="#feef80" vector-effect="non-scaling-stroke" d="
  M 228.31 159.12
  Q 224.78 166.66 222.79 175.00"
/>
<path stroke="#918938" vector-effect="non-scaling-stroke" d="
  M 222.79 175.00
  C 211.39 221.04 232.95 269.50 276.11 290.17
  C 332.18 317.02 395.77 288.78 415.72 230.35"
/>
<path stroke="#feef80" vector-effect="non-scaling-stroke" d="
  M 415.72 230.35
  Q 418.27 222.32 419.29 214.00"
/>
<path stroke="#918938" vector-effect="non-scaling-stroke" d="
  M 419.29 214.00
  Q 424.86 169.05 397.02 135.48
  C 349.35 77.99 259.11 91.91 228.31 159.12"
/>
<path stroke="#9299b8" vector-effect="non-scaling-stroke" d="
  M 419.29 214.00
  C 367.63 169.15 295.44 151.21 228.31 159.12"
/>
<path stroke="#9299b8" vector-effect="non-scaling-stroke" d="
  M 415.72 230.35
  Q 414.78 230.19 414.69 229.80
  C 362.78 182.61 291.86 163.44 222.79 175.00"
/>
<path stroke="#9299b8" vector-effect="non-scaling-stroke" d="
  M 348.85 169.04
  A 0.59 0.59 0.0 0 1 349.07 169.94
  Q 348.49 170.67 348.47 171.60
  Q 348.43 173.73 349.39 171.83
  Q 349.88 170.88 350.86 170.74
  Q 351.30 170.67 351.62 170.99
  L 352.84 172.21
  Q 353.72 173.10 353.38 171.89
  L 352.74 169.68
  Q 352.59 169.16 353.10 168.95
  Q 354.00 168.59 354.50 167.78
  Q 355.06 166.87 354.04 167.17
  Q 351.33 167.95 351.53 165.28
  Q 351.64 163.76 350.72 164.97
  Q 350.02 165.90 349.99 167.07
  Q 349.98 167.52 349.53 167.46
  L 347.65 167.20
  Q 346.63 167.07 347.29 167.85
  Q 347.94 168.62 348.85 169.04"
/>
<path stroke="#82cda4" vector-effect="non-scaling-stroke" d="
  M 263.22 165.06
  C 263.86 160.09 259.74 160.27 256.31 160.13
  Q 255.69 160.10 255.70 160.72
  L 255.77 168.47
  Q 255.77 168.85 256.13 168.98
  C 259.67 170.24 262.72 168.96 263.22 165.06"
/>
<path stroke="#82cda4" vector-effect="non-scaling-stroke" d="
  M 269.64 167.41
  L 269.78 166.00
  Q 269.84 165.48 270.37 165.48
  C 271.43 165.48 274.53 166.42 274.49 164.76
  Q 274.47 164.12 273.82 164.09
  L 270.30 163.95
  Q 269.65 163.92 269.74 163.29
  L 269.84 162.58
  Q 269.92 162.01 270.49 162.00
  C 271.34 162.00 274.98 162.41 275.02 161.31
  Q 275.05 160.61 274.34 160.58
  L 268.63 160.37
  Q 268.06 160.35 268.05 160.93
  L 267.90 168.90
  Q 267.89 169.41 268.40 169.44
  L 274.20 169.80
  Q 274.77 169.83 274.75 169.26
  Q 274.74 169.04 274.75 168.78
  Q 274.77 168.15 274.14 168.12
  L 270.10 167.94
  Q 269.59 167.92 269.64 167.41"
/>
<path stroke="#82cda4" vector-effect="non-scaling-stroke" d="
  M 248.94 160.50
  L 243.70 160.50
  Q 243.02 160.50 243.06 161.18
  C 243.13 162.57 242.71 170.44 244.83 169.55
  Q 245.33 169.34 245.25 168.80
  L 244.94 166.72
  Q 244.86 166.18 245.32 165.89
  C 247.64 164.42 248.37 170.56 251.00 169.37
  Q 251.62 169.09 251.18 168.58
  L 248.93 165.98
  Q 248.46 165.44 249.10 165.10
  Q 251.61 163.81 249.86 161.01
  Q 249.54 160.50 248.94 160.50"
/>
<path stroke="#82cda4" vector-effect="non-scaling-stroke" d="
  M 238.80 165.69
  A 4.58 4.58 0.0 0 0 234.22 161.11
  A 4.58 4.58 0.0 0 0 229.64 165.69
  A 4.58 4.58 0.0 0 0 234.22 170.27
  A 4.58 4.58 0.0 0 0 238.80 165.69"
/>
<path stroke="#82cda4" vector-effect="non-scaling-stroke" d="
  M 281.78 164.75
  L 282.74 169.73
  Q 282.82 170.12 283.16 170.32
  C 284.81 171.27 286.15 165.65 286.49 164.86
  Q 287.23 163.16 287.02 165.00
  L 286.43 170.27
  A 0.67 0.66 77.3 0 0 287.44 170.91
  C 288.30 170.37 288.65 163.79 288.73 162.47
  Q 288.78 161.75 288.06 161.75
  L 286.59 161.75
  Q 286.07 161.75 285.90 162.25
  L 284.30 166.89
  Q 283.78 168.39 283.57 166.82
  L 282.93 161.89
  Q 282.86 161.36 282.33 161.25
  L 280.80 160.95
  Q 280.15 160.82 280.08 161.47
  L 279.25 169.76
  A 0.64 0.63 74.1 0 0 280.27 170.33
  C 281.75 169.17 280.54 166.49 281.40 164.70
  Q 281.66 164.15 281.78 164.75"
/>
<path stroke="#82cda4" vector-effect="non-scaling-stroke" d="
  M 301.03 163.49
  A 0.29 0.29 0.0 0 0 300.70 163.73
  L 299.30 172.13
  A 0.29 0.29 0.0 0 0 299.54 172.47
  L 305.92 173.54
  A 0.29 0.29 0.0 0 0 306.26 173.25
  L 306.25 172.37
  A 0.29 0.29 0.0 0 0 306.02 172.09
  L 301.37 171.20
  A 0.29 0.29 0.0 0 1 301.14 170.86
  L 301.49 169.12
  A 0.29 0.29 0.0 0 1 301.80 168.89
  L 305.91 169.31
  A 0.29 0.29 0.0 0 0 306.15 169.22
  L 306.81 168.56
  A 0.29 0.29 0.0 0 0 306.65 168.07
  L 302.24 167.36
  A 0.29 0.29 0.0 0 1 302.00 167.07
  L 302.00 165.46
  A 0.29 0.29 0.0 0 1 302.34 165.18
  L 306.91 166.05
  A 0.29 0.29 0.0 0 0 307.25 165.77
  L 307.25 164.68
  A 0.29 0.29 0.0 0 0 307.00 164.39
  L 301.03 163.49"
/>
<path stroke="#82cda4" vector-effect="non-scaling-stroke" d="
  M 319.11 167.24
  L 317.05 175.14
  Q 316.91 175.68 317.40 175.94
  L 318.03 176.28
  Q 318.86 176.72 318.92 175.78
  L 319.04 173.87
  Q 319.13 172.42 320.46 173.01
  Q 323.97 174.59 325.20 171.14
  A 2.27 2.27 0.0 0 0 323.64 168.18
  L 319.41 167.06
  A 0.25 0.25 0.0 0 0 319.11 167.24"
/>
<path stroke="#82cda4" vector-effect="non-scaling-stroke" d="
  M 334.74 176.27
  Q 337.61 175.76 336.90 172.60
  Q 336.78 172.08 336.28 171.90
  L 331.27 170.08
  Q 330.62 169.85 330.43 170.51
  L 328.20 178.24
  A 0.74 0.74 0.0 0 0 329.45 178.95
  Q 330.33 178.01 330.38 176.60
  Q 330.40 176.12 330.82 175.88
  C 333.45 174.38 332.44 181.18 335.26 180.74
  Q 335.81 180.65 335.62 180.13
  L 334.39 176.87
  Q 334.20 176.36 334.74 176.27"
/>
<path stroke="#82cda4" vector-effect="non-scaling-stroke" d="
  M 343.3025 183.8068
  A 4.72 4.42 110.3 0 0 349.0855 180.9135
  A 4.72 4.42 110.3 0 0 346.5775 174.9532
  A 4.72 4.42 110.3 0 0 340.7945 177.8465
  A 4.72 4.42 110.3 0 0 343.3025 183.8068"
/>
<path stroke="#82cda4" vector-effect="non-scaling-stroke" d="
  M 357.19 181.07
  C 359.72 180.65 359.80 184.22 361.32 183.72
  A 0.86 0.85 67.2 0 0 361.81 182.51
  C 359.29 177.71 352.78 178.99 352.80 184.49
  C 352.81 187.85 356.02 189.40 359.04 188.93
  Q 359.57 188.85 359.79 188.36
  L 360.81 186.06
  Q 361.05 185.51 360.50 185.27
  L 357.90 184.13
  Q 357.43 183.92 357.22 184.39
  L 357.10 184.65
  Q 356.81 185.27 357.44 185.55
  L 358.73 186.11
  Q 359.67 186.51 358.78 187.02
  C 354.26 189.56 352.90 181.78 357.19 181.07"
/>
<path stroke="#82cda4" vector-effect="non-scaling-stroke" d="
  M 370.41 190.77
  Q 372.96 190.75 373.25 188.17
  Q 373.39 186.82 372.20 186.19
  L 368.10 184.02
  Q 367.49 183.69 367.18 184.32
  L 363.74 191.55
  Q 363.49 192.08 364.04 192.29
  L 364.58 192.49
  Q 365.16 192.70 365.38 192.13
  L 366.17 190.10
  Q 366.31 189.72 366.71 189.62
  C 368.64 189.12 368.67 192.83 368.82 194.02
  Q 368.89 194.54 369.35 194.78
  L 370.13 195.20
  Q 371.08 195.71 370.83 194.66
  L 370.03 191.25
  Q 369.92 190.78 370.41 190.77"
/>
<path stroke="#82cda4" vector-effect="non-scaling-stroke" d="
  M 378.48 190.06
  L 374.57 197.01
  Q 374.33 197.44 374.76 197.68
  L 379.95 200.59
  A 0.66 0.65 31.4 0 0 380.80 200.39
  C 381.60 199.21 377.80 197.72 376.99 197.13
  Q 376.51 196.78 376.86 196.30
  L 377.61 195.25
  Q 377.99 194.71 378.56 195.06
  L 381.39 196.83
  Q 381.98 197.20 382.23 196.55
  Q 382.28 196.43 382.34 196.31
  Q 382.68 195.63 381.99 195.30
  L 379.09 193.90
  Q 378.52 193.63 378.73 193.04
  L 379.07 192.07
  Q 379.32 191.35 379.95 191.76
  C 380.68 192.23 383.90 194.74 384.44 193.36
  Q 384.66 192.81 384.14 192.52
  L 379.33 189.82
  A 0.62 0.62 0.0 0 0 378.48 190.06"
/>
<path stroke="#82cda4" vector-effect="non-scaling-stroke" d="
  M 389.41 198.00
  C 392.75 197.55 391.35 200.94 393.18 200.98
  Q 393.68 200.99 393.67 200.49
  C 393.66 196.47 387.75 194.70 387.46 198.14
  C 387.31 199.94 389.21 201.66 390.29 203.07
  A 0.54 0.54 0.0 0 1 389.97 203.92
  Q 386.58 204.61 386.75 201.20
  Q 386.77 200.86 386.43 200.80
  L 385.77 200.69
  Q 385.40 200.63 385.20 200.95
  C 383.47 203.66 388.29 206.14 390.49 205.49
  Q 390.96 205.35 391.24 204.93
  C 393.14 202.08 390.34 200.61 389.06 198.78
  Q 388.59 198.10 389.41 198.00"
/>
<path stroke="#82cda4" vector-effect="non-scaling-stroke" d="
  M 399.29 204.52
  Q 400.56 204.33 401.33 205.19
  Q 401.67 205.57 401.74 206.07
  Q 401.88 207.01 402.47 207.61
  Q 402.94 208.08 403.25 207.49
  C 405.75 202.67 392.07 199.94 399.70 209.25
  A 0.73 0.73 0.0 0 1 399.64 210.24
  C 398.12 211.68 396.29 209.60 396.48 207.97
  Q 396.52 207.54 396.17 207.28
  L 395.88 207.06
  Q 395.44 206.74 395.11 207.17
  C 392.59 210.52 400.90 215.21 401.54 209.64
  Q 401.60 209.08 401.27 208.61
  L 398.94 205.37
  Q 398.43 204.66 399.29 204.52"
/>
<path stroke="#82cda4" vector-effect="non-scaling-stroke" d="
  M 406.1360 218.8033
  A 4.72 4.41 128.9 0 0 412.5321 217.8993
  A 4.72 4.41 128.9 0 0 412.0640 211.4567
  A 4.72 4.41 128.9 0 0 405.6679 212.3607
  A 4.72 4.41 128.9 0 0 406.1360 218.8033"
/>
<path stroke="#82cda4" vector-effect="non-scaling-stroke" d="
  M 257.86 167.83
  C 261.71 168.83 261.58 165.00 261.07 162.65
  Q 260.94 162.04 260.32 161.96
  L 257.83 161.66
  Q 257.25 161.59 257.25 162.18
  L 257.25 167.04
  Q 257.25 167.67 257.86 167.83"
/>
<path stroke="#82cda4" vector-effect="non-scaling-stroke" d="
  M 248.26 162.09
  L 245.56 161.79
  Q 244.84 161.71 244.88 162.43
  L 244.94 163.44
  Q 244.97 164.04 245.57 164.18
  Q 247.25 164.55 248.62 163.70
  A 0.87 0.87 0.0 0 0 248.26 162.09"
/>
<path stroke="#82cda4" vector-effect="non-scaling-stroke" d="
  M 234.4609 168.9317
  A 3.23 2.62 85.9 0 0 236.8433 165.5227
  A 3.23 2.62 85.9 0 0 233.9991 162.4883
  A 3.23 2.62 85.9 0 0 231.6167 165.8973
  A 3.23 2.62 85.9 0 0 234.4609 168.9317"
/>
<path stroke="#82cda4" vector-effect="non-scaling-stroke" d="
  M 320.03 169.60
  A 1.16 1.16 0.0 0 0 320.49 171.71
  L 322.44 172.02
  Q 324.56 172.35 323.48 170.49
  Q 322.15 168.19 320.03 169.60"
/>
<path stroke="#82cda4" vector-effect="non-scaling-stroke" d="
  M 331.81 172.29
  A 1.02 1.02 0.0 0 0 331.55 174.08
  C 332.29 174.61 335.02 175.78 335.29 173.98
  Q 335.36 173.53 335.04 173.21
  Q 333.51 171.70 331.81 172.29"
/>
<path stroke="#9299b8" vector-effect="non-scaling-stroke" d="
  M 239.64 180.66
  A 0.32 0.32 0.0 0 1 239.32 180.44
  L 238.70 178.39
  A 0.32 0.32 0.0 0 0 238.08 178.39
  L 237.46 180.44
  A 0.32 0.32 0.0 0 1 237.14 180.66
  L 235.00 180.63
  A 0.32 0.32 0.0 0 0 234.81 181.21
  L 236.57 182.44
  A 0.32 0.32 0.0 0 1 236.69 182.81
  L 235.99 184.83
  A 0.32 0.32 0.0 0 0 236.48 185.19
  L 238.20 183.90
  A 0.32 0.32 0.0 0 1 238.58 183.90
  L 240.30 185.19
  A 0.32 0.32 0.0 0 0 240.79 184.83
  L 240.09 182.81
  A 0.32 0.32 0.0 0 1 240.21 182.44
  L 241.97 181.21
  A 0.32 0.32 0.0 0 0 241.78 180.63
  L 239.64 180.66"
/>
<path stroke="#9299b8" vector-effect="non-scaling-stroke" d="
  M 347.10 196.25
  Q 348.39 196.02 348.52 194.71
  Q 348.57 194.22 348.19 193.92
  Q 347.11 193.05 345.94 194.09
  Q 345.55 194.45 345.81 194.91
  L 346.37 195.91
  A 0.70 0.69 -19.7 0 0 347.10 196.25"
/>
<path stroke="#9299b8" vector-effect="non-scaling-stroke" d="
  M 283.66 204.24
  L 284.41 203.42
  Q 284.88 202.91 284.19 202.86
  L 283.09 202.79
  Q 282.39 202.75 282.49 202.05
  Q 282.55 201.65 282.44 201.30
  Q 282.05 200.08 281.69 201.31
  Q 281.25 202.83 279.75 202.76
  Q 277.99 202.67 279.55 203.49
  Q 280.86 204.17 280.16 205.41
  Q 278.99 207.47 280.55 206.07
  Q 281.78 204.97 282.97 206.09
  Q 283.81 206.89 283.76 205.73
  Q 283.75 205.41 283.57 205.10
  Q 283.30 204.64 283.66 204.24"
/>
<path stroke="#9299b8" vector-effect="non-scaling-stroke" d="
  M 318.33 216.81
  L 318.26 217.33
  Q 318.19 217.89 318.76 217.85
  L 320.61 217.71
  Q 321.12 217.67 321.38 217.23
  Q 322.72 214.95 320.32 213.89
  Q 319.87 213.69 319.48 213.99
  L 318.16 215.00
  Q 317.70 215.35 318.00 215.84
  L 318.21 216.20
  Q 318.38 216.48 318.33 216.81"
/>
<path stroke="#9299b8" vector-effect="non-scaling-stroke" d="
  M 257.72 218.35
  C 258.49 216.81 257.15 216.18 256.16 216.96
  Q 255.77 217.27 255.83 217.76
  Q 255.99 219.00 257.25 218.72
  A 0.73 0.72 6.4 0 0 257.72 218.35"
/>
<path stroke="#9299b8" vector-effect="non-scaling-stroke" d="
  M 248.36 222.43
  A 0.43 0.43 0.0 0 1 247.93 222.12
  L 247.43 220.32
  A 0.43 0.43 0.0 0 0 246.60 220.33
  L 246.12 222.12
  A 0.43 0.43 0.0 0 1 245.69 222.44
  L 243.83 222.36
  A 0.43 0.43 0.0 0 0 243.58 223.15
  L 245.13 224.16
  A 0.43 0.43 0.0 0 1 245.30 224.67
  L 244.65 226.41
  A 0.43 0.43 0.0 0 0 245.32 226.90
  L 246.77 225.73
  A 0.43 0.43 0.0 0 1 247.31 225.73
  L 248.76 226.88
  A 0.43 0.43 0.0 0 0 249.43 226.39
  L 248.76 224.66
  A 0.43 0.43 0.0 0 1 248.93 224.15
  L 250.48 223.12
  A 0.43 0.43 0.0 0 0 250.22 222.33
  L 248.36 222.43"
/>
<path stroke="#9299b8" vector-effect="non-scaling-stroke" d="
  M 333.50 225.42
  L 334.20 224.37
  Q 334.43 224.04 334.06 223.89
  L 332.66 223.33
  Q 332.21 223.15 332.17 222.67
  Q 332.14 222.35 331.95 222.12
  Q 331.44 221.52 331.27 222.29
  Q 330.92 223.83 329.53 223.77
  Q 328.10 223.70 329.17 224.56
  Q 330.22 225.41 329.98 226.76
  Q 329.76 227.99 330.68 227.17
  Q 331.75 226.20 332.84 227.18
  Q 333.34 227.63 333.49 226.98
  Q 333.57 226.61 333.45 226.37
  Q 333.19 225.88 333.50 225.42"
/>
<path stroke="#9299b8" vector-effect="non-scaling-stroke" d="
  M 311.37 225.87
  Q 312.46 223.65 309.96 223.10
  Q 309.47 222.99 309.09 223.33
  L 308.35 223.99
  Q 307.98 224.33 308.05 224.82
  Q 308.38 227.01 310.58 226.49
  Q 311.12 226.37 311.37 225.87"
/>
<path stroke="#9299b8" vector-effect="non-scaling-stroke" d="
  M 236.62 233.11
  L 237.53 232.38
  Q 238.33 231.75 237.31 231.75
  L 236.01 231.75
  Q 235.30 231.75 235.48 231.07
  Q 235.65 230.40 235.19 230.06
  Q 234.49 229.56 234.40 230.41
  Q 234.24 231.91 232.75 231.74
  Q 229.19 231.36 232.44 232.60
  Q 234.22 233.28 232.92 234.69
  Q 231.10 236.67 233.55 235.11
  Q 234.95 234.23 236.27 235.16
  Q 237.20 235.80 236.80 234.75
  L 236.44 233.79
  Q 236.28 233.38 236.62 233.11"
/>
<path stroke="#9299b8" vector-effect="non-scaling-stroke" d="
  M 316.07 231.76
  Q 316.39 230.69 315.27 230.69
  L 314.46 230.69
  Q 314.06 230.69 313.91 231.06
  C 313.13 233.03 315.39 234.01 316.07 231.76"
/>
<path stroke="#9299b8" vector-effect="non-scaling-stroke" d="
  M 391.50 233.51
  A 0.32 0.32 0.0 0 1 391.19 233.29
  L 390.56 231.23
  A 0.32 0.32 0.0 0 0 389.95 231.23
  L 389.30 233.28
  A 0.32 0.32 0.0 0 1 388.99 233.50
  L 386.84 233.46
  A 0.32 0.32 0.0 0 0 386.65 234.04
  L 388.40 235.30
  A 0.32 0.32 0.0 0 1 388.51 235.66
  L 387.81 237.70
  A 0.32 0.32 0.0 0 0 388.31 238.06
  L 390.04 236.78
  A 0.32 0.32 0.0 0 1 390.42 236.78
  L 392.14 238.08
  A 0.32 0.32 0.0 0 0 392.64 237.72
  L 391.96 235.68
  A 0.32 0.32 0.0 0 1 392.08 235.32
  L 393.84 234.08
  A 0.32 0.32 0.0 0 0 393.65 233.50
  L 391.50 233.51"
/>
<path stroke="#9299b8" vector-effect="non-scaling-stroke" d="
  M 266.56 235.31
  Q 266.48 235.44 266.48 235.60
  Q 266.50 236.22 267.01 235.87
  Q 267.94 235.24 268.95 235.62
  Q 269.46 235.81 269.65 235.30
  Q 270.42 233.23 268.74 232.07
  Q 268.29 231.77 267.85 232.08
  L 266.45 233.06
  Q 266.03 233.35 266.29 233.79
  Q 266.60 234.33 266.67 234.90
  Q 266.70 235.12 266.56 235.31"
/>
<path stroke="#9299b8" vector-effect="non-scaling-stroke" d="
  M 404.63 234.25
  Q 404.54 233.84 404.35 233.55
  Q 403.93 232.91 403.67 233.63
  Q 403.22 234.89 401.97 235.00
  Q 400.98 235.09 401.80 235.66
  Q 402.78 236.35 402.42 237.47
  Q 402.04 238.61 402.93 237.91
  Q 404.14 236.94 405.25 238.02
  Q 406.24 238.99 405.64 237.56
  Q 405.13 236.36 406.13 235.67
  Q 406.83 235.20 406.00 235.04
  L 405.28 234.90
  Q 404.74 234.79 404.63 234.25"
/>
<path stroke="#9299b8" vector-effect="non-scaling-stroke" d="
  M 392.33 242.61
  Q 391.89 242.40 391.36 242.53
  Q 390.38 242.78 391.20 243.36
  L 392.33 244.17
  Q 392.79 244.49 392.44 244.93
  Q 392.07 245.40 391.98 246.01
  Q 391.78 247.35 392.70 246.35
  Q 394.17 244.74 395.42 246.33
  Q 396.91 248.23 396.00 245.99
  Q 395.26 244.14 396.97 243.23
  Q 399.61 241.82 396.74 242.53
  Q 394.75 243.02 394.50 240.88
  Q 394.32 239.33 393.74 240.78
  L 393.12 242.30
  Q 392.89 242.89 392.33 242.61"
/>
<path stroke="#9299b8" vector-effect="non-scaling-stroke" d="
  M 318.23 246.22
  L 317.67 247.46
  Q 317.60 247.62 317.77 247.67
  Q 317.91 247.72 318.05 247.76
  Q 318.31 247.84 318.50 247.63
  Q 320.02 245.87 321.70 247.61
  Q 322.77 248.72 322.29 247.25
  L 321.84 245.90
  Q 321.68 245.39 322.08 245.04
  L 323.25 244.01
  Q 323.89 243.45 323.04 243.51
  Q 320.75 243.66 320.38 241.51
  Q 320.17 240.26 319.68 241.43
  L 319.03 242.99
  Q 318.82 243.50 318.27 243.50
  L 316.76 243.50
  Q 315.52 243.50 316.55 244.20
  L 317.92 245.13
  Q 318.53 245.54 318.23 246.22"
/>
<path stroke="#9299b8" vector-effect="non-scaling-stroke" d="
  M 266.63 244.28
  C 266.17 239.98 262.04 242.27 263.59 244.78
  Q 263.81 245.14 264.22 245.20
  L 265.47 245.39
  Q 266.77 245.58 266.63 244.28"
/>
<path stroke="#9299b8" vector-effect="non-scaling-stroke" d="
  M 388.95 254.09
  L 389.48 254.53
  Q 390.50 255.36 390.03 254.13
  Q 389.32 252.25 391.13 251.35
  Q 393.38 250.24 390.73 250.73
  Q 388.74 251.11 388.63 249.15
  Q 388.57 248.11 387.93 248.94
  Q 387.54 249.45 387.47 250.08
  Q 387.40 250.75 386.73 250.75
  L 385.50 250.75
  Q 383.56 250.75 385.32 251.44
  Q 387.20 252.18 386.12 254.03
  Q 385.67 254.80 386.51 254.48
  L 387.96 253.93
  Q 388.50 253.73 388.95 254.09"
/>
<path stroke="#9299b8" vector-effect="non-scaling-stroke" d="
  M 279.50 249.55
  Q 279.20 252.22 276.51 251.72
  Q 272.24 250.92 276.27 252.24
  Q 278.90 253.11 277.50 255.55
  Q 277.35 255.80 277.60 255.95
  C 278.07 256.23 279.22 254.50 281.67 255.76
  A 0.27 0.26 -81.9 0 0 282.05 255.47
  L 281.70 253.84
  Q 281.56 253.19 282.18 252.92
  Q 282.84 252.64 283.32 252.06
  Q 284.03 251.21 282.95 251.46
  Q 280.39 252.06 280.27 249.57
  A 0.39 0.39 0.0 0 0 279.50 249.55"
/>
<path stroke="#9299b8" vector-effect="non-scaling-stroke" d="
  M 370.29 253.11
  Q 370.23 252.93 370.17 252.77
  Q 370.02 252.38 369.71 252.66
  L 368.02 254.15
  Q 367.70 254.44 367.83 254.85
  L 368.35 256.39
  Q 368.44 256.67 368.73 256.67
  L 370.50 256.69
  Q 371.00 256.69 371.17 256.22
  L 371.68 254.75
  Q 371.87 254.20 371.35 253.93
  L 370.69 253.59
  Q 370.40 253.43 370.29 253.11"
/>
<path stroke="#9299b8" vector-effect="non-scaling-stroke" d="
  M 342.40 257.56
  L 342.68 257.72
  Q 342.88 257.84 343.03 257.66
  Q 344.92 255.30 342.75 254.18
  Q 342.31 253.96 341.84 254.10
  Q 339.46 254.85 340.47 257.05
  Q 340.62 257.37 340.92 257.56
  Q 341.58 257.97 342.05 257.58
  Q 342.21 257.45 342.40 257.56"
/>
<path stroke="#9299b8" vector-effect="non-scaling-stroke" d="
  M 381.36 258.00
  C 382.85 255.68 379.84 254.23 378.30 255.91
  Q 378.07 256.16 378.14 256.49
  L 378.59 258.43
  Q 378.65 258.72 378.94 258.67
  L 380.73 258.41
  Q 381.14 258.35 381.36 258.00"
/>
<path stroke="#9299b8" vector-effect="non-scaling-stroke" d="
  M 359.44 256.81
  L 359.11 256.48
  Q 358.80 256.17 358.39 256.32
  Q 355.42 257.36 357.42 259.71
  Q 357.75 260.10 358.26 260.15
  C 359.86 260.32 361.37 257.82 360.30 257.26
  Q 359.44 256.82 359.44 256.81"
/>
<path stroke="#9299b8" vector-effect="non-scaling-stroke" d="
  M 368.53 265.67
  L 367.98 267.24
  Q 367.39 268.94 368.58 267.59
  Q 369.93 266.06 371.41 267.34
  Q 372.89 268.62 372.09 266.96
  Q 371.21 265.14 372.93 264.49
  Q 375.02 263.71 372.75 263.77
  Q 370.78 263.83 370.37 261.89
  Q 370.05 260.39 369.66 262.17
  Q 369.25 264.09 367.26 263.73
  Q 366.32 263.56 366.95 264.28
  Q 367.36 264.75 368.02 264.83
  Q 368.78 264.94 368.53 265.67"
/>
<path stroke="#9299b8" vector-effect="non-scaling-stroke" d="
  M 350.64 269.14
  L 351.18 269.54
  Q 351.86 270.04 351.69 269.21
  Q 351.31 267.31 353.13 266.36
  Q 356.17 264.76 352.75 265.70
  Q 350.72 266.25 350.34 264.44
  Q 349.99 262.76 349.59 264.33
  Q 349.17 265.95 347.50 266.01
  Q 345.61 266.07 347.15 266.86
  Q 348.83 267.72 347.86 269.26
  Q 347.30 270.16 348.27 269.74
  L 349.85 269.05
  Q 350.27 268.87 350.64 269.14"
/>
<path stroke="#9299b8" vector-effect="non-scaling-stroke" d="
  M 371.58 275.43
  Q 371.67 275.26 371.73 275.09
  Q 371.89 274.63 371.59 274.25
  Q 369.88 272.10 368.03 274.19
  Q 367.67 274.60 368.10 274.95
  Q 368.85 275.55 368.25 276.50
  Q 367.23 278.11 368.76 276.98
  Q 369.60 276.36 370.64 276.76
  Q 371.00 276.91 371.27 276.62
  Q 371.48 276.40 371.49 276.23
  Q 371.53 275.52 371.58 275.43"
/>
<path stroke="#9299b8" vector-effect="non-scaling-stroke" d="
  M 321.00 278.03
  A 0.99 0.99 0.0 0 0 320.01 277.04
  A 0.99 0.99 0.0 0 0 319.02 278.03
  A 0.99 0.99 0.0 0 0 320.01 279.02
  A 0.99 0.99 0.0 0 0 321.00 278.03"
/>
<path stroke="#82cda4" vector-effect="non-scaling-stroke" d="
  M 343.8263 182.3606
  A 3.21 2.63 110.3 0 0 347.4066 180.2624
  A 3.21 2.63 110.3 0 0 346.0537 176.3394
  A 3.21 2.63 110.3 0 0 342.4734 178.4376
  A 3.21 2.63 110.3 0 0 343.8263 182.3606"
/>
<path stroke="#82cda4" vector-effect="non-scaling-stroke" d="
  M 367.77 187.11
  L 367.55 187.33
  Q 367.34 187.54 367.53 187.76
  C 368.36 188.68 371.09 190.15 371.45 188.21
  Q 371.54 187.72 371.15 187.40
  C 370.63 186.98 368.47 185.35 368.03 186.69
  Q 367.95 186.93 367.77 187.11"
/>
<path stroke="#82cda4" vector-effect="non-scaling-stroke" d="
  M 406.9531 217.4694
  A 3.19 2.64 132.3 0 0 411.0526 216.8868
  A 3.19 2.64 132.3 0 0 411.2469 212.7506
  A 3.19 2.64 132.3 0 0 407.1474 213.3332
  A 3.19 2.64 132.3 0 0 406.9531 217.4694"
/>
</g>
<path fill="#049b49" d="
  M 0.00 0.00
  L 640.00 0.00
  L 640.00 400.00
  L 0.00 400.00
  L 0.00 0.00
  Z
  M 83.83 199.90
  A 0.39 0.39 0.0 0 0 83.83 200.56
  L 319.83 351.34
  A 0.39 0.39 0.0 0 0 320.25 351.34
  L 556.21 200.60
  A 0.39 0.39 0.0 0 0 556.21 199.94
  L 320.20 49.17
  A 0.39 0.39 0.0 0 0 319.78 49.17
  L 83.83 199.90
  Z"
/>
<path fill="#fddf00" d="
  M 83.83 199.90
  L 319.78 49.17
  A 0.39 0.39 0.0 0 1 320.20 49.17
  L 556.21 199.94
  A 0.39 0.39 0.0 0 1 556.21 200.60
  L 320.25 351.34
  A 0.39 0.39 0.0 0 1 319.83 351.34
  L 83.83 200.56
  A 0.39 0.39 0.0 0 1 83.83 199.90
  Z
  M 228.31 159.12
  Q 224.78 166.66 222.79 175.00
  C 211.39 221.04 232.95 269.50 276.11 290.17
  C 332.18 317.02 395.77 288.78 415.72 230.35
  Q 418.27 222.32 419.29 214.00
  Q 424.86 169.05 397.02 135.48
  C 349.35 77.99 259.11 91.91 228.31 159.12
  Z"
/>
<path fill="#253370" d="
  M 419.29 214.00
  C 367.63 169.15 295.44 151.21 228.31 159.12
  C 259.11 91.91 349.35 77.99 397.02 135.48
  Q 424.86 169.05 419.29 214.00
  Z
  M 348.85 169.04
  A 0.59 0.59 0.0 0 1 349.07 169.94
  Q 348.49 170.67 348.47 171.60
  Q 348.43 173.73 349.39 171.83
  Q 349.88 170.88 350.86 170.74
  Q 351.30 170.67 351.62 170.99
  L 352.84 172.21
  Q 353.72 173.10 353.38 171.89
  L 352.74 169.68
  Q 352.59 169.16 353.10 168.95
  Q 354.00 168.59 354.50 167.78
  Q 355.06 166.87 354.04 167.17
  Q 351.33 167.95 351.53 165.28
  Q 351.64 163.76 350.72 164.97
  Q 350.02 165.90 349.99 167.07
  Q 349.98 167.52 349.53 167.46
  L 347.65 167.20
  Q 346.63 167.07 347.29 167.85
  Q 347.94 168.62 348.85 169.04
  Z"
/>
<path fill="#ffffff" d="
  M 419.29 214.00
  Q 418.27 222.32 415.72 230.35
  Q 414.78 230.19 414.69 229.80
  C 362.78 182.61 291.86 163.44 222.79 175.00
  Q 224.78 166.66 228.31 159.12
  C 295.44 151.21 367.63 169.15 419.29 214.00
  Z
  M 263.22 165.06
  C 263.86 160.09 259.74 160.27 256.31 160.13
  Q 255.69 160.10 255.70 160.72
  L 255.77 168.47
  Q 255.77 168.85 256.13 168.98
  C 259.67 170.24 262.72 168.96 263.22 165.06
  Z
  M 269.64 167.41
  L 269.78 166.00
  Q 269.84 165.48 270.37 165.48
  C 271.43 165.48 274.53 166.42 274.49 164.76
  Q 274.47 164.12 273.82 164.09
  L 270.30 163.95
  Q 269.65 163.92 269.74 163.29
  L 269.84 162.58
  Q 269.92 162.01 270.49 162.00
  C 271.34 162.00 274.98 162.41 275.02 161.31
  Q 275.05 160.61 274.34 160.58
  L 268.63 160.37
  Q 268.06 160.35 268.05 160.93
  L 267.90 168.90
  Q 267.89 169.41 268.40 169.44
  L 274.20 169.80
  Q 274.77 169.83 274.75 169.26
  Q 274.74 169.04 274.75 168.78
  Q 274.77 168.15 274.14 168.12
  L 270.10 167.94
  Q 269.59 167.92 269.64 167.41
  Z
  M 248.94 160.50
  L 243.70 160.50
  Q 243.02 160.50 243.06 161.18
  C 243.13 162.57 242.71 170.44 244.83 169.55
  Q 245.33 169.34 245.25 168.80
  L 244.94 166.72
  Q 244.86 166.18 245.32 165.89
  C 247.64 164.42 248.37 170.56 251.00 169.37
  Q 251.62 169.09 251.18 168.58
  L 248.93 165.98
  Q 248.46 165.44 249.10 165.10
  Q 251.61 163.81 249.86 161.01
  Q 249.54 160.50 248.94 160.50
  Z
  M 238.80 165.69
  A 4.58 4.58 0.0 0 0 234.22 161.11
  A 4.58 4.58 0.0 0 0 229.64 165.69
  A 4.58 4.58 0.0 0 0 234.22 170.27
  A 4.58 4.58 0.0 0 0 238.80 165.69
  Z
  M 281.78 164.75
  L 282.74 169.73
  Q 282.82 170.12 283.16 170.32
  C 284.81 171.27 286.15 165.65 286.49 164.86
  Q 287.23 163.16 287.02 165.00
  L 286.43 170.27
  A 0.67 0.66 77.3 0 0 287.44 170.91
  C 288.30 170.37 288.65 163.79 288.73 162.47
  Q 288.78 161.75 288.06 161.75
  L 286.59 161.75
  Q 286.07 161.75 285.90 162.25
  L 284.30 166.89
  Q 283.78 168.39 283.57 166.82
  L 282.93 161.89
  Q 282.86 161.36 282.33 161.25
  L 280.80 160.95
  Q 280.15 160.82 280.08 161.47
  L 279.25 169.76
  A 0.64 0.63 74.1 0 0 280.27 170.33
  C 281.75 169.17 280.54 166.49 281.40 164.70
  Q 281.66 164.15 281.78 164.75
  Z
  M 301.03 163.49
  A 0.29 0.29 0.0 0 0 300.70 163.73
  L 299.30 172.13
  A 0.29 0.29 0.0 0 0 299.54 172.47
  L 305.92 173.54
  A 0.29 0.29 0.0 0 0 306.26 173.25
  L 306.25 172.37
  A 0.29 0.29 0.0 0 0 306.02 172.09
  L 301.37 171.20
  A 0.29 0.29 0.0 0 1 301.14 170.86
  L 301.49 169.12
  A 0.29 0.29 0.0 0 1 301.80 168.89
  L 305.91 169.31
  A 0.29 0.29 0.0 0 0 306.15 169.22
  L 306.81 168.56
  A 0.29 0.29 0.0 0 0 306.65 168.07
  L 302.24 167.36
  A 0.29 0.29 0.0 0 1 302.00 167.07
  L 302.00 165.46
  A 0.29 0.29 0.0 0 1 302.34 165.18
  L 306.91 166.05
  A 0.29 0.29 0.0 0 0 307.25 165.77
  L 307.25 164.68
  A 0.29 0.29 0.0 0 0 307.00 164.39
  L 301.03 163.49
  Z
  M 319.11 167.24
  L 317.05 175.14
  Q 316.91 175.68 317.40 175.94
  L 318.03 176.28
  Q 318.86 176.72 318.92 175.78
  L 319.04 173.87
  Q 319.13 172.42 320.46 173.01
  Q 323.97 174.59 325.20 171.14
  A 2.27 2.27 0.0 0 0 323.64 168.18
  L 319.41 167.06
  A 0.25 0.25 0.0 0 0 319.11 167.24
  Z
  M 334.74 176.27
  Q 337.61 175.76 336.90 172.60
  Q 336.78 172.08 336.28 171.90
  L 331.27 170.08
  Q 330.62 169.85 330.43 170.51
  L 328.20 178.24
  A 0.74 0.74 0.0 0 0 329.45 178.95
  Q 330.33 178.01 330.38 176.60
  Q 330.40 176.12 330.82 175.88
  C 333.45 174.38 332.44 181.18 335.26 180.74
  Q 335.81 180.65 335.62 180.13
  L 334.39 176.87
  Q 334.20 176.36 334.74 176.27
  Z
  M 343.3025 183.8068
  A 4.72 4.42 110.3 0 0 349.0855 180.9135
  A 4.72 4.42 110.3 0 0 346.5775 174.9532
  A 4.72 4.42 110.3 0 0 340.7945 177.8465
  A 4.72 4.42 110.3 0 0 343.3025 183.8068
  Z
  M 357.19 181.07
  C 359.72 180.65 359.80 184.22 361.32 183.72
  A 0.86 0.85 67.2 0 0 361.81 182.51
  C 359.29 177.71 352.78 178.99 352.80 184.49
  C 352.81 187.85 356.02 189.40 359.04 188.93
  Q 359.57 188.85 359.79 188.36
  L 360.81 186.06
  Q 361.05 185.51 360.50 185.27
  L 357.90 184.13
  Q 357.43 183.92 357.22 184.39
  L 357.10 184.65
  Q 356.81 185.27 357.44 185.55
  L 358.73 186.11
  Q 359.67 186.51 358.78 187.02
  C 354.26 189.56 352.90 181.78 357.19 181.07
  Z
  M 370.41 190.77
  Q 372.96 190.75 373.25 188.17
  Q 373.39 186.82 372.20 186.19
  L 368.10 184.02
  Q 367.49 183.69 367.18 184.32
  L 363.74 191.55
  Q 363.49 192.08 364.04 192.29
  L 364.58 192.49
  Q 365.16 192.70 365.38 192.13
  L 366.17 190.10
  Q 366.31 189.72 366.71 189.62
  C 368.64 189.12 368.67 192.83 368.82 194.02
  Q 368.89 194.54 369.35 194.78
  L 370.13 195.20
  Q 371.08 195.71 370.83 194.66
  L 370.03 191.25
  Q 369.92 190.78 370.41 190.77
  Z
  M 378.48 190.06
  L 374.57 197.01
  Q 374.33 197.44 374.76 197.68
  L 379.95 200.59
  A 0.66 0.65 31.4 0 0 380.80 200.39
  C 381.60 199.21 377.80 197.72 376.99 197.13
  Q 376.51 196.78 376.86 196.30
  L 377.61 195.25
  Q 377.99 194.71 378.56 195.06
  L 381.39 196.83
  Q 381.98 197.20 382.23 196.55
  Q 382.28 196.43 382.34 196.31
  Q 382.68 195.63 381.99 195.30
  L 379.09 193.90
  Q 378.52 193.63 378.73 193.04
  L 379.07 192.07
  Q 379.32 191.35 379.95 191.76
  C 380.68 192.23 383.90 194.74 384.44 193.36
  Q 384.66 192.81 384.14 192.52
  L 379.33 189.82
  A 0.62 0.62 0.0 0 0 378.48 190.06
  Z
  M 389.41 198.00
  C 392.75 197.55 391.35 200.94 393.18 200.98
  Q 393.68 200.99 393.67 200.49
  C 393.66 196.47 387.75 194.70 387.46 198.14
  C 387.31 199.94 389.21 201.66 390.29 203.07
  A 0.54 0.54 0.0 0 1 389.97 203.92
  Q 386.58 204.61 386.75 201.20
  Q 386.77 200.86 386.43 200.80
  L 385.77 200.69
  Q 385.40 200.63 385.20 200.95
  C 383.47 203.66 388.29 206.14 390.49 205.49
  Q 390.96 205.35 391.24 204.93
  C 393.14 202.08 390.34 200.61 389.06 198.78
  Q 388.59 198.10 389.41 198.00
  Z
  M 399.29 204.52
  Q 400.56 204.33 401.33 205.19
  Q 401.67 205.57 401.74 206.07
  Q 401.88 207.01 402.47 207.61
  Q 402.94 208.08 403.25 207.49
  C 405.75 202.67 392.07 199.94 399.70 209.25
  A 0.73 0.73 0.0 0 1 399.64 210.24
  C 398.12 211.68 396.29 209.60 396.48 207.97
  Q 396.52 207.54 396.17 207.28
  L 395.88 207.06
  Q 395.44 206.74 395.11 207.17
  C 392.59 210.52 400.90 215.21 401.54 209.64
  Q 401.60 209.08 401.27 208.61
  L 398.94 205.37
  Q 398.43 204.66 399.29 204.52
  Z
  M 406.1360 218.8033
  A 4.72 4.41 128.9 0 0 412.5321 217.8993
  A 4.72 4.41 128.9 0 0 412.0640 211.4567
  A 4.72 4.41 128.9 0 0 405.6679 212.3607
  A 4.72 4.41 128.9 0 0 406.1360 218.8033
  Z"
/>
<path fill="#049b49" d="
  M 263.22 165.06
  C 262.72 168.96 259.67 170.24 256.13 168.98
  Q 255.77 168.85 255.77 168.47
  L 255.70 160.72
  Q 255.69 160.10 256.31 160.13
  C 259.74 160.27 263.86 160.09 263.22 165.06
  Z
  M 257.86 167.83
  C 261.71 168.83 261.58 165.00 261.07 162.65
  Q 260.94 162.04 260.32 161.96
  L 257.83 161.66
  Q 257.25 161.59 257.25 162.18
  L 257.25 167.04
  Q 257.25 167.67 257.86 167.83
  Z"
/>
<path fill="#049b49" d="
  M 270.10 167.94
  L 274.14 168.12
  Q 274.77 168.15 274.75 168.78
  Q 274.74 169.04 274.75 169.26
  Q 274.77 169.83 274.20 169.80
  L 268.40 169.44
  Q 267.89 169.41 267.90 168.90
  L 268.05 160.93
  Q 268.06 160.35 268.63 160.37
  L 274.34 160.58
  Q 275.05 160.61 275.02 161.31
  C 274.98 162.41 271.34 162.00 270.49 162.00
  Q 269.92 162.01 269.84 162.58
  L 269.74 163.29
  Q 269.65 163.92 270.30 163.95
  L 273.82 164.09
  Q 274.47 164.12 274.49 164.76
  C 274.53 166.42 271.43 165.48 270.37 165.48
  Q 269.84 165.48 269.78 166.00
  L 269.64 167.41
  Q 269.59 167.92 270.10 167.94
  Z"
/>
<path fill="#049b49" d="
  M 249.86 161.01
  Q 251.61 163.81 249.10 165.10
  Q 248.46 165.44 248.93 165.98
  L 251.18 168.58
  Q 251.62 169.09 251.00 169.37
  C 248.37 170.56 247.64 164.42 245.32 165.89
  Q 244.86 166.18 244.94 166.72
  L 245.25 168.80
  Q 245.33 169.34 244.83 169.55
  C 242.71 170.44 243.13 162.57 243.06 161.18
  Q 243.02 160.50 243.70 160.50
  L 248.94 160.50
  Q 249.54 160.50 249.86 161.01
  Z
  M 248.26 162.09
  L 245.56 161.79
  Q 244.84 161.71 244.88 162.43
  L 244.94 163.44
  Q 244.97 164.04 245.57 164.18
  Q 247.25 164.55 248.62 163.70
  A 0.87 0.87 0.0 0 0 248.26 162.09
  Z"
/>
<path fill="#049b49" d="
  M 238.80 165.69
  A 4.58 4.58 0.0 0 1 234.22 170.27
  A 4.58 4.58 0.0 0 1 229.64 165.69
  A 4.58 4.58 0.0 0 1 234.22 161.11
  A 4.58 4.58 0.0 0 1 238.80 165.69
  Z
  M 234.4609 168.9317
  A 3.23 2.62 85.9 0 0 236.8433 165.5227
  A 3.23 2.62 85.9 0 0 233.9991 162.4883
  A 3.23 2.62 85.9 0 0 231.6167 165.8973
  A 3.23 2.62 85.9 0 0 234.4609 168.9317
  Z"
/>
<path fill="#049b49" d="
  M 281.40 164.70
  C 280.54 166.49 281.75 169.17 280.27 170.33
  A 0.64 0.63 74.1 0 1 279.25 169.76
  L 280.08 161.47
  Q 280.15 160.82 280.80 160.95
  L 282.33 161.25
  Q 282.86 161.36 282.93 161.89
  L 283.57 166.82
  Q 283.78 168.39 284.30 166.89
  L 285.90 162.25
  Q 286.07 161.75 286.59 161.75
  L 288.06 161.75
  Q 288.78 161.75 288.73 162.47
  C 288.65 163.79 288.30 170.37 287.44 170.91
  A 0.67 0.66 77.3 0 1 286.43 170.27
  L 287.02 165.00
  Q 287.23 163.16 286.49 164.86
  C 286.15 165.65 284.81 171.27 283.16 170.32
  Q 282.82 170.12 282.74 169.73
  L 281.78 164.75
  Q 281.66 164.15 281.40 164.70
  Z"
/>
<path fill="#ffffff" d="
  M 248.26 162.09
  A 0.87 0.87 0.0 0 1 248.62 163.70
  Q 247.25 164.55 245.57 164.18
  Q 244.97 164.04 244.94 163.44
  L 244.88 162.43
  Q 244.84 161.71 245.56 161.79
  L 248.26 162.09
  Z"
/>
<path fill="#ffffff" d="
  M 261.07 162.65
  C 261.58 165.00 261.71 168.83 257.86 167.83
  Q 257.25 167.67 257.25 167.04
  L 257.25 162.18
  Q 257.25 161.59 257.83 161.66
  L 260.32 161.96
  Q 260.94 162.04 261.07 162.65
  Z"
/>
<ellipse fill="#ffffff" cx="0.00" cy="0.00" transform="translate(234.23,165.71) rotate(85.9)" rx="3.23" ry="2.62"/>
<path fill="#049b49" d="
  M 301.03 163.49
  L 307.00 164.39
  A 0.29 0.29 0.0 0 1 307.25 164.68
  L 307.25 165.77
  A 0.29 0.29 0.0 0 1 306.91 166.05
  L 302.34 165.18
  A 0.29 0.29 0.0 0 0 302.00 165.46
  L 302.00 167.07
  A 0.29 0.29 0.0 0 0 302.24 167.36
  L 306.65 168.07
  A 0.29 0.29 0.0 0 1 306.81 168.56
  L 306.15 169.22
  A 0.29 0.29 0.0 0 1 305.91 169.31
  L 301.80 168.89
  A 0.29 0.29 0.0 0 0 301.49 169.12
  L 301.14 170.86
  A 0.29 0.29 0.0 0 0 301.37 171.20
  L 306.02 172.09
  A 0.29 0.29 0.0 0 1 306.25 172.37
  L 306.26 173.25
  A 0.29 0.29 0.0 0 1 305.92 173.54
  L 299.54 172.47
  A 0.29 0.29 0.0 0 1 299.30 172.13
  L 300.70 163.73
  A 0.29 0.29 0.0 0 1 301.03 163.49
  Z"
/>
<path fill="#ffffff" d="
  M 348.85 169.04
  Q 347.94 168.62 347.29 167.85
  Q 346.63 167.07 347.65 167.20
  L 349.53 167.46
  Q 349.98 167.52 349.99 167.07
  Q 350.02 165.90 350.72 164.97
  Q 351.64 163.76 351.53 165.28
  Q 351.33 167.95 354.04 167.17
  Q 355.06 166.87 354.50 167.78
  Q 354.00 168.59 353.10 168.95
  Q 352.59 169.16 352.74 169.68
  L 353.38 171.89
  Q 353.72 173.10 352.84 172.21
  L 351.62 170.99
  Q 351.30 170.67 350.86 170.74
  Q 349.88 170.88 349.39 171.83
  Q 348.43 173.73 348.47 171.60
  Q 348.49 170.67 349.07 169.94
  A 0.59 0.59 0.0 0 0 348.85 169.04
  Z"
/>
<path fill="#049b49" d="
  M 319.11 167.24
  A 0.25 0.25 0.0 0 1 319.41 167.06
  L 323.64 168.18
  A 2.27 2.27 0.0 0 1 325.20 171.14
  Q 323.97 174.59 320.46 173.01
  Q 319.13 172.42 319.04 173.87
  L 318.92 175.78
  Q 318.86 176.72 318.03 176.28
  L 317.40 175.94
  Q 316.91 175.68 317.05 175.14
  L 319.11 167.24
  Z
  M 320.03 169.60
  A 1.16 1.16 0.0 0 0 320.49 171.71
  L 322.44 172.02
  Q 324.56 172.35 323.48 170.49
  Q 322.15 168.19 320.03 169.60
  Z"
/>
<path fill="#ffffff" d="
  M 320.03 169.60
  Q 322.15 168.19 323.48 170.49
  Q 324.56 172.35 322.44 172.02
  L 320.49 171.71
  A 1.16 1.16 0.0 0 1 320.03 169.60
  Z"
/>
<path fill="#049b49" d="
  M 334.39 176.87
  L 335.62 180.13
  Q 335.81 180.65 335.26 180.74
  C 332.44 181.18 333.45 174.38 330.82 175.88
  Q 330.40 176.12 330.38 176.60
  Q 330.33 178.01 329.45 178.95
  A 0.74 0.74 0.0 0 1 328.20 178.24
  L 330.43 170.51
  Q 330.62 169.85 331.27 170.08
  L 336.28 171.90
  Q 336.78 172.08 336.90 172.60
  Q 337.61 175.76 334.74 176.27
  Q 334.20 176.36 334.39 176.87
  Z
  M 331.81 172.29
  A 1.02 1.02 0.0 0 0 331.55 174.08
  C 332.29 174.61 335.02 175.78 335.29 173.98
  Q 335.36 173.53 335.04 173.21
  Q 333.51 171.70 331.81 172.29
  Z"
/>
<path fill="#253370" d="
  M 415.72 230.35
  C 395.77 288.78 332.18 317.02 276.11 290.17
  C 232.95 269.50 211.39 221.04 222.79 175.00
  C 291.86 163.44 362.78 182.61 414.69 229.80
  Q 414.78 230.19 415.72 230.35
  Z
  M 239.64 180.66
  A 0.32 0.32 0.0 0 1 239.32 180.44
  L 238.70 178.39
  A 0.32 0.32 0.0 0 0 238.08 178.39
  L 237.46 180.44
  A 0.32 0.32 0.0 0 1 237.14 180.66
  L 235.00 180.63
  A 0.32 0.32 0.0 0 0 234.81 181.21
  L 236.57 182.44
  A 0.32 0.32 0.0 0 1 236.69 182.81
  L 235.99 184.83
  A 0.32 0.32 0.0 0 0 236.48 185.19
  L 238.20 183.90
  A 0.32 0.32 0.0 0 1 238.58 183.90
  L 240.30 185.19
  A 0.32 0.32 0.0 0 0 240.79 184.83
  L 240.09 182.81
  A 0.32 0.32 0.0 0 1 240.21 182.44
  L 241.97 181.21
  A 0.32 0.32 0.0 0 0 241.78 180.63
  L 239.64 180.66
  Z
  M 347.10 196.25
  Q 348.39 196.02 348.52 194.71
  Q 348.57 194.22 348.19 193.92
  Q 347.11 193.05 345.94 194.09
  Q 345.55 194.45 345.81 194.91
  L 346.37 195.91
  A 0.70 0.69 -19.7 0 0 347.10 196.25
  Z
  M 283.66 204.24
  L 284.41 203.42
  Q 284.88 202.91 284.19 202.86
  L 283.09 202.79
  Q 282.39 202.75 282.49 202.05
  Q 282.55 201.65 282.44 201.30
  Q 282.05 200.08 281.69 201.31
  Q 281.25 202.83 279.75 202.76
  Q 277.99 202.67 279.55 203.49
  Q 280.86 204.17 280.16 205.41
  Q 278.99 207.47 280.55 206.07
  Q 281.78 204.97 282.97 206.09
  Q 283.81 206.89 283.76 205.73
  Q 283.75 205.41 283.57 205.10
  Q 283.30 204.64 283.66 204.24
  Z
  M 318.33 216.81
  L 318.26 217.33
  Q 318.19 217.89 318.76 217.85
  L 320.61 217.71
  Q 321.12 217.67 321.38 217.23
  Q 322.72 214.95 320.32 213.89
  Q 319.87 213.69 319.48 213.99
  L 318.16 215.00
  Q 317.70 215.35 318.00 215.84
  L 318.21 216.20
  Q 318.38 216.48 318.33 216.81
  Z
  M 257.72 218.35
  C 258.49 216.81 257.15 216.18 256.16 216.96
  Q 255.77 217.27 255.83 217.76
  Q 255.99 219.00 257.25 218.72
  A 0.73 0.72 6.4 0 0 257.72 218.35
  Z
  M 248.36 222.43
  A 0.43 0.43 0.0 0 1 247.93 222.12
  L 247.43 220.32
  A 0.43 0.43 0.0 0 0 246.60 220.33
  L 246.12 222.12
  A 0.43 0.43 0.0 0 1 245.69 222.44
  L 243.83 222.36
  A 0.43 0.43 0.0 0 0 243.58 223.15
  L 245.13 224.16
  A 0.43 0.43 0.0 0 1 245.30 224.67
  L 244.65 226.41
  A 0.43 0.43 0.0 0 0 245.32 226.90
  L 246.77 225.73
  A 0.43 0.43 0.0 0 1 247.31 225.73
  L 248.76 226.88
  A 0.43 0.43 0.0 0 0 249.43 226.39
  L 248.76 224.66
  A 0.43 0.43 0.0 0 1 248.93 224.15
  L 250.48 223.12
  A 0.43 0.43 0.0 0 0 250.22 222.33
  L 248.36 222.43
  Z
  M 333.50 225.42
  L 334.20 224.37
  Q 334.43 224.04 334.06 223.89
  L 332.66 223.33
  Q 332.21 223.15 332.17 222.67
  Q 332.14 222.35 331.95 222.12
  Q 331.44 221.52 331.27 222.29
  Q 330.92 223.83 329.53 223.77
  Q 328.10 223.70 329.17 224.56
  Q 330.22 225.41 329.98 226.76
  Q 329.76 227.99 330.68 227.17
  Q 331.75 226.20 332.84 227.18
  Q 333.34 227.63 333.49 226.98
  Q 333.57 226.61 333.45 226.37
  Q 333.19 225.88 333.50 225.42
  Z
  M 311.37 225.87
  Q 312.46 223.65 309.96 223.10
  Q 309.47 222.99 309.09 223.33
  L 308.35 223.99
  Q 307.98 224.33 308.05 224.82
  Q 308.38 227.01 310.58 226.49
  Q 311.12 226.37 311.37 225.87
  Z
  M 236.62 233.11
  L 237.53 232.38
  Q 238.33 231.75 237.31 231.75
  L 236.01 231.75
  Q 235.30 231.75 235.48 231.07
  Q 235.65 230.40 235.19 230.06
  Q 234.49 229.56 234.40 230.41
  Q 234.24 231.91 232.75 231.74
  Q 229.19 231.36 232.44 232.60
  Q 234.22 233.28 232.92 234.69
  Q 231.10 236.67 233.55 235.11
  Q 234.95 234.23 236.27 235.16
  Q 237.20 235.80 236.80 234.75
  L 236.44 233.79
  Q 236.28 233.38 236.62 233.11
  Z
  M 316.07 231.76
  Q 316.39 230.69 315.27 230.69
  L 314.46 230.69
  Q 314.06 230.69 313.91 231.06
  C 313.13 233.03 315.39 234.01 316.07 231.76
  Z
  M 391.50 233.51
  A 0.32 0.32 0.0 0 1 391.19 233.29
  L 390.56 231.23
  A 0.32 0.32 0.0 0 0 389.95 231.23
  L 389.30 233.28
  A 0.32 0.32 0.0 0 1 388.99 233.50
  L 386.84 233.46
  A 0.32 0.32 0.0 0 0 386.65 234.04
  L 388.40 235.30
  A 0.32 0.32 0.0 0 1 388.51 235.66
  L 387.81 237.70
  A 0.32 0.32 0.0 0 0 388.31 238.06
  L 390.04 236.78
  A 0.32 0.32 0.0 0 1 390.42 236.78
  L 392.14 238.08
  A 0.32 0.32 0.0 0 0 392.64 237.72
  L 391.96 235.68
  A 0.32 0.32 0.0 0 1 392.08 235.32
  L 393.84 234.08
  A 0.32 0.32 0.0 0 0 393.65 233.50
  L 391.50 233.51
  Z
  M 266.56 235.31
  Q 266.48 235.44 266.48 235.60
  Q 266.50 236.22 267.01 235.87
  Q 267.94 235.24 268.95 235.62
  Q 269.46 235.81 269.65 235.30
  Q 270.42 233.23 268.74 232.07
  Q 268.29 231.77 267.85 232.08
  L 266.45 233.06
  Q 266.03 233.35 266.29 233.79
  Q 266.60 234.33 266.67 234.90
  Q 266.70 235.12 266.56 235.31
  Z
  M 404.63 234.25
  Q 404.54 233.84 404.35 233.55
  Q 403.93 232.91 403.67 233.63
  Q 403.22 234.89 401.97 235.00
  Q 400.98 235.09 401.80 235.66
  Q 402.78 236.35 402.42 237.47
  Q 402.04 238.61 402.93 237.91
  Q 404.14 236.94 405.25 238.02
  Q 406.24 238.99 405.64 237.56
  Q 405.13 236.36 406.13 235.67
  Q 406.83 235.20 406.00 235.04
  L 405.28 234.90
  Q 404.74 234.79 404.63 234.25
  Z
  M 392.33 242.61
  Q 391.89 242.40 391.36 242.53
  Q 390.38 242.78 391.20 243.36
  L 392.33 244.17
  Q 392.79 244.49 392.44 244.93
  Q 392.07 245.40 391.98 246.01
  Q 391.78 247.35 392.70 246.35
  Q 394.17 244.74 395.42 246.33
  Q 396.91 248.23 396.00 245.99
  Q 395.26 244.14 396.97 243.23
  Q 399.61 241.82 396.74 242.53
  Q 394.75 243.02 394.50 240.88
  Q 394.32 239.33 393.74 240.78
  L 393.12 242.30
  Q 392.89 242.89 392.33 242.61
  Z
  M 318.23 246.22
  L 317.67 247.46
  Q 317.60 247.62 317.77 247.67
  Q 317.91 247.72 318.05 247.76
  Q 318.31 247.84 318.50 247.63
  Q 320.02 245.87 321.70 247.61
  Q 322.77 248.72 322.29 247.25
  L 321.84 245.90
  Q 321.68 245.39 322.08 245.04
  L 323.25 244.01
  Q 323.89 243.45 323.04 243.51
  Q 320.75 243.66 320.38 241.51
  Q 320.17 240.26 319.68 241.43
  L 319.03 242.99
  Q 318.82 243.50 318.27 243.50
  L 316.76 243.50
  Q 315.52 243.50 316.55 244.20
  L 317.92 245.13
  Q 318.53 245.54 318.23 246.22
  Z
  M 266.63 244.28
  C 266.17 239.98 262.04 242.27 263.59 244.78
  Q 263.81 245.14 264.22 245.20
  L 265.47 245.39
  Q 266.77 245.58 266.63 244.28
  Z
  M 388.95 254.09
  L 389.48 254.53
  Q 390.50 255.36 390.03 254.13
  Q 389.32 252.25 391.13 251.35
  Q 393.38 250.24 390.73 250.73
  Q 388.74 251.11 388.63 249.15
  Q 388.57 248.11 387.93 248.94
  Q 387.54 249.45 387.47 250.08
  Q 387.40 250.75 386.73 250.75
  L 385.50 250.75
  Q 383.56 250.75 385.32 251.44
  Q 387.20 252.18 386.12 254.03
  Q 385.67 254.80 386.51 254.48
  L 387.96 253.93
  Q 388.50 253.73 388.95 254.09
  Z
  M 279.50 249.55
  Q 279.20 252.22 276.51 251.72
  Q 272.24 250.92 276.27 252.24
  Q 278.90 253.11 277.50 255.55
  Q 277.35 255.80 277.60 255.95
  C 278.07 256.23 279.22 254.50 281.67 255.76
  A 0.27 0.26 -81.9 0 0 282.05 255.47
  L 281.70 253.84
  Q 281.56 253.19 282.18 252.92
  Q 282.84 252.64 283.32 252.06
  Q 284.03 251.21 282.95 251.46
  Q 280.39 252.06 280.27 249.57
  A 0.39 0.39 0.0 0 0 279.50 249.55
  Z
  M 370.29 253.11
  Q 370.23 252.93 370.17 252.77
  Q 370.02 252.38 369.71 252.66
  L 368.02 254.15
  Q 367.70 254.44 367.83 254.85
  L 368.35 256.39
  Q 368.44 256.67 368.73 256.67
  L 370.50 256.69
  Q 371.00 256.69 371.17 256.22
  L 371.68 254.75
  Q 371.87 254.20 371.35 253.93
  L 370.69 253.59
  Q 370.40 253.43 370.29 253.11
  Z
  M 342.40 257.56
  L 342.68 257.72
  Q 342.88 257.84 343.03 257.66
  Q 344.92 255.30 342.75 254.18
  Q 342.31 253.96 341.84 254.10
  Q 339.46 254.85 340.47 257.05
  Q 340.62 257.37 340.92 257.56
  Q 341.58 257.97 342.05 257.58
  Q 342.21 257.45 342.40 257.56
  Z
  M 381.36 258.00
  C 382.85 255.68 379.84 254.23 378.30 255.91
  Q 378.07 256.16 378.14 256.49
  L 378.59 258.43
  Q 378.65 258.72 378.94 258.67
  L 380.73 258.41
  Q 381.14 258.35 381.36 258.00
  Z
  M 359.44 256.81
  L 359.11 256.48
  Q 358.80 256.17 358.39 256.32
  Q 355.42 257.36 357.42 259.71
  Q 357.75 260.10 358.26 260.15
  C 359.86 260.32 361.37 257.82 360.30 257.26
  Q 359.44 256.82 359.44 256.81
  Z
  M 368.53 265.67
  L 367.98 267.24
  Q 367.39 268.94 368.58 267.59
  Q 369.93 266.06 371.41 267.34
  Q 372.89 268.62 372.09 266.96
  Q 371.21 265.14 372.93 264.49
  Q 375.02 263.71 372.75 263.77
  Q 370.78 263.83 370.37 261.89
  Q 370.05 260.39 369.66 262.17
  Q 369.25 264.09 367.26 263.73
  Q 366.32 263.56 366.95 264.28
  Q 367.36 264.75 368.02 264.83
  Q 368.78 264.94 368.53 265.67
  Z
  M 350.64 269.14
  L 351.18 269.54
  Q 351.86 270.04 351.69 269.21
  Q 351.31 267.31 353.13 266.36
  Q 356.17 264.76 352.75 265.70
  Q 350.72 266.25 350.34 264.44
  Q 349.99 262.76 349.59 264.33
  Q 349.17 265.95 347.50 266.01
  Q 345.61 266.07 347.15 266.86
  Q 348.83 267.72 347.86 269.26
  Q 347.30 270.16 348.27 269.74
  L 349.85 269.05
  Q 350.27 268.87 350.64 269.14
  Z
  M 371.58 275.43
  Q 371.67 275.26 371.73 275.09
  Q 371.89 274.63 371.59 274.25
  Q 369.88 272.10 368.03 274.19
  Q 367.67 274.60 368.10 274.95
  Q 368.85 275.55 368.25 276.50
  Q 367.23 278.11 368.76 276.98
  Q 369.60 276.36 370.64 276.76
  Q 371.00 276.91 371.27 276.62
  Q 371.48 276.40 371.49 276.23
  Q 371.53 275.52 371.58 275.43
  Z
  M 321.00 278.03
  A 0.99 0.99 0.0 0 0 320.01 277.04
  A 0.99 0.99 0.0 0 0 319.02 278.03
  A 0.99 0.99 0.0 0 0 320.01 279.02
  A 0.99 0.99 0.0 0 0 321.00 278.03
  Z"
/>
<path fill="#ffffff" d="
  M 331.81 172.29
  Q 333.51 171.70 335.04 173.21
  Q 335.36 173.53 335.29 173.98
  C 335.02 175.78 332.29 174.61 331.55 174.08
  A 1.02 1.02 0.0 0 1 331.81 172.29
  Z"
/>
<path fill="#049b49" d="
  M 343.3025 183.8068
  A 4.72 4.42 110.3 0 1 340.7945 177.8465
  A 4.72 4.42 110.3 0 1 346.5775 174.9532
  A 4.72 4.42 110.3 0 1 349.0855 180.9135
  A 4.72 4.42 110.3 0 1 343.3025 183.8068
  Z
  M 343.8263 182.3606
  A 3.21 2.63 110.3 0 0 347.4066 180.2624
  A 3.21 2.63 110.3 0 0 346.0537 176.3394
  A 3.21 2.63 110.3 0 0 342.4734 178.4376
  A 3.21 2.63 110.3 0 0 343.8263 182.3606
  Z"
/>
<ellipse fill="#ffffff" cx="0.00" cy="0.00" transform="translate(344.94,179.35) rotate(110.3)" rx="3.21" ry="2.63"/>
<path fill="#ffffff" d="
  M 239.64 180.66
  L 241.78 180.63
  A 0.32 0.32 0.0 0 1 241.97 181.21
  L 240.21 182.44
  A 0.32 0.32 0.0 0 0 240.09 182.81
  L 240.79 184.83
  A 0.32 0.32 0.0 0 1 240.30 185.19
  L 238.58 183.90
  A 0.32 0.32 0.0 0 0 238.20 183.90
  L 236.48 185.19
  A 0.32 0.32 0.0 0 1 235.99 184.83
  L 236.69 182.81
  A 0.32 0.32 0.0 0 0 236.57 182.44
  L 234.81 181.21
  A 0.32 0.32 0.0 0 1 235.00 180.63
  L 237.14 180.66
  A 0.32 0.32 0.0 0 0 237.46 180.44
  L 238.08 178.39
  A 0.32 0.32 0.0 0 1 238.70 178.39
  L 239.32 180.44
  A 0.32 0.32 0.0 0 0 239.64 180.66
  Z"
/>
<path fill="#049b49" d="
  M 357.19 181.07
  C 352.90 181.78 354.26 189.56 358.78 187.02
  Q 359.67 186.51 358.73 186.11
  L 357.44 185.55
  Q 356.81 185.27 357.10 184.65
  L 357.22 184.39
  Q 357.43 183.92 357.90 184.13
  L 360.50 185.27
  Q 361.05 185.51 360.81 186.06
  L 359.79 188.36
  Q 359.57 188.85 359.04 188.93
  C 356.02 189.40 352.81 187.85 352.80 184.49
  C 352.78 178.99 359.29 177.71 361.81 182.51
  A 0.86 0.85 67.2 0 1 361.32 183.72
  C 359.80 184.22 359.72 180.65 357.19 181.07
  Z"
/>
<path fill="#049b49" d="
  M 370.03 191.25
  L 370.83 194.66
  Q 371.08 195.71 370.13 195.20
  L 369.35 194.78
  Q 368.89 194.54 368.82 194.02
  C 368.67 192.83 368.64 189.12 366.71 189.62
  Q 366.31 189.72 366.17 190.10
  L 365.38 192.13
  Q 365.16 192.70 364.58 192.49
  L 364.04 192.29
  Q 363.49 192.08 363.74 191.55
  L 367.18 184.32
  Q 367.49 183.69 368.10 184.02
  L 372.20 186.19
  Q 373.39 186.82 373.25 188.17
  Q 372.96 190.75 370.41 190.77
  Q 369.92 190.78 370.03 191.25
  Z
  M 367.77 187.11
  L 367.55 187.33
  Q 367.34 187.54 367.53 187.76
  C 368.36 188.68 371.09 190.15 371.45 188.21
  Q 371.54 187.72 371.15 187.40
  C 370.63 186.98 368.47 185.35 368.03 186.69
  Q 367.95 186.93 367.77 187.11
  Z"
/>
<path fill="#ffffff" d="
  M 368.03 186.69
  C 368.47 185.35 370.63 186.98 371.15 187.40
  Q 371.54 187.72 371.45 188.21
  C 371.09 190.15 368.36 188.68 367.53 187.76
  Q 367.34 187.54 367.55 187.33
  L 367.77 187.11
  Q 367.95 186.93 368.03 186.69
  Z"
/>
<path fill="#049b49" d="
  M 378.48 190.06
  A 0.62 0.62 0.0 0 1 379.33 189.82
  L 384.14 192.52
  Q 384.66 192.81 384.44 193.36
  C 383.90 194.74 380.68 192.23 379.95 191.76
  Q 379.32 191.35 379.07 192.07
  L 378.73 193.04
  Q 378.52 193.63 379.09 193.90
  L 381.99 195.30
  Q 382.68 195.63 382.34 196.31
  Q 382.28 196.43 382.23 196.55
  Q 381.98 197.20 381.39 196.83
  L 378.56 195.06
  Q 377.99 194.71 377.61 195.25
  L 376.86 196.30
  Q 376.51 196.78 376.99 197.13
  C 377.80 197.72 381.60 199.21 380.80 200.39
  A 0.66 0.65 31.4 0 1 379.95 200.59
  L 374.76 197.68
  Q 374.33 197.44 374.57 197.01
  L 378.48 190.06
  Z"
/>
<path fill="#ffffff" d="
  M 347.10 196.25
  A 0.70 0.69 -19.7 0 1 346.37 195.91
  L 345.81 194.91
  Q 345.55 194.45 345.94 194.09
  Q 347.11 193.05 348.19 193.92
  Q 348.57 194.22 348.52 194.71
  Q 348.39 196.02 347.10 196.25
  Z"
/>
<path fill="#049b49" d="
  M 389.06 198.78
  C 390.34 200.61 393.14 202.08 391.24 204.93
  Q 390.96 205.35 390.49 205.49
  C 388.29 206.14 383.47 203.66 385.20 200.95
  Q 385.40 200.63 385.77 200.69
  L 386.43 200.80
  Q 386.77 200.86 386.75 201.20
  Q 386.58 204.61 389.97 203.92
  A 0.54 0.54 0.0 0 0 390.29 203.07
  C 389.21 201.66 387.31 199.94 387.46 198.14
  C 387.75 194.70 393.66 196.47 393.67 200.49
  Q 393.68 200.99 393.18 200.98
  C 391.35 200.94 392.75 197.55 389.41 198.00
  Q 388.59 198.10 389.06 198.78
  Z"
/>
<path fill="#ffffff" d="
  M 283.57 205.10
  Q 283.75 205.41 283.76 205.73
  Q 283.81 206.89 282.97 206.09
  Q 281.78 204.97 280.55 206.07
  Q 278.99 207.47 280.16 205.41
  Q 280.86 204.17 279.55 203.49
  Q 277.99 202.67 279.75 202.76
  Q 281.25 202.83 281.69 201.31
  Q 282.05 200.08 282.44 201.30
  Q 282.55 201.65 282.49 202.05
  Q 282.39 202.75 283.09 202.79
  L 284.19 202.86
  Q 284.88 202.91 284.41 203.42
  L 283.66 204.24
  Q 283.30 204.64 283.57 205.10
  Z"
/>
<path fill="#049b49" d="
  M 398.94 205.37
  L 401.27 208.61
  Q 401.60 209.08 401.54 209.64
  C 400.90 215.21 392.59 210.52 395.11 207.17
  Q 395.44 206.74 395.88 207.06
  L 396.17 207.28
  Q 396.52 207.54 396.48 207.97
  C 396.29 209.60 398.12 211.68 399.64 210.24
  A 0.73 0.73 0.0 0 0 399.70 209.25
  C 392.07 199.94 405.75 202.67 403.25 207.49
  Q 402.94 208.08 402.47 207.61
  Q 401.88 207.01 401.74 206.07
  Q 401.67 205.57 401.33 205.19
  Q 400.56 204.33 399.29 204.52
  Q 398.43 204.66 398.94 205.37
  Z"
/>
<path fill="#049b49" d="
  M 406.1360 218.8033
  A 4.72 4.41 128.9 0 1 405.6679 212.3607
  A 4.72 4.41 128.9 0 1 412.0640 211.4567
  A 4.72 4.41 128.9 0 1 412.5321 217.8993
  A 4.72 4.41 128.9 0 1 406.1360 218.8033
  Z
  M 406.9531 217.4694
  A 3.19 2.64 132.3 0 0 411.0526 216.8868
  A 3.19 2.64 132.3 0 0 411.2469 212.7506
  A 3.19 2.64 132.3 0 0 407.1474 213.3332
  A 3.19 2.64 132.3 0 0 406.9531 217.4694
  Z"
/>
<ellipse fill="#ffffff" cx="0.00" cy="0.00" transform="translate(409.10,215.11) rotate(132.3)" rx="3.19" ry="2.64"/>
<path fill="#ffffff" d="
  M 318.21 216.20
  L 318.00 215.84
  Q 317.70 215.35 318.16 215.00
  L 319.48 213.99
  Q 319.87 213.69 320.32 213.89
  Q 322.72 214.95 321.38 217.23
  Q 321.12 217.67 320.61 217.71
  L 318.76 217.85
  Q 318.19 217.89 318.26 217.33
  L 318.33 216.81
  Q 318.38 216.48 318.21 216.20
  Z"
/>
<path fill="#ffffff" d="
  M 257.72 218.35
  A 0.73 0.72 6.4 0 1 257.25 218.72
  Q 255.99 219.00 255.83 217.76
  Q 255.77 217.27 256.16 216.96
  C 257.15 216.18 258.49 216.81 257.72 218.35
  Z"
/>
<path fill="#ffffff" d="
  M 248.36 222.43
  L 250.22 222.33
  A 0.43 0.43 0.0 0 1 250.48 223.12
  L 248.93 224.15
  A 0.43 0.43 0.0 0 0 248.76 224.66
  L 249.43 226.39
  A 0.43 0.43 0.0 0 1 248.76 226.88
  L 247.31 225.73
  A 0.43 0.43 0.0 0 0 246.77 225.73
  L 245.32 226.90
  A 0.43 0.43 0.0 0 1 244.65 226.41
  L 245.30 224.67
  A 0.43 0.43 0.0 0 0 245.13 224.16
  L 243.58 223.15
  A 0.43 0.43 0.0 0 1 243.83 222.36
  L 245.69 222.44
  A 0.43 0.43 0.0 0 0 246.12 222.12
  L 246.60 220.33
  A 0.43 0.43 0.0 0 1 247.43 220.32
  L 247.93 222.12
  A 0.43 0.43 0.0 0 0 248.36 222.43
  Z"
/>
<path fill="#ffffff" d="
  M 333.45 226.37
  Q 333.57 226.61 333.49 226.98
  Q 333.34 227.63 332.84 227.18
  Q 331.75 226.20 330.68 227.17
  Q 329.76 227.99 329.98 226.76
  Q 330.22 225.41 329.17 224.56
  Q 328.10 223.70 329.53 223.77
  Q 330.92 223.83 331.27 222.29
  Q 331.44 221.52 331.95 222.12
  Q 332.14 222.35 332.17 222.67
  Q 332.21 223.15 332.66 223.33
  L 334.06 223.89
  Q 334.43 224.04 334.20 224.37
  L 333.50 225.42
  Q 333.19 225.88 333.45 226.37
  Z"
/>
<path fill="#ffffff" d="
  M 311.37 225.87
  Q 311.12 226.37 310.58 226.49
  Q 308.38 227.01 308.05 224.82
  Q 307.98 224.33 308.35 223.99
  L 309.09 223.33
  Q 309.47 222.99 309.96 223.10
  Q 312.46 223.65 311.37 225.87
  Z"
/>
<path fill="#ffffff" d="
  M 236.44 233.79
  L 236.80 234.75
  Q 237.20 235.80 236.27 235.16
  Q 234.95 234.23 233.55 235.11
  Q 231.10 236.67 232.92 234.69
  Q 234.22 233.28 232.44 232.60
  Q 229.19 231.36 232.75 231.74
  Q 234.24 231.91 234.40 230.41
  Q 234.49 229.56 235.19 230.06
  Q 235.65 230.40 235.48 231.07
  Q 235.30 231.75 236.01 231.75
  L 237.31 231.75
  Q 238.33 231.75 237.53 232.38
  L 236.62 233.11
  Q 236.28 233.38 236.44 233.79
  Z"
/>
<path fill="#ffffff" d="
  M 316.07 231.76
  C 315.39 234.01 313.13 233.03 313.91 231.06
  Q 314.06 230.69 314.46 230.69
  L 315.27 230.69
  Q 316.39 230.69 316.07 231.76
  Z"
/>
<path fill="#ffffff" d="
  M 391.50 233.51
  L 393.65 233.50
  A 0.32 0.32 0.0 0 1 393.84 234.08
  L 392.08 235.32
  A 0.32 0.32 0.0 0 0 391.96 235.68
  L 392.64 237.72
  A 0.32 0.32 0.0 0 1 392.14 238.08
  L 390.42 236.78
  A 0.32 0.32 0.0 0 0 390.04 236.78
  L 388.31 238.06
  A 0.32 0.32 0.0 0 1 387.81 237.70
  L 388.51 235.66
  A 0.32 0.32 0.0 0 0 388.40 235.30
  L 386.65 234.04
  A 0.32 0.32 0.0 0 1 386.84 233.46
  L 388.99 233.50
  A 0.32 0.32 0.0 0 0 389.30 233.28
  L 389.95 231.23
  A 0.32 0.32 0.0 0 1 390.56 231.23
  L 391.19 233.29
  A 0.32 0.32 0.0 0 0 391.50 233.51
  Z"
/>
<path fill="#ffffff" d="
  M 266.67 234.90
  Q 266.60 234.33 266.29 233.79
  Q 266.03 233.35 266.45 233.06
  L 267.85 232.08
  Q 268.29 231.77 268.74 232.07
  Q 270.42 233.23 269.65 235.30
  Q 269.46 235.81 268.95 235.62
  Q 267.94 235.24 267.01 235.87
  Q 266.50 236.22 266.48 235.60
  Q 266.48 235.44 266.56 235.31
  Q 266.70 235.12 266.67 234.90
  Z"
/>
<path fill="#ffffff" d="
  M 405.28 234.90
  L 406.00 235.04
  Q 406.83 235.20 406.13 235.67
  Q 405.13 236.36 405.64 237.56
  Q 406.24 238.99 405.25 238.02
  Q 404.14 236.94 402.93 237.91
  Q 402.04 238.61 402.42 237.47
  Q 402.78 236.35 401.80 235.66
  Q 400.98 235.09 401.97 235.00
  Q 403.22 234.89 403.67 233.63
  Q 403.93 232.91 404.35 233.55
  Q 404.54 233.84 404.63 234.25
  Q 404.74 234.79 405.28 234.90
  Z"
/>
<path fill="#ffffff" d="
  M 393.12 242.30
  L 393.74 240.78
  Q 394.32 239.33 394.50 240.88
  Q 394.75 243.02 396.74 242.53
  Q 399.61 241.82 396.97 243.23
  Q 395.26 244.14 396.00 245.99
  Q 396.91 248.23 395.42 246.33
  Q 394.17 244.74 392.70 246.35
  Q 391.78 247.35 391.98 246.01
  Q 392.07 245.40 392.44 244.93
  Q 392.79 244.49 392.33 244.17
  L 391.20 243.36
  Q 390.38 242.78 391.36 242.53
  Q 391.89 242.40 392.33 242.61
  Q 392.89 242.89 393.12 242.30
  Z"
/>
<path fill="#ffffff" d="
  M 317.92 245.13
  L 316.55 244.20
  Q 315.52 243.50 316.76 243.50
  L 318.27 243.50
  Q 318.82 243.50 319.03 242.99
  L 319.68 241.43
  Q 320.17 240.26 320.38 241.51
  Q 320.75 243.66 323.04 243.51
  Q 323.89 243.45 323.25 244.01
  L 322.08 245.04
  Q 321.68 245.39 321.84 245.90
  L 322.29 247.25
  Q 322.77 248.72 321.70 247.61
  Q 320.02 245.87 318.50 247.63
  Q 318.31 247.84 318.05 247.76
  Q 317.91 247.72 317.77 247.67
  Q 317.60 247.62 317.67 247.46
  L 318.23 246.22
  Q 318.53 245.54 317.92 245.13
  Z"
/>
<path fill="#ffffff" d="
  M 266.63 244.28
  Q 266.77 245.58 265.47 245.39
  L 264.22 245.20
  Q 263.81 245.14 263.59 244.78
  C 262.04 242.27 266.17 239.98 266.63 244.28
  Z"
/>
<path fill="#ffffff" d="
  M 387.96 253.93
  L 386.51 254.48
  Q 385.67 254.80 386.12 254.03
  Q 387.20 252.18 385.32 251.44
  Q 383.56 250.75 385.50 250.75
  L 386.73 250.75
  Q 387.40 250.75 387.47 250.08
  Q 387.54 249.45 387.93 248.94
  Q 388.57 248.11 388.63 249.15
  Q 388.74 251.11 390.73 250.73
  Q 393.38 250.24 391.13 251.35
  Q 389.32 252.25 390.03 254.13
  Q 390.50 255.36 389.48 254.53
  L 388.95 254.09
  Q 388.50 253.73 387.96 253.93
  Z"
/>
<path fill="#ffffff" d="
  M 279.50 249.55
  A 0.39 0.39 0.0 0 1 280.27 249.57
  Q 280.39 252.06 282.95 251.46
  Q 284.03 251.21 283.32 252.06
  Q 282.84 252.64 282.18 252.92
  Q 281.56 253.19 281.70 253.84
  L 282.05 255.47
  A 0.27 0.26 -81.9 0 1 281.67 255.76
  C 279.22 254.50 278.07 256.23 277.60 255.95
  Q 277.35 255.80 277.50 255.55
  Q 278.90 253.11 276.27 252.24
  Q 272.24 250.92 276.51 251.72
  Q 279.20 252.22 279.50 249.55
  Z"
/>
<path fill="#ffffff" d="
  M 370.69 253.59
  L 371.35 253.93
  Q 371.87 254.20 371.68 254.75
  L 371.17 256.22
  Q 371.00 256.69 370.50 256.69
  L 368.73 256.67
  Q 368.44 256.67 368.35 256.39
  L 367.83 254.85
  Q 367.70 254.44 368.02 254.15
  L 369.71 252.66
  Q 370.02 252.38 370.17 252.77
  Q 370.23 252.93 370.29 253.11
  Q 370.40 253.43 370.69 253.59
  Z"
/>
<path fill="#ffffff" d="
  M 342.05 257.58
  Q 341.58 257.97 340.92 257.56
  Q 340.62 257.37 340.47 257.05
  Q 339.46 254.85 341.84 254.10
  Q 342.31 253.96 342.75 254.18
  Q 344.92 255.30 343.03 257.66
  Q 342.88 257.84 342.68 257.72
  L 342.40 257.56
  Q 342.21 257.45 342.05 257.58
  Z"
/>
<path fill="#ffffff" d="
  M 378.30 255.91
  C 379.84 254.23 382.85 255.68 381.36 258.00
  Q 381.14 258.35 380.73 258.41
  L 378.94 258.67
  Q 378.65 258.72 378.59 258.43
  L 378.14 256.49
  Q 378.07 256.16 378.30 255.91
  Z"
/>
<path fill="#ffffff" d="
  M 360.30 257.26
  C 361.37 257.82 359.86 260.32 358.26 260.15
  Q 357.75 260.10 357.42 259.71
  Q 355.42 257.36 358.39 256.32
  Q 358.80 256.17 359.11 256.48
  L 359.44 256.81
  Q 359.44 256.82 360.30 257.26
  Z"
/>
<path fill="#ffffff" d="
  M 368.02 264.83
  Q 367.36 264.75 366.95 264.28
  Q 366.32 263.56 367.26 263.73
  Q 369.25 264.09 369.66 262.17
  Q 370.05 260.39 370.37 261.89
  Q 370.78 263.83 372.75 263.77
  Q 375.02 263.71 372.93 264.49
  Q 371.21 265.14 372.09 266.96
  Q 372.89 268.62 371.41 267.34
  Q 369.93 266.06 368.58 267.59
  Q 367.39 268.94 367.98 267.24
  L 368.53 265.67
  Q 368.78 264.94 368.02 264.83
  Z"
/>
<path fill="#ffffff" d="
  M 349.85 269.05
  L 348.27 269.74
  Q 347.30 270.16 347.86 269.26
  Q 348.83 267.72 347.15 266.86
  Q 345.61 266.07 347.50 266.01
  Q 349.17 265.95 349.59 264.33
  Q 349.99 262.76 350.34 264.44
  Q 350.72 266.25 352.75 265.70
  Q 356.17 264.76 353.13 266.36
  Q 351.31 267.31 351.69 269.21
  Q 351.86 270.04 351.18 269.54
  L 350.64 269.14
  Q 350.27 268.87 349.85 269.05
  Z"
/>
<path fill="#ffffff" d="
  M 371.49 276.23
  Q 371.48 276.40 371.27 276.62
  Q 371.00 276.91 370.64 276.76
  Q 369.60 276.36 368.76 276.98
  Q 367.23 278.11 368.25 276.50
  Q 368.85 275.55 368.10 274.95
  Q 367.67 274.60 368.03 274.19
  Q 369.88 272.10 371.59 274.25
  Q 371.89 274.63 371.73 275.09
  Q 371.67 275.26 371.58 275.43
  Q 371.53 275.52 371.49 276.23
  Z"
/>
<circle fill="#ffffff" cx="320.01" cy="278.03" r="0.99"/>
</svg>
