<?xml version="1.0" encoding="UTF-8" standalone="no"?>
<!DOCTYPE svg PUBLIC "-//W3C//DTD SVG 1.1//EN" "http://www.w3.org/Graphics/SVG/1.1/DTD/svg11.dtd">
<svg xmlns="http://www.w3.org/2000/svg" version="1.1" viewBox="0 0 640 418">
<g stroke-width="2.00" fill="none" stroke-linecap="butt">
<path stroke="#7f426e" vector-effect="non-scaling-stroke" d="
  M 298.56 0.00
  L 298.54 32.75"
/>
<path stroke="#9aa5c1" vector-effect="non-scaling-stroke" d="
  M 298.54 32.75
  L 298.54 64.25"
/>
<path stroke="#7f426e" vector-effect="non-scaling-stroke" d="
  M 298.54 64.25
  L 298.54 97.00"
/>
<path stroke="#9aa5c1" vector-effect="non-scaling-stroke" d="
  M 298.54 97.00
  L 298.75 128.54"
/>
<path stroke="#7f426e" vector-effect="non-scaling-stroke" d="
  M 298.75 128.54
  L 298.54 161.00"
/>
<path stroke="#9aa5c1" vector-effect="non-scaling-stroke" d="
  M 298.54 161.00
  L 298.54 192.75"
/>
<path stroke="#7f426e" vector-effect="non-scaling-stroke" d="
  M 298.54 192.75
  L 298.50 225.21"
/>
<path stroke="#9aa5c1" vector-effect="non-scaling-stroke" d="
  M 298.50 225.21
  L 0.00 225.22"
/>
<path stroke="#9aa5c1" vector-effect="non-scaling-stroke" d="
  M 28.08 22.14
  A 0.33 0.33 0.0 0 1 27.75 21.90
  L 25.62 14.21
  A 0.33 0.33 0.0 0 0 24.98 14.21
  L 22.85 21.90
  A 0.33 0.33 0.0 0 1 22.52 22.14
  L 14.55 21.79
  A 0.33 0.33 0.0 0 0 14.35 22.40
  L 21.00 26.80
  A 0.33 0.33 0.0 0 1 21.13 27.19
  L 18.34 34.66
  A 0.33 0.33 0.0 0 0 18.85 35.03
  L 25.09 30.07
  A 0.33 0.33 0.0 0 1 25.51 30.07
  L 31.75 35.03
  A 0.33 0.33 0.0 0 0 32.26 34.66
  L 29.47 27.19
  A 0.33 0.33 0.0 0 1 29.60 26.80
  L 36.25 22.40
  A 0.33 0.33 0.0 0 0 36.05 21.79
  L 28.08 22.14"
/>
<path stroke="#9aa5c1" vector-effect="non-scaling-stroke" d="
  M 77.30 22.17
  A 0.32 0.32 0.0 0 1 76.98 21.94
  L 74.84 14.30
  A 0.32 0.32 0.0 0 0 74.22 14.30
  L 72.08 21.94
  A 0.32 0.32 0.0 0 1 71.76 22.17
  L 63.83 21.85
  A 0.32 0.32 0.0 0 0 63.64 22.43
  L 70.24 26.84
  A 0.32 0.32 0.0 0 1 70.36 27.21
  L 67.61 34.65
  A 0.32 0.32 0.0 0 0 68.11 35.02
  L 74.33 30.10
  A 0.32 0.32 0.0 0 1 74.73 30.10
  L 80.95 35.02
  A 0.32 0.32 0.0 0 0 81.45 34.65
  L 78.70 27.21
  A 0.32 0.32 0.0 0 1 78.82 26.84
  L 85.42 22.43
  A 0.32 0.32 0.0 0 0 85.23 21.85
  L 77.30 22.17"
/>
<path stroke="#9aa5c1" vector-effect="non-scaling-stroke" d="
  M 175.82 22.14
  A 0.39 0.39 0.0 0 1 175.42 21.85
  L 173.36 14.38
  A 0.39 0.39 0.0 0 0 172.60 14.38
  L 170.54 21.85
  A 0.39 0.39 0.0 0 1 170.14 22.14
  L 162.39 21.80
  A 0.39 0.39 0.0 0 0 162.16 22.51
  L 168.63 26.79
  A 0.39 0.39 0.0 0 1 168.78 27.25
  L 166.06 34.51
  A 0.39 0.39 0.0 0 0 166.67 34.95
  L 172.74 30.12
  A 0.39 0.39 0.0 0 1 173.22 30.12
  L 179.29 34.95
  A 0.39 0.39 0.0 0 0 179.90 34.51
  L 177.18 27.25
  A 0.39 0.39 0.0 0 1 177.33 26.79
  L 183.80 22.51
  A 0.39 0.39 0.0 0 0 183.57 21.80
  L 175.82 22.14"
/>
<path stroke="#9aa5c1" vector-effect="non-scaling-stroke" d="
  M 225.00 22.14
  A 0.32 0.32 0.0 0 1 224.68 21.91
  L 222.55 14.19
  A 0.32 0.32 0.0 0 0 221.93 14.19
  L 219.77 21.90
  A 0.32 0.32 0.0 0 1 219.45 22.13
  L 211.45 21.78
  A 0.32 0.32 0.0 0 0 211.26 22.36
  L 217.93 26.80
  A 0.32 0.32 0.0 0 1 218.05 27.18
  L 215.24 34.67
  A 0.32 0.32 0.0 0 0 215.73 35.04
  L 222.01 30.07
  A 0.32 0.32 0.0 0 1 222.41 30.07
  L 228.67 35.06
  A 0.32 0.32 0.0 0 0 229.17 34.70
  L 226.39 27.19
  A 0.32 0.32 0.0 0 1 226.51 26.81
  L 233.19 22.40
  A 0.32 0.32 0.0 0 0 233.00 21.81
  L 225.00 22.14"
/>
<path stroke="#9aa5c1" vector-effect="non-scaling-stroke" d="
  M 126.52 22.19
  A 0.33 0.33 0.0 0 1 126.19 21.95
  L 124.08 14.30
  A 0.33 0.33 0.0 0 0 123.44 14.30
  L 121.33 21.95
  A 0.33 0.33 0.0 0 1 121.00 22.19
  L 113.08 21.83
  A 0.33 0.33 0.0 0 0 112.88 22.44
  L 119.50 26.81
  A 0.33 0.33 0.0 0 1 119.63 27.20
  L 116.84 34.63
  A 0.33 0.33 0.0 0 0 117.35 35.00
  L 123.55 30.05
  A 0.33 0.33 0.0 0 1 123.97 30.05
  L 130.17 35.00
  A 0.33 0.33 0.0 0 0 130.68 34.63
  L 127.89 27.20
  A 0.33 0.33 0.0 0 1 128.02 26.81
  L 134.64 22.44
  A 0.33 0.33 0.0 0 0 134.44 21.83
  L 126.52 22.19"
/>
<path stroke="#9aa5c1" vector-effect="non-scaling-stroke" d="
  M 274.21 22.23
  A 0.34 0.34 0.0 0 1 273.87 21.98
  L 271.79 14.28
  A 0.34 0.34 0.0 0 0 271.13 14.28
  L 269.05 21.98
  A 0.34 0.34 0.0 0 1 268.71 22.23
  L 260.73 21.83
  A 0.34 0.34 0.0 0 0 260.53 22.45
  L 267.22 26.81
  A 0.34 0.34 0.0 0 1 267.35 27.22
  L 264.50 34.68
  A 0.34 0.34 0.0 0 0 265.03 35.06
  L 271.25 30.05
  A 0.34 0.34 0.0 0 1 271.67 30.05
  L 277.89 35.06
  A 0.34 0.34 0.0 0 0 278.42 34.68
  L 275.57 27.22
  A 0.34 0.34 0.0 0 1 275.70 26.81
  L 282.39 22.45
  A 0.34 0.34 0.0 0 0 282.19 21.83
  L 274.21 22.23"
/>
<path stroke="#9aa5c1" vector-effect="non-scaling-stroke" d="
  M 52.69 42.61
  A 0.33 0.33 0.0 0 1 52.36 42.37
  L 50.22 34.74
  A 0.33 0.33 0.0 0 0 49.58 34.74
  L 47.44 42.37
  A 0.33 0.33 0.0 0 1 47.11 42.61
  L 39.18 42.29
  A 0.33 0.33 0.0 0 0 38.99 42.90
  L 45.58 47.30
  A 0.33 0.33 0.0 0 1 45.71 47.69
  L 42.96 55.12
  A 0.33 0.33 0.0 0 0 43.47 55.50
  L 49.70 50.58
  A 0.33 0.33 0.0 0 1 50.10 50.58
  L 56.33 55.50
  A 0.33 0.33 0.0 0 0 56.84 55.12
  L 54.09 47.69
  A 0.33 0.33 0.0 0 1 54.22 47.30
  L 60.81 42.90
  A 0.33 0.33 0.0 0 0 60.62 42.29
  L 52.69 42.61"
/>
<path stroke="#9aa5c1" vector-effect="non-scaling-stroke" d="
  M 102.00 42.63
  A 0.40 0.40 0.0 0 1 101.60 42.34
  L 99.54 34.85
  A 0.40 0.40 0.0 0 0 98.76 34.85
  L 96.70 42.34
  A 0.40 0.40 0.0 0 1 96.30 42.63
  L 88.54 42.28
  A 0.40 0.40 0.0 0 0 88.30 43.01
  L 94.78 47.29
  A 0.40 0.40 0.0 0 1 94.94 47.76
  L 92.21 55.03
  A 0.40 0.40 0.0 0 0 92.83 55.48
  L 98.90 50.64
  A 0.40 0.40 0.0 0 1 99.40 50.64
  L 105.47 55.48
  A 0.40 0.40 0.0 0 0 106.09 55.03
  L 103.36 47.76
  A 0.40 0.40 0.0 0 1 103.52 47.29
  L 110.00 43.01
  A 0.40 0.40 0.0 0 0 109.76 42.28
  L 102.00 42.63"
/>
<path stroke="#9aa5c1" vector-effect="non-scaling-stroke" d="
  M 151.30 42.63
  A 0.46 0.46 0.0 0 1 150.83 42.29
  L 148.82 34.82
  A 0.46 0.46 0.0 0 0 147.94 34.82
  L 145.93 42.29
  A 0.46 0.46 0.0 0 1 145.46 42.63
  L 137.75 42.23
  A 0.46 0.46 0.0 0 0 137.47 43.07
  L 143.95 47.29
  A 0.46 0.46 0.0 0 1 144.13 47.84
  L 141.36 55.05
  A 0.46 0.46 0.0 0 0 142.08 55.57
  L 148.09 50.71
  A 0.46 0.46 0.0 0 1 148.67 50.71
  L 154.68 55.57
  A 0.46 0.46 0.0 0 0 155.40 55.05
  L 152.63 47.84
  A 0.46 0.46 0.0 0 1 152.81 47.29
  L 159.29 43.07
  A 0.46 0.46 0.0 0 0 159.01 42.23
  L 151.30 42.63"
/>
<path stroke="#9aa5c1" vector-effect="non-scaling-stroke" d="
  M 200.44 42.62
  A 0.40 0.40 0.0 0 1 200.04 42.33
  L 197.98 34.86
  A 0.40 0.40 0.0 0 0 197.20 34.86
  L 195.14 42.33
  A 0.40 0.40 0.0 0 1 194.74 42.62
  L 187.00 42.27
  A 0.40 0.40 0.0 0 0 186.76 43.01
  L 193.22 47.28
  A 0.40 0.40 0.0 0 1 193.38 47.75
  L 190.66 55.01
  A 0.40 0.40 0.0 0 0 191.28 55.46
  L 197.34 50.63
  A 0.40 0.40 0.0 0 1 197.84 50.63
  L 203.90 55.46
  A 0.40 0.40 0.0 0 0 204.52 55.01
  L 201.80 47.75
  A 0.40 0.40 0.0 0 1 201.96 47.28
  L 208.42 43.01
  A 0.40 0.40 0.0 0 0 208.18 42.27
  L 200.44 42.62"
/>
<path stroke="#9aa5c1" vector-effect="non-scaling-stroke" d="
  M 249.68 42.65
  A 0.41 0.41 0.0 0 1 249.26 42.34
  L 247.22 34.82
  A 0.41 0.41 0.0 0 0 246.42 34.82
  L 244.38 42.34
  A 0.41 0.41 0.0 0 1 243.96 42.65
  L 236.17 42.26
  A 0.41 0.41 0.0 0 0 235.93 43.02
  L 242.45 47.29
  A 0.41 0.41 0.0 0 1 242.61 47.78
  L 239.84 55.07
  A 0.41 0.41 0.0 0 0 240.48 55.53
  L 246.56 50.65
  A 0.41 0.41 0.0 0 1 247.08 50.65
  L 253.16 55.53
  A 0.41 0.41 0.0 0 0 253.80 55.07
  L 251.03 47.78
  A 0.41 0.41 0.0 0 1 251.19 47.29
  L 257.71 43.02
  A 0.41 0.41 0.0 0 0 257.47 42.26
  L 249.68 42.65"
/>
<path stroke="#9aa5c1" vector-effect="non-scaling-stroke" d="
  M 175.79 65.84
  A 0.33 0.33 0.0 0 1 175.46 65.60
  L 173.31 57.85
  A 0.33 0.33 0.0 0 0 172.67 57.85
  L 170.52 65.60
  A 0.33 0.33 0.0 0 1 170.19 65.84
  L 162.15 65.49
  A 0.33 0.33 0.0 0 0 161.95 66.10
  L 168.66 70.54
  A 0.33 0.33 0.0 0 1 168.79 70.93
  L 165.97 78.47
  A 0.33 0.33 0.0 0 0 166.49 78.84
  L 172.78 73.83
  A 0.33 0.33 0.0 0 1 173.20 73.83
  L 179.49 78.84
  A 0.33 0.33 0.0 0 0 180.01 78.47
  L 177.19 70.93
  A 0.33 0.33 0.0 0 1 177.32 70.54
  L 184.03 66.10
  A 0.33 0.33 0.0 0 0 183.83 65.49
  L 175.79 65.84"
/>
<path stroke="#9aa5c1" vector-effect="non-scaling-stroke" d="
  M 28.14 65.85
  A 0.40 0.40 0.0 0 1 27.73 65.56
  L 25.66 58.02
  A 0.40 0.40 0.0 0 0 24.88 58.02
  L 22.83 65.57
  A 0.40 0.40 0.0 0 1 22.43 65.86
  L 14.62 65.51
  A 0.40 0.40 0.0 0 0 14.38 66.24
  L 20.93 70.52
  A 0.40 0.40 0.0 0 1 21.08 71.00
  L 18.33 78.32
  A 0.40 0.40 0.0 0 0 18.95 78.77
  L 25.05 73.87
  A 0.40 0.40 0.0 0 1 25.55 73.87
  L 31.66 78.75
  A 0.40 0.40 0.0 0 0 32.28 78.29
  L 29.51 70.98
  A 0.40 0.40 0.0 0 1 29.66 70.51
  L 36.19 66.20
  A 0.40 0.40 0.0 0 0 35.95 65.47
  L 28.14 65.85"
/>
<path stroke="#9aa5c1" vector-effect="non-scaling-stroke" d="
  M 77.34 65.85
  A 0.34 0.34 0.0 0 1 77.00 65.60
  L 74.85 57.90
  A 0.34 0.34 0.0 0 0 74.19 57.90
  L 72.04 65.60
  A 0.34 0.34 0.0 0 1 71.70 65.85
  L 63.71 65.51
  A 0.34 0.34 0.0 0 0 63.51 66.14
  L 70.17 70.56
  A 0.34 0.34 0.0 0 1 70.30 70.96
  L 67.51 78.46
  A 0.34 0.34 0.0 0 0 68.04 78.84
  L 74.31 73.88
  A 0.34 0.34 0.0 0 1 74.73 73.88
  L 81.00 78.84
  A 0.34 0.34 0.0 0 0 81.53 78.46
  L 78.74 70.96
  A 0.34 0.34 0.0 0 1 78.87 70.56
  L 85.53 66.14
  A 0.34 0.34 0.0 0 0 85.33 65.51
  L 77.34 65.85"
/>
<path stroke="#9aa5c1" vector-effect="non-scaling-stroke" d="
  M 126.54 65.89
  A 0.34 0.34 0.0 0 1 126.20 65.64
  L 124.08 57.90
  A 0.34 0.34 0.0 0 0 123.42 57.90
  L 121.30 65.64
  A 0.34 0.34 0.0 0 1 120.96 65.89
  L 112.95 65.52
  A 0.34 0.34 0.0 0 0 112.74 66.14
  L 119.44 70.55
  A 0.34 0.34 0.0 0 1 119.57 70.95
  L 116.75 78.45
  A 0.34 0.34 0.0 0 0 117.28 78.84
  L 123.54 73.83
  A 0.34 0.34 0.0 0 1 123.96 73.83
  L 130.22 78.84
  A 0.34 0.34 0.0 0 0 130.75 78.45
  L 127.93 70.95
  A 0.34 0.34 0.0 0 1 128.06 70.55
  L 134.76 66.14
  A 0.34 0.34 0.0 0 0 134.55 65.52
  L 126.54 65.89"
/>
<path stroke="#9aa5c1" vector-effect="non-scaling-stroke" d="
  M 225.02 65.82
  A 0.33 0.33 0.0 0 1 224.69 65.58
  L 222.52 57.92
  A 0.33 0.33 0.0 0 0 221.88 57.93
  L 219.73 65.59
  A 0.33 0.33 0.0 0 1 219.40 65.83
  L 211.45 65.54
  A 0.33 0.33 0.0 0 0 211.25 66.14
  L 217.88 70.55
  A 0.33 0.33 0.0 0 1 218.01 70.94
  L 215.26 78.42
  A 0.33 0.33 0.0 0 0 215.78 78.79
  L 222.02 73.85
  A 0.33 0.33 0.0 0 1 222.43 73.85
  L 228.69 78.77
  A 0.33 0.33 0.0 0 0 229.21 78.39
  L 226.44 70.93
  A 0.33 0.33 0.0 0 1 226.57 70.54
  L 233.18 66.10
  A 0.33 0.33 0.0 0 0 232.98 65.50
  L 225.02 65.82"
/>
<path stroke="#9aa5c1" vector-effect="non-scaling-stroke" d="
  M 274.20 65.85
  A 0.32 0.32 0.0 0 1 273.88 65.62
  L 271.71 58.04
  A 0.32 0.32 0.0 0 0 271.09 58.04
  L 268.95 65.63
  A 0.32 0.32 0.0 0 1 268.63 65.86
  L 260.75 65.58
  A 0.32 0.32 0.0 0 0 260.56 66.17
  L 267.11 70.55
  A 0.32 0.32 0.0 0 1 267.24 70.92
  L 264.54 78.33
  A 0.32 0.32 0.0 0 0 265.04 78.69
  L 271.23 73.82
  A 0.32 0.32 0.0 0 1 271.63 73.81
  L 277.83 78.67
  A 0.32 0.32 0.0 0 0 278.33 78.31
  L 275.61 70.91
  A 0.32 0.32 0.0 0 1 275.73 70.53
  L 282.26 66.13
  A 0.32 0.32 0.0 0 0 282.07 65.54
  L 274.20 65.85"
/>
<path stroke="#9aa5c1" vector-effect="non-scaling-stroke" d="
  M 52.69 86.31
  A 0.33 0.33 0.0 0 1 52.36 86.07
  L 50.22 78.47
  A 0.33 0.33 0.0 0 0 49.58 78.47
  L 47.44 86.07
  A 0.33 0.33 0.0 0 1 47.11 86.31
  L 39.21 86.00
  A 0.33 0.33 0.0 0 0 39.01 86.61
  L 45.58 91.00
  A 0.33 0.33 0.0 0 1 45.71 91.39
  L 42.98 98.80
  A 0.33 0.33 0.0 0 0 43.49 99.17
  L 49.70 94.28
  A 0.33 0.33 0.0 0 1 50.10 94.28
  L 56.31 99.17
  A 0.33 0.33 0.0 0 0 56.82 98.80
  L 54.09 91.39
  A 0.33 0.33 0.0 0 1 54.22 91.00
  L 60.79 86.61
  A 0.33 0.33 0.0 0 0 60.59 86.00
  L 52.69 86.31"
/>
<path stroke="#9aa5c1" vector-effect="non-scaling-stroke" d="
  M 102.00 86.33
  A 0.40 0.40 0.0 0 1 101.60 86.03
  L 99.54 78.49
  A 0.40 0.40 0.0 0 0 98.76 78.49
  L 96.70 86.03
  A 0.40 0.40 0.0 0 1 96.30 86.33
  L 88.48 85.96
  A 0.40 0.40 0.0 0 0 88.25 86.69
  L 94.78 90.99
  A 0.40 0.40 0.0 0 1 94.94 91.46
  L 92.17 98.78
  A 0.40 0.40 0.0 0 0 92.80 99.23
  L 98.90 94.34
  A 0.40 0.40 0.0 0 1 99.40 94.34
  L 105.50 99.23
  A 0.40 0.40 0.0 0 0 106.13 98.78
  L 103.36 91.46
  A 0.40 0.40 0.0 0 1 103.52 90.99
  L 110.05 86.69
  A 0.40 0.40 0.0 0 0 109.82 85.96
  L 102.00 86.33"
/>
<path stroke="#9aa5c1" vector-effect="non-scaling-stroke" d="
  M 151.24 86.35
  A 0.40 0.40 0.0 0 1 150.83 86.05
  L 148.79 78.46
  A 0.40 0.40 0.0 0 0 148.01 78.45
  L 145.94 86.05
  A 0.40 0.40 0.0 0 1 145.54 86.34
  L 137.68 85.94
  A 0.40 0.40 0.0 0 0 137.44 86.67
  L 144.02 90.98
  A 0.40 0.40 0.0 0 1 144.17 91.46
  L 141.36 98.81
  A 0.40 0.40 0.0 0 0 141.98 99.27
  L 148.12 94.34
  A 0.40 0.40 0.0 0 1 148.62 94.34
  L 154.74 99.29
  A 0.40 0.40 0.0 0 0 155.37 98.84
  L 152.58 91.48
  A 0.40 0.40 0.0 0 1 152.74 91.00
  L 159.33 86.71
  A 0.40 0.40 0.0 0 0 159.09 85.97
  L 151.24 86.35"
/>
<path stroke="#9aa5c1" vector-effect="non-scaling-stroke" d="
  M 200.45 86.37
  A 0.40 0.40 0.0 0 1 200.04 86.08
  L 198.02 78.59
  A 0.40 0.40 0.0 0 0 197.24 78.59
  L 195.19 86.07
  A 0.40 0.40 0.0 0 1 194.79 86.37
  L 187.03 85.98
  A 0.40 0.40 0.0 0 0 186.79 86.71
  L 193.28 90.98
  A 0.40 0.40 0.0 0 1 193.43 91.45
  L 190.67 98.70
  A 0.40 0.40 0.0 0 0 191.29 99.16
  L 197.35 94.31
  A 0.40 0.40 0.0 0 1 197.85 94.31
  L 203.90 99.18
  A 0.40 0.40 0.0 0 0 204.52 98.73
  L 201.78 91.47
  A 0.40 0.40 0.0 0 1 201.94 90.99
  L 208.44 86.75
  A 0.40 0.40 0.0 0 0 208.20 86.01
  L 200.45 86.37"
/>
<path stroke="#9aa5c1" vector-effect="non-scaling-stroke" d="
  M 249.67 86.34
  A 0.40 0.40 0.0 0 1 249.26 86.04
  L 247.21 78.55
  A 0.40 0.40 0.0 0 0 246.43 78.55
  L 244.38 86.04
  A 0.40 0.40 0.0 0 1 243.97 86.34
  L 236.22 85.98
  A 0.40 0.40 0.0 0 0 235.98 86.71
  L 242.46 90.98
  A 0.40 0.40 0.0 0 1 242.62 91.46
  L 239.88 98.73
  A 0.40 0.40 0.0 0 0 240.50 99.18
  L 246.57 94.33
  A 0.40 0.40 0.0 0 1 247.07 94.33
  L 253.14 99.18
  A 0.40 0.40 0.0 0 0 253.76 98.73
  L 251.02 91.46
  A 0.40 0.40 0.0 0 1 251.18 90.98
  L 257.66 86.71
  A 0.40 0.40 0.0 0 0 257.42 85.98
  L 249.67 86.34"
/>
<path stroke="#9aa5c1" vector-effect="non-scaling-stroke" d="
  M 175.86 109.53
  A 0.41 0.41 0.0 0 1 175.44 109.23
  L 173.38 101.67
  A 0.41 0.41 0.0 0 0 172.58 101.67
  L 170.52 109.23
  A 0.41 0.41 0.0 0 1 170.10 109.53
  L 162.27 109.16
  A 0.41 0.41 0.0 0 0 162.02 109.92
  L 168.58 114.22
  A 0.41 0.41 0.0 0 1 168.74 114.71
  L 165.96 122.05
  A 0.41 0.41 0.0 0 0 166.60 122.51
  L 172.72 117.61
  A 0.41 0.41 0.0 0 1 173.24 117.61
  L 179.36 122.51
  A 0.41 0.41 0.0 0 0 180.00 122.05
  L 177.22 114.71
  A 0.41 0.41 0.0 0 1 177.38 114.22
  L 183.94 109.92
  A 0.41 0.41 0.0 0 0 183.69 109.16
  L 175.86 109.53"
/>
<path stroke="#9aa5c1" vector-effect="non-scaling-stroke" d="
  M 28.14 109.54
  A 0.41 0.41 0.0 0 1 27.73 109.24
  L 25.66 101.77
  A 0.41 0.41 0.0 0 0 24.87 101.77
  L 22.82 109.24
  A 0.41 0.41 0.0 0 1 22.41 109.55
  L 14.66 109.21
  A 0.41 0.41 0.0 0 0 14.42 109.96
  L 20.90 114.21
  A 0.41 0.41 0.0 0 1 21.06 114.70
  L 18.34 121.96
  A 0.41 0.41 0.0 0 0 18.98 122.42
  L 25.03 117.57
  A 0.41 0.41 0.0 0 1 25.54 117.57
  L 31.61 122.40
  A 0.41 0.41 0.0 0 0 32.25 121.93
  L 29.51 114.68
  A 0.41 0.41 0.0 0 1 29.66 114.20
  L 36.13 109.92
  A 0.41 0.41 0.0 0 0 35.88 109.17
  L 28.14 109.54"
/>
<path stroke="#9aa5c1" vector-effect="non-scaling-stroke" d="
  M 77.38 109.57
  A 0.40 0.40 0.0 0 1 76.98 109.28
  L 74.92 101.81
  A 0.40 0.40 0.0 0 0 74.14 101.81
  L 72.08 109.28
  A 0.40 0.40 0.0 0 1 71.68 109.57
  L 63.94 109.23
  A 0.40 0.40 0.0 0 0 63.71 109.96
  L 70.17 114.23
  A 0.40 0.40 0.0 0 1 70.32 114.70
  L 67.60 121.95
  A 0.40 0.40 0.0 0 0 68.23 122.40
  L 74.28 117.58
  A 0.40 0.40 0.0 0 1 74.78 117.58
  L 80.83 122.40
  A 0.40 0.40 0.0 0 0 81.46 121.95
  L 78.74 114.70
  A 0.40 0.40 0.0 0 1 78.89 114.23
  L 85.35 109.96
  A 0.40 0.40 0.0 0 0 85.12 109.23
  L 77.38 109.57"
/>
<path stroke="#9aa5c1" vector-effect="non-scaling-stroke" d="
  M 126.59 109.58
  A 0.40 0.40 0.0 0 1 126.19 109.29
  L 124.14 101.82
  A 0.40 0.40 0.0 0 0 123.36 101.82
  L 121.31 109.29
  A 0.40 0.40 0.0 0 1 120.91 109.58
  L 113.17 109.23
  A 0.40 0.40 0.0 0 0 112.93 109.96
  L 119.40 114.22
  A 0.40 0.40 0.0 0 1 119.56 114.70
  L 116.82 121.95
  A 0.40 0.40 0.0 0 0 117.45 122.40
  L 123.50 117.56
  A 0.40 0.40 0.0 0 1 124.00 117.56
  L 130.05 122.40
  A 0.40 0.40 0.0 0 0 130.68 121.95
  L 127.94 114.70
  A 0.40 0.40 0.0 0 1 128.10 114.22
  L 134.57 109.96
  A 0.40 0.40 0.0 0 0 134.33 109.23
  L 126.59 109.58"
/>
<path stroke="#9aa5c1" vector-effect="non-scaling-stroke" d="
  M 225.07 109.57
  A 0.40 0.40 0.0 0 1 224.66 109.27
  L 222.61 101.79
  A 0.40 0.40 0.0 0 0 221.83 101.79
  L 219.78 109.27
  A 0.40 0.40 0.0 0 1 219.37 109.57
  L 211.62 109.21
  A 0.40 0.40 0.0 0 0 211.38 109.94
  L 217.86 114.21
  A 0.40 0.40 0.0 0 1 218.02 114.69
  L 215.29 121.95
  A 0.40 0.40 0.0 0 0 215.91 122.40
  L 221.97 117.56
  A 0.40 0.40 0.0 0 1 222.47 117.56
  L 228.53 122.40
  A 0.40 0.40 0.0 0 0 229.15 121.95
  L 226.42 114.69
  A 0.40 0.40 0.0 0 1 226.58 114.21
  L 233.06 109.94
  A 0.40 0.40 0.0 0 0 232.82 109.21
  L 225.07 109.57"
/>
<path stroke="#9aa5c1" vector-effect="non-scaling-stroke" d="
  M 274.30 109.58
  A 0.40 0.40 0.0 0 1 273.90 109.29
  L 271.83 101.79
  A 0.40 0.40 0.0 0 0 271.05 101.79
  L 269.01 109.30
  A 0.40 0.40 0.0 0 1 268.61 109.59
  L 260.83 109.24
  A 0.40 0.40 0.0 0 0 260.60 109.98
  L 267.10 114.24
  A 0.40 0.40 0.0 0 1 267.26 114.72
  L 264.53 122.00
  A 0.40 0.40 0.0 0 0 265.15 122.45
  L 271.22 117.58
  A 0.40 0.40 0.0 0 1 271.72 117.58
  L 277.80 122.43
  A 0.40 0.40 0.0 0 0 278.43 121.98
  L 275.67 114.70
  A 0.40 0.40 0.0 0 1 275.82 114.23
  L 282.31 109.94
  A 0.40 0.40 0.0 0 0 282.07 109.20
  L 274.30 109.58"
/>
<path stroke="#9aa5c1" vector-effect="non-scaling-stroke" d="
  M 52.63 130.13
  A 0.33 0.33 0.0 0 1 52.30 129.88
  L 50.20 122.20
  A 0.33 0.33 0.0 0 0 49.56 122.20
  L 47.46 129.88
  A 0.33 0.33 0.0 0 1 47.13 130.13
  L 39.17 129.75
  A 0.33 0.33 0.0 0 0 38.97 130.35
  L 45.64 134.72
  A 0.33 0.33 0.0 0 1 45.76 135.11
  L 42.94 142.57
  A 0.33 0.33 0.0 0 0 43.46 142.94
  L 49.67 137.96
  A 0.33 0.33 0.0 0 1 50.09 137.96
  L 56.30 142.94
  A 0.33 0.33 0.0 0 0 56.82 142.57
  L 54.00 135.11
  A 0.33 0.33 0.0 0 1 54.12 134.72
  L 60.79 130.35
  A 0.33 0.33 0.0 0 0 60.59 129.75
  L 52.63 130.13"
/>
<path stroke="#9aa5c1" vector-effect="non-scaling-stroke" d="
  M 101.91 130.09
  A 0.32 0.32 0.0 0 1 101.59 129.86
  L 99.46 122.17
  A 0.32 0.32 0.0 0 0 98.84 122.17
  L 96.71 129.86
  A 0.32 0.32 0.0 0 1 96.39 130.09
  L 88.42 129.74
  A 0.32 0.32 0.0 0 0 88.23 130.33
  L 94.89 134.73
  A 0.32 0.32 0.0 0 1 95.01 135.11
  L 92.21 142.58
  A 0.32 0.32 0.0 0 0 92.71 142.94
  L 98.95 137.97
  A 0.32 0.32 0.0 0 1 99.35 137.97
  L 105.59 142.94
  A 0.32 0.32 0.0 0 0 106.09 142.58
  L 103.29 135.11
  A 0.32 0.32 0.0 0 1 103.41 134.73
  L 110.07 130.33
  A 0.32 0.32 0.0 0 0 109.88 129.74
  L 101.91 130.09"
/>
<path stroke="#9aa5c1" vector-effect="non-scaling-stroke" d="
  M 151.17 130.06
  A 0.32 0.32 0.0 0 1 150.85 129.82
  L 148.69 122.19
  A 0.32 0.32 0.0 0 0 148.07 122.19
  L 145.91 129.82
  A 0.32 0.32 0.0 0 1 145.59 130.06
  L 137.66 129.75
  A 0.32 0.32 0.0 0 0 137.47 130.34
  L 144.06 134.75
  A 0.32 0.32 0.0 0 1 144.18 135.13
  L 141.45 142.58
  A 0.32 0.32 0.0 0 0 141.94 142.94
  L 148.18 138.04
  A 0.32 0.32 0.0 0 1 148.58 138.04
  L 154.82 142.94
  A 0.32 0.32 0.0 0 0 155.31 142.58
  L 152.58 135.13
  A 0.32 0.32 0.0 0 1 152.70 134.75
  L 159.29 130.34
  A 0.32 0.32 0.0 0 0 159.10 129.75
  L 151.17 130.06"
/>
<path stroke="#9aa5c1" vector-effect="non-scaling-stroke" d="
  M 200.38 130.09
  A 0.33 0.33 0.0 0 1 200.05 129.85
  L 197.92 122.13
  A 0.33 0.33 0.0 0 0 197.28 122.13
  L 195.15 129.85
  A 0.33 0.33 0.0 0 1 194.82 130.09
  L 186.82 129.73
  A 0.33 0.33 0.0 0 0 186.62 130.34
  L 193.30 134.75
  A 0.33 0.33 0.0 0 1 193.43 135.14
  L 190.62 142.64
  A 0.33 0.33 0.0 0 0 191.13 143.01
  L 197.39 138.02
  A 0.33 0.33 0.0 0 1 197.81 138.02
  L 204.07 143.01
  A 0.33 0.33 0.0 0 0 204.58 142.64
  L 201.77 135.14
  A 0.33 0.33 0.0 0 1 201.90 134.75
  L 208.58 130.34
  A 0.33 0.33 0.0 0 0 208.38 129.73
  L 200.38 130.09"
/>
<path stroke="#9aa5c1" vector-effect="non-scaling-stroke" d="
  M 249.64 130.05
  A 0.33 0.33 0.0 0 1 249.31 129.81
  L 247.16 122.20
  A 0.33 0.33 0.0 0 0 246.52 122.20
  L 244.37 129.81
  A 0.33 0.33 0.0 0 1 244.04 130.05
  L 236.15 129.74
  A 0.33 0.33 0.0 0 0 235.95 130.35
  L 242.52 134.74
  A 0.33 0.33 0.0 0 1 242.64 135.13
  L 239.91 142.54
  A 0.33 0.33 0.0 0 0 240.43 142.92
  L 246.64 138.03
  A 0.33 0.33 0.0 0 1 247.04 138.03
  L 253.25 142.92
  A 0.33 0.33 0.0 0 0 253.77 142.54
  L 251.04 135.13
  A 0.33 0.33 0.0 0 1 251.16 134.74
  L 257.73 130.35
  A 0.33 0.33 0.0 0 0 257.53 129.74
  L 249.64 130.05"
/>
<path stroke="#9aa5c1" vector-effect="non-scaling-stroke" d="
  M 175.81 153.22
  A 0.34 0.34 0.0 0 1 175.46 152.97
  L 173.31 145.29
  A 0.34 0.34 0.0 0 0 172.65 145.29
  L 170.50 152.97
  A 0.34 0.34 0.0 0 1 170.15 153.22
  L 162.18 152.90
  A 0.34 0.34 0.0 0 0 161.98 153.52
  L 168.62 157.95
  A 0.34 0.34 0.0 0 1 168.75 158.35
  L 165.98 165.83
  A 0.34 0.34 0.0 0 0 166.51 166.22
  L 172.77 161.27
  A 0.34 0.34 0.0 0 1 173.19 161.27
  L 179.45 166.22
  A 0.34 0.34 0.0 0 0 179.98 165.83
  L 177.21 158.35
  A 0.34 0.34 0.0 0 1 177.34 157.95
  L 183.98 153.52
  A 0.34 0.34 0.0 0 0 183.78 152.90
  L 175.81 153.22"
/>
<path stroke="#9aa5c1" vector-effect="non-scaling-stroke" d="
  M 28.14 153.26
  A 0.39 0.39 0.0 0 1 27.75 152.97
  L 25.66 145.44
  A 0.39 0.39 0.0 0 0 24.90 145.44
  L 22.84 152.98
  A 0.39 0.39 0.0 0 1 22.44 153.27
  L 14.64 152.93
  A 0.39 0.39 0.0 0 0 14.40 153.65
  L 20.93 157.94
  A 0.39 0.39 0.0 0 1 21.09 158.40
  L 18.35 165.73
  A 0.39 0.39 0.0 0 0 18.96 166.17
  L 25.06 161.28
  A 0.39 0.39 0.0 0 1 25.55 161.28
  L 31.67 166.14
  A 0.39 0.39 0.0 0 0 32.28 165.70
  L 29.52 158.39
  A 0.39 0.39 0.0 0 1 29.67 157.93
  L 36.18 153.61
  A 0.39 0.39 0.0 0 0 35.95 152.89
  L 28.14 153.26"
/>
<path stroke="#9aa5c1" vector-effect="non-scaling-stroke" d="
  M 77.33 153.27
  A 0.34 0.34 0.0 0 1 76.99 153.03
  L 74.85 145.35
  A 0.34 0.34 0.0 0 0 74.19 145.35
  L 72.05 153.03
  A 0.34 0.34 0.0 0 1 71.71 153.27
  L 63.75 152.94
  A 0.34 0.34 0.0 0 0 63.55 153.56
  L 70.19 157.97
  A 0.34 0.34 0.0 0 1 70.32 158.37
  L 67.54 165.83
  A 0.34 0.34 0.0 0 0 68.07 166.22
  L 74.31 161.27
  A 0.34 0.34 0.0 0 1 74.73 161.27
  L 80.97 166.22
  A 0.34 0.34 0.0 0 0 81.50 165.83
  L 78.72 158.37
  A 0.34 0.34 0.0 0 1 78.85 157.97
  L 85.49 153.56
  A 0.34 0.34 0.0 0 0 85.29 152.94
  L 77.33 153.27"
/>
<path stroke="#9aa5c1" vector-effect="non-scaling-stroke" d="
  M 126.51 153.31
  A 0.32 0.32 0.0 0 1 126.19 153.07
  L 124.05 145.48
  A 0.32 0.32 0.0 0 0 123.43 145.48
  L 121.29 153.07
  A 0.32 0.32 0.0 0 1 120.97 153.31
  L 113.09 153.00
  A 0.32 0.32 0.0 0 0 112.90 153.58
  L 119.46 157.96
  A 0.32 0.32 0.0 0 1 119.58 158.34
  L 116.85 165.74
  A 0.32 0.32 0.0 0 0 117.35 166.10
  L 123.54 161.22
  A 0.32 0.32 0.0 0 1 123.94 161.22
  L 130.13 166.10
  A 0.32 0.32 0.0 0 0 130.63 165.74
  L 127.90 158.34
  A 0.32 0.32 0.0 0 1 128.02 157.96
  L 134.58 153.58
  A 0.32 0.32 0.0 0 0 134.39 153.00
  L 126.51 153.31"
/>
<path stroke="#9aa5c1" vector-effect="non-scaling-stroke" d="
  M 225.02 153.26
  A 0.33 0.33 0.0 0 1 224.69 153.02
  L 222.53 145.30
  A 0.33 0.33 0.0 0 0 221.89 145.30
  L 219.75 153.03
  A 0.33 0.33 0.0 0 1 219.42 153.27
  L 211.41 152.94
  A 0.33 0.33 0.0 0 0 211.22 153.55
  L 217.91 157.97
  A 0.33 0.33 0.0 0 1 218.03 158.36
  L 215.25 165.87
  A 0.33 0.33 0.0 0 0 215.76 166.25
  L 222.03 161.25
  A 0.33 0.33 0.0 0 1 222.44 161.25
  L 228.73 166.22
  A 0.33 0.33 0.0 0 0 229.24 165.85
  L 226.43 158.34
  A 0.33 0.33 0.0 0 1 226.56 157.95
  L 233.23 153.51
  A 0.33 0.33 0.0 0 0 233.03 152.90
  L 225.02 153.26"
/>
<path stroke="#9aa5c1" vector-effect="non-scaling-stroke" d="
  M 274.23 153.33
  A 0.33 0.33 0.0 0 1 273.90 153.08
  L 271.77 145.40
  A 0.33 0.33 0.0 0 0 271.13 145.40
  L 269.00 153.08
  A 0.33 0.33 0.0 0 1 268.67 153.33
  L 260.71 152.97
  A 0.33 0.33 0.0 0 0 260.51 153.58
  L 267.16 157.98
  A 0.33 0.33 0.0 0 1 267.29 158.37
  L 264.49 165.84
  A 0.33 0.33 0.0 0 0 265.01 166.21
  L 271.24 161.24
  A 0.33 0.33 0.0 0 1 271.66 161.24
  L 277.89 166.21
  A 0.33 0.33 0.0 0 0 278.41 165.84
  L 275.61 158.37
  A 0.33 0.33 0.0 0 1 275.74 157.98
  L 282.39 153.58
  A 0.33 0.33 0.0 0 0 282.19 152.97
  L 274.23 153.33"
/>
<path stroke="#9aa5c1" vector-effect="non-scaling-stroke" d="
  M 52.71 173.74
  A 0.33 0.33 0.0 0 1 52.37 173.49
  L 50.22 165.73
  A 0.33 0.33 0.0 0 0 49.58 165.73
  L 47.43 173.49
  A 0.33 0.33 0.0 0 1 47.09 173.74
  L 39.05 173.39
  A 0.33 0.33 0.0 0 0 38.85 173.99
  L 45.56 178.44
  A 0.33 0.33 0.0 0 1 45.69 178.83
  L 42.87 186.38
  A 0.33 0.33 0.0 0 0 43.39 186.75
  L 49.69 181.74
  A 0.33 0.33 0.0 0 1 50.11 181.74
  L 56.41 186.75
  A 0.33 0.33 0.0 0 0 56.93 186.38
  L 54.11 178.83
  A 0.33 0.33 0.0 0 1 54.24 178.44
  L 60.95 173.99
  A 0.33 0.33 0.0 0 0 60.75 173.39
  L 52.71 173.74"
/>
<path stroke="#9aa5c1" vector-effect="non-scaling-stroke" d="
  M 101.95 173.70
  A 0.32 0.32 0.0 0 1 101.63 173.47
  L 99.45 165.77
  A 0.32 0.32 0.0 0 0 98.83 165.77
  L 96.65 173.47
  A 0.32 0.32 0.0 0 1 96.33 173.70
  L 88.32 173.40
  A 0.32 0.32 0.0 0 0 88.13 173.99
  L 94.78 178.45
  A 0.32 0.32 0.0 0 1 94.91 178.82
  L 92.15 186.34
  A 0.32 0.32 0.0 0 0 92.64 186.70
  L 98.94 181.76
  A 0.32 0.32 0.0 0 1 99.34 181.76
  L 105.64 186.70
  A 0.32 0.32 0.0 0 0 106.13 186.34
  L 103.37 178.82
  A 0.32 0.32 0.0 0 1 103.50 178.45
  L 110.15 173.99
  A 0.32 0.32 0.0 0 0 109.96 173.40
  L 101.95 173.70"
/>
<path stroke="#9aa5c1" vector-effect="non-scaling-stroke" d="
  M 249.64 173.75
  A 0.33 0.33 0.0 0 1 249.31 173.51
  L 247.17 165.81
  A 0.33 0.33 0.0 0 0 246.53 165.80
  L 244.36 173.50
  A 0.33 0.33 0.0 0 1 244.03 173.74
  L 236.04 173.40
  A 0.33 0.33 0.0 0 0 235.84 174.00
  L 242.49 178.45
  A 0.33 0.33 0.0 0 1 242.62 178.84
  L 239.82 186.33
  A 0.33 0.33 0.0 0 0 240.34 186.70
  L 246.62 181.75
  A 0.33 0.33 0.0 0 1 247.03 181.75
  L 253.29 186.73
  A 0.33 0.33 0.0 0 0 253.80 186.35
  L 251.04 178.85
  A 0.33 0.33 0.0 0 1 251.16 178.46
  L 257.83 174.04
  A 0.33 0.33 0.0 0 0 257.63 173.44
  L 249.64 173.75"
/>
<path stroke="#9aa5c1" vector-effect="non-scaling-stroke" d="
  M 151.19 173.72
  A 0.33 0.33 0.0 0 1 150.86 173.48
  L 148.69 165.91
  A 0.33 0.33 0.0 0 0 148.05 165.91
  L 145.88 173.48
  A 0.33 0.33 0.0 0 1 145.55 173.72
  L 137.67 173.45
  A 0.33 0.33 0.0 0 0 137.47 174.05
  L 144.01 178.46
  A 0.33 0.33 0.0 0 1 144.14 178.85
  L 141.44 186.26
  A 0.33 0.33 0.0 0 0 141.95 186.63
  L 148.17 181.78
  A 0.33 0.33 0.0 0 1 148.57 181.78
  L 154.79 186.63
  A 0.33 0.33 0.0 0 0 155.30 186.26
  L 152.60 178.85
  A 0.33 0.33 0.0 0 1 152.73 178.46
  L 159.27 174.05
  A 0.33 0.33 0.0 0 0 159.07 173.45
  L 151.19 173.72"
/>
<path stroke="#9aa5c1" vector-effect="non-scaling-stroke" d="
  M 200.42 173.75
  A 0.33 0.33 0.0 0 1 200.09 173.51
  L 197.93 165.90
  A 0.33 0.33 0.0 0 0 197.29 165.90
  L 195.13 173.51
  A 0.33 0.33 0.0 0 1 194.80 173.75
  L 186.89 173.45
  A 0.33 0.33 0.0 0 0 186.70 174.06
  L 193.27 178.47
  A 0.33 0.33 0.0 0 1 193.39 178.85
  L 190.67 186.28
  A 0.33 0.33 0.0 0 0 191.18 186.66
  L 197.41 181.77
  A 0.33 0.33 0.0 0 1 197.81 181.77
  L 204.04 186.66
  A 0.33 0.33 0.0 0 0 204.55 186.28
  L 201.83 178.85
  A 0.33 0.33 0.0 0 1 201.95 178.47
  L 208.52 174.06
  A 0.33 0.33 0.0 0 0 208.33 173.45
  L 200.42 173.75"
/>
<path stroke="#9aa5c1" vector-effect="non-scaling-stroke" d="
  M 28.08 196.98
  A 0.32 0.32 0.0 0 1 27.76 196.74
  L 25.60 189.07
  A 0.32 0.32 0.0 0 0 24.98 189.07
  L 22.82 196.74
  A 0.32 0.32 0.0 0 1 22.50 196.98
  L 14.54 196.66
  A 0.32 0.32 0.0 0 0 14.35 197.25
  L 20.97 201.67
  A 0.32 0.32 0.0 0 1 21.09 202.05
  L 18.34 209.53
  A 0.32 0.32 0.0 0 0 18.83 209.89
  L 25.09 204.96
  A 0.32 0.32 0.0 0 1 25.49 204.96
  L 31.75 209.89
  A 0.32 0.32 0.0 0 0 32.24 209.53
  L 29.49 202.05
  A 0.32 0.32 0.0 0 1 29.61 201.67
  L 36.23 197.25
  A 0.32 0.32 0.0 0 0 36.04 196.66
  L 28.08 196.98"
/>
<path stroke="#9aa5c1" vector-effect="non-scaling-stroke" d="
  M 175.79 196.96
  A 0.33 0.33 0.0 0 1 175.46 196.72
  L 173.30 189.06
  A 0.33 0.33 0.0 0 0 172.66 189.06
  L 170.50 196.72
  A 0.33 0.33 0.0 0 1 170.17 196.96
  L 162.22 196.65
  A 0.33 0.33 0.0 0 0 162.02 197.25
  L 168.64 201.68
  A 0.33 0.33 0.0 0 1 168.76 202.07
  L 166.01 209.53
  A 0.33 0.33 0.0 0 0 166.53 209.90
  L 172.78 204.98
  A 0.33 0.33 0.0 0 1 173.18 204.98
  L 179.43 209.90
  A 0.33 0.33 0.0 0 0 179.95 209.53
  L 177.20 202.07
  A 0.33 0.33 0.0 0 1 177.32 201.68
  L 183.94 197.25
  A 0.33 0.33 0.0 0 0 183.74 196.65
  L 175.79 196.96"
/>
<path stroke="#9aa5c1" vector-effect="non-scaling-stroke" d="
  M 225.00 197.00
  A 0.34 0.34 0.0 0 1 224.66 196.76
  L 222.52 189.05
  A 0.34 0.34 0.0 0 0 221.86 189.05
  L 219.75 196.76
  A 0.34 0.34 0.0 0 1 219.41 197.01
  L 211.41 196.67
  A 0.34 0.34 0.0 0 0 211.21 197.29
  L 217.90 201.69
  A 0.34 0.34 0.0 0 1 218.03 202.09
  L 215.23 209.58
  A 0.34 0.34 0.0 0 0 215.76 209.97
  L 222.01 204.97
  A 0.34 0.34 0.0 0 1 222.43 204.97
  L 228.69 209.95
  A 0.34 0.34 0.0 0 0 229.22 209.56
  L 226.40 202.08
  A 0.34 0.34 0.0 0 1 226.53 201.67
  L 233.20 197.25
  A 0.34 0.34 0.0 0 0 232.99 196.63
  L 225.00 197.00"
/>
<path stroke="#9aa5c1" vector-effect="non-scaling-stroke" d="
  M 77.30 197.03
  A 0.33 0.33 0.0 0 1 76.97 196.79
  L 74.83 189.13
  A 0.33 0.33 0.0 0 0 74.19 189.13
  L 72.05 196.79
  A 0.33 0.33 0.0 0 1 71.72 197.03
  L 63.77 196.70
  A 0.33 0.33 0.0 0 0 63.58 197.30
  L 70.20 201.70
  A 0.33 0.33 0.0 0 1 70.33 202.09
  L 67.56 209.55
  A 0.33 0.33 0.0 0 0 68.07 209.92
  L 74.31 204.98
  A 0.33 0.33 0.0 0 1 74.71 204.98
  L 80.95 209.92
  A 0.33 0.33 0.0 0 0 81.46 209.55
  L 78.69 202.09
  A 0.33 0.33 0.0 0 1 78.82 201.70
  L 85.44 197.30
  A 0.33 0.33 0.0 0 0 85.25 196.70
  L 77.30 197.03"
/>
<path stroke="#9aa5c1" vector-effect="non-scaling-stroke" d="
  M 126.53 197.05
  A 0.33 0.33 0.0 0 1 126.20 196.81
  L 124.07 189.21
  A 0.33 0.33 0.0 0 0 123.43 189.21
  L 121.30 196.81
  A 0.33 0.33 0.0 0 1 120.97 197.05
  L 113.08 196.73
  A 0.33 0.33 0.0 0 0 112.89 197.33
  L 119.45 201.71
  A 0.33 0.33 0.0 0 1 119.58 202.10
  L 116.84 209.50
  A 0.33 0.33 0.0 0 0 117.35 209.87
  L 123.55 204.98
  A 0.33 0.33 0.0 0 1 123.95 204.98
  L 130.15 209.87
  A 0.33 0.33 0.0 0 0 130.66 209.50
  L 127.92 202.10
  A 0.33 0.33 0.0 0 1 128.05 201.71
  L 134.61 197.33
  A 0.33 0.33 0.0 0 0 134.42 196.73
  L 126.53 197.05"
/>
<path stroke="#9aa5c1" vector-effect="non-scaling-stroke" d="
  M 274.18 197.03
  A 0.31 0.31 0.0 0 1 273.87 196.81
  L 271.71 189.21
  A 0.31 0.31 0.0 0 0 271.11 189.21
  L 268.97 196.82
  A 0.31 0.31 0.0 0 1 268.66 197.04
  L 260.77 196.75
  A 0.31 0.31 0.0 0 0 260.59 197.32
  L 267.16 201.70
  A 0.31 0.31 0.0 0 1 267.28 202.07
  L 264.56 209.49
  A 0.31 0.31 0.0 0 0 265.05 209.84
  L 271.25 204.94
  A 0.31 0.31 0.0 0 1 271.63 204.94
  L 277.84 209.81
  A 0.31 0.31 0.0 0 0 278.33 209.46
  L 275.59 202.05
  A 0.31 0.31 0.0 0 1 275.71 201.69
  L 282.26 197.28
  A 0.31 0.31 0.0 0 0 282.07 196.72
  L 274.18 197.03"
/>
<path stroke="#e49dac" vector-effect="non-scaling-stroke" d="
  M 640.00 32.56
  L 298.54 32.75"
/>
<path stroke="#e49dac" vector-effect="non-scaling-stroke" d="
  M 640.00 64.56
  C 639.48 64.35 639.68 64.25 638.98 64.25
  Q 468.76 64.25 298.54 64.25"
/>
<path stroke="#e49dac" vector-effect="non-scaling-stroke" d="
  M 640.00 96.81
  L 298.54 97.00"
/>
<path stroke="#e49dac" vector-effect="non-scaling-stroke" d="
  M 640.00 128.56
  L 298.75 128.54"
/>
<path stroke="#e49dac" vector-effect="non-scaling-stroke" d="
  M 640.00 161.06
  L 298.54 161.00"
/>
<path stroke="#e49dac" vector-effect="non-scaling-stroke" d="
  M 640.00 192.81
  L 298.54 192.75"
/>
<path stroke="#e49dac" vector-effect="non-scaling-stroke" d="
  M 640.00 225.31
  L 298.50 225.21"
/>
<path stroke="#e49dac" vector-effect="non-scaling-stroke" d="
  M 640.00 256.84
  L 0.00 256.94"
/>
<path stroke="#e49dac" vector-effect="non-scaling-stroke" d="
  M 640.00 289.56
  L 0.58 289.49
  Q 0.38 289.49 0.22 289.36
  Q 0.11 289.27 0.00 289.19"
/>
<path stroke="#e49dac" vector-effect="non-scaling-stroke" d="
  M 640.00 321.03
  L 0.00 321.03"
/>
<path stroke="#e49dac" vector-effect="non-scaling-stroke" d="
  M 640.00 353.56
  L 0.00 353.72"
/>
<path stroke="#e49dac" vector-effect="non-scaling-stroke" d="
  M 640.00 385.28
  L 0.00 385.28"
/>
</g>
<path fill="#354a82" d="
  M 0.00 0.00
  L 298.56 0.00
  L 298.54 32.75
  L 298.54 64.25
  L 298.54 97.00
  L 298.75 128.54
  L 298.54 161.00
  L 298.54 192.75
  L 298.50 225.21
  L 0.00 225.22
  L 0.00 0.00
  Z
  M 28.08 22.14
  A 0.33 0.33 0.0 0 1 27.75 21.90
  L 25.62 14.21
  A 0.33 0.33 0.0 0 0 24.98 14.21
  L 22.85 21.90
  A 0.33 0.33 0.0 0 1 22.52 22.14
  L 14.55 21.79
  A 0.33 0.33 0.0 0 0 14.35 22.40
  L 21.00 26.80
  A 0.33 0.33 0.0 0 1 21.13 27.19
  L 18.34 34.66
  A 0.33 0.33 0.0 0 0 18.85 35.03
  L 25.09 30.07
  A 0.33 0.33 0.0 0 1 25.51 30.07
  L 31.75 35.03
  A 0.33 0.33 0.0 0 0 32.26 34.66
  L 29.47 27.19
  A 0.33 0.33 0.0 0 1 29.60 26.80
  L 36.25 22.40
  A 0.33 0.33 0.0 0 0 36.05 21.79
  L 28.08 22.14
  Z
  M 77.30 22.17
  A 0.32 0.32 0.0 0 1 76.98 21.94
  L 74.84 14.30
  A 0.32 0.32 0.0 0 0 74.22 14.30
  L 72.08 21.94
  A 0.32 0.32 0.0 0 1 71.76 22.17
  L 63.83 21.85
  A 0.32 0.32 0.0 0 0 63.64 22.43
  L 70.24 26.84
  A 0.32 0.32 0.0 0 1 70.36 27.21
  L 67.61 34.65
  A 0.32 0.32 0.0 0 0 68.11 35.02
  L 74.33 30.10
  A 0.32 0.32 0.0 0 1 74.73 30.10
  L 80.95 35.02
  A 0.32 0.32 0.0 0 0 81.45 34.65
  L 78.70 27.21
  A 0.32 0.32 0.0 0 1 78.82 26.84
  L 85.42 22.43
  A 0.32 0.32 0.0 0 0 85.23 21.85
  L 77.30 22.17
  Z
  M 175.82 22.14
  A 0.39 0.39 0.0 0 1 175.42 21.85
  L 173.36 14.38
  A 0.39 0.39 0.0 0 0 172.60 14.38
  L 170.54 21.85
  A 0.39 0.39 0.0 0 1 170.14 22.14
  L 162.39 21.80
  A 0.39 0.39 0.0 0 0 162.16 22.51
  L 168.63 26.79
  A 0.39 0.39 0.0 0 1 168.78 27.25
  L 166.06 34.51
  A 0.39 0.39 0.0 0 0 166.67 34.95
  L 172.74 30.12
  A 0.39 0.39 0.0 0 1 173.22 30.12
  L 179.29 34.95
  A 0.39 0.39 0.0 0 0 179.90 34.51
  L 177.18 27.25
  A 0.39 0.39 0.0 0 1 177.33 26.79
  L 183.80 22.51
  A 0.39 0.39 0.0 0 0 183.57 21.80
  L 175.82 22.14
  Z
  M 225.00 22.14
  A 0.32 0.32 0.0 0 1 224.68 21.91
  L 222.55 14.19
  A 0.32 0.32 0.0 0 0 221.93 14.19
  L 219.77 21.90
  A 0.32 0.32 0.0 0 1 219.45 22.13
  L 211.45 21.78
  A 0.32 0.32 0.0 0 0 211.26 22.36
  L 217.93 26.80
  A 0.32 0.32 0.0 0 1 218.05 27.18
  L 215.24 34.67
  A 0.32 0.32 0.0 0 0 215.73 35.04
  L 222.01 30.07
  A 0.32 0.32 0.0 0 1 222.41 30.07
  L 228.67 35.06
  A 0.32 0.32 0.0 0 0 229.17 34.70
  L 226.39 27.19
  A 0.32 0.32 0.0 0 1 226.51 26.81
  L 233.19 22.40
  A 0.32 0.32 0.0 0 0 233.00 21.81
  L 225.00 22.14
  Z
  M 126.52 22.19
  A 0.33 0.33 0.0 0 1 126.19 21.95
  L 124.08 14.30
  A 0.33 0.33 0.0 0 0 123.44 14.30
  L 121.33 21.95
  A 0.33 0.33 0.0 0 1 121.00 22.19
  L 113.08 21.83
  A 0.33 0.33 0.0 0 0 112.88 22.44
  L 119.50 26.81
  A 0.33 0.33 0.0 0 1 119.63 27.20
  L 116.84 34.63
  A 0.33 0.33 0.0 0 0 117.35 35.00
  L 123.55 30.05
  A 0.33 0.33 0.0 0 1 123.97 30.05
  L 130.17 35.00
  A 0.33 0.33 0.0 0 0 130.68 34.63
  L 127.89 27.20
  A 0.33 0.33 0.0 0 1 128.02 26.81
  L 134.64 22.44
  A 0.33 0.33 0.0 0 0 134.44 21.83
  L 126.52 22.19
  Z
  M 274.21 22.23
  A 0.34 0.34 0.0 0 1 273.87 21.98
  L 271.79 14.28
  A 0.34 0.34 0.0 0 0 271.13 14.28
  L 269.05 21.98
  A 0.34 0.34 0.0 0 1 268.71 22.23
  L 260.73 21.83
  A 0.34 0.34 0.0 0 0 260.53 22.45
  L 267.22 26.81
  A 0.34 0.34 0.0 0 1 267.35 27.22
  L 264.50 34.68
  A 0.34 0.34 0.0 0 0 265.03 35.06
  L 271.25 30.05
  A 0.34 0.34 0.0 0 1 271.67 30.05
  L 277.89 35.06
  A 0.34 0.34 0.0 0 0 278.42 34.68
  L 275.57 27.22
  A 0.34 0.34 0.0 0 1 275.70 26.81
  L 282.39 22.45
  A 0.34 0.34 0.0 0 0 282.19 21.83
  L 274.21 22.23
  Z
  M 52.69 42.61
  A 0.33 0.33 0.0 0 1 52.36 42.37
  L 50.22 34.74
  A 0.33 0.33 0.0 0 0 49.58 34.74
  L 47.44 42.37
  A 0.33 0.33 0.0 0 1 47.11 42.61
  L 39.18 42.29
  A 0.33 0.33 0.0 0 0 38.99 42.90
  L 45.58 47.30
  A 0.33 0.33 0.0 0 1 45.71 47.69
  L 42.96 55.12
  A 0.33 0.33 0.0 0 0 43.47 55.50
  L 49.70 50.58
  A 0.33 0.33 0.0 0 1 50.10 50.58
  L 56.33 55.50
  A 0.33 0.33 0.0 0 0 56.84 55.12
  L 54.09 47.69
  A 0.33 0.33 0.0 0 1 54.22 47.30
  L 60.81 42.90
  A 0.33 0.33 0.0 0 0 60.62 42.29
  L 52.69 42.61
  Z
  M 102.00 42.63
  A 0.40 0.40 0.0 0 1 101.60 42.34
  L 99.54 34.85
  A 0.40 0.40 0.0 0 0 98.76 34.85
  L 96.70 42.34
  A 0.40 0.40 0.0 0 1 96.30 42.63
  L 88.54 42.28
  A 0.40 0.40 0.0 0 0 88.30 43.01
  L 94.78 47.29
  A 0.40 0.40 0.0 0 1 94.94 47.76
  L 92.21 55.03
  A 0.40 0.40 0.0 0 0 92.83 55.48
  L 98.90 50.64
  A 0.40 0.40 0.0 0 1 99.40 50.64
  L 105.47 55.48
  A 0.40 0.40 0.0 0 0 106.09 55.03
  L 103.36 47.76
  A 0.40 0.40 0.0 0 1 103.52 47.29
  L 110.00 43.01
  A 0.40 0.40 0.0 0 0 109.76 42.28
  L 102.00 42.63
  Z
  M 151.30 42.63
  A 0.46 0.46 0.0 0 1 150.83 42.29
  L 148.82 34.82
  A 0.46 0.46 0.0 0 0 147.94 34.82
  L 145.93 42.29
  A 0.46 0.46 0.0 0 1 145.46 42.63
  L 137.75 42.23
  A 0.46 0.46 0.0 0 0 137.47 43.07
  L 143.95 47.29
  A 0.46 0.46 0.0 0 1 144.13 47.84
  L 141.36 55.05
  A 0.46 0.46 0.0 0 0 142.08 55.57
  L 148.09 50.71
  A 0.46 0.46 0.0 0 1 148.67 50.71
  L 154.68 55.57
  A 0.46 0.46 0.0 0 0 155.40 55.05
  L 152.63 47.84
  A 0.46 0.46 0.0 0 1 152.81 47.29
  L 159.29 43.07
  A 0.46 0.46 0.0 0 0 159.01 42.23
  L 151.30 42.63
  Z
  M 200.44 42.62
  A 0.40 0.40 0.0 0 1 200.04 42.33
  L 197.98 34.86
  A 0.40 0.40 0.0 0 0 197.20 34.86
  L 195.14 42.33
  A 0.40 0.40 0.0 0 1 194.74 42.62
  L 187.00 42.27
  A 0.40 0.40 0.0 0 0 186.76 43.01
  L 193.22 47.28
  A 0.40 0.40 0.0 0 1 193.38 47.75
  L 190.66 55.01
  A 0.40 0.40 0.0 0 0 191.28 55.46
  L 197.34 50.63
  A 0.40 0.40 0.0 0 1 197.84 50.63
  L 203.90 55.46
  A 0.40 0.40 0.0 0 0 204.52 55.01
  L 201.80 47.75
  A 0.40 0.40 0.0 0 1 201.96 47.28
  L 208.42 43.01
  A 0.40 0.40 0.0 0 0 208.18 42.27
  L 200.44 42.62
  Z
  M 249.68 42.65
  A 0.41 0.41 0.0 0 1 249.26 42.34
  L 247.22 34.82
  A 0.41 0.41 0.0 0 0 246.42 34.82
  L 244.38 42.34
  A 0.41 0.41 0.0 0 1 243.96 42.65
  L 236.17 42.26
  A 0.41 0.41 0.0 0 0 235.93 43.02
  L 242.45 47.29
  A 0.41 0.41 0.0 0 1 242.61 47.78
  L 239.84 55.07
  A 0.41 0.41 0.0 0 0 240.48 55.53
  L 246.56 50.65
  A 0.41 0.41 0.0 0 1 247.08 50.65
  L 253.16 55.53
  A 0.41 0.41 0.0 0 0 253.80 55.07
  L 251.03 47.78
  A 0.41 0.41 0.0 0 1 251.19 47.29
  L 257.71 43.02
  A 0.41 0.41 0.0 0 0 257.47 42.26
  L 249.68 42.65
  Z
  M 175.79 65.84
  A 0.33 0.33 0.0 0 1 175.46 65.60
  L 173.31 57.85
  A 0.33 0.33 0.0 0 0 172.67 57.85
  L 170.52 65.60
  A 0.33 0.33 0.0 0 1 170.19 65.84
  L 162.15 65.49
  A 0.33 0.33 0.0 0 0 161.95 66.10
  L 168.66 70.54
  A 0.33 0.33 0.0 0 1 168.79 70.93
  L 165.97 78.47
  A 0.33 0.33 0.0 0 0 166.49 78.84
  L 172.78 73.83
  A 0.33 0.33 0.0 0 1 173.20 73.83
  L 179.49 78.84
  A 0.33 0.33 0.0 0 0 180.01 78.47
  L 177.19 70.93
  A 0.33 0.33 0.0 0 1 177.32 70.54
  L 184.03 66.10
  A 0.33 0.33 0.0 0 0 183.83 65.49
  L 175.79 65.84
  Z
  M 28.14 65.85
  A 0.40 0.40 0.0 0 1 27.73 65.56
  L 25.66 58.02
  A 0.40 0.40 0.0 0 0 24.88 58.02
  L 22.83 65.57
  A 0.40 0.40 0.0 0 1 22.43 65.86
  L 14.62 65.51
  A 0.40 0.40 0.0 0 0 14.38 66.24
  L 20.93 70.52
  A 0.40 0.40 0.0 0 1 21.08 71.00
  L 18.33 78.32
  A 0.40 0.40 0.0 0 0 18.95 78.77
  L 25.05 73.87
  A 0.40 0.40 0.0 0 1 25.55 73.87
  L 31.66 78.75
  A 0.40 0.40 0.0 0 0 32.28 78.29
  L 29.51 70.98
  A 0.40 0.40 0.0 0 1 29.66 70.51
  L 36.19 66.20
  A 0.40 0.40 0.0 0 0 35.95 65.47
  L 28.14 65.85
  Z
  M 77.34 65.85
  A 0.34 0.34 0.0 0 1 77.00 65.60
  L 74.85 57.90
  A 0.34 0.34 0.0 0 0 74.19 57.90
  L 72.04 65.60
  A 0.34 0.34 0.0 0 1 71.70 65.85
  L 63.71 65.51
  A 0.34 0.34 0.0 0 0 63.51 66.14
  L 70.17 70.56
  A 0.34 0.34 0.0 0 1 70.30 70.96
  L 67.51 78.46
  A 0.34 0.34 0.0 0 0 68.04 78.84
  L 74.31 73.88
  A 0.34 0.34 0.0 0 1 74.73 73.88
  L 81.00 78.84
  A 0.34 0.34 0.0 0 0 81.53 78.46
  L 78.74 70.96
  A 0.34 0.34 0.0 0 1 78.87 70.56
  L 85.53 66.14
  A 0.34 0.34 0.0 0 0 85.33 65.51
  L 77.34 65.85
  Z
  M 126.54 65.89
  A 0.34 0.34 0.0 0 1 126.20 65.64
  L 124.08 57.90
  A 0.34 0.34 0.0 0 0 123.42 57.90
  L 121.30 65.64
  A 0.34 0.34 0.0 0 1 120.96 65.89
  L 112.95 65.52
  A 0.34 0.34 0.0 0 0 112.74 66.14
  L 119.44 70.55
  A 0.34 0.34 0.0 0 1 119.57 70.95
  L 116.75 78.45
  A 0.34 0.34 0.0 0 0 117.28 78.84
  L 123.54 73.83
  A 0.34 0.34 0.0 0 1 123.96 73.83
  L 130.22 78.84
  A 0.34 0.34 0.0 0 0 130.75 78.45
  L 127.93 70.95
  A 0.34 0.34 0.0 0 1 128.06 70.55
  L 134.76 66.14
  A 0.34 0.34 0.0 0 0 134.55 65.52
  L 126.54 65.89
  Z
  M 225.02 65.82
  A 0.33 0.33 0.0 0 1 224.69 65.58
  L 222.52 57.92
  A 0.33 0.33 0.0 0 0 221.88 57.93
  L 219.73 65.59
  A 0.33 0.33 0.0 0 1 219.40 65.83
  L 211.45 65.54
  A 0.33 0.33 0.0 0 0 211.25 66.14
  L 217.88 70.55
  A 0.33 0.33 0.0 0 1 218.01 70.94
  L 215.26 78.42
  A 0.33 0.33 0.0 0 0 215.78 78.79
  L 222.02 73.85
  A 0.33 0.33 0.0 0 1 222.43 73.85
  L 228.69 78.77
  A 0.33 0.33 0.0 0 0 229.21 78.39
  L 226.44 70.93
  A 0.33 0.33 0.0 0 1 226.57 70.54
  L 233.18 66.10
  A 0.33 0.33 0.0 0 0 232.98 65.50
  L 225.02 65.82
  Z
  M 274.20 65.85
  A 0.32 0.32 0.0 0 1 273.88 65.62
  L 271.71 58.04
  A 0.32 0.32 0.0 0 0 271.09 58.04
  L 268.95 65.63
  A 0.32 0.32 0.0 0 1 268.63 65.86
  L 260.75 65.58
  A 0.32 0.32 0.0 0 0 260.56 66.17
  L 267.11 70.55
  A 0.32 0.32 0.0 0 1 267.24 70.92
  L 264.54 78.33
  A 0.32 0.32 0.0 0 0 265.04 78.69
  L 271.23 73.82
  A 0.32 0.32 0.0 0 1 271.63 73.81
  L 277.83 78.67
  A 0.32 0.32 0.0 0 0 278.33 78.31
  L 275.61 70.91
  A 0.32 0.32 0.0 0 1 275.73 70.53
  L 282.26 66.13
  A 0.32 0.32 0.0 0 0 282.07 65.54
  L 274.20 65.85
  Z
  M 52.69 86.31
  A 0.33 0.33 0.0 0 1 52.36 86.07
  L 50.22 78.47
  A 0.33 0.33 0.0 0 0 49.58 78.47
  L 47.44 86.07
  A 0.33 0.33 0.0 0 1 47.11 86.31
  L 39.21 86.00
  A 0.33 0.33 0.0 0 0 39.01 86.61
  L 45.58 91.00
  A 0.33 0.33 0.0 0 1 45.71 91.39
  L 42.98 98.80
  A 0.33 0.33 0.0 0 0 43.49 99.17
  L 49.70 94.28
  A 0.33 0.33 0.0 0 1 50.10 94.28
  L 56.31 99.17
  A 0.33 0.33 0.0 0 0 56.82 98.80
  L 54.09 91.39
  A 0.33 0.33 0.0 0 1 54.22 91.00
  L 60.79 86.61
  A 0.33 0.33 0.0 0 0 60.59 86.00
  L 52.69 86.31
  Z
  M 102.00 86.33
  A 0.40 0.40 0.0 0 1 101.60 86.03
  L 99.54 78.49
  A 0.40 0.40 0.0 0 0 98.76 78.49
  L 96.70 86.03
  A 0.40 0.40 0.0 0 1 96.30 86.33
  L 88.48 85.96
  A 0.40 0.40 0.0 0 0 88.25 86.69
  L 94.78 90.99
  A 0.40 0.40 0.0 0 1 94.94 91.46
  L 92.17 98.78
  A 0.40 0.40 0.0 0 0 92.80 99.23
  L 98.90 94.34
  A 0.40 0.40 0.0 0 1 99.40 94.34
  L 105.50 99.23
  A 0.40 0.40 0.0 0 0 106.13 98.78
  L 103.36 91.46
  A 0.40 0.40 0.0 0 1 103.52 90.99
  L 110.05 86.69
  A 0.40 0.40 0.0 0 0 109.82 85.96
  L 102.00 86.33
  Z
  M 151.24 86.35
  A 0.40 0.40 0.0 0 1 150.83 86.05
  L 148.79 78.46
  A 0.40 0.40 0.0 0 0 148.01 78.45
  L 145.94 86.05
  A 0.40 0.40 0.0 0 1 145.54 86.34
  L 137.68 85.94
  A 0.40 0.40 0.0 0 0 137.44 86.67
  L 144.02 90.98
  A 0.40 0.40 0.0 0 1 144.17 91.46
  L 141.36 98.81
  A 0.40 0.40 0.0 0 0 141.98 99.27
  L 148.12 94.34
  A 0.40 0.40 0.0 0 1 148.62 94.34
  L 154.74 99.29
  A 0.40 0.40 0.0 0 0 155.37 98.84
  L 152.58 91.48
  A 0.40 0.40 0.0 0 1 152.74 91.00
  L 159.33 86.71
  A 0.40 0.40 0.0 0 0 159.09 85.97
  L 151.24 86.35
  Z
  M 200.45 86.37
  A 0.40 0.40 0.0 0 1 200.04 86.08
  L 198.02 78.59
  A 0.40 0.40 0.0 0 0 197.24 78.59
  L 195.19 86.07
  A 0.40 0.40 0.0 0 1 194.79 86.37
  L 187.03 85.98
  A 0.40 0.40 0.0 0 0 186.79 86.71
  L 193.28 90.98
  A 0.40 0.40 0.0 0 1 193.43 91.45
  L 190.67 98.70
  A 0.40 0.40 0.0 0 0 191.29 99.16
  L 197.35 94.31
  A 0.40 0.40 0.0 0 1 197.85 94.31
  L 203.90 99.18
  A 0.40 0.40 0.0 0 0 204.52 98.73
  L 201.78 91.47
  A 0.40 0.40 0.0 0 1 201.94 90.99
  L 208.44 86.75
  A 0.40 0.40 0.0 0 0 208.20 86.01
  L 200.45 86.37
  Z
  M 249.67 86.34
  A 0.40 0.40 0.0 0 1 249.26 86.04
  L 247.21 78.55
  A 0.40 0.40 0.0 0 0 246.43 78.55
  L 244.38 86.04
  A 0.40 0.40 0.0 0 1 243.97 86.34
  L 236.22 85.98
  A 0.40 0.40 0.0 0 0 235.98 86.71
  L 242.46 90.98
  A 0.40 0.40 0.0 0 1 242.62 91.46
  L 239.88 98.73
  A 0.40 0.40 0.0 0 0 240.50 99.18
  L 246.57 94.33
  A 0.40 0.40 0.0 0 1 247.07 94.33
  L 253.14 99.18
  A 0.40 0.40 0.0 0 0 253.76 98.73
  L 251.02 91.46
  A 0.40 0.40 0.0 0 1 251.18 90.98
  L 257.66 86.71
  A 0.40 0.40 0.0 0 0 257.42 85.98
  L 249.67 86.34
  Z
  M 175.86 109.53
  A 0.41 0.41 0.0 0 1 175.44 109.23
  L 173.38 101.67
  A 0.41 0.41 0.0 0 0 172.58 101.67
  L 170.52 109.23
  A 0.41 0.41 0.0 0 1 170.10 109.53
  L 162.27 109.16
  A 0.41 0.41 0.0 0 0 162.02 109.92
  L 168.58 114.22
  A 0.41 0.41 0.0 0 1 168.74 114.71
  L 165.96 122.05
  A 0.41 0.41 0.0 0 0 166.60 122.51
  L 172.72 117.61
  A 0.41 0.41 0.0 0 1 173.24 117.61
  L 179.36 122.51
  A 0.41 0.41 0.0 0 0 180.00 122.05
  L 177.22 114.71
  A 0.41 0.41 0.0 0 1 177.38 114.22
  L 183.94 109.92
  A 0.41 0.41 0.0 0 0 183.69 109.16
  L 175.86 109.53
  Z
  M 28.14 109.54
  A 0.41 0.41 0.0 0 1 27.73 109.24
  L 25.66 101.77
  A 0.41 0.41 0.0 0 0 24.87 101.77
  L 22.82 109.24
  A 0.41 0.41 0.0 0 1 22.41 109.55
  L 14.66 109.21
  A 0.41 0.41 0.0 0 0 14.42 109.96
  L 20.90 114.21
  A 0.41 0.41 0.0 0 1 21.06 114.70
  L 18.34 121.96
  A 0.41 0.41 0.0 0 0 18.98 122.42
  L 25.03 117.57
  A 0.41 0.41 0.0 0 1 25.54 117.57
  L 31.61 122.40
  A 0.41 0.41 0.0 0 0 32.25 121.93
  L 29.51 114.68
  A 0.41 0.41 0.0 0 1 29.66 114.20
  L 36.13 109.92
  A 0.41 0.41 0.0 0 0 35.88 109.17
  L 28.14 109.54
  Z
  M 77.38 109.57
  A 0.40 0.40 0.0 0 1 76.98 109.28
  L 74.92 101.81
  A 0.40 0.40 0.0 0 0 74.14 101.81
  L 72.08 109.28
  A 0.40 0.40 0.0 0 1 71.68 109.57
  L 63.94 109.23
  A 0.40 0.40 0.0 0 0 63.71 109.96
  L 70.17 114.23
  A 0.40 0.40 0.0 0 1 70.32 114.70
  L 67.60 121.95
  A 0.40 0.40 0.0 0 0 68.23 122.40
  L 74.28 117.58
  A 0.40 0.40 0.0 0 1 74.78 117.58
  L 80.83 122.40
  A 0.40 0.40 0.0 0 0 81.46 121.95
  L 78.74 114.70
  A 0.40 0.40 0.0 0 1 78.89 114.23
  L 85.35 109.96
  A 0.40 0.40 0.0 0 0 85.12 109.23
  L 77.38 109.57
  Z
  M 126.59 109.58
  A 0.40 0.40 0.0 0 1 126.19 109.29
  L 124.14 101.82
  A 0.40 0.40 0.0 0 0 123.36 101.82
  L 121.31 109.29
  A 0.40 0.40 0.0 0 1 120.91 109.58
  L 113.17 109.23
  A 0.40 0.40 0.0 0 0 112.93 109.96
  L 119.40 114.22
  A 0.40 0.40 0.0 0 1 119.56 114.70
  L 116.82 121.95
  A 0.40 0.40 0.0 0 0 117.45 122.40
  L 123.50 117.56
  A 0.40 0.40 0.0 0 1 124.00 117.56
  L 130.05 122.40
  A 0.40 0.40 0.0 0 0 130.68 121.95
  L 127.94 114.70
  A 0.40 0.40 0.0 0 1 128.10 114.22
  L 134.57 109.96
  A 0.40 0.40 0.0 0 0 134.33 109.23
  L 126.59 109.58
  Z
  M 225.07 109.57
  A 0.40 0.40 0.0 0 1 224.66 109.27
  L 222.61 101.79
  A 0.40 0.40 0.0 0 0 221.83 101.79
  L 219.78 109.27
  A 0.40 0.40 0.0 0 1 219.37 109.57
  L 211.62 109.21
  A 0.40 0.40 0.0 0 0 211.38 109.94
  L 217.86 114.21
  A 0.40 0.40 0.0 0 1 218.02 114.69
  L 215.29 121.95
  A 0.40 0.40 0.0 0 0 215.91 122.40
  L 221.97 117.56
  A 0.40 0.40 0.0 0 1 222.47 117.56
  L 228.53 122.40
  A 0.40 0.40 0.0 0 0 229.15 121.95
  L 226.42 114.69
  A 0.40 0.40 0.0 0 1 226.58 114.21
  L 233.06 109.94
  A 0.40 0.40 0.0 0 0 232.82 109.21
  L 225.07 109.57
  Z
  M 274.30 109.58
  A 0.40 0.40 0.0 0 1 273.90 109.29
  L 271.83 101.79
  A 0.40 0.40 0.0 0 0 271.05 101.79
  L 269.01 109.30
  A 0.40 0.40 0.0 0 1 268.61 109.59
  L 260.83 109.24
  A 0.40 0.40 0.0 0 0 260.60 109.98
  L 267.10 114.24
  A 0.40 0.40 0.0 0 1 267.26 114.72
  L 264.53 122.00
  A 0.40 0.40 0.0 0 0 265.15 122.45
  L 271.22 117.58
  A 0.40 0.40 0.0 0 1 271.72 117.58
  L 277.80 122.43
  A 0.40 0.40 0.0 0 0 278.43 121.98
  L 275.67 114.70
  A 0.40 0.40 0.0 0 1 275.82 114.23
  L 282.31 109.94
  A 0.40 0.40 0.0 0 0 282.07 109.20
  L 274.30 109.58
  Z
  M 52.63 130.13
  A 0.33 0.33 0.0 0 1 52.30 129.88
  L 50.20 122.20
  A 0.33 0.33 0.0 0 0 49.56 122.20
  L 47.46 129.88
  A 0.33 0.33 0.0 0 1 47.13 130.13
  L 39.17 129.75
  A 0.33 0.33 0.0 0 0 38.97 130.35
  L 45.64 134.72
  A 0.33 0.33 0.0 0 1 45.76 135.11
  L 42.94 142.57
  A 0.33 0.33 0.0 0 0 43.46 142.94
  L 49.67 137.96
  A 0.33 0.33 0.0 0 1 50.09 137.96
  L 56.30 142.94
  A 0.33 0.33 0.0 0 0 56.82 142.57
  L 54.00 135.11
  A 0.33 0.33 0.0 0 1 54.12 134.72
  L 60.79 130.35
  A 0.33 0.33 0.0 0 0 60.59 129.75
  L 52.63 130.13
  Z
  M 101.91 130.09
  A 0.32 0.32 0.0 0 1 101.59 129.86
  L 99.46 122.17
  A 0.32 0.32 0.0 0 0 98.84 122.17
  L 96.71 129.86
  A 0.32 0.32 0.0 0 1 96.39 130.09
  L 88.42 129.74
  A 0.32 0.32 0.0 0 0 88.23 130.33
  L 94.89 134.73
  A 0.32 0.32 0.0 0 1 95.01 135.11
  L 92.21 142.58
  A 0.32 0.32 0.0 0 0 92.71 142.94
  L 98.95 137.97
  A 0.32 0.32 0.0 0 1 99.35 137.97
  L 105.59 142.94
  A 0.32 0.32 0.0 0 0 106.09 142.58
  L 103.29 135.11
  A 0.32 0.32 0.0 0 1 103.41 134.73
  L 110.07 130.33
  A 0.32 0.32 0.0 0 0 109.88 129.74
  L 101.91 130.09
  Z
  M 151.17 130.06
  A 0.32 0.32 0.0 0 1 150.85 129.82
  L 148.69 122.19
  A 0.32 0.32 0.0 0 0 148.07 122.19
  L 145.91 129.82
  A 0.32 0.32 0.0 0 1 145.59 130.06
  L 137.66 129.75
  A 0.32 0.32 0.0 0 0 137.47 130.34
  L 144.06 134.75
  A 0.32 0.32 0.0 0 1 144.18 135.13
  L 141.45 142.58
  A 0.32 0.32 0.0 0 0 141.94 142.94
  L 148.18 138.04
  A 0.32 0.32 0.0 0 1 148.58 138.04
  L 154.82 142.94
  A 0.32 0.32 0.0 0 0 155.31 142.58
  L 152.58 135.13
  A 0.32 0.32 0.0 0 1 152.70 134.75
  L 159.29 130.34
  A 0.32 0.32 0.0 0 0 159.10 129.75
  L 151.17 130.06
  Z
  M 200.38 130.09
  A 0.33 0.33 0.0 0 1 200.05 129.85
  L 197.92 122.13
  A 0.33 0.33 0.0 0 0 197.28 122.13
  L 195.15 129.85
  A 0.33 0.33 0.0 0 1 194.82 130.09
  L 186.82 129.73
  A 0.33 0.33 0.0 0 0 186.62 130.34
  L 193.30 134.75
  A 0.33 0.33 0.0 0 1 193.43 135.14
  L 190.62 142.64
  A 0.33 0.33 0.0 0 0 191.13 143.01
  L 197.39 138.02
  A 0.33 0.33 0.0 0 1 197.81 138.02
  L 204.07 143.01
  A 0.33 0.33 0.0 0 0 204.58 142.64
  L 201.77 135.14
  A 0.33 0.33 0.0 0 1 201.90 134.75
  L 208.58 130.34
  A 0.33 0.33 0.0 0 0 208.38 129.73
  L 200.38 130.09
  Z
  M 249.64 130.05
  A 0.33 0.33 0.0 0 1 249.31 129.81
  L 247.16 122.20
  A 0.33 0.33 0.0 0 0 246.52 122.20
  L 244.37 129.81
  A 0.33 0.33 0.0 0 1 244.04 130.05
  L 236.15 129.74
  A 0.33 0.33 0.0 0 0 235.95 130.35
  L 242.52 134.74
  A 0.33 0.33 0.0 0 1 242.64 135.13
  L 239.91 142.54
  A 0.33 0.33 0.0 0 0 240.43 142.92
  L 246.64 138.03
  A 0.33 0.33 0.0 0 1 247.04 138.03
  L 253.25 142.92
  A 0.33 0.33 0.0 0 0 253.77 142.54
  L 251.04 135.13
  A 0.33 0.33 0.0 0 1 251.16 134.74
  L 257.73 130.35
  A 0.33 0.33 0.0 0 0 257.53 129.74
  L 249.64 130.05
  Z
  M 175.81 153.22
  A 0.34 0.34 0.0 0 1 175.46 152.97
  L 173.31 145.29
  A 0.34 0.34 0.0 0 0 172.65 145.29
  L 170.50 152.97
  A 0.34 0.34 0.0 0 1 170.15 153.22
  L 162.18 152.90
  A 0.34 0.34 0.0 0 0 161.98 153.52
  L 168.62 157.95
  A 0.34 0.34 0.0 0 1 168.75 158.35
  L 165.98 165.83
  A 0.34 0.34 0.0 0 0 166.51 166.22
  L 172.77 161.27
  A 0.34 0.34 0.0 0 1 173.19 161.27
  L 179.45 166.22
  A 0.34 0.34 0.0 0 0 179.98 165.83
  L 177.21 158.35
  A 0.34 0.34 0.0 0 1 177.34 157.95
  L 183.98 153.52
  A 0.34 0.34 0.0 0 0 183.78 152.90
  L 175.81 153.22
  Z
  M 28.14 153.26
  A 0.39 0.39 0.0 0 1 27.75 152.97
  L 25.66 145.44
  A 0.39 0.39 0.0 0 0 24.90 145.44
  L 22.84 152.98
  A 0.39 0.39 0.0 0 1 22.44 153.27
  L 14.64 152.93
  A 0.39 0.39 0.0 0 0 14.40 153.65
  L 20.93 157.94
  A 0.39 0.39 0.0 0 1 21.09 158.40
  L 18.35 165.73
  A 0.39 0.39 0.0 0 0 18.96 166.17
  L 25.06 161.28
  A 0.39 0.39 0.0 0 1 25.55 161.28
  L 31.67 166.14
  A 0.39 0.39 0.0 0 0 32.28 165.70
  L 29.52 158.39
  A 0.39 0.39 0.0 0 1 29.67 157.93
  L 36.18 153.61
  A 0.39 0.39 0.0 0 0 35.95 152.89
  L 28.14 153.26
  Z
  M 77.33 153.27
  A 0.34 0.34 0.0 0 1 76.99 153.03
  L 74.85 145.35
  A 0.34 0.34 0.0 0 0 74.19 145.35
  L 72.05 153.03
  A 0.34 0.34 0.0 0 1 71.71 153.27
  L 63.75 152.94
  A 0.34 0.34 0.0 0 0 63.55 153.56
  L 70.19 157.97
  A 0.34 0.34 0.0 0 1 70.32 158.37
  L 67.54 165.83
  A 0.34 0.34 0.0 0 0 68.07 166.22
  L 74.31 161.27
  A 0.34 0.34 0.0 0 1 74.73 161.27
  L 80.97 166.22
  A 0.34 0.34 0.0 0 0 81.50 165.83
  L 78.72 158.37
  A 0.34 0.34 0.0 0 1 78.85 157.97
  L 85.49 153.56
  A 0.34 0.34 0.0 0 0 85.29 152.94
  L 77.33 153.27
  Z
  M 126.51 153.31
  A 0.32 0.32 0.0 0 1 126.19 153.07
  L 124.05 145.48
  A 0.32 0.32 0.0 0 0 123.43 145.48
  L 121.29 153.07
  A 0.32 0.32 0.0 0 1 120.97 153.31
  L 113.09 153.00
  A 0.32 0.32 0.0 0 0 112.90 153.58
  L 119.46 157.96
  A 0.32 0.32 0.0 0 1 119.58 158.34
  L 116.85 165.74
  A 0.32 0.32 0.0 0 0 117.35 166.10
  L 123.54 161.22
  A 0.32 0.32 0.0 0 1 123.94 161.22
  L 130.13 166.10
  A 0.32 0.32 0.0 0 0 130.63 165.74
  L 127.90 158.34
  A 0.32 0.32 0.0 0 1 128.02 157.96
  L 134.58 153.58
  A 0.32 0.32 0.0 0 0 134.39 153.00
  L 126.51 153.31
  Z
  M 225.02 153.26
  A 0.33 0.33 0.0 0 1 224.69 153.02
  L 222.53 145.30
  A 0.33 0.33 0.0 0 0 221.89 145.30
  L 219.75 153.03
  A 0.33 0.33 0.0 0 1 219.42 153.27
  L 211.41 152.94
  A 0.33 0.33 0.0 0 0 211.22 153.55
  L 217.91 157.97
  A 0.33 0.33 0.0 0 1 218.03 158.36
  L 215.25 165.87
  A 0.33 0.33 0.0 0 0 215.76 166.25
  L 222.03 161.25
  A 0.33 0.33 0.0 0 1 222.44 161.25
  L 228.73 166.22
  A 0.33 0.33 0.0 0 0 229.24 165.85
  L 226.43 158.34
  A 0.33 0.33 0.0 0 1 226.56 157.95
  L 233.23 153.51
  A 0.33 0.33 0.0 0 0 233.03 152.90
  L 225.02 153.26
  Z
  M 274.23 153.33
  A 0.33 0.33 0.0 0 1 273.90 153.08
  L 271.77 145.40
  A 0.33 0.33 0.0 0 0 271.13 145.40
  L 269.00 153.08
  A 0.33 0.33 0.0 0 1 268.67 153.33
  L 260.71 152.97
  A 0.33 0.33 0.0 0 0 260.51 153.58
  L 267.16 157.98
  A 0.33 0.33 0.0 0 1 267.29 158.37
  L 264.49 165.84
  A 0.33 0.33 0.0 0 0 265.01 166.21
  L 271.24 161.24
  A 0.33 0.33 0.0 0 1 271.66 161.24
  L 277.89 166.21
  A 0.33 0.33 0.0 0 0 278.41 165.84
  L 275.61 158.37
  A 0.33 0.33 0.0 0 1 275.74 157.98
  L 282.39 153.58
  A 0.33 0.33 0.0 0 0 282.19 152.97
  L 274.23 153.33
  Z
  M 52.71 173.74
  A 0.33 0.33 0.0 0 1 52.37 173.49
  L 50.22 165.73
  A 0.33 0.33 0.0 0 0 49.58 165.73
  L 47.43 173.49
  A 0.33 0.33 0.0 0 1 47.09 173.74
  L 39.05 173.39
  A 0.33 0.33 0.0 0 0 38.85 173.99
  L 45.56 178.44
  A 0.33 0.33 0.0 0 1 45.69 178.83
  L 42.87 186.38
  A 0.33 0.33 0.0 0 0 43.39 186.75
  L 49.69 181.74
  A 0.33 0.33 0.0 0 1 50.11 181.74
  L 56.41 186.75
  A 0.33 0.33 0.0 0 0 56.93 186.38
  L 54.11 178.83
  A 0.33 0.33 0.0 0 1 54.24 178.44
  L 60.95 173.99
  A 0.33 0.33 0.0 0 0 60.75 173.39
  L 52.71 173.74
  Z
  M 101.95 173.70
  A 0.32 0.32 0.0 0 1 101.63 173.47
  L 99.45 165.77
  A 0.32 0.32 0.0 0 0 98.83 165.77
  L 96.65 173.47
  A 0.32 0.32 0.0 0 1 96.33 173.70
  L 88.32 173.40
  A 0.32 0.32 0.0 0 0 88.13 173.99
  L 94.78 178.45
  A 0.32 0.32 0.0 0 1 94.91 178.82
  L 92.15 186.34
  A 0.32 0.32 0.0 0 0 92.64 186.70
  L 98.94 181.76
  A 0.32 0.32 0.0 0 1 99.34 181.76
  L 105.64 186.70
  A 0.32 0.32 0.0 0 0 106.13 186.34
  L 103.37 178.82
  A 0.32 0.32 0.0 0 1 103.50 178.45
  L 110.15 173.99
  A 0.32 0.32 0.0 0 0 109.96 173.40
  L 101.95 173.70
  Z
  M 249.64 173.75
  A 0.33 0.33 0.0 0 1 249.31 173.51
  L 247.17 165.81
  A 0.33 0.33 0.0 0 0 246.53 165.80
  L 244.36 173.50
  A 0.33 0.33 0.0 0 1 244.03 173.74
  L 236.04 173.40
  A 0.33 0.33 0.0 0 0 235.84 174.00
  L 242.49 178.45
  A 0.33 0.33 0.0 0 1 242.62 178.84
  L 239.82 186.33
  A 0.33 0.33 0.0 0 0 240.34 186.70
  L 246.62 181.75
  A 0.33 0.33 0.0 0 1 247.03 181.75
  L 253.29 186.73
  A 0.33 0.33 0.0 0 0 253.80 186.35
  L 251.04 178.85
  A 0.33 0.33 0.0 0 1 251.16 178.46
  L 257.83 174.04
  A 0.33 0.33 0.0 0 0 257.63 173.44
  L 249.64 173.75
  Z
  M 151.19 173.72
  A 0.33 0.33 0.0 0 1 150.86 173.48
  L 148.69 165.91
  A 0.33 0.33 0.0 0 0 148.05 165.91
  L 145.88 173.48
  A 0.33 0.33 0.0 0 1 145.55 173.72
  L 137.67 173.45
  A 0.33 0.33 0.0 0 0 137.47 174.05
  L 144.01 178.46
  A 0.33 0.33 0.0 0 1 144.14 178.85
  L 141.44 186.26
  A 0.33 0.33 0.0 0 0 141.95 186.63
  L 148.17 181.78
  A 0.33 0.33 0.0 0 1 148.57 181.78
  L 154.79 186.63
  A 0.33 0.33 0.0 0 0 155.30 186.26
  L 152.60 178.85
  A 0.33 0.33 0.0 0 1 152.73 178.46
  L 159.27 174.05
  A 0.33 0.33 0.0 0 0 159.07 173.45
  L 151.19 173.72
  Z
  M 200.42 173.75
  A 0.33 0.33 0.0 0 1 200.09 173.51
  L 197.93 165.90
  A 0.33 0.33 0.0 0 0 197.29 165.90
  L 195.13 173.51
  A 0.33 0.33 0.0 0 1 194.80 173.75
  L 186.89 173.45
  A 0.33 0.33 0.0 0 0 186.70 174.06
  L 193.27 178.47
  A 0.33 0.33 0.0 0 1 193.39 178.85
  L 190.67 186.28
  A 0.33 0.33 0.0 0 0 191.18 186.66
  L 197.41 181.77
  A 0.33 0.33 0.0 0 1 197.81 181.77
  L 204.04 186.66
  A 0.33 0.33 0.0 0 0 204.55 186.28
  L 201.83 178.85
  A 0.33 0.33 0.0 0 1 201.95 178.47
  L 208.52 174.06
  A 0.33 0.33 0.0 0 0 208.33 173.45
  L 200.42 173.75
  Z
  M 28.08 196.98
  A 0.32 0.32 0.0 0 1 27.76 196.74
  L 25.60 189.07
  A 0.32 0.32 0.0 0 0 24.98 189.07
  L 22.82 196.74
  A 0.32 0.32 0.0 0 1 22.50 196.98
  L 14.54 196.66
  A 0.32 0.32 0.0 0 0 14.35 197.25
  L 20.97 201.67
  A 0.32 0.32 0.0 0 1 21.09 202.05
  L 18.34 209.53
  A 0.32 0.32 0.0 0 0 18.83 209.89
  L 25.09 204.96
  A 0.32 0.32 0.0 0 1 25.49 204.96
  L 31.75 209.89
  A 0.32 0.32 0.0 0 0 32.24 209.53
  L 29.49 202.05
  A 0.32 0.32 0.0 0 1 29.61 201.67
  L 36.23 197.25
  A 0.32 0.32 0.0 0 0 36.04 196.66
  L 28.08 196.98
  Z
  M 175.79 196.96
  A 0.33 0.33 0.0 0 1 175.46 196.72
  L 173.30 189.06
  A 0.33 0.33 0.0 0 0 172.66 189.06
  L 170.50 196.72
  A 0.33 0.33 0.0 0 1 170.17 196.96
  L 162.22 196.65
  A 0.33 0.33 0.0 0 0 162.02 197.25
  L 168.64 201.68
  A 0.33 0.33 0.0 0 1 168.76 202.07
  L 166.01 209.53
  A 0.33 0.33 0.0 0 0 166.53 209.90
  L 172.78 204.98
  A 0.33 0.33 0.0 0 1 173.18 204.98
  L 179.43 209.90
  A 0.33 0.33 0.0 0 0 179.95 209.53
  L 177.20 202.07
  A 0.33 0.33 0.0 0 1 177.32 201.68
  L 183.94 197.25
  A 0.33 0.33 0.0 0 0 183.74 196.65
  L 175.79 196.96
  Z
  M 225.00 197.00
  A 0.34 0.34 0.0 0 1 224.66 196.76
  L 222.52 189.05
  A 0.34 0.34 0.0 0 0 221.86 189.05
  L 219.75 196.76
  A 0.34 0.34 0.0 0 1 219.41 197.01
  L 211.41 196.67
  A 0.34 0.34 0.0 0 0 211.21 197.29
  L 217.90 201.69
  A 0.34 0.34 0.0 0 1 218.03 202.09
  L 215.23 209.58
  A 0.34 0.34 0.0 0 0 215.76 209.97
  L 222.01 204.97
  A 0.34 0.34 0.0 0 1 222.43 204.97
  L 228.69 209.95
  A 0.34 0.34 0.0 0 0 229.22 209.56
  L 226.40 202.08
  A 0.34 0.34 0.0 0 1 226.53 201.67
  L 233.20 197.25
  A 0.34 0.34 0.0 0 0 232.99 196.63
  L 225.00 197.00
  Z
  M 77.30 197.03
  A 0.33 0.33 0.0 0 1 76.97 196.79
  L 74.83 189.13
  A 0.33 0.33 0.0 0 0 74.19 189.13
  L 72.05 196.79
  A 0.33 0.33 0.0 0 1 71.72 197.03
  L 63.77 196.70
  A 0.33 0.33 0.0 0 0 63.58 197.30
  L 70.20 201.70
  A 0.33 0.33 0.0 0 1 70.33 202.09
  L 67.56 209.55
  A 0.33 0.33 0.0 0 0 68.07 209.92
  L 74.31 204.98
  A 0.33 0.33 0.0 0 1 74.71 204.98
  L 80.95 209.92
  A 0.33 0.33 0.0 0 0 81.46 209.55
  L 78.69 202.09
  A 0.33 0.33 0.0 0 1 78.82 201.70
  L 85.44 197.30
  A 0.33 0.33 0.0 0 0 85.25 196.70
  L 77.30 197.03
  Z
  M 126.53 197.05
  A 0.33 0.33 0.0 0 1 126.20 196.81
  L 124.07 189.21
  A 0.33 0.33 0.0 0 0 123.43 189.21
  L 121.30 196.81
  A 0.33 0.33 0.0 0 1 120.97 197.05
  L 113.08 196.73
  A 0.33 0.33 0.0 0 0 112.89 197.33
  L 119.45 201.71
  A 0.33 0.33 0.0 0 1 119.58 202.10
  L 116.84 209.50
  A 0.33 0.33 0.0 0 0 117.35 209.87
  L 123.55 204.98
  A 0.33 0.33 0.0 0 1 123.95 204.98
  L 130.15 209.87
  A 0.33 0.33 0.0 0 0 130.66 209.50
  L 127.92 202.10
  A 0.33 0.33 0.0 0 1 128.05 201.71
  L 134.61 197.33
  A 0.33 0.33 0.0 0 0 134.42 196.73
  L 126.53 197.05
  Z
  M 274.18 197.03
  A 0.31 0.31 0.0 0 1 273.87 196.81
  L 271.71 189.21
  A 0.31 0.31 0.0 0 0 271.11 189.21
  L 268.97 196.82
  A 0.31 0.31 0.0 0 1 268.66 197.04
  L 260.77 196.75
  A 0.31 0.31 0.0 0 0 260.59 197.32
  L 267.16 201.70
  A 0.31 0.31 0.0 0 1 267.28 202.07
  L 264.56 209.49
  A 0.31 0.31 0.0 0 0 265.05 209.84
  L 271.25 204.94
  A 0.31 0.31 0.0 0 1 271.63 204.94
  L 277.84 209.81
  A 0.31 0.31 0.0 0 0 278.33 209.46
  L 275.59 202.05
  A 0.31 0.31 0.0 0 1 275.71 201.69
  L 282.26 197.28
  A 0.31 0.31 0.0 0 0 282.07 196.72
  L 274.18 197.03
  Z"
/>
<path fill="#c93a59" d="
  M 298.56 0.00
  L 640.00 0.00
  L 640.00 32.56
  L 298.54 32.75
  L 298.56 0.00
  Z"
/>
<path fill="#ffffff" d="
  M 28.08 22.14
  L 36.05 21.79
  A 0.33 0.33 0.0 0 1 36.25 22.40
  L 29.60 26.80
  A 0.33 0.33 0.0 0 0 29.47 27.19
  L 32.26 34.66
  A 0.33 0.33 0.0 0 1 31.75 35.03
  L 25.51 30.07
  A 0.33 0.33 0.0 0 0 25.09 30.07
  L 18.85 35.03
  A 0.33 0.33 0.0 0 1 18.34 34.66
  L 21.13 27.19
  A 0.33 0.33 0.0 0 0 21.00 26.80
  L 14.35 22.40
  A 0.33 0.33 0.0 0 1 14.55 21.79
  L 22.52 22.14
  A 0.33 0.33 0.0 0 0 22.85 21.90
  L 24.98 14.21
  A 0.33 0.33 0.0 0 1 25.62 14.21
  L 27.75 21.90
  A 0.33 0.33 0.0 0 0 28.08 22.14
  Z"
/>
<path fill="#ffffff" d="
  M 77.30 22.17
  L 85.23 21.85
  A 0.32 0.32 0.0 0 1 85.42 22.43
  L 78.82 26.84
  A 0.32 0.32 0.0 0 0 78.70 27.21
  L 81.45 34.65
  A 0.32 0.32 0.0 0 1 80.95 35.02
  L 74.73 30.10
  A 0.32 0.32 0.0 0 0 74.33 30.10
  L 68.11 35.02
  A 0.32 0.32 0.0 0 1 67.61 34.65
  L 70.36 27.21
  A 0.32 0.32 0.0 0 0 70.24 26.84
  L 63.64 22.43
  A 0.32 0.32 0.0 0 1 63.83 21.85
  L 71.76 22.17
  A 0.32 0.32 0.0 0 0 72.08 21.94
  L 74.22 14.30
  A 0.32 0.32 0.0 0 1 74.84 14.30
  L 76.98 21.94
  A 0.32 0.32 0.0 0 0 77.30 22.17
  Z"
/>
<path fill="#ffffff" d="
  M 175.82 22.14
  L 183.57 21.80
  A 0.39 0.39 0.0 0 1 183.80 22.51
  L 177.33 26.79
  A 0.39 0.39 0.0 0 0 177.18 27.25
  L 179.90 34.51
  A 0.39 0.39 0.0 0 1 179.29 34.95
  L 173.22 30.12
  A 0.39 0.39 0.0 0 0 172.74 30.12
  L 166.67 34.95
  A 0.39 0.39 0.0 0 1 166.06 34.51
  L 168.78 27.25
  A 0.39 0.39 0.0 0 0 168.63 26.79
  L 162.16 22.51
  A 0.39 0.39 0.0 0 1 162.39 21.80
  L 170.14 22.14
  A 0.39 0.39 0.0 0 0 170.54 21.85
  L 172.60 14.38
  A 0.39 0.39 0.0 0 1 173.36 14.38
  L 175.42 21.85
  A 0.39 0.39 0.0 0 0 175.82 22.14
  Z"
/>
<path fill="#ffffff" d="
  M 225.00 22.14
  L 233.00 21.81
  A 0.32 0.32 0.0 0 1 233.19 22.40
  L 226.51 26.81
  A 0.32 0.32 0.0 0 0 226.39 27.19
  L 229.17 34.70
  A 0.32 0.32 0.0 0 1 228.67 35.06
  L 222.41 30.07
  A 0.32 0.32 0.0 0 0 222.01 30.07
  L 215.73 35.04
  A 0.32 0.32 0.0 0 1 215.24 34.67
  L 218.05 27.18
  A 0.32 0.32 0.0 0 0 217.93 26.80
  L 211.26 22.36
  A 0.32 0.32 0.0 0 1 211.45 21.78
  L 219.45 22.13
  A 0.32 0.32 0.0 0 0 219.77 21.90
  L 221.93 14.19
  A 0.32 0.32 0.0 0 1 222.55 14.19
  L 224.68 21.91
  A 0.32 0.32 0.0 0 0 225.00 22.14
  Z"
/>
<path fill="#ffffff" d="
  M 126.52 22.19
  L 134.44 21.83
  A 0.33 0.33 0.0 0 1 134.64 22.44
  L 128.02 26.81
  A 0.33 0.33 0.0 0 0 127.89 27.20
  L 130.68 34.63
  A 0.33 0.33 0.0 0 1 130.17 35.00
  L 123.97 30.05
  A 0.33 0.33 0.0 0 0 123.55 30.05
  L 117.35 35.00
  A 0.33 0.33 0.0 0 1 116.84 34.63
  L 119.63 27.20
  A 0.33 0.33 0.0 0 0 119.50 26.81
  L 112.88 22.44
  A 0.33 0.33 0.0 0 1 113.08 21.83
  L 121.00 22.19
  A 0.33 0.33 0.0 0 0 121.33 21.95
  L 123.44 14.30
  A 0.33 0.33 0.0 0 1 124.08 14.30
  L 126.19 21.95
  A 0.33 0.33 0.0 0 0 126.52 22.19
  Z"
/>
<path fill="#ffffff" d="
  M 274.21 22.23
  L 282.19 21.83
  A 0.34 0.34 0.0 0 1 282.39 22.45
  L 275.70 26.81
  A 0.34 0.34 0.0 0 0 275.57 27.22
  L 278.42 34.68
  A 0.34 0.34 0.0 0 1 277.89 35.06
  L 271.67 30.05
  A 0.34 0.34 0.0 0 0 271.25 30.05
  L 265.03 35.06
  A 0.34 0.34 0.0 0 1 264.50 34.68
  L 267.35 27.22
  A 0.34 0.34 0.0 0 0 267.22 26.81
  L 260.53 22.45
  A 0.34 0.34 0.0 0 1 260.73 21.83
  L 268.71 22.23
  A 0.34 0.34 0.0 0 0 269.05 21.98
  L 271.13 14.28
  A 0.34 0.34 0.0 0 1 271.79 14.28
  L 273.87 21.98
  A 0.34 0.34 0.0 0 0 274.21 22.23
  Z"
/>
<path fill="#ffffff" d="
  M 640.00 32.56
  L 640.00 64.56
  C 639.48 64.35 639.68 64.25 638.98 64.25
  Q 468.76 64.25 298.54 64.25
  L 298.54 32.75
  L 640.00 32.56
  Z"
/>
<path fill="#ffffff" d="
  M 52.69 42.61
  L 60.62 42.29
  A 0.33 0.33 0.0 0 1 60.81 42.90
  L 54.22 47.30
  A 0.33 0.33 0.0 0 0 54.09 47.69
  L 56.84 55.12
  A 0.33 0.33 0.0 0 1 56.33 55.50
  L 50.10 50.58
  A 0.33 0.33 0.0 0 0 49.70 50.58
  L 43.47 55.50
  A 0.33 0.33 0.0 0 1 42.96 55.12
  L 45.71 47.69
  A 0.33 0.33 0.0 0 0 45.58 47.30
  L 38.99 42.90
  A 0.33 0.33 0.0 0 1 39.18 42.29
  L 47.11 42.61
  A 0.33 0.33 0.0 0 0 47.44 42.37
  L 49.58 34.74
  A 0.33 0.33 0.0 0 1 50.22 34.74
  L 52.36 42.37
  A 0.33 0.33 0.0 0 0 52.69 42.61
  Z"
/>
<path fill="#ffffff" d="
  M 102.00 42.63
  L 109.76 42.28
  A 0.40 0.40 0.0 0 1 110.00 43.01
  L 103.52 47.29
  A 0.40 0.40 0.0 0 0 103.36 47.76
  L 106.09 55.03
  A 0.40 0.40 0.0 0 1 105.47 55.48
  L 99.40 50.64
  A 0.40 0.40 0.0 0 0 98.90 50.64
  L 92.83 55.48
  A 0.40 0.40 0.0 0 1 92.21 55.03
  L 94.94 47.76
  A 0.40 0.40 0.0 0 0 94.78 47.29
  L 88.30 43.01
  A 0.40 0.40 0.0 0 1 88.54 42.28
  L 96.30 42.63
  A 0.40 0.40 0.0 0 0 96.70 42.34
  L 98.76 34.85
  A 0.40 0.40 0.0 0 1 99.54 34.85
  L 101.60 42.34
  A 0.40 0.40 0.0 0 0 102.00 42.63
  Z"
/>
<path fill="#ffffff" d="
  M 151.30 42.63
  L 159.01 42.23
  A 0.46 0.46 0.0 0 1 159.29 43.07
  L 152.81 47.29
  A 0.46 0.46 0.0 0 0 152.63 47.84
  L 155.40 55.05
  A 0.46 0.46 0.0 0 1 154.68 55.57
  L 148.67 50.71
  A 0.46 0.46 0.0 0 0 148.09 50.71
  L 142.08 55.57
  A 0.46 0.46 0.0 0 1 141.36 55.05
  L 144.13 47.84
  A 0.46 0.46 0.0 0 0 143.95 47.29
  L 137.47 43.07
  A 0.46 0.46 0.0 0 1 137.75 42.23
  L 145.46 42.63
  A 0.46 0.46 0.0 0 0 145.93 42.29
  L 147.94 34.82
  A 0.46 0.46 0.0 0 1 148.82 34.82
  L 150.83 42.29
  A 0.46 0.46 0.0 0 0 151.30 42.63
  Z"
/>
<path fill="#ffffff" d="
  M 200.44 42.62
  L 208.18 42.27
  A 0.40 0.40 0.0 0 1 208.42 43.01
  L 201.96 47.28
  A 0.40 0.40 0.0 0 0 201.80 47.75
  L 204.52 55.01
  A 0.40 0.40 0.0 0 1 203.90 55.46
  L 197.84 50.63
  A 0.40 0.40 0.0 0 0 197.34 50.63
  L 191.28 55.46
  A 0.40 0.40 0.0 0 1 190.66 55.01
  L 193.38 47.75
  A 0.40 0.40 0.0 0 0 193.22 47.28
  L 186.76 43.01
  A 0.40 0.40 0.0 0 1 187.00 42.27
  L 194.74 42.62
  A 0.40 0.40 0.0 0 0 195.14 42.33
  L 197.20 34.86
  A 0.40 0.40 0.0 0 1 197.98 34.86
  L 200.04 42.33
  A 0.40 0.40 0.0 0 0 200.44 42.62
  Z"
/>
<path fill="#ffffff" d="
  M 249.68 42.65
  L 257.47 42.26
  A 0.41 0.41 0.0 0 1 257.71 43.02
  L 251.19 47.29
  A 0.41 0.41 0.0 0 0 251.03 47.78
  L 253.80 55.07
  A 0.41 0.41 0.0 0 1 253.16 55.53
  L 247.08 50.65
  A 0.41 0.41 0.0 0 0 246.56 50.65
  L 240.48 55.53
  A 0.41 0.41 0.0 0 1 239.84 55.07
  L 242.61 47.78
  A 0.41 0.41 0.0 0 0 242.45 47.29
  L 235.93 43.02
  A 0.41 0.41 0.0 0 1 236.17 42.26
  L 243.96 42.65
  A 0.41 0.41 0.0 0 0 244.38 42.34
  L 246.42 34.82
  A 0.41 0.41 0.0 0 1 247.22 34.82
  L 249.26 42.34
  A 0.41 0.41 0.0 0 0 249.68 42.65
  Z"
/>
<path fill="#ffffff" d="
  M 175.79 65.84
  L 183.83 65.49
  A 0.33 0.33 0.0 0 1 184.03 66.10
  L 177.32 70.54
  A 0.33 0.33 0.0 0 0 177.19 70.93
  L 180.01 78.47
  A 0.33 0.33 0.0 0 1 179.49 78.84
  L 173.20 73.83
  A 0.33 0.33 0.0 0 0 172.78 73.83
  L 166.49 78.84
  A 0.33 0.33 0.0 0 1 165.97 78.47
  L 168.79 70.93
  A 0.33 0.33 0.0 0 0 168.66 70.54
  L 161.95 66.10
  A 0.33 0.33 0.0 0 1 162.15 65.49
  L 170.19 65.84
  A 0.33 0.33 0.0 0 0 170.52 65.60
  L 172.67 57.85
  A 0.33 0.33 0.0 0 1 173.31 57.85
  L 175.46 65.60
  A 0.33 0.33 0.0 0 0 175.79 65.84
  Z"
/>
<path fill="#ffffff" d="
  M 28.14 65.85
  L 35.95 65.47
  A 0.40 0.40 0.0 0 1 36.19 66.20
  L 29.66 70.51
  A 0.40 0.40 0.0 0 0 29.51 70.98
  L 32.28 78.29
  A 0.40 0.40 0.0 0 1 31.66 78.75
  L 25.55 73.87
  A 0.40 0.40 0.0 0 0 25.05 73.87
  L 18.95 78.77
  A 0.40 0.40 0.0 0 1 18.33 78.32
  L 21.08 71.00
  A 0.40 0.40 0.0 0 0 20.93 70.52
  L 14.38 66.24
  A 0.40 0.40 0.0 0 1 14.62 65.51
  L 22.43 65.86
  A 0.40 0.40 0.0 0 0 22.83 65.57
  L 24.88 58.02
  A 0.40 0.40 0.0 0 1 25.66 58.02
  L 27.73 65.56
  A 0.40 0.40 0.0 0 0 28.14 65.85
  Z"
/>
<path fill="#ffffff" d="
  M 77.34 65.85
  L 85.33 65.51
  A 0.34 0.34 0.0 0 1 85.53 66.14
  L 78.87 70.56
  A 0.34 0.34 0.0 0 0 78.74 70.96
  L 81.53 78.46
  A 0.34 0.34 0.0 0 1 81.00 78.84
  L 74.73 73.88
  A 0.34 0.34 0.0 0 0 74.31 73.88
  L 68.04 78.84
  A 0.34 0.34 0.0 0 1 67.51 78.46
  L 70.30 70.96
  A 0.34 0.34 0.0 0 0 70.17 70.56
  L 63.51 66.14
  A 0.34 0.34 0.0 0 1 63.71 65.51
  L 71.70 65.85
  A 0.34 0.34 0.0 0 0 72.04 65.60
  L 74.19 57.90
  A 0.34 0.34 0.0 0 1 74.85 57.90
  L 77.00 65.60
  A 0.34 0.34 0.0 0 0 77.34 65.85
  Z"
/>
<path fill="#ffffff" d="
  M 126.54 65.89
  L 134.55 65.52
  A 0.34 0.34 0.0 0 1 134.76 66.14
  L 128.06 70.55
  A 0.34 0.34 0.0 0 0 127.93 70.95
  L 130.75 78.45
  A 0.34 0.34 0.0 0 1 130.22 78.84
  L 123.96 73.83
  A 0.34 0.34 0.0 0 0 123.54 73.83
  L 117.28 78.84
  A 0.34 0.34 0.0 0 1 116.75 78.45
  L 119.57 70.95
  A 0.34 0.34 0.0 0 0 119.44 70.55
  L 112.74 66.14
  A 0.34 0.34 0.0 0 1 112.95 65.52
  L 120.96 65.89
  A 0.34 0.34 0.0 0 0 121.30 65.64
  L 123.42 57.90
  A 0.34 0.34 0.0 0 1 124.08 57.90
  L 126.20 65.64
  A 0.34 0.34 0.0 0 0 126.54 65.89
  Z"
/>
<path fill="#ffffff" d="
  M 225.02 65.82
  L 232.98 65.50
  A 0.33 0.33 0.0 0 1 233.18 66.10
  L 226.57 70.54
  A 0.33 0.33 0.0 0 0 226.44 70.93
  L 229.21 78.39
  A 0.33 0.33 0.0 0 1 228.69 78.77
  L 222.43 73.85
  A 0.33 0.33 0.0 0 0 222.02 73.85
  L 215.78 78.79
  A 0.33 0.33 0.0 0 1 215.26 78.42
  L 218.01 70.94
  A 0.33 0.33 0.0 0 0 217.88 70.55
  L 211.25 66.14
  A 0.33 0.33 0.0 0 1 211.45 65.54
  L 219.40 65.83
  A 0.33 0.33 0.0 0 0 219.73 65.59
  L 221.88 57.93
  A 0.33 0.33 0.0 0 1 222.52 57.92
  L 224.69 65.58
  A 0.33 0.33 0.0 0 0 225.02 65.82
  Z"
/>
<path fill="#ffffff" d="
  M 274.20 65.85
  L 282.07 65.54
  A 0.32 0.32 0.0 0 1 282.26 66.13
  L 275.73 70.53
  A 0.32 0.32 0.0 0 0 275.61 70.91
  L 278.33 78.31
  A 0.32 0.32 0.0 0 1 277.83 78.67
  L 271.63 73.81
  A 0.32 0.32 0.0 0 0 271.23 73.82
  L 265.04 78.69
  A 0.32 0.32 0.0 0 1 264.54 78.33
  L 267.24 70.92
  A 0.32 0.32 0.0 0 0 267.11 70.55
  L 260.56 66.17
  A 0.32 0.32 0.0 0 1 260.75 65.58
  L 268.63 65.86
  A 0.32 0.32 0.0 0 0 268.95 65.63
  L 271.09 58.04
  A 0.32 0.32 0.0 0 1 271.71 58.04
  L 273.88 65.62
  A 0.32 0.32 0.0 0 0 274.20 65.85
  Z"
/>
<path fill="#c93a59" d="
  M 298.54 64.25
  Q 468.76 64.25 638.98 64.25
  C 639.68 64.25 639.48 64.35 640.00 64.56
  L 640.00 96.81
  L 298.54 97.00
  L 298.54 64.25
  Z"
/>
<path fill="#ffffff" d="
  M 52.69 86.31
  L 60.59 86.00
  A 0.33 0.33 0.0 0 1 60.79 86.61
  L 54.22 91.00
  A 0.33 0.33 0.0 0 0 54.09 91.39
  L 56.82 98.80
  A 0.33 0.33 0.0 0 1 56.31 99.17
  L 50.10 94.28
  A 0.33 0.33 0.0 0 0 49.70 94.28
  L 43.49 99.17
  A 0.33 0.33 0.0 0 1 42.98 98.80
  L 45.71 91.39
  A 0.33 0.33 0.0 0 0 45.58 91.00
  L 39.01 86.61
  A 0.33 0.33 0.0 0 1 39.21 86.00
  L 47.11 86.31
  A 0.33 0.33 0.0 0 0 47.44 86.07
  L 49.58 78.47
  A 0.33 0.33 0.0 0 1 50.22 78.47
  L 52.36 86.07
  A 0.33 0.33 0.0 0 0 52.69 86.31
  Z"
/>
<path fill="#ffffff" d="
  M 102.00 86.33
  L 109.82 85.96
  A 0.40 0.40 0.0 0 1 110.05 86.69
  L 103.52 90.99
  A 0.40 0.40 0.0 0 0 103.36 91.46
  L 106.13 98.78
  A 0.40 0.40 0.0 0 1 105.50 99.23
  L 99.40 94.34
  A 0.40 0.40 0.0 0 0 98.90 94.34
  L 92.80 99.23
  A 0.40 0.40 0.0 0 1 92.17 98.78
  L 94.94 91.46
  A 0.40 0.40 0.0 0 0 94.78 90.99
  L 88.25 86.69
  A 0.40 0.40 0.0 0 1 88.48 85.96
  L 96.30 86.33
  A 0.40 0.40 0.0 0 0 96.70 86.03
  L 98.76 78.49
  A 0.40 0.40 0.0 0 1 99.54 78.49
  L 101.60 86.03
  A 0.40 0.40 0.0 0 0 102.00 86.33
  Z"
/>
<path fill="#ffffff" d="
  M 151.24 86.35
  L 159.09 85.97
  A 0.40 0.40 0.0 0 1 159.33 86.71
  L 152.74 91.00
  A 0.40 0.40 0.0 0 0 152.58 91.48
  L 155.37 98.84
  A 0.40 0.40 0.0 0 1 154.74 99.29
  L 148.62 94.34
  A 0.40 0.40 0.0 0 0 148.12 94.34
  L 141.98 99.27
  A 0.40 0.40 0.0 0 1 141.36 98.81
  L 144.17 91.46
  A 0.40 0.40 0.0 0 0 144.02 90.98
  L 137.44 86.67
  A 0.40 0.40 0.0 0 1 137.68 85.94
  L 145.54 86.34
  A 0.40 0.40 0.0 0 0 145.94 86.05
  L 148.01 78.45
  A 0.40 0.40 0.0 0 1 148.79 78.46
  L 150.83 86.05
  A 0.40 0.40 0.0 0 0 151.24 86.35
  Z"
/>
<path fill="#ffffff" d="
  M 200.45 86.37
  L 208.20 86.01
  A 0.40 0.40 0.0 0 1 208.44 86.75
  L 201.94 90.99
  A 0.40 0.40 0.0 0 0 201.78 91.47
  L 204.52 98.73
  A 0.40 0.40 0.0 0 1 203.90 99.18
  L 197.85 94.31
  A 0.40 0.40 0.0 0 0 197.35 94.31
  L 191.29 99.16
  A 0.40 0.40 0.0 0 1 190.67 98.70
  L 193.43 91.45
  A 0.40 0.40 0.0 0 0 193.28 90.98
  L 186.79 86.71
  A 0.40 0.40 0.0 0 1 187.03 85.98
  L 194.79 86.37
  A 0.40 0.40 0.0 0 0 195.19 86.07
  L 197.24 78.59
  A 0.40 0.40 0.0 0 1 198.02 78.59
  L 200.04 86.08
  A 0.40 0.40 0.0 0 0 200.45 86.37
  Z"
/>
<path fill="#ffffff" d="
  M 249.67 86.34
  L 257.42 85.98
  A 0.40 0.40 0.0 0 1 257.66 86.71
  L 251.18 90.98
  A 0.40 0.40 0.0 0 0 251.02 91.46
  L 253.76 98.73
  A 0.40 0.40 0.0 0 1 253.14 99.18
  L 247.07 94.33
  A 0.40 0.40 0.0 0 0 246.57 94.33
  L 240.50 99.18
  A 0.40 0.40 0.0 0 1 239.88 98.73
  L 242.62 91.46
  A 0.40 0.40 0.0 0 0 242.46 90.98
  L 235.98 86.71
  A 0.40 0.40 0.0 0 1 236.22 85.98
  L 243.97 86.34
  A 0.40 0.40 0.0 0 0 244.38 86.04
  L 246.43 78.55
  A 0.40 0.40 0.0 0 1 247.21 78.55
  L 249.26 86.04
  A 0.40 0.40 0.0 0 0 249.67 86.34
  Z"
/>
<path fill="#ffffff" d="
  M 640.00 96.81
  L 640.00 128.56
  L 298.75 128.54
  L 298.54 97.00
  L 640.00 96.81
  Z"
/>
<path fill="#ffffff" d="
  M 175.86 109.53
  L 183.69 109.16
  A 0.41 0.41 0.0 0 1 183.94 109.92
  L 177.38 114.22
  A 0.41 0.41 0.0 0 0 177.22 114.71
  L 180.00 122.05
  A 0.41 0.41 0.0 0 1 179.36 122.51
  L 173.24 117.61
  A 0.41 0.41 0.0 0 0 172.72 117.61
  L 166.60 122.51
  A 0.41 0.41 0.0 0 1 165.96 122.05
  L 168.74 114.71
  A 0.41 0.41 0.0 0 0 168.58 114.22
  L 162.02 109.92
  A 0.41 0.41 0.0 0 1 162.27 109.16
  L 170.10 109.53
  A 0.41 0.41 0.0 0 0 170.52 109.23
  L 172.58 101.67
  A 0.41 0.41 0.0 0 1 173.38 101.67
  L 175.44 109.23
  A 0.41 0.41 0.0 0 0 175.86 109.53
  Z"
/>
<path fill="#ffffff" d="
  M 28.14 109.54
  L 35.88 109.17
  A 0.41 0.41 0.0 0 1 36.13 109.92
  L 29.66 114.20
  A 0.41 0.41 0.0 0 0 29.51 114.68
  L 32.25 121.93
  A 0.41 0.41 0.0 0 1 31.61 122.40
  L 25.54 117.57
  A 0.41 0.41 0.0 0 0 25.03 117.57
  L 18.98 122.42
  A 0.41 0.41 0.0 0 1 18.34 121.96
  L 21.06 114.70
  A 0.41 0.41 0.0 0 0 20.90 114.21
  L 14.42 109.96
  A 0.41 0.41 0.0 0 1 14.66 109.21
  L 22.41 109.55
  A 0.41 0.41 0.0 0 0 22.82 109.24
  L 24.87 101.77
  A 0.41 0.41 0.0 0 1 25.66 101.77
  L 27.73 109.24
  A 0.41 0.41 0.0 0 0 28.14 109.54
  Z"
/>
<path fill="#ffffff" d="
  M 77.38 109.57
  L 85.12 109.23
  A 0.40 0.40 0.0 0 1 85.35 109.96
  L 78.89 114.23
  A 0.40 0.40 0.0 0 0 78.74 114.70
  L 81.46 121.95
  A 0.40 0.40 0.0 0 1 80.83 122.40
  L 74.78 117.58
  A 0.40 0.40 0.0 0 0 74.28 117.58
  L 68.23 122.40
  A 0.40 0.40 0.0 0 1 67.60 121.95
  L 70.32 114.70
  A 0.40 0.40 0.0 0 0 70.17 114.23
  L 63.71 109.96
  A 0.40 0.40 0.0 0 1 63.94 109.23
  L 71.68 109.57
  A 0.40 0.40 0.0 0 0 72.08 109.28
  L 74.14 101.81
  A 0.40 0.40 0.0 0 1 74.92 101.81
  L 76.98 109.28
  A 0.40 0.40 0.0 0 0 77.38 109.57
  Z"
/>
<path fill="#ffffff" d="
  M 126.59 109.58
  L 134.33 109.23
  A 0.40 0.40 0.0 0 1 134.57 109.96
  L 128.10 114.22
  A 0.40 0.40 0.0 0 0 127.94 114.70
  L 130.68 121.95
  A 0.40 0.40 0.0 0 1 130.05 122.40
  L 124.00 117.56
  A 0.40 0.40 0.0 0 0 123.50 117.56
  L 117.45 122.40
  A 0.40 0.40 0.0 0 1 116.82 121.95
  L 119.56 114.70
  A 0.40 0.40 0.0 0 0 119.40 114.22
  L 112.93 109.96
  A 0.40 0.40 0.0 0 1 113.17 109.23
  L 120.91 109.58
  A 0.40 0.40 0.0 0 0 121.31 109.29
  L 123.36 101.82
  A 0.40 0.40 0.0 0 1 124.14 101.82
  L 126.19 109.29
  A 0.40 0.40 0.0 0 0 126.59 109.58
  Z"
/>
<path fill="#ffffff" d="
  M 225.07 109.57
  L 232.82 109.21
  A 0.40 0.40 0.0 0 1 233.06 109.94
  L 226.58 114.21
  A 0.40 0.40 0.0 0 0 226.42 114.69
  L 229.15 121.95
  A 0.40 0.40 0.0 0 1 228.53 122.40
  L 222.47 117.56
  A 0.40 0.40 0.0 0 0 221.97 117.56
  L 215.91 122.40
  A 0.40 0.40 0.0 0 1 215.29 121.95
  L 218.02 114.69
  A 0.40 0.40 0.0 0 0 217.86 114.21
  L 211.38 109.94
  A 0.40 0.40 0.0 0 1 211.62 109.21
  L 219.37 109.57
  A 0.40 0.40 0.0 0 0 219.78 109.27
  L 221.83 101.79
  A 0.40 0.40 0.0 0 1 222.61 101.79
  L 224.66 109.27
  A 0.40 0.40 0.0 0 0 225.07 109.57
  Z"
/>
<path fill="#ffffff" d="
  M 274.30 109.58
  L 282.07 109.20
  A 0.40 0.40 0.0 0 1 282.31 109.94
  L 275.82 114.23
  A 0.40 0.40 0.0 0 0 275.67 114.70
  L 278.43 121.98
  A 0.40 0.40 0.0 0 1 277.80 122.43
  L 271.72 117.58
  A 0.40 0.40 0.0 0 0 271.22 117.58
  L 265.15 122.45
  A 0.40 0.40 0.0 0 1 264.53 122.00
  L 267.26 114.72
  A 0.40 0.40 0.0 0 0 267.10 114.24
  L 260.60 109.98
  A 0.40 0.40 0.0 0 1 260.83 109.24
  L 268.61 109.59
  A 0.40 0.40 0.0 0 0 269.01 109.30
  L 271.05 101.79
  A 0.40 0.40 0.0 0 1 271.83 101.79
  L 273.90 109.29
  A 0.40 0.40 0.0 0 0 274.30 109.58
  Z"
/>
<path fill="#ffffff" d="
  M 52.63 130.13
  L 60.59 129.75
  A 0.33 0.33 0.0 0 1 60.79 130.35
  L 54.12 134.72
  A 0.33 0.33 0.0 0 0 54.00 135.11
  L 56.82 142.57
  A 0.33 0.33 0.0 0 1 56.30 142.94
  L 50.09 137.96
  A 0.33 0.33 0.0 0 0 49.67 137.96
  L 43.46 142.94
  A 0.33 0.33 0.0 0 1 42.94 142.57
  L 45.76 135.11
  A 0.33 0.33 0.0 0 0 45.64 134.72
  L 38.97 130.35
  A 0.33 0.33 0.0 0 1 39.17 129.75
  L 47.13 130.13
  A 0.33 0.33 0.0 0 0 47.46 129.88
  L 49.56 122.20
  A 0.33 0.33 0.0 0 1 50.20 122.20
  L 52.30 129.88
  A 0.33 0.33 0.0 0 0 52.63 130.13
  Z"
/>
<path fill="#ffffff" d="
  M 101.91 130.09
  L 109.88 129.74
  A 0.32 0.32 0.0 0 1 110.07 130.33
  L 103.41 134.73
  A 0.32 0.32 0.0 0 0 103.29 135.11
  L 106.09 142.58
  A 0.32 0.32 0.0 0 1 105.59 142.94
  L 99.35 137.97
  A 0.32 0.32 0.0 0 0 98.95 137.97
  L 92.71 142.94
  A 0.32 0.32 0.0 0 1 92.21 142.58
  L 95.01 135.11
  A 0.32 0.32 0.0 0 0 94.89 134.73
  L 88.23 130.33
  A 0.32 0.32 0.0 0 1 88.42 129.74
  L 96.39 130.09
  A 0.32 0.32 0.0 0 0 96.71 129.86
  L 98.84 122.17
  A 0.32 0.32 0.0 0 1 99.46 122.17
  L 101.59 129.86
  A 0.32 0.32 0.0 0 0 101.91 130.09
  Z"
/>
<path fill="#ffffff" d="
  M 151.17 130.06
  L 159.10 129.75
  A 0.32 0.32 0.0 0 1 159.29 130.34
  L 152.70 134.75
  A 0.32 0.32 0.0 0 0 152.58 135.13
  L 155.31 142.58
  A 0.32 0.32 0.0 0 1 154.82 142.94
  L 148.58 138.04
  A 0.32 0.32 0.0 0 0 148.18 138.04
  L 141.94 142.94
  A 0.32 0.32 0.0 0 1 141.45 142.58
  L 144.18 135.13
  A 0.32 0.32 0.0 0 0 144.06 134.75
  L 137.47 130.34
  A 0.32 0.32 0.0 0 1 137.66 129.75
  L 145.59 130.06
  A 0.32 0.32 0.0 0 0 145.91 129.82
  L 148.07 122.19
  A 0.32 0.32 0.0 0 1 148.69 122.19
  L 150.85 129.82
  A 0.32 0.32 0.0 0 0 151.17 130.06
  Z"
/>
<path fill="#ffffff" d="
  M 200.38 130.09
  L 208.38 129.73
  A 0.33 0.33 0.0 0 1 208.58 130.34
  L 201.90 134.75
  A 0.33 0.33 0.0 0 0 201.77 135.14
  L 204.58 142.64
  A 0.33 0.33 0.0 0 1 204.07 143.01
  L 197.81 138.02
  A 0.33 0.33 0.0 0 0 197.39 138.02
  L 191.13 143.01
  A 0.33 0.33 0.0 0 1 190.62 142.64
  L 193.43 135.14
  A 0.33 0.33 0.0 0 0 193.30 134.75
  L 186.62 130.34
  A 0.33 0.33 0.0 0 1 186.82 129.73
  L 194.82 130.09
  A 0.33 0.33 0.0 0 0 195.15 129.85
  L 197.28 122.13
  A 0.33 0.33 0.0 0 1 197.92 122.13
  L 200.05 129.85
  A 0.33 0.33 0.0 0 0 200.38 130.09
  Z"
/>
<path fill="#ffffff" d="
  M 249.64 130.05
  L 257.53 129.74
  A 0.33 0.33 0.0 0 1 257.73 130.35
  L 251.16 134.74
  A 0.33 0.33 0.0 0 0 251.04 135.13
  L 253.77 142.54
  A 0.33 0.33 0.0 0 1 253.25 142.92
  L 247.04 138.03
  A 0.33 0.33 0.0 0 0 246.64 138.03
  L 240.43 142.92
  A 0.33 0.33 0.0 0 1 239.91 142.54
  L 242.64 135.13
  A 0.33 0.33 0.0 0 0 242.52 134.74
  L 235.95 130.35
  A 0.33 0.33 0.0 0 1 236.15 129.74
  L 244.04 130.05
  A 0.33 0.33 0.0 0 0 244.37 129.81
  L 246.52 122.20
  A 0.33 0.33 0.0 0 1 247.16 122.20
  L 249.31 129.81
  A 0.33 0.33 0.0 0 0 249.64 130.05
  Z"
/>
<path fill="#c93a59" d="
  M 298.75 128.54
  L 640.00 128.56
  L 640.00 161.06
  L 298.54 161.00
  L 298.75 128.54
  Z"
/>
<path fill="#ffffff" d="
  M 175.81 153.22
  L 183.78 152.90
  A 0.34 0.34 0.0 0 1 183.98 153.52
  L 177.34 157.95
  A 0.34 0.34 0.0 0 0 177.21 158.35
  L 179.98 165.83
  A 0.34 0.34 0.0 0 1 179.45 166.22
  L 173.19 161.27
  A 0.34 0.34 0.0 0 0 172.77 161.27
  L 166.51 166.22
  A 0.34 0.34 0.0 0 1 165.98 165.83
  L 168.75 158.35
  A 0.34 0.34 0.0 0 0 168.62 157.95
  L 161.98 153.52
  A 0.34 0.34 0.0 0 1 162.18 152.90
  L 170.15 153.22
  A 0.34 0.34 0.0 0 0 170.50 152.97
  L 172.65 145.29
  A 0.34 0.34 0.0 0 1 173.31 145.29
  L 175.46 152.97
  A 0.34 0.34 0.0 0 0 175.81 153.22
  Z"
/>
<path fill="#ffffff" d="
  M 28.14 153.26
  L 35.95 152.89
  A 0.39 0.39 0.0 0 1 36.18 153.61
  L 29.67 157.93
  A 0.39 0.39 0.0 0 0 29.52 158.39
  L 32.28 165.70
  A 0.39 0.39 0.0 0 1 31.67 166.14
  L 25.55 161.28
  A 0.39 0.39 0.0 0 0 25.06 161.28
  L 18.96 166.17
  A 0.39 0.39 0.0 0 1 18.35 165.73
  L 21.09 158.40
  A 0.39 0.39 0.0 0 0 20.93 157.94
  L 14.40 153.65
  A 0.39 0.39 0.0 0 1 14.64 152.93
  L 22.44 153.27
  A 0.39 0.39 0.0 0 0 22.84 152.98
  L 24.90 145.44
  A 0.39 0.39 0.0 0 1 25.66 145.44
  L 27.75 152.97
  A 0.39 0.39 0.0 0 0 28.14 153.26
  Z"
/>
<path fill="#ffffff" d="
  M 77.33 153.27
  L 85.29 152.94
  A 0.34 0.34 0.0 0 1 85.49 153.56
  L 78.85 157.97
  A 0.34 0.34 0.0 0 0 78.72 158.37
  L 81.50 165.83
  A 0.34 0.34 0.0 0 1 80.97 166.22
  L 74.73 161.27
  A 0.34 0.34 0.0 0 0 74.31 161.27
  L 68.07 166.22
  A 0.34 0.34 0.0 0 1 67.54 165.83
  L 70.32 158.37
  A 0.34 0.34 0.0 0 0 70.19 157.97
  L 63.55 153.56
  A 0.34 0.34 0.0 0 1 63.75 152.94
  L 71.71 153.27
  A 0.34 0.34 0.0 0 0 72.05 153.03
  L 74.19 145.35
  A 0.34 0.34 0.0 0 1 74.85 145.35
  L 76.99 153.03
  A 0.34 0.34 0.0 0 0 77.33 153.27
  Z"
/>
<path fill="#ffffff" d="
  M 126.51 153.31
  L 134.39 153.00
  A 0.32 0.32 0.0 0 1 134.58 153.58
  L 128.02 157.96
  A 0.32 0.32 0.0 0 0 127.90 158.34
  L 130.63 165.74
  A 0.32 0.32 0.0 0 1 130.13 166.10
  L 123.94 161.22
  A 0.32 0.32 0.0 0 0 123.54 161.22
  L 117.35 166.10
  A 0.32 0.32 0.0 0 1 116.85 165.74
  L 119.58 158.34
  A 0.32 0.32 0.0 0 0 119.46 157.96
  L 112.90 153.58
  A 0.32 0.32 0.0 0 1 113.09 153.00
  L 120.97 153.31
  A 0.32 0.32 0.0 0 0 121.29 153.07
  L 123.43 145.48
  A 0.32 0.32 0.0 0 1 124.05 145.48
  L 126.19 153.07
  A 0.32 0.32 0.0 0 0 126.51 153.31
  Z"
/>
<path fill="#ffffff" d="
  M 225.02 153.26
  L 233.03 152.90
  A 0.33 0.33 0.0 0 1 233.23 153.51
  L 226.56 157.95
  A 0.33 0.33 0.0 0 0 226.43 158.34
  L 229.24 165.85
  A 0.33 0.33 0.0 0 1 228.73 166.22
  L 222.44 161.25
  A 0.33 0.33 0.0 0 0 222.03 161.25
  L 215.76 166.25
  A 0.33 0.33 0.0 0 1 215.25 165.87
  L 218.03 158.36
  A 0.33 0.33 0.0 0 0 217.91 157.97
  L 211.22 153.55
  A 0.33 0.33 0.0 0 1 211.41 152.94
  L 219.42 153.27
  A 0.33 0.33 0.0 0 0 219.75 153.03
  L 221.89 145.30
  A 0.33 0.33 0.0 0 1 222.53 145.30
  L 224.69 153.02
  A 0.33 0.33 0.0 0 0 225.02 153.26
  Z"
/>
<path fill="#ffffff" d="
  M 274.23 153.33
  L 282.19 152.97
  A 0.33 0.33 0.0 0 1 282.39 153.58
  L 275.74 157.98
  A 0.33 0.33 0.0 0 0 275.61 158.37
  L 278.41 165.84
  A 0.33 0.33 0.0 0 1 277.89 166.21
  L 271.66 161.24
  A 0.33 0.33 0.0 0 0 271.24 161.24
  L 265.01 166.21
  A 0.33 0.33 0.0 0 1 264.49 165.84
  L 267.29 158.37
  A 0.33 0.33 0.0 0 0 267.16 157.98
  L 260.51 153.58
  A 0.33 0.33 0.0 0 1 260.71 152.97
  L 268.67 153.33
  A 0.33 0.33 0.0 0 0 269.00 153.08
  L 271.13 145.40
  A 0.33 0.33 0.0 0 1 271.77 145.40
  L 273.90 153.08
  A 0.33 0.33 0.0 0 0 274.23 153.33
  Z"
/>
<path fill="#ffffff" d="
  M 298.54 161.00
  L 640.00 161.06
  L 640.00 192.81
  L 298.54 192.75
  L 298.54 161.00
  Z"
/>
<path fill="#ffffff" d="
  M 52.71 173.74
  L 60.75 173.39
  A 0.33 0.33 0.0 0 1 60.95 173.99
  L 54.24 178.44
  A 0.33 0.33 0.0 0 0 54.11 178.83
  L 56.93 186.38
  A 0.33 0.33 0.0 0 1 56.41 186.75
  L 50.11 181.74
  A 0.33 0.33 0.0 0 0 49.69 181.74
  L 43.39 186.75
  A 0.33 0.33 0.0 0 1 42.87 186.38
  L 45.69 178.83
  A 0.33 0.33 0.0 0 0 45.56 178.44
  L 38.85 173.99
  A 0.33 0.33 0.0 0 1 39.05 173.39
  L 47.09 173.74
  A 0.33 0.33 0.0 0 0 47.43 173.49
  L 49.58 165.73
  A 0.33 0.33 0.0 0 1 50.22 165.73
  L 52.37 173.49
  A 0.33 0.33 0.0 0 0 52.71 173.74
  Z"
/>
<path fill="#ffffff" d="
  M 101.95 173.70
  L 109.96 173.40
  A 0.32 0.32 0.0 0 1 110.15 173.99
  L 103.50 178.45
  A 0.32 0.32 0.0 0 0 103.37 178.82
  L 106.13 186.34
  A 0.32 0.32 0.0 0 1 105.64 186.70
  L 99.34 181.76
  A 0.32 0.32 0.0 0 0 98.94 181.76
  L 92.64 186.70
  A 0.32 0.32 0.0 0 1 92.15 186.34
  L 94.91 178.82
  A 0.32 0.32 0.0 0 0 94.78 178.45
  L 88.13 173.99
  A 0.32 0.32 0.0 0 1 88.32 173.40
  L 96.33 173.70
  A 0.32 0.32 0.0 0 0 96.65 173.47
  L 98.83 165.77
  A 0.32 0.32 0.0 0 1 99.45 165.77
  L 101.63 173.47
  A 0.32 0.32 0.0 0 0 101.95 173.70
  Z"
/>
<path fill="#ffffff" d="
  M 249.64 173.75
  L 257.63 173.44
  A 0.33 0.33 0.0 0 1 257.83 174.04
  L 251.16 178.46
  A 0.33 0.33 0.0 0 0 251.04 178.85
  L 253.80 186.35
  A 0.33 0.33 0.0 0 1 253.29 186.73
  L 247.03 181.75
  A 0.33 0.33 0.0 0 0 246.62 181.75
  L 240.34 186.70
  A 0.33 0.33 0.0 0 1 239.82 186.33
  L 242.62 178.84
  A 0.33 0.33 0.0 0 0 242.49 178.45
  L 235.84 174.00
  A 0.33 0.33 0.0 0 1 236.04 173.40
  L 244.03 173.74
  A 0.33 0.33 0.0 0 0 244.36 173.50
  L 246.53 165.80
  A 0.33 0.33 0.0 0 1 247.17 165.81
  L 249.31 173.51
  A 0.33 0.33 0.0 0 0 249.64 173.75
  Z"
/>
<path fill="#ffffff" d="
  M 151.19 173.72
  L 159.07 173.45
  A 0.33 0.33 0.0 0 1 159.27 174.05
  L 152.73 178.46
  A 0.33 0.33 0.0 0 0 152.60 178.85
  L 155.30 186.26
  A 0.33 0.33 0.0 0 1 154.79 186.63
  L 148.57 181.78
  A 0.33 0.33 0.0 0 0 148.17 181.78
  L 141.95 186.63
  A 0.33 0.33 0.0 0 1 141.44 186.26
  L 144.14 178.85
  A 0.33 0.33 0.0 0 0 144.01 178.46
  L 137.47 174.05
  A 0.33 0.33 0.0 0 1 137.67 173.45
  L 145.55 173.72
  A 0.33 0.33 0.0 0 0 145.88 173.48
  L 148.05 165.91
  A 0.33 0.33 0.0 0 1 148.69 165.91
  L 150.86 173.48
  A 0.33 0.33 0.0 0 0 151.19 173.72
  Z"
/>
<path fill="#ffffff" d="
  M 200.42 173.75
  L 208.33 173.45
  A 0.33 0.33 0.0 0 1 208.52 174.06
  L 201.95 178.47
  A 0.33 0.33 0.0 0 0 201.83 178.85
  L 204.55 186.28
  A 0.33 0.33 0.0 0 1 204.04 186.66
  L 197.81 181.77
  A 0.33 0.33 0.0 0 0 197.41 181.77
  L 191.18 186.66
  A 0.33 0.33 0.0 0 1 190.67 186.28
  L 193.39 178.85
  A 0.33 0.33 0.0 0 0 193.27 178.47
  L 186.70 174.06
  A 0.33 0.33 0.0 0 1 186.89 173.45
  L 194.80 173.75
  A 0.33 0.33 0.0 0 0 195.13 173.51
  L 197.29 165.90
  A 0.33 0.33 0.0 0 1 197.93 165.90
  L 200.09 173.51
  A 0.33 0.33 0.0 0 0 200.42 173.75
  Z"
/>
<path fill="#ffffff" d="
  M 28.08 196.98
  L 36.04 196.66
  A 0.32 0.32 0.0 0 1 36.23 197.25
  L 29.61 201.67
  A 0.32 0.32 0.0 0 0 29.49 202.05
  L 32.24 209.53
  A 0.32 0.32 0.0 0 1 31.75 209.89
  L 25.49 204.96
  A 0.32 0.32 0.0 0 0 25.09 204.96
  L 18.83 209.89
  A 0.32 0.32 0.0 0 1 18.34 209.53
  L 21.09 202.05
  A 0.32 0.32 0.0 0 0 20.97 201.67
  L 14.35 197.25
  A 0.32 0.32 0.0 0 1 14.54 196.66
  L 22.50 196.98
  A 0.32 0.32 0.0 0 0 22.82 196.74
  L 24.98 189.07
  A 0.32 0.32 0.0 0 1 25.60 189.07
  L 27.76 196.74
  A 0.32 0.32 0.0 0 0 28.08 196.98
  Z"
/>
<path fill="#ffffff" d="
  M 175.79 196.96
  L 183.74 196.65
  A 0.33 0.33 0.0 0 1 183.94 197.25
  L 177.32 201.68
  A 0.33 0.33 0.0 0 0 177.20 202.07
  L 179.95 209.53
  A 0.33 0.33 0.0 0 1 179.43 209.90
  L 173.18 204.98
  A 0.33 0.33 0.0 0 0 172.78 204.98
  L 166.53 209.90
  A 0.33 0.33 0.0 0 1 166.01 209.53
  L 168.76 202.07
  A 0.33 0.33 0.0 0 0 168.64 201.68
  L 162.02 197.25
  A 0.33 0.33 0.0 0 1 162.22 196.65
  L 170.17 196.96
  A 0.33 0.33 0.0 0 0 170.50 196.72
  L 172.66 189.06
  A 0.33 0.33 0.0 0 1 173.30 189.06
  L 175.46 196.72
  A 0.33 0.33 0.0 0 0 175.79 196.96
  Z"
/>
<path fill="#ffffff" d="
  M 225.00 197.00
  L 232.99 196.63
  A 0.34 0.34 0.0 0 1 233.20 197.25
  L 226.53 201.67
  A 0.34 0.34 0.0 0 0 226.40 202.08
  L 229.22 209.56
  A 0.34 0.34 0.0 0 1 228.69 209.95
  L 222.43 204.97
  A 0.34 0.34 0.0 0 0 222.01 204.97
  L 215.76 209.97
  A 0.34 0.34 0.0 0 1 215.23 209.58
  L 218.03 202.09
  A 0.34 0.34 0.0 0 0 217.90 201.69
  L 211.21 197.29
  A 0.34 0.34 0.0 0 1 211.41 196.67
  L 219.41 197.01
  A 0.34 0.34 0.0 0 0 219.75 196.76
  L 221.86 189.05
  A 0.34 0.34 0.0 0 1 222.52 189.05
  L 224.66 196.76
  A 0.34 0.34 0.0 0 0 225.00 197.00
  Z"
/>
<path fill="#ffffff" d="
  M 77.30 197.03
  L 85.25 196.70
  A 0.33 0.33 0.0 0 1 85.44 197.30
  L 78.82 201.70
  A 0.33 0.33 0.0 0 0 78.69 202.09
  L 81.46 209.55
  A 0.33 0.33 0.0 0 1 80.95 209.92
  L 74.71 204.98
  A 0.33 0.33 0.0 0 0 74.31 204.98
  L 68.07 209.92
  A 0.33 0.33 0.0 0 1 67.56 209.55
  L 70.33 202.09
  A 0.33 0.33 0.0 0 0 70.20 201.70
  L 63.58 197.30
  A 0.33 0.33 0.0 0 1 63.77 196.70
  L 71.72 197.03
  A 0.33 0.33 0.0 0 0 72.05 196.79
  L 74.19 189.13
  A 0.33 0.33 0.0 0 1 74.83 189.13
  L 76.97 196.79
  A 0.33 0.33 0.0 0 0 77.30 197.03
  Z"
/>
<path fill="#ffffff" d="
  M 126.53 197.05
  L 134.42 196.73
  A 0.33 0.33 0.0 0 1 134.61 197.33
  L 128.05 201.71
  A 0.33 0.33 0.0 0 0 127.92 202.10
  L 130.66 209.50
  A 0.33 0.33 0.0 0 1 130.15 209.87
  L 123.95 204.98
  A 0.33 0.33 0.0 0 0 123.55 204.98
  L 117.35 209.87
  A 0.33 0.33 0.0 0 1 116.84 209.50
  L 119.58 202.10
  A 0.33 0.33 0.0 0 0 119.45 201.71
  L 112.89 197.33
  A 0.33 0.33 0.0 0 1 113.08 196.73
  L 120.97 197.05
  A 0.33 0.33 0.0 0 0 121.30 196.81
  L 123.43 189.21
  A 0.33 0.33 0.0 0 1 124.07 189.21
  L 126.20 196.81
  A 0.33 0.33 0.0 0 0 126.53 197.05
  Z"
/>
<path fill="#ffffff" d="
  M 274.18 197.03
  L 282.07 196.72
  A 0.31 0.31 0.0 0 1 282.26 197.28
  L 275.71 201.69
  A 0.31 0.31 0.0 0 0 275.59 202.05
  L 278.33 209.46
  A 0.31 0.31 0.0 0 1 277.84 209.81
  L 271.63 204.94
  A 0.31 0.31 0.0 0 0 271.25 204.94
  L 265.05 209.84
  A 0.31 0.31 0.0 0 1 264.56 209.49
  L 267.28 202.07
  A 0.31 0.31 0.0 0 0 267.16 201.70
  L 260.59 197.32
  A 0.31 0.31 0.0 0 1 260.77 196.75
  L 268.66 197.04
  A 0.31 0.31 0.0 0 0 268.97 196.82
  L 271.11 189.21
  A 0.31 0.31 0.0 0 1 271.71 189.21
  L 273.87 196.81
  A 0.31 0.31 0.0 0 0 274.18 197.03
  Z"
/>
<path fill="#c93a59" d="
  M 640.00 192.81
  L 640.00 225.31
  L 298.50 225.21
  L 298.54 192.75
  L 640.00 192.81
  Z"
/>
<path fill="#ffffff" d="
  M 0.00 225.22
  L 298.50 225.21
  L 640.00 225.31
  L 640.00 256.84
  L 0.00 256.94
  L 0.00 225.22
  Z"
/>
<path fill="#c93a59" d="
  M 640.00 256.84
  L 640.00 289.56
  L 0.58 289.49
  Q 0.38 289.49 0.22 289.36
  Q 0.11 289.27 0.00 289.19
  L 0.00 256.94
  L 640.00 256.84
  Z"
/>
<path fill="#ffffff" d="
  M 0.00 289.19
  Q 0.11 289.27 0.22 289.36
  Q 0.38 289.49 0.58 289.49
  L 640.00 289.56
  L 640.00 321.03
  L 0.00 321.03
  L 0.00 289.19
  Z"
/>
<path fill="#c93a59" d="
  M 640.00 321.03
  L 640.00 353.56
  L 0.00 353.72
  L 0.00 321.03
  L 640.00 321.03
  Z"
/>
<path fill="#ffffff" d="
  M 0.00 353.72
  L 640.00 353.56
  L 640.00 385.28
  L 0.00 385.28
  L 0.00 353.72
  Z"
/>
<path fill="#c93a59" d="
  M 640.00 385.28
  L 640.00 418.00
  L 0.00 418.00
  L 0.00 385.28
  L 640.00 385.28
  Z"
/>
</svg>
