<?xml version="1.0" encoding="UTF-8" standalone="no"?>
<!DOCTYPE svg PUBLIC "-//W3C//DTD SVG 1.1//EN" "http://www.w3.org/Graphics/SVG/1.1/DTD/svg11.dtd">
<svg xmlns="http://www.w3.org/2000/svg" version="1.1" viewBox="0 0 960 960">
<g stroke-width="2.00" fill="none" stroke-linecap="butt">
<path stroke="#cccccc" vector-effect="non-scaling-stroke" d="
  M 366.10 780.87
  C 370.32 787.09 388.49 812.48 397.71 808.47
  C 406.37 804.70 414.57 785.99 417.49 777.74
  C 431.66 737.88 440.28 694.99 454.91 654.68
  Q 459.30 642.58 464.52 634.79
  C 471.42 624.49 483.03 620.19 491.47 631.77
  Q 495.82 637.73 498.22 643.81
  C 508.22 669.17 514.48 697.02 521.56 723.69
  C 524.47 734.64 546.84 823.87 570.18 808.68
  C 578.65 803.16 586.03 793.69 591.86 785.13
  C 615.22 750.83 633.07 711.01 648.41 672.56
  Q 684.75 581.56 706.43 485.98
  C 717.34 437.85 725.06 385.79 719.60 336.44
  C 715.38 298.20 700.27 266.34 663.89 249.37
  C 644.84 240.48 624.23 236.20 603.48 233.68
  Q 572.44 229.91 541.18 229.13
  C 489.73 227.86 437.71 227.36 386.43 232.34
  C 330.73 237.74 272.12 253.40 250.18 311.59
  C 242.14 332.92 239.25 356.08 238.79 378.75
  C 237.93 421.61 243.71 462.53 254.22 506.15
  Q 275.98 596.48 313.40 681.42
  C 328.49 715.65 345.04 749.84 366.10 780.87"
/>
<path stroke="#b2b2b2" vector-effect="non-scaling-stroke" d="
  M 384.23 290.38
  A 0.37 0.37 0.0 0 1 384.20 291.02
  Q 370.81 297.83 357.36 304.53
  C 340.49 312.92 324.01 322.92 316.95 341.39
  A 0.59 0.59 0.0 0 0 317.76 342.13
  C 345.22 328.87 373.39 326.15 404.24 322.18
  C 417.87 320.43 426.57 320.89 437.27 330.11
  Q 452.63 343.33 467.49 357.12
  Q 472.99 362.23 476.22 363.29
  C 485.63 366.38 495.86 359.39 497.96 349.94
  C 498.73 346.45 499.31 342.66 500.63 339.79
  C 505.21 329.81 517.05 323.08 528.00 325.72
  C 536.68 327.81 538.81 326.89 544.37 319.88
  C 552.62 309.49 559.42 298.64 574.91 300.77
  C 602.20 304.53 625.56 313.82 649.16 327.76
  Q 649.53 327.98 649.34 327.59
  Q 646.46 321.74 643.85 315.76
  C 638.47 303.42 628.30 291.08 615.24 286.54
  Q 607.80 283.96 595.42 280.89
  Q 593.50 280.41 593.12 278.85
  Q 592.97 278.26 593.42 277.84
  Q 601.30 270.50 611.49 267.04
  A 0.32 0.32 0.0 0 0 611.55 266.47
  C 583.31 249.57 541.86 239.24 514.84 264.26
  Q 514.48 264.60 514.07 264.31
  C 492.89 248.97 471.77 258.95 450.89 267.62
  Q 450.41 267.82 449.97 267.53
  Q 424.41 250.81 394.51 245.71
  C 377.53 242.81 363.73 245.61 351.79 258.19
  Q 345.09 265.25 338.88 272.14
  Q 338.09 273.02 339.27 273.13
  C 356.70 274.73 369.90 280.93 384.23 290.38"
/>
<path stroke="#d0bbb2" vector-effect="non-scaling-stroke" d="
  M 253.47 409.11
  C 255.58 418.87 266.04 421.75 268.39 430.69
  Q 270.79 439.77 263.76 447.08
  C 257.72 453.36 253.40 457.96 253.27 467.05
  C 253.00 486.60 271.74 492.06 286.16 482.33
  Q 292.48 478.06 297.23 475.49
  C 307.34 470.03 315.06 476.91 323.06 482.17
  C 335.97 490.66 356.71 488.20 359.21 470.25"
/>
<path stroke="#e3cdc1" vector-effect="non-scaling-stroke" d="
  M 359.21 470.25
  C 359.24 454.04 346.74 444.34 332.48 440.79
  C 325.55 439.06 316.90 437.17 318.75 427.49
  C 321.38 413.71 324.83 402.04 318.86 389.44
  C 314.99 381.29 304.63 377.81 297.69 384.93
  C 293.50 389.23 288.21 395.54 282.60 397.72
  C 273.90 401.10 251.68 393.07 253.47 409.11"
/>
<path stroke="#b48974" vector-effect="non-scaling-stroke" d="
  M 359.21 470.25
  Q 358.40 470.79 356.95 472.40
  C 349.91 480.18 340.77 478.35 332.82 473.17
  C 318.06 463.56 311.93 457.24 293.08 463.34
  C 287.49 465.15 276.62 470.50 273.91 461.33
  C 272.73 457.38 277.81 451.31 278.80 447.66
  C 282.18 435.21 278.46 421.37 266.30 414.94
  Q 259.11 411.15 253.47 409.11"
/>
<path stroke="#e3cdc1" vector-effect="non-scaling-stroke" d="
  M 341.13 426.13
  C 347.18 430.93 358.34 433.47 359.28 422.01
  C 359.96 413.64 355.41 403.48 345.85 404.05
  C 332.94 404.83 333.01 419.70 341.13 426.13"
/>
<path stroke="#a5a5a5" vector-effect="non-scaling-stroke" d="
  M 547.46 450.47
  C 546.31 474.76 571.49 493.60 594.42 481.50
  C 604.40 476.23 610.79 465.78 611.84 454.53
  Q 612.23 450.30 610.97 448.14
  C 608.21 443.40 600.41 445.02 600.11 451.49
  C 598.84 478.93 562.31 480.65 559.56 453.51
  Q 559.15 449.53 558.44 448.30
  C 555.81 443.74 547.71 445.04 547.46 450.47"
/>
<path stroke="#a5a5a5" vector-effect="non-scaling-stroke" d="
  M 387.11 452.47
  C 386.92 472.23 403.52 489.27 423.89 486.21
  C 439.79 483.83 450.38 470.84 451.50 454.84
  C 452.24 444.20 439.90 445.40 439.68 451.99
  C 438.82 477.97 406.16 483.34 399.79 458.24
  C 399.09 455.46 399.54 451.05 397.40 448.61
  C 394.20 444.97 387.16 447.34 387.11 452.47"
/>
<path stroke="#d0bbb2" vector-effect="non-scaling-stroke" d="
  M 277.48 519.10
  C 278.21 524.40 285.49 527.09 286.70 532.64
  C 288.47 540.71 279.82 543.46 277.87 550.20
  C 274.98 560.24 281.54 568.84 292.14 566.17
  C 297.56 564.80 301.41 559.86 306.72 558.52
  C 313.18 556.89 318.66 563.72 324.43 565.74
  C 331.63 568.27 340.55 565.38 342.21 557.00"
/>
<path stroke="#e3cdc1" vector-effect="non-scaling-stroke" d="
  M 342.21 557.00
  C 342.75 545.20 333.58 540.23 323.76 537.51
  C 314.16 534.85 317.81 527.85 319.11 520.83
  C 320.27 514.53 318.52 499.30 308.48 501.57
  C 303.17 502.77 300.19 510.09 294.48 511.93
  C 289.71 513.46 275.27 509.33 277.48 519.10"
/>
<path stroke="#b48974" vector-effect="non-scaling-stroke" d="
  M 342.21 557.00
  Q 334.74 563.83 326.30 558.21
  C 319.69 553.81 314.48 548.87 305.47 551.08
  Q 300.51 552.30 295.64 553.74
  C 292.20 554.76 288.21 551.19 289.98 548.27
  C 298.31 534.52 291.88 523.10 277.48 519.10"
/>
<path stroke="#e3cdc1" vector-effect="non-scaling-stroke" d="
  M 329.62 517.37
  C 322.67 523.57 335.14 535.57 340.78 530.59
  C 343.51 528.18 342.20 521.08 340.26 518.54
  C 337.76 515.27 332.73 514.59 329.62 517.37"
/>
<path stroke="#a5a5a5" vector-effect="non-scaling-stroke" d="
  M 499.18 541.96
  C 519.08 542.92 534.91 550.52 550.69 562.14
  A 0.28 0.28 0.0 0 0 551.13 561.83
  C 538.18 520.34 464.81 514.04 455.22 562.08
  A 0.37 0.36 68.9 0 0 455.87 562.37
  Q 471.60 540.64 499.18 541.96"
/>
</g>
<path fill="#999999" d="
  M 479.02 637.97
  C 472.23 639.01 461.02 674.20 459.15 680.79
  Q 449.01 716.43 439.04 752.12
  Q 432.00 777.34 420.22 800.69
  C 407.16 826.55 387.77 826.49 369.92 805.34
  Q 353.64 786.05 341.19 764.05
  Q 317.15 721.56 298.06 676.61
  C 271.68 614.48 250.24 549.30 236.86 483.08
  Q 228.14 439.93 226.93 395.94
  C 225.81 355.11 230.39 310.72 255.05 277.05
  C 290.42 228.76 362.27 221.22 416.57 218.08
  Q 425.08 217.59 436.56 217.39
  C 483.76 216.57 531.44 216.04 578.57 219.11
  C 641.04 223.19 708.44 237.41 726.54 308.00
  Q 734.20 337.89 733.32 371.76
  C 731.96 424.31 722.13 478.08 708.40 528.85
  C 691.62 590.91 671.28 651.20 645.72 709.74
  C 631.35 742.65 614.15 777.62 591.76 805.29
  C 585.57 812.94 579.54 817.10 571.88 821.57
  C 560.85 827.99 544.17 814.76 538.69 805.53
  C 527.03 785.85 519.33 761.28 513.67 740.66
  Q 504.93 708.77 496.30 676.85
  C 492.86 664.15 488.73 649.66 481.21 638.72
  A 2.43 1.83 -18.0 0 0 479.02 637.97
  Z
  M 366.10 780.87
  C 370.32 787.09 388.49 812.48 397.71 808.47
  C 406.37 804.70 414.57 785.99 417.49 777.74
  C 431.66 737.88 440.28 694.99 454.91 654.68
  Q 459.30 642.58 464.52 634.79
  C 471.42 624.49 483.03 620.19 491.47 631.77
  Q 495.82 637.73 498.22 643.81
  C 508.22 669.17 514.48 697.02 521.56 723.69
  C 524.47 734.64 546.84 823.87 570.18 808.68
  C 578.65 803.16 586.03 793.69 591.86 785.13
  C 615.22 750.83 633.07 711.01 648.41 672.56
  Q 684.75 581.56 706.43 485.98
  C 717.34 437.85 725.06 385.79 719.60 336.44
  C 715.38 298.20 700.27 266.34 663.89 249.37
  C 644.84 240.48 624.23 236.20 603.48 233.68
  Q 572.44 229.91 541.18 229.13
  C 489.73 227.86 437.71 227.36 386.43 232.34
  C 330.73 237.74 272.12 253.40 250.18 311.59
  C 242.14 332.92 239.25 356.08 238.79 378.75
  C 237.93 421.61 243.71 462.53 254.22 506.15
  Q 275.98 596.48 313.40 681.42
  C 328.49 715.65 345.04 749.84 366.10 780.87
  Z"
/>
<path fill="#ffffff" d="
  M 397.71 808.47
  C 388.49 812.48 370.32 787.09 366.10 780.87
  C 345.04 749.84 328.49 715.65 313.40 681.42
  Q 275.98 596.48 254.22 506.15
  C 243.71 462.53 237.93 421.61 238.79 378.75
  C 239.25 356.08 242.14 332.92 250.18 311.59
  C 272.12 253.40 330.73 237.74 386.43 232.34
  C 437.71 227.36 489.73 227.86 541.18 229.13
  Q 572.44 229.91 603.48 233.68
  C 624.23 236.20 644.84 240.48 663.89 249.37
  C 700.27 266.34 715.38 298.20 719.60 336.44
  C 725.06 385.79 717.34 437.85 706.43 485.98
  Q 684.75 581.56 648.41 672.56
  C 633.07 711.01 615.22 750.83 591.86 785.13
  C 586.03 793.69 578.65 803.16 570.18 808.68
  C 546.84 823.87 524.47 734.64 521.56 723.69
  C 514.48 697.02 508.22 669.17 498.22 643.81
  Q 495.82 637.73 491.47 631.77
  C 483.03 620.19 471.42 624.49 464.52 634.79
  Q 459.30 642.58 454.91 654.68
  C 440.28 694.99 431.66 737.88 417.49 777.74
  C 414.57 785.99 406.37 804.70 397.71 808.47
  Z
  M 384.23 290.38
  A 0.37 0.37 0.0 0 1 384.20 291.02
  Q 370.81 297.83 357.36 304.53
  C 340.49 312.92 324.01 322.92 316.95 341.39
  A 0.59 0.59 0.0 0 0 317.76 342.13
  C 345.22 328.87 373.39 326.15 404.24 322.18
  C 417.87 320.43 426.57 320.89 437.27 330.11
  Q 452.63 343.33 467.49 357.12
  Q 472.99 362.23 476.22 363.29
  C 485.63 366.38 495.86 359.39 497.96 349.94
  C 498.73 346.45 499.31 342.66 500.63 339.79
  C 505.21 329.81 517.05 323.08 528.00 325.72
  C 536.68 327.81 538.81 326.89 544.37 319.88
  C 552.62 309.49 559.42 298.64 574.91 300.77
  C 602.20 304.53 625.56 313.82 649.16 327.76
  Q 649.53 327.98 649.34 327.59
  Q 646.46 321.74 643.85 315.76
  C 638.47 303.42 628.30 291.08 615.24 286.54
  Q 607.80 283.96 595.42 280.89
  Q 593.50 280.41 593.12 278.85
  Q 592.97 278.26 593.42 277.84
  Q 601.30 270.50 611.49 267.04
  A 0.32 0.32 0.0 0 0 611.55 266.47
  C 583.31 249.57 541.86 239.24 514.84 264.26
  Q 514.48 264.60 514.07 264.31
  C 492.89 248.97 471.77 258.95 450.89 267.62
  Q 450.41 267.82 449.97 267.53
  Q 424.41 250.81 394.51 245.71
  C 377.53 242.81 363.73 245.61 351.79 258.19
  Q 345.09 265.25 338.88 272.14
  Q 338.09 273.02 339.27 273.13
  C 356.70 274.73 369.90 280.93 384.23 290.38
  Z
  M 253.47 409.11
  C 255.58 418.87 266.04 421.75 268.39 430.69
  Q 270.79 439.77 263.76 447.08
  C 257.72 453.36 253.40 457.96 253.27 467.05
  C 253.00 486.60 271.74 492.06 286.16 482.33
  Q 292.48 478.06 297.23 475.49
  C 307.34 470.03 315.06 476.91 323.06 482.17
  C 335.97 490.66 356.71 488.20 359.21 470.25
  C 359.24 454.04 346.74 444.34 332.48 440.79
  C 325.55 439.06 316.90 437.17 318.75 427.49
  C 321.38 413.71 324.83 402.04 318.86 389.44
  C 314.99 381.29 304.63 377.81 297.69 384.93
  C 293.50 389.23 288.21 395.54 282.60 397.72
  C 273.90 401.10 251.68 393.07 253.47 409.11
  Z
  M 341.13 426.13
  C 347.18 430.93 358.34 433.47 359.28 422.01
  C 359.96 413.64 355.41 403.48 345.85 404.05
  C 332.94 404.83 333.01 419.70 341.13 426.13
  Z
  M 547.46 450.47
  C 546.31 474.76 571.49 493.60 594.42 481.50
  C 604.40 476.23 610.79 465.78 611.84 454.53
  Q 612.23 450.30 610.97 448.14
  C 608.21 443.40 600.41 445.02 600.11 451.49
  C 598.84 478.93 562.31 480.65 559.56 453.51
  Q 559.15 449.53 558.44 448.30
  C 555.81 443.74 547.71 445.04 547.46 450.47
  Z
  M 387.11 452.47
  C 386.92 472.23 403.52 489.27 423.89 486.21
  C 439.79 483.83 450.38 470.84 451.50 454.84
  C 452.24 444.20 439.90 445.40 439.68 451.99
  C 438.82 477.97 406.16 483.34 399.79 458.24
  C 399.09 455.46 399.54 451.05 397.40 448.61
  C 394.20 444.97 387.16 447.34 387.11 452.47
  Z
  M 277.48 519.10
  C 278.21 524.40 285.49 527.09 286.70 532.64
  C 288.47 540.71 279.82 543.46 277.87 550.20
  C 274.98 560.24 281.54 568.84 292.14 566.17
  C 297.56 564.80 301.41 559.86 306.72 558.52
  C 313.18 556.89 318.66 563.72 324.43 565.74
  C 331.63 568.27 340.55 565.38 342.21 557.00
  C 342.75 545.20 333.58 540.23 323.76 537.51
  C 314.16 534.85 317.81 527.85 319.11 520.83
  C 320.27 514.53 318.52 499.30 308.48 501.57
  C 303.17 502.77 300.19 510.09 294.48 511.93
  C 289.71 513.46 275.27 509.33 277.48 519.10
  Z
  M 329.62 517.37
  C 322.67 523.57 335.14 535.57 340.78 530.59
  C 343.51 528.18 342.20 521.08 340.26 518.54
  C 337.76 515.27 332.73 514.59 329.62 517.37
  Z
  M 499.18 541.96
  C 519.08 542.92 534.91 550.52 550.69 562.14
  A 0.28 0.28 0.0 0 0 551.13 561.83
  C 538.18 520.34 464.81 514.04 455.22 562.08
  A 0.37 0.36 68.9 0 0 455.87 562.37
  Q 471.60 540.64 499.18 541.96
  Z"
/>
<path fill="#646464" d="
  M 384.23 290.38
  C 369.90 280.93 356.70 274.73 339.27 273.13
  Q 338.09 273.02 338.88 272.14
  Q 345.09 265.25 351.79 258.19
  C 363.73 245.61 377.53 242.81 394.51 245.71
  Q 424.41 250.81 449.97 267.53
  Q 450.41 267.82 450.89 267.62
  C 471.77 258.95 492.89 248.97 514.07 264.31
  Q 514.48 264.60 514.84 264.26
  C 541.86 239.24 583.31 249.57 611.55 266.47
  A 0.32 0.32 0.0 0 1 611.49 267.04
  Q 601.30 270.50 593.42 277.84
  Q 592.97 278.26 593.12 278.85
  Q 593.50 280.41 595.42 280.89
  Q 607.80 283.96 615.24 286.54
  C 628.30 291.08 638.47 303.42 643.85 315.76
  Q 646.46 321.74 649.34 327.59
  Q 649.53 327.98 649.16 327.76
  C 625.56 313.82 602.20 304.53 574.91 300.77
  C 559.42 298.64 552.62 309.49 544.37 319.88
  C 538.81 326.89 536.68 327.81 528.00 325.72
  C 517.05 323.08 505.21 329.81 500.63 339.79
  C 499.31 342.66 498.73 346.45 497.96 349.94
  C 495.86 359.39 485.63 366.38 476.22 363.29
  Q 472.99 362.23 467.49 357.12
  Q 452.63 343.33 437.27 330.11
  C 426.57 320.89 417.87 320.43 404.24 322.18
  C 373.39 326.15 345.22 328.87 317.76 342.13
  A 0.59 0.59 0.0 0 1 316.95 341.39
  C 324.01 322.92 340.49 312.92 357.36 304.53
  Q 370.81 297.83 384.20 291.02
  A 0.37 0.37 0.0 0 0 384.23 290.38
  Z"
/>
<path fill="#c79a83" d="
  M 359.21 470.25
  Q 358.40 470.79 356.95 472.40
  C 349.91 480.18 340.77 478.35 332.82 473.17
  C 318.06 463.56 311.93 457.24 293.08 463.34
  C 287.49 465.15 276.62 470.50 273.91 461.33
  C 272.73 457.38 277.81 451.31 278.80 447.66
  C 282.18 435.21 278.46 421.37 266.30 414.94
  Q 259.11 411.15 253.47 409.11
  C 251.68 393.07 273.90 401.10 282.60 397.72
  C 288.21 395.54 293.50 389.23 297.69 384.93
  C 304.63 377.81 314.99 381.29 318.86 389.44
  C 324.83 402.04 321.38 413.71 318.75 427.49
  C 316.90 437.17 325.55 439.06 332.48 440.79
  C 346.74 444.34 359.24 454.04 359.21 470.25
  Z"
/>
<path fill="#c79a83" d="
  M 341.13 426.13
  C 333.01 419.70 332.94 404.83 345.85 404.05
  C 355.41 403.48 359.96 413.64 359.28 422.01
  C 358.34 433.47 347.18 430.93 341.13 426.13
  Z"
/>
<path fill="#a07765" d="
  M 359.21 470.25
  C 356.71 488.20 335.97 490.66 323.06 482.17
  C 315.06 476.91 307.34 470.03 297.23 475.49
  Q 292.48 478.06 286.16 482.33
  C 271.74 492.06 253.00 486.60 253.27 467.05
  C 253.40 457.96 257.72 453.36 263.76 447.08
  Q 270.79 439.77 268.39 430.69
  C 266.04 421.75 255.58 418.87 253.47 409.11
  Q 259.11 411.15 266.30 414.94
  C 278.46 421.37 282.18 435.21 278.80 447.66
  C 277.81 451.31 272.73 457.38 273.91 461.33
  C 276.62 470.50 287.49 465.15 293.08 463.34
  C 311.93 457.24 318.06 463.56 332.82 473.17
  C 340.77 478.35 349.91 480.18 356.95 472.40
  Q 358.40 470.79 359.21 470.25
  Z"
/>
<path fill="#4b4b4b" d="
  M 594.42 481.50
  C 571.49 493.60 546.31 474.76 547.46 450.47
  C 547.71 445.04 555.81 443.74 558.44 448.30
  Q 559.15 449.53 559.56 453.51
  C 562.31 480.65 598.84 478.93 600.11 451.49
  C 600.41 445.02 608.21 443.40 610.97 448.14
  Q 612.23 450.30 611.84 454.53
  C 610.79 465.78 604.40 476.23 594.42 481.50
  Z"
/>
<path fill="#4b4b4b" d="
  M 423.89 486.21
  C 403.52 489.27 386.92 472.23 387.11 452.47
  C 387.16 447.34 394.20 444.97 397.40 448.61
  C 399.54 451.05 399.09 455.46 399.79 458.24
  C 406.16 483.34 438.82 477.97 439.68 451.99
  C 439.90 445.40 452.24 444.20 451.50 454.84
  C 450.38 470.84 439.79 483.83 423.89 486.21
  Z"
/>
<path fill="#c79a83" d="
  M 342.21 557.00
  Q 334.74 563.83 326.30 558.21
  C 319.69 553.81 314.48 548.87 305.47 551.08
  Q 300.51 552.30 295.64 553.74
  C 292.20 554.76 288.21 551.19 289.98 548.27
  C 298.31 534.52 291.88 523.10 277.48 519.10
  C 275.27 509.33 289.71 513.46 294.48 511.93
  C 300.19 510.09 303.17 502.77 308.48 501.57
  C 318.52 499.30 320.27 514.53 319.11 520.83
  C 317.81 527.85 314.16 534.85 323.76 537.51
  C 333.58 540.23 342.75 545.20 342.21 557.00
  Z"
/>
<path fill="#c79a83" d="
  M 340.78 530.59
  C 335.14 535.57 322.67 523.57 329.62 517.37
  C 332.73 514.59 337.76 515.27 340.26 518.54
  C 342.20 521.08 343.51 528.18 340.78 530.59
  Z"
/>
<path fill="#a07765" d="
  M 342.21 557.00
  C 340.55 565.38 331.63 568.27 324.43 565.74
  C 318.66 563.72 313.18 556.89 306.72 558.52
  C 301.41 559.86 297.56 564.80 292.14 566.17
  C 281.54 568.84 274.98 560.24 277.87 550.20
  C 279.82 543.46 288.47 540.71 286.70 532.64
  C 285.49 527.09 278.21 524.40 277.48 519.10
  C 291.88 523.10 298.31 534.52 289.98 548.27
  C 288.21 551.19 292.20 554.76 295.64 553.74
  Q 300.51 552.30 305.47 551.08
  C 314.48 548.87 319.69 553.81 326.30 558.21
  Q 334.74 563.83 342.21 557.00
  Z"
/>
<path fill="#4b4b4b" d="
  M 499.18 541.96
  Q 471.60 540.64 455.87 562.37
  A 0.37 0.36 68.9 0 1 455.22 562.08
  C 464.81 514.04 538.18 520.34 551.13 561.83
  A 0.28 0.28 0.0 0 1 550.69 562.14
  C 534.91 550.52 519.08 542.92 499.18 541.96
  Z"
/>
</svg>
