<?xml version="1.0" encoding="UTF-8" standalone="no"?>
<!DOCTYPE svg PUBLIC "-//W3C//DTD SVG 1.1//EN" "http://www.w3.org/Graphics/SVG/1.1/DTD/svg11.dtd">
<svg xmlns="http://www.w3.org/2000/svg" version="1.1" viewBox="0 0 960 960">
<g stroke-width="2.00" fill="none" stroke-linecap="butt">
<path stroke="#cab24d" vector-effect="non-scaling-stroke" d="
  M 683.04 242.00
  Q 680.07 247.55 678.04 253.50"
/>
<path stroke="#fde580" vector-effect="non-scaling-stroke" d="
  M 678.04 253.50
  C 674.66 261.20 672.85 269.79 670.23 277.85
  Q 669.90 278.85 669.56 277.86
  C 665.34 265.59 661.55 253.37 655.07 240.59
  C 654.83 240.11 654.60 240.06 654.21 239.75"
/>
<path stroke="#cab24d" vector-effect="non-scaling-stroke" d="
  M 654.21 239.75
  Q 648.81 227.48 637.01 221.40"
/>
<path stroke="#4d4d4d" vector-effect="non-scaling-stroke" d="
  M 709.21 595.75
  Q 701.89 600.17 693.25 600.29"
/>
<path stroke="#cc4d4d" vector-effect="non-scaling-stroke" d="
  M 693.25 600.29
  L 683.49 598.25
  Q 683.03 598.15 682.88 598.60
  Q 670.25 636.41 655.50 673.46"
/>
<path stroke="#c04d4d" vector-effect="non-scaling-stroke" d="
  M 655.50 673.46
  L 643.75 701.46"
/>
<path stroke="#b34d4d" vector-effect="non-scaling-stroke" d="
  M 643.75 701.46
  L 631.86 727.49"
/>
<path stroke="#4d4d4d" vector-effect="non-scaling-stroke" d="
  M 631.86 727.49
  L 626.75 738.21"
/>
<path stroke="#b34d4d" vector-effect="non-scaling-stroke" d="
  M 626.75 738.21
  L 608.71 771.25"
/>
<path stroke="#4d4d4d" vector-effect="non-scaling-stroke" d="
  M 608.71 771.25
  L 599.74 785.39"
/>
<path stroke="#c04d4d" vector-effect="non-scaling-stroke" d="
  M 599.74 785.39
  Q 589.44 800.09 576.59 811.41"
/>
<path stroke="#cc4d4d" vector-effect="non-scaling-stroke" d="
  M 576.59 811.41
  Q 567.46 818.33 557.08 816.62
  C 532.94 812.64 518.61 764.14 512.51 743.50
  Q 507.24 725.66 492.58 670.80
  C 490.50 663.02 483.07 635.58 476.35 631.69
  Q 475.91 631.44 475.51 631.76
  C 467.17 638.57 462.88 653.47 459.28 663.70
  Q 457.18 669.66 454.99 677.39
  Q 445.00 712.55 435.00 747.71"
/>
<path stroke="#c04d4d" vector-effect="non-scaling-stroke" d="
  M 435.00 747.71
  Q 428.28 770.33 418.48 791.74"
/>
<path stroke="#4d4d4d" vector-effect="non-scaling-stroke" d="
  M 418.48 791.74
  Q 413.33 800.47 407.07 808.19"
/>
<path stroke="#b34d4d" vector-effect="non-scaling-stroke" d="
  M 407.07 808.19
  C 403.93 810.34 400.69 812.86 397.25 813.92
  C 377.49 820.03 356.14 787.40 347.29 773.40"
/>
<path stroke="#c04d4d" vector-effect="non-scaling-stroke" d="
  M 347.29 773.40
  Q 336.96 757.04 327.31 739.68"
/>
<path stroke="#cc4d4d" vector-effect="non-scaling-stroke" d="
  M 327.31 739.68
  C 309.82 705.92 297.86 678.25 284.59 646.74"
/>
<path stroke="#4d4d4d" vector-effect="non-scaling-stroke" d="
  M 284.59 646.74
  L 269.04 605.50"
/>
<path stroke="#cccccc" vector-effect="non-scaling-stroke" d="
  M 678.04 253.50
  C 705.51 273.54 714.42 306.03 716.78 338.27
  Q 719.18 371.15 715.58 403.88
  Q 715.52 404.39 715.01 404.40
  Q 699.17 404.93 688.84 416.84
  C 674.40 433.49 670.29 455.07 678.44 475.51
  C 682.68 486.17 689.76 495.48 697.14 504.02
  A 1.61 1.60 -42.5 0 1 697.04 506.23
  Q 689.44 513.46 683.86 522.33
  Q 683.56 522.81 683.01 522.70
  C 667.46 519.74 649.99 530.39 656.15 548.33
  Q 657.89 553.38 662.28 559.01
  Q 662.60 559.42 662.48 559.93
  C 660.02 569.96 665.74 582.92 672.17 590.36
  Q 672.50 590.75 672.34 591.24
  Q 651.69 654.92 623.60 715.68
  C 611.27 742.35 597.61 768.86 578.96 791.72
  C 573.76 798.08 563.71 809.39 554.79 802.72
  Q 547.24 797.07 542.07 786.84
  C 532.71 768.31 526.47 748.10 521.00 728.14
  C 513.07 699.18 506.31 669.10 495.77 641.00
  C 491.62 629.94 483.54 613.64 469.11 621.35
  C 454.82 628.98 445.52 666.23 441.00 681.38
  C 436.32 697.10 410.51 807.64 390.32 802.46
  C 382.15 800.36 370.21 784.95 365.38 778.10
  C 349.49 755.53 336.27 731.05 324.35 706.20
  Q 296.03 647.16 275.13 585.05
  Q 274.96 584.52 275.23 584.03
  Q 281.49 572.72 280.40 559.72
  Q 280.35 559.21 280.67 558.80
  C 285.11 553.19 288.33 546.17 287.45 539.06
  C 285.85 526.01 271.72 520.40 259.87 522.57
  Q 259.40 522.66 259.08 522.29
  C 253.25 515.53 252.50 507.53 250.45 499.20
  A 1.94 1.91 59.0 0 1 250.87 497.47
  C 268.07 477.54 274.72 450.98 261.18 427.19
  C 255.33 416.92 247.97 409.04 236.77 405.69
  A 1.35 1.34 -83.3 0 1 235.81 404.47
  Q 234.22 375.83 236.75 348.71"
/>
<path stroke="#cccccc" vector-effect="non-scaling-stroke" d="
  M 654.21 239.75
  C 633.61 232.11 611.29 227.88 590.19 225.82
  Q 553.38 222.23 514.00 222.19
  C 464.89 222.14 416.34 221.19 367.50 227.71
  C 333.25 232.28 298.67 242.02 272.00 265.71"
/>
<path stroke="#f30000" vector-effect="non-scaling-stroke" d="
  M 800.00 854.96
  Q 798.11 855.12 797.90 853.83
  Q 797.82 853.38 797.55 853.01
  C 796.57 851.68 795.80 850.48 794.49 849.46
  C 776.60 835.54 761.00 819.25 746.03 801.74
  C 712.63 762.66 683.65 719.11 656.82 675.34
  Q 656.24 674.38 655.50 673.46"
/>
<path stroke="#f30000" vector-effect="non-scaling-stroke" d="
  M 327.31 739.68
  Q 313.62 797.59 292.07 853.02
  Q 289.79 858.89 287.12 864.59
  C 286.50 865.93 285.44 866.47 284.12 866.84
  Q 283.61 866.98 283.72 867.50
  Q 284.03 868.84 283.04 869.50"
/>
<path stroke="#f30000" vector-effect="non-scaling-stroke" d="
  M 576.59 811.41
  Q 578.35 813.90 578.68 817.56
  C 582.17 856.62 575.17 893.04 562.17 929.46
  C 561.59 931.07 561.54 933.00 560.89 934.74
  Q 560.80 934.99 560.54 935.00
  Q 560.38 935.00 560.25 935.04"
/>
<path stroke="#f30000" vector-effect="non-scaling-stroke" d="
  M 455.50 884.71
  L 457.02 882.17
  Q 457.28 881.73 457.09 881.26
  C 455.03 875.89 452.43 870.87 451.54 865.21
  Q 450.44 858.24 449.53 851.25
  Q 442.96 800.89 436.72 750.51
  Q 436.48 748.64 435.00 747.71"
/>
<path stroke="#da0000" vector-effect="non-scaling-stroke" d="
  M 347.29 773.40
  Q 345.84 774.47 345.73 776.13
  Q 345.56 778.88 345.53 779.00
  Q 335.78 819.30 314.84 855.08
  C 313.64 857.13 310.33 860.74 309.75 864.21"
/>
<path stroke="#670000" vector-effect="non-scaling-stroke" d="
  M 407.07 808.19
  Q 405.63 819.32 405.42 830.52"
/>
<path stroke="#cab24d" vector-effect="non-scaling-stroke" d="
  M 262.53 258.16
  Q 266.54 262.99 272.00 265.71"
/>
<path stroke="#fde580" vector-effect="non-scaling-stroke" d="
  M 272.00 265.71
  C 285.78 274.77 303.49 279.11 320.15 283.19
  A 0.36 0.36 0.0 0 1 320.13 283.89
  C 300.43 287.85 270.05 291.07 257.99 309.74
  C 249.23 323.31 244.60 339.32 240.06 355.11
  A 0.55 0.55 0.0 0 1 239.02 355.14
  L 236.75 348.71"
/>
<path stroke="#cab24d" vector-effect="non-scaling-stroke" d="
  M 236.75 348.71
  C 234.77 341.59 232.14 332.17 228.04 326.00"
/>
<path stroke="#4d4d4d" vector-effect="non-scaling-stroke" d="
  M 611.96 887.75
  L 611.04 887.75"
/>
<path stroke="#740000" vector-effect="non-scaling-stroke" d="
  M 611.04 887.75
  Q 606.08 836.54 599.74 785.39"
/>
<path stroke="#262626" vector-effect="non-scaling-stroke" d="
  M 946.25 898.96
  Q 945.22 899.07 945.17 900.72"
/>
<path stroke="#800000" vector-effect="non-scaling-stroke" d="
  M 284.59 646.74
  Q 282.48 696.02 280.52 745.29
  C 280.21 753.17 280.30 761.86 280.08 770.18
  C 279.60 788.12 279.20 805.69 280.45 823.28
  Q 282.09 846.37 283.04 869.50"
/>
<path stroke="#740000" vector-effect="non-scaling-stroke" d="
  M 283.04 869.50
  L 283.28 870.20
  Q 283.46 870.73 284.00 870.59
  L 309.75 864.21"
/>
<path stroke="#670000" vector-effect="non-scaling-stroke" d="
  M 309.75 864.21
  C 314.70 863.27 319.10 861.84 324.30 861.73
  Q 328.08 861.64 334.25 861.22
  C 335.96 861.10 338.46 861.85 340.60 861.75
  C 354.98 861.10 370.09 860.35 384.34 862.81
  Q 393.31 864.36 402.15 866.04"
/>
<path stroke="#740000" vector-effect="non-scaling-stroke" d="
  M 402.15 866.04
  Q 430.01 872.30 455.50 884.71"
/>
<path stroke="#800000" vector-effect="non-scaling-stroke" d="
  M 455.50 884.71
  Q 481.53 897.67 507.20 911.30
  C 523.30 919.85 540.36 926.67 556.99 934.02
  Q 558.05 934.48 560.25 935.04"
/>
<path stroke="#740000" vector-effect="non-scaling-stroke" d="
  M 560.25 935.04
  C 575.93 941.34 595.56 945.84 612.41 942.99"
/>
<path stroke="#670000" vector-effect="non-scaling-stroke" d="
  M 612.41 942.99
  Q 624.49 937.85 636.87 932.53
  C 646.46 928.41 655.18 919.68 663.26 912.30
  C 668.62 907.42 673.02 901.45 677.84 895.84
  C 691.88 879.51 708.81 866.78 730.36 860.92
  C 734.41 859.81 738.45 857.68 742.75 856.54"
/>
<path stroke="#740000" vector-effect="non-scaling-stroke" d="
  M 742.75 856.54
  C 746.32 855.81 749.18 854.48 752.85 854.54
  Q 776.42 854.89 800.00 854.96"
/>
<path stroke="#800000" vector-effect="non-scaling-stroke" d="
  M 800.00 854.96
  C 844.06 861.33 879.37 867.50 918.38 880.47
  A 0.79 0.79 0.0 0 0 919.23 879.20
  C 894.53 850.49 865.43 821.42 840.79 792.70
  C 789.19 732.57 738.25 667.26 693.25 600.29"
/>
<path stroke="#da0000" vector-effect="non-scaling-stroke" d="
  M 402.15 866.04
  Q 404.41 848.29 405.42 830.52"
/>
<path stroke="#740000" vector-effect="non-scaling-stroke" d="
  M 405.42 830.52
  C 406.47 826.60 409.34 823.80 410.71 820.76
  C 413.88 813.72 415.16 806.74 417.15 799.31
  Q 418.15 795.61 418.48 791.74"
/>
<path stroke="#da0000" vector-effect="non-scaling-stroke" d="
  M 612.41 942.99
  Q 611.27 938.58 610.46 934.19
  Q 609.85 930.83 610.26 926.77
  C 611.58 913.94 610.42 901.70 611.04 889.00"
/>
<path stroke="#b34d4d" vector-effect="non-scaling-stroke" d="
  M 611.04 889.00
  L 611.77 891.03
  Q 612.05 891.79 612.44 891.08
  Q 613.37 889.39 611.96 887.75"
/>
<path stroke="#670000" vector-effect="non-scaling-stroke" d="
  M 611.96 887.75
  C 611.39 848.86 610.50 810.20 608.71 771.25"
/>
<path stroke="#670000" vector-effect="non-scaling-stroke" d="
  M 626.75 738.21
  L 627.29 738.26
  Q 627.77 738.30 627.92 738.76
  Q 634.65 760.17 643.93 780.62
  A 0.78 0.77 25.6 0 0 645.39 780.11
  L 631.86 727.49"
/>
<path stroke="#c04d4d" vector-effect="non-scaling-stroke" d="
  M 611.04 887.75
  L 611.04 889.00"
/>
<path stroke="#da0000" vector-effect="non-scaling-stroke" d="
  M 742.75 856.54
  Q 741.62 855.87 741.78 854.51
  Q 741.85 853.99 741.49 853.61
  C 715.56 825.46 694.27 797.38 675.45 765.80
  Q 669.75 756.23 665.17 746.07
  Q 655.51 724.61 646.21 702.98
  Q 645.81 702.06 643.75 701.46"
/>
<path stroke="#fde533" vector-effect="non-scaling-stroke" d="
  M 671.44 169.36
  Q 660.15 193.68 636.32 205.97
  A 0.61 0.61 0.0 0 0 636.35 207.07
  C 653.07 214.51 661.59 225.32 669.03 241.68
  A 0.28 0.28 0.0 0 0 669.54 241.68
  C 677.18 224.45 686.92 211.23 705.62 205.17
  A 0.58 0.58 0.0 0 0 705.67 204.09
  Q 681.54 193.89 672.31 169.39
  A 0.47 0.47 0.0 0 0 671.44 169.36"
/>
<path stroke="#fde533" vector-effect="non-scaling-stroke" d="
  M 275.30 281.58
  C 258.36 273.89 248.96 263.74 241.80 246.64
  A 0.38 0.38 0.0 0 0 241.11 246.63
  Q 229.95 271.28 205.80 283.48
  A 0.60 0.60 0.0 0 0 205.84 284.57
  C 222.43 291.55 231.24 302.74 238.62 318.84
  A 0.51 0.51 0.0 0 0 239.56 318.82
  C 246.53 301.29 257.06 288.91 275.25 282.57
  A 0.54 0.53 -42.3 0 0 275.30 281.58"
/>
<path stroke="#cccccc" vector-effect="non-scaling-stroke" d="
  M 604.37 239.77
  C 604.79 238.57 592.31 236.57 591.25 236.48
  C 557.52 233.51 518.74 244.68 497.22 272.58
  A 0.53 0.53 0.0 0 0 497.87 273.39
  C 517.68 264.06 537.92 255.74 559.23 250.18
  Q 581.46 244.38 604.14 239.97
  A 0.31 0.29 -84.6 0 0 604.37 239.77"
/>
<path stroke="#cccccc" vector-effect="non-scaling-stroke" d="
  M 451.66 256.15
  Q 467.77 260.94 483.98 265.95
  A 0.37 0.37 0.0 0 0 484.34 265.32
  C 453.98 237.02 412.26 230.00 372.93 241.27
  A 0.50 0.50 0.0 0 0 372.99 242.24
  C 399.49 246.32 425.95 248.50 451.66 256.15"
/>
<path stroke="#cccccc" vector-effect="non-scaling-stroke" d="
  M 489.70 271.51
  C 476.33 261.53 452.26 264.29 452.34 285.38
  A 1.30 1.30 0.0 0 0 454.37 286.45
  C 465.12 279.15 477.10 276.22 489.91 273.73
  Q 490.76 273.56 490.64 272.70
  Q 490.57 272.16 489.70 271.51"
/>
<path stroke="#a5a5a5" vector-effect="non-scaling-stroke" d="
  M 413.3400 468.2600
  A 29.05 15.88 90.0 0 0 429.2200 439.2100
  A 29.05 15.88 90.0 0 0 413.3400 410.1600
  A 29.05 15.88 90.0 0 0 397.4600 439.2100
  A 29.05 15.88 90.0 0 0 413.3400 468.2600"
/>
<path stroke="#a5a5a5" vector-effect="non-scaling-stroke" d="
  M 535.1900 468.2800
  A 29.07 15.85 90.0 0 0 551.0400 439.2100
  A 29.07 15.85 90.0 0 0 535.1900 410.1400
  A 29.07 15.85 90.0 0 0 519.3400 439.2100
  A 29.07 15.85 90.0 0 0 535.1900 468.2800"
/>
<path stroke="#a5a5a5" vector-effect="non-scaling-stroke" d="
  M 439.03 482.35
  C 445.42 499.14 459.51 513.02 476.99 517.76
  C 498.02 523.47 522.72 515.78 525.06 490.90
  A 0.71 0.71 0.0 0 0 523.76 490.45
  C 520.10 496.12 517.04 500.24 510.99 503.48
  C 497.84 510.53 478.57 507.14 465.92 500.31
  Q 451.69 492.63 439.65 481.92
  A 0.39 0.39 0.0 0 0 439.03 482.35"
/>
<path stroke="#cccccc" vector-effect="non-scaling-stroke" d="
  M 199.79 490.20
  C 211.89 489.25 221.28 493.30 230.80 500.29
  Q 231.24 500.62 231.62 500.22
  C 250.77 480.73 266.11 455.60 247.56 429.23
  C 228.15 401.66 200.50 426.99 186.72 443.93
  C 170.78 463.53 155.08 492.31 156.60 518.42
  C 158.59 552.50 189.36 563.86 218.51 564.34
  Q 227.83 564.49 237.24 564.53
  Q 237.76 564.53 237.79 565.05
  C 238.18 573.08 235.37 587.48 247.75 587.47
  C 263.90 587.46 270.96 568.94 266.59 555.20
  Q 266.43 554.71 266.86 554.41
  C 270.66 551.73 275.28 546.25 275.10 541.33
  C 274.91 535.89 267.18 534.08 262.50 534.77
  Q 258.89 535.30 253.36 539.04
  Q 252.86 539.38 252.65 538.81
  C 244.42 516.45 220.77 499.74 199.72 490.64
  A 0.23 0.23 0.0 0 1 199.79 490.20"
/>
<path stroke="#cccccc" vector-effect="non-scaling-stroke" d="
  M 742.40 490.00
  A 0.47 0.47 0.0 0 1 742.57 490.90
  C 722.33 499.55 697.36 517.07 690.11 538.97
  A 0.45 0.45 0.0 0 1 689.41 539.18
  C 683.95 534.95 676.24 532.51 670.17 536.89
  C 663.35 541.82 671.60 551.31 675.69 554.70
  Q 676.09 555.02 675.95 555.51
  Q 671.67 570.19 680.92 581.09
  C 686.13 587.23 700.58 591.68 704.21 580.98
  C 705.60 576.89 705.00 569.94 705.01 564.92
  Q 705.01 564.34 705.59 564.35
  C 726.97 564.96 754.16 564.75 771.38 549.74
  C 802.43 522.68 778.35 473.04 758.65 447.45
  C 749.88 436.05 742.19 427.30 730.31 421.33
  C 718.26 415.28 707.14 414.97 698.07 425.58
  C 674.76 452.85 691.39 479.28 710.93 500.30
  A 0.78 0.78 0.0 0 0 712.00 500.37
  Q 725.19 489.52 742.40 490.00"
/>
</g>
<path fill="#faca00" d="
  M 683.04 242.00
  Q 680.07 247.55 678.04 253.50
  C 674.66 261.20 672.85 269.79 670.23 277.85
  Q 669.90 278.85 669.56 277.86
  C 665.34 265.59 661.55 253.37 655.07 240.59
  C 654.83 240.11 654.60 240.06 654.21 239.75
  Q 648.81 227.48 637.01 221.40
  C 624.70 213.87 612.08 211.24 599.07 207.06
  Q 598.02 206.72 599.07 206.39
  C 607.11 203.89 616.48 201.57 623.14 198.77
  C 642.47 190.64 654.91 178.56 662.66 159.00
  C 667.14 147.72 669.15 131.92 671.49 118.72
  A 0.36 0.36 0.0 0 1 672.19 118.71
  C 675.54 135.77 678.10 153.53 685.35 169.33
  C 696.58 193.82 727.06 199.68 750.28 205.80
  A 0.36 0.36 0.0 0 1 750.26 206.51
  C 735.97 209.27 721.03 211.64 707.46 217.20
  Q 690.05 224.34 683.04 242.00
  Z
  M 671.44 169.36
  Q 660.15 193.68 636.32 205.97
  A 0.61 0.61 0.0 0 0 636.35 207.07
  C 653.07 214.51 661.59 225.32 669.03 241.68
  A 0.28 0.28 0.0 0 0 669.54 241.68
  C 677.18 224.45 686.92 211.23 705.62 205.17
  A 0.58 0.58 0.0 0 0 705.67 204.09
  Q 681.54 193.89 672.31 169.39
  A 0.47 0.47 0.0 0 0 671.44 169.36
  Z"
/>
<path fill="#ffff66" d="
  M 671.44 169.36
  A 0.47 0.47 0.0 0 1 672.31 169.39
  Q 681.54 193.89 705.67 204.09
  A 0.58 0.58 0.0 0 1 705.62 205.17
  C 686.92 211.23 677.18 224.45 669.54 241.68
  A 0.28 0.28 0.0 0 1 669.03 241.68
  C 661.59 225.32 653.07 214.51 636.35 207.07
  A 0.61 0.61 0.0 0 1 636.32 205.97
  Q 660.15 193.68 671.44 169.36
  Z"
/>
<path fill="#faca00" d="
  M 262.53 258.16
  Q 266.54 262.99 272.00 265.71
  C 285.78 274.77 303.49 279.11 320.15 283.19
  A 0.36 0.36 0.0 0 1 320.13 283.89
  C 300.43 287.85 270.05 291.07 257.99 309.74
  C 249.23 323.31 244.60 339.32 240.06 355.11
  A 0.55 0.55 0.0 0 1 239.02 355.14
  L 236.75 348.71
  C 234.77 341.59 232.14 332.17 228.04 326.00
  Q 227.73 324.00 227.33 323.18
  C 223.03 314.23 218.58 306.24 210.50 301.01
  C 197.60 292.67 183.52 288.95 168.97 284.66
  A 0.51 0.51 0.0 0 1 168.98 283.68
  Q 177.30 281.35 185.75 278.76
  Q 220.19 268.19 232.44 236.28
  C 236.87 224.73 238.92 208.98 241.16 195.59
  A 0.32 0.31 44.7 0 1 241.78 195.59
  C 246.05 217.69 248.71 240.05 262.53 258.16
  Z
  M 275.30 281.58
  C 258.36 273.89 248.96 263.74 241.80 246.64
  A 0.38 0.38 0.0 0 0 241.11 246.63
  Q 229.95 271.28 205.80 283.48
  A 0.60 0.60 0.0 0 0 205.84 284.57
  C 222.43 291.55 231.24 302.74 238.62 318.84
  A 0.51 0.51 0.0 0 0 239.56 318.82
  C 246.53 301.29 257.06 288.91 275.25 282.57
  A 0.54 0.53 -42.3 0 0 275.30 281.58
  Z"
/>
<path fill="#999999" d="
  M 637.01 221.40
  Q 648.81 227.48 654.21 239.75
  C 633.61 232.11 611.29 227.88 590.19 225.82
  Q 553.38 222.23 514.00 222.19
  C 464.89 222.14 416.34 221.19 367.50 227.71
  C 333.25 232.28 298.67 242.02 272.00 265.71
  Q 266.54 262.99 262.53 258.16
  C 281.39 239.85 306.31 228.56 331.81 222.30
  C 362.93 214.67 395.30 211.72 427.25 210.84
  Q 489.50 209.12 551.75 211.02
  C 579.78 211.88 609.09 215.03 637.01 221.40
  Z"
/>
<path fill="#ffffff" d="
  M 654.21 239.75
  C 654.60 240.06 654.83 240.11 655.07 240.59
  C 661.55 253.37 665.34 265.59 669.56 277.86
  Q 669.90 278.85 670.23 277.85
  C 672.85 269.79 674.66 261.20 678.04 253.50
  C 705.51 273.54 714.42 306.03 716.78 338.27
  Q 719.18 371.15 715.58 403.88
  Q 715.52 404.39 715.01 404.40
  Q 699.17 404.93 688.84 416.84
  C 674.40 433.49 670.29 455.07 678.44 475.51
  C 682.68 486.17 689.76 495.48 697.14 504.02
  A 1.61 1.60 -42.5 0 1 697.04 506.23
  Q 689.44 513.46 683.86 522.33
  Q 683.56 522.81 683.01 522.70
  C 667.46 519.74 649.99 530.39 656.15 548.33
  Q 657.89 553.38 662.28 559.01
  Q 662.60 559.42 662.48 559.93
  C 660.02 569.96 665.74 582.92 672.17 590.36
  Q 672.50 590.75 672.34 591.24
  Q 651.69 654.92 623.60 715.68
  C 611.27 742.35 597.61 768.86 578.96 791.72
  C 573.76 798.08 563.71 809.39 554.79 802.72
  Q 547.24 797.07 542.07 786.84
  C 532.71 768.31 526.47 748.10 521.00 728.14
  C 513.07 699.18 506.31 669.10 495.77 641.00
  C 491.62 629.94 483.54 613.64 469.11 621.35
  C 454.82 628.98 445.52 666.23 441.00 681.38
  C 436.32 697.10 410.51 807.64 390.32 802.46
  C 382.15 800.36 370.21 784.95 365.38 778.10
  C 349.49 755.53 336.27 731.05 324.35 706.20
  Q 296.03 647.16 275.13 585.05
  Q 274.96 584.52 275.23 584.03
  Q 281.49 572.72 280.40 559.72
  Q 280.35 559.21 280.67 558.80
  C 285.11 553.19 288.33 546.17 287.45 539.06
  C 285.85 526.01 271.72 520.40 259.87 522.57
  Q 259.40 522.66 259.08 522.29
  C 253.25 515.53 252.50 507.53 250.45 499.20
  A 1.94 1.91 59.0 0 1 250.87 497.47
  C 268.07 477.54 274.72 450.98 261.18 427.19
  C 255.33 416.92 247.97 409.04 236.77 405.69
  A 1.35 1.34 -83.3 0 1 235.81 404.47
  Q 234.22 375.83 236.75 348.71
  L 239.02 355.14
  A 0.55 0.55 0.0 0 0 240.06 355.11
  C 244.60 339.32 249.23 323.31 257.99 309.74
  C 270.05 291.07 300.43 287.85 320.13 283.89
  A 0.36 0.36 0.0 0 0 320.15 283.19
  C 303.49 279.11 285.78 274.77 272.00 265.71
  C 298.67 242.02 333.25 232.28 367.50 227.71
  C 416.34 221.19 464.89 222.14 514.00 222.19
  Q 553.38 222.23 590.19 225.82
  C 611.29 227.88 633.61 232.11 654.21 239.75
  Z
  M 604.37 239.77
  C 604.79 238.57 592.31 236.57 591.25 236.48
  C 557.52 233.51 518.74 244.68 497.22 272.58
  A 0.53 0.53 0.0 0 0 497.87 273.39
  C 517.68 264.06 537.92 255.74 559.23 250.18
  Q 581.46 244.38 604.14 239.97
  A 0.31 0.29 -84.6 0 0 604.37 239.77
  Z
  M 451.66 256.15
  Q 467.77 260.94 483.98 265.95
  A 0.37 0.37 0.0 0 0 484.34 265.32
  C 453.98 237.02 412.26 230.00 372.93 241.27
  A 0.50 0.50 0.0 0 0 372.99 242.24
  C 399.49 246.32 425.95 248.50 451.66 256.15
  Z
  M 489.70 271.51
  C 476.33 261.53 452.26 264.29 452.34 285.38
  A 1.30 1.30 0.0 0 0 454.37 286.45
  C 465.12 279.15 477.10 276.22 489.91 273.73
  Q 490.76 273.56 490.64 272.70
  Q 490.57 272.16 489.70 271.51
  Z
  M 413.3400 468.2600
  A 29.05 15.88 90.0 0 0 429.2200 439.2100
  A 29.05 15.88 90.0 0 0 413.3400 410.1600
  A 29.05 15.88 90.0 0 0 397.4600 439.2100
  A 29.05 15.88 90.0 0 0 413.3400 468.2600
  Z
  M 535.1900 468.2800
  A 29.07 15.85 90.0 0 0 551.0400 439.2100
  A 29.07 15.85 90.0 0 0 535.1900 410.1400
  A 29.07 15.85 90.0 0 0 519.3400 439.2100
  A 29.07 15.85 90.0 0 0 535.1900 468.2800
  Z
  M 439.03 482.35
  C 445.42 499.14 459.51 513.02 476.99 517.76
  C 498.02 523.47 522.72 515.78 525.06 490.90
  A 0.71 0.71 0.0 0 0 523.76 490.45
  C 520.10 496.12 517.04 500.24 510.99 503.48
  C 497.84 510.53 478.57 507.14 465.92 500.31
  Q 451.69 492.63 439.65 481.92
  A 0.39 0.39 0.0 0 0 439.03 482.35
  Z"
/>
<path fill="#999999" d="
  M 591.25 236.48
  C 592.31 236.57 604.79 238.57 604.37 239.77
  A 0.31 0.29 -84.6 0 1 604.14 239.97
  Q 581.46 244.38 559.23 250.18
  C 537.92 255.74 517.68 264.06 497.87 273.39
  A 0.53 0.53 0.0 0 1 497.22 272.58
  C 518.74 244.68 557.52 233.51 591.25 236.48
  Z"
/>
<path fill="#999999" d="
  M 451.66 256.15
  C 425.95 248.50 399.49 246.32 372.99 242.24
  A 0.50 0.50 0.0 0 1 372.93 241.27
  C 412.26 230.00 453.98 237.02 484.34 265.32
  A 0.37 0.37 0.0 0 1 483.98 265.95
  Q 467.77 260.94 451.66 256.15
  Z"
/>
<path fill="#999999" d="
  M 683.04 242.00
  C 715.60 264.47 729.45 305.95 732.40 343.57
  Q 734.37 368.75 731.98 398.48
  C 731.79 400.74 732.54 403.36 731.03 406.12
  A 1.33 1.33 0.0 0 0 731.69 407.99
  C 741.18 411.95 748.62 417.25 756.08 424.97
  C 779.58 449.29 802.88 488.75 798.26 523.73
  C 792.88 564.51 753.99 578.18 718.19 577.00
  Q 717.65 576.98 717.56 577.52
  C 716.35 585.42 715.00 590.18 709.21 595.75
  Q 701.89 600.17 693.25 600.29
  L 683.49 598.25
  Q 683.03 598.15 682.88 598.60
  Q 670.25 636.41 655.50 673.46
  L 643.75 701.46
  L 631.86 727.49
  L 626.75 738.21
  L 608.71 771.25
  L 599.74 785.39
  Q 589.44 800.09 576.59 811.41
  Q 567.46 818.33 557.08 816.62
  C 532.94 812.64 518.61 764.14 512.51 743.50
  Q 507.24 725.66 492.58 670.80
  C 490.50 663.02 483.07 635.58 476.35 631.69
  Q 475.91 631.44 475.51 631.76
  C 467.17 638.57 462.88 653.47 459.28 663.70
  Q 457.18 669.66 454.99 677.39
  Q 445.00 712.55 435.00 747.71
  Q 428.28 770.33 418.48 791.74
  Q 413.33 800.47 407.07 808.19
  C 403.93 810.34 400.69 812.86 397.25 813.92
  C 377.49 820.03 356.14 787.40 347.29 773.40
  Q 336.96 757.04 327.31 739.68
  C 309.82 705.92 297.86 678.25 284.59 646.74
  L 269.04 605.50
  L 265.74 594.99
  A 0.43 0.42 65.8 0 0 265.11 594.75
  C 248.74 605.11 226.02 600.10 225.43 577.49
  Q 225.42 576.98 224.90 576.99
  C 193.97 577.81 157.65 568.33 147.07 534.98
  C 135.68 499.09 157.63 458.30 180.69 431.43
  C 192.47 417.71 205.05 407.89 223.28 404.63
  Q 223.79 404.54 223.76 404.02
  C 222.20 378.37 222.90 351.32 228.04 326.00
  C 232.14 332.17 234.77 341.59 236.75 348.71
  Q 234.22 375.83 235.81 404.47
  A 1.35 1.34 -83.3 0 0 236.77 405.69
  C 247.97 409.04 255.33 416.92 261.18 427.19
  C 274.72 450.98 268.07 477.54 250.87 497.47
  A 1.94 1.91 59.0 0 0 250.45 499.20
  C 252.50 507.53 253.25 515.53 259.08 522.29
  Q 259.40 522.66 259.87 522.57
  C 271.72 520.40 285.85 526.01 287.45 539.06
  C 288.33 546.17 285.11 553.19 280.67 558.80
  Q 280.35 559.21 280.40 559.72
  Q 281.49 572.72 275.23 584.03
  Q 274.96 584.52 275.13 585.05
  Q 296.03 647.16 324.35 706.20
  C 336.27 731.05 349.49 755.53 365.38 778.10
  C 370.21 784.95 382.15 800.36 390.32 802.46
  C 410.51 807.64 436.32 697.10 441.00 681.38
  C 445.52 666.23 454.82 628.98 469.11 621.35
  C 483.54 613.64 491.62 629.94 495.77 641.00
  C 506.31 669.10 513.07 699.18 521.00 728.14
  C 526.47 748.10 532.71 768.31 542.07 786.84
  Q 547.24 797.07 554.79 802.72
  C 563.71 809.39 573.76 798.08 578.96 791.72
  C 597.61 768.86 611.27 742.35 623.60 715.68
  Q 651.69 654.92 672.34 591.24
  Q 672.50 590.75 672.17 590.36
  C 665.74 582.92 660.02 569.96 662.48 559.93
  Q 662.60 559.42 662.28 559.01
  Q 657.89 553.38 656.15 548.33
  C 649.99 530.39 667.46 519.74 683.01 522.70
  Q 683.56 522.81 683.86 522.33
  Q 689.44 513.46 697.04 506.23
  A 1.61 1.60 -42.5 0 0 697.14 504.02
  C 689.76 495.48 682.68 486.17 678.44 475.51
  C 670.29 455.07 674.40 433.49 688.84 416.84
  Q 699.17 404.93 715.01 404.40
  Q 715.52 404.39 715.58 403.88
  Q 719.18 371.15 716.78 338.27
  C 714.42 306.03 705.51 273.54 678.04 253.50
  Q 680.07 247.55 683.04 242.00
  Z
  M 199.79 490.20
  C 211.89 489.25 221.28 493.30 230.80 500.29
  Q 231.24 500.62 231.62 500.22
  C 250.77 480.73 266.11 455.60 247.56 429.23
  C 228.15 401.66 200.50 426.99 186.72 443.93
  C 170.78 463.53 155.08 492.31 156.60 518.42
  C 158.59 552.50 189.36 563.86 218.51 564.34
  Q 227.83 564.49 237.24 564.53
  Q 237.76 564.53 237.79 565.05
  C 238.18 573.08 235.37 587.48 247.75 587.47
  C 263.90 587.46 270.96 568.94 266.59 555.20
  Q 266.43 554.71 266.86 554.41
  C 270.66 551.73 275.28 546.25 275.10 541.33
  C 274.91 535.89 267.18 534.08 262.50 534.77
  Q 258.89 535.30 253.36 539.04
  Q 252.86 539.38 252.65 538.81
  C 244.42 516.45 220.77 499.74 199.72 490.64
  A 0.23 0.23 0.0 0 1 199.79 490.20
  Z
  M 742.40 490.00
  A 0.47 0.47 0.0 0 1 742.57 490.90
  C 722.33 499.55 697.36 517.07 690.11 538.97
  A 0.45 0.45 0.0 0 1 689.41 539.18
  C 683.95 534.95 676.24 532.51 670.17 536.89
  C 663.35 541.82 671.60 551.31 675.69 554.70
  Q 676.09 555.02 675.95 555.51
  Q 671.67 570.19 680.92 581.09
  C 686.13 587.23 700.58 591.68 704.21 580.98
  C 705.60 576.89 705.00 569.94 705.01 564.92
  Q 705.01 564.34 705.59 564.35
  C 726.97 564.96 754.16 564.75 771.38 549.74
  C 802.43 522.68 778.35 473.04 758.65 447.45
  C 749.88 436.05 742.19 427.30 730.31 421.33
  C 718.26 415.28 707.14 414.97 698.07 425.58
  C 674.76 452.85 691.39 479.28 710.93 500.30
  A 0.78 0.78 0.0 0 0 712.00 500.37
  Q 725.19 489.52 742.40 490.00
  Z"
/>
<path fill="#ffff66" d="
  M 275.30 281.58
  A 0.54 0.53 -42.3 0 1 275.25 282.57
  C 257.06 288.91 246.53 301.29 239.56 318.82
  A 0.51 0.51 0.0 0 1 238.62 318.84
  C 231.24 302.74 222.43 291.55 205.84 284.57
  A 0.60 0.60 0.0 0 1 205.80 283.48
  Q 229.95 271.28 241.11 246.63
  A 0.38 0.38 0.0 0 1 241.80 246.64
  C 248.96 263.74 258.36 273.89 275.30 281.58
  Z"
/>
<path fill="#999999" d="
  M 489.70 271.51
  Q 490.57 272.16 490.64 272.70
  Q 490.76 273.56 489.91 273.73
  C 477.10 276.22 465.12 279.15 454.37 286.45
  A 1.30 1.30 0.0 0 1 452.34 285.38
  C 452.26 264.29 476.33 261.53 489.70 271.51
  Z"
/>
<ellipse fill="#4b4b4b" cx="0.00" cy="0.00" transform="translate(413.34,439.21) rotate(90.0)" rx="29.05" ry="15.88"/>
<ellipse fill="#4b4b4b" cx="0.00" cy="0.00" transform="translate(535.19,439.21) rotate(90.0)" rx="29.07" ry="15.85"/>
<path fill="#ffffff" d="
  M 199.79 490.20
  A 0.23 0.23 0.0 0 0 199.72 490.64
  C 220.77 499.74 244.42 516.45 252.65 538.81
  Q 252.86 539.38 253.36 539.04
  Q 258.89 535.30 262.50 534.77
  C 267.18 534.08 274.91 535.89 275.10 541.33
  C 275.28 546.25 270.66 551.73 266.86 554.41
  Q 266.43 554.71 266.59 555.20
  C 270.96 568.94 263.90 587.46 247.75 587.47
  C 235.37 587.48 238.18 573.08 237.79 565.05
  Q 237.76 564.53 237.24 564.53
  Q 227.83 564.49 218.51 564.34
  C 189.36 563.86 158.59 552.50 156.60 518.42
  C 155.08 492.31 170.78 463.53 186.72 443.93
  C 200.50 426.99 228.15 401.66 247.56 429.23
  C 266.11 455.60 250.77 480.73 231.62 500.22
  Q 231.24 500.62 230.80 500.29
  C 221.28 493.30 211.89 489.25 199.79 490.20
  Z"
/>
<path fill="#ffffff" d="
  M 742.40 490.00
  Q 725.19 489.52 712.00 500.37
  A 0.78 0.78 0.0 0 1 710.93 500.30
  C 691.39 479.28 674.76 452.85 698.07 425.58
  C 707.14 414.97 718.26 415.28 730.31 421.33
  C 742.19 427.30 749.88 436.05 758.65 447.45
  C 778.35 473.04 802.43 522.68 771.38 549.74
  C 754.16 564.75 726.97 564.96 705.59 564.35
  Q 705.01 564.34 705.01 564.92
  C 705.00 569.94 705.60 576.89 704.21 580.98
  C 700.58 591.68 686.13 587.23 680.92 581.09
  Q 671.67 570.19 675.95 555.51
  Q 676.09 555.02 675.69 554.70
  C 671.60 551.31 663.35 541.82 670.17 536.89
  C 676.24 532.51 683.95 534.95 689.41 539.18
  A 0.45 0.45 0.0 0 0 690.11 538.97
  C 697.36 517.07 722.33 499.55 742.57 490.90
  A 0.47 0.47 0.0 0 0 742.40 490.00
  Z"
/>
<path fill="#4b4b4b" d="
  M 476.99 517.76
  C 459.51 513.02 445.42 499.14 439.03 482.35
  A 0.39 0.39 0.0 0 1 439.65 481.92
  Q 451.69 492.63 465.92 500.31
  C 478.57 507.14 497.84 510.53 510.99 503.48
  C 517.04 500.24 520.10 496.12 523.76 490.45
  A 0.71 0.71 0.0 0 1 525.06 490.90
  C 522.72 515.78 498.02 523.47 476.99 517.76
  Z"
/>
<path fill="#000000" d="
  M 709.21 595.75
  Q 709.20 595.80 709.18 595.87
  Q 709.16 595.93 709.24 596.05
  C 777.95 696.50 853.44 790.28 934.93 884.63
  Q 935.45 885.23 938.06 887.32
  C 940.20 889.03 940.70 891.58 942.10 893.43
  Q 944.20 896.20 946.25 898.96
  Q 945.22 899.07 945.17 900.72
  Q 941.60 898.78 933.82 896.92
  C 885.79 885.37 837.54 872.37 788.25 868.27
  Q 775.32 867.19 761.58 867.99
  C 753.54 868.46 745.84 870.90 738.20 873.40
  C 723.00 878.38 707.47 890.79 696.22 901.97
  C 690.78 907.38 685.61 912.82 679.62 917.66
  Q 663.04 931.07 646.54 944.58
  Q 644.19 946.49 641.36 947.51
  C 631.49 951.07 620.00 956.15 609.60 957.21
  C 584.55 959.77 557.91 955.61 535.99 942.80
  Q 511.80 928.65 487.61 914.51
  Q 476.30 907.89 470.14 904.80
  C 438.52 888.92 405.82 881.45 370.93 879.38
  C 353.10 878.32 334.34 879.73 316.25 880.08
  C 300.71 880.39 287.51 881.65 273.06 884.06
  Q 271.75 884.28 271.40 882.99
  Q 262.74 850.73 261.51 816.75
  C 259.54 762.33 262.09 706.72 265.92 653.68
  Q 268.03 624.46 269.04 605.50
  L 284.59 646.74
  Q 282.48 696.02 280.52 745.29
  C 280.21 753.17 280.30 761.86 280.08 770.18
  C 279.60 788.12 279.20 805.69 280.45 823.28
  Q 282.09 846.37 283.04 869.50
  L 283.28 870.20
  Q 283.46 870.73 284.00 870.59
  L 309.75 864.21
  C 314.70 863.27 319.10 861.84 324.30 861.73
  Q 328.08 861.64 334.25 861.22
  C 335.96 861.10 338.46 861.85 340.60 861.75
  C 354.98 861.10 370.09 860.35 384.34 862.81
  Q 393.31 864.36 402.15 866.04
  Q 430.01 872.30 455.50 884.71
  Q 481.53 897.67 507.20 911.30
  C 523.30 919.85 540.36 926.67 556.99 934.02
  Q 558.05 934.48 560.25 935.04
  C 575.93 941.34 595.56 945.84 612.41 942.99
  Q 624.49 937.85 636.87 932.53
  C 646.46 928.41 655.18 919.68 663.26 912.30
  C 668.62 907.42 673.02 901.45 677.84 895.84
  C 691.88 879.51 708.81 866.78 730.36 860.92
  C 734.41 859.81 738.45 857.68 742.75 856.54
  C 746.32 855.81 749.18 854.48 752.85 854.54
  Q 776.42 854.89 800.00 854.96
  C 844.06 861.33 879.37 867.50 918.38 880.47
  A 0.79 0.79 0.0 0 0 919.23 879.20
  C 894.53 850.49 865.43 821.42 840.79 792.70
  C 789.19 732.57 738.25 667.26 693.25 600.29
  Q 701.89 600.17 709.21 595.75
  Z"
/>
<path fill="#ff0000" d="
  M 693.25 600.29
  C 738.25 667.26 789.19 732.57 840.79 792.70
  C 865.43 821.42 894.53 850.49 919.23 879.20
  A 0.79 0.79 0.0 0 1 918.38 880.47
  C 879.37 867.50 844.06 861.33 800.00 854.96
  Q 798.11 855.12 797.90 853.83
  Q 797.82 853.38 797.55 853.01
  C 796.57 851.68 795.80 850.48 794.49 849.46
  C 776.60 835.54 761.00 819.25 746.03 801.74
  C 712.63 762.66 683.65 719.11 656.82 675.34
  Q 656.24 674.38 655.50 673.46
  Q 670.25 636.41 682.88 598.60
  Q 683.03 598.15 683.49 598.25
  L 693.25 600.29
  Z"
/>
<path fill="#ff0000" d="
  M 576.59 811.41
  Q 578.35 813.90 578.68 817.56
  C 582.17 856.62 575.17 893.04 562.17 929.46
  C 561.59 931.07 561.54 933.00 560.89 934.74
  Q 560.80 934.99 560.54 935.00
  Q 560.38 935.00 560.25 935.04
  Q 558.05 934.48 556.99 934.02
  C 540.36 926.67 523.30 919.85 507.20 911.30
  Q 481.53 897.67 455.50 884.71
  L 457.02 882.17
  Q 457.28 881.73 457.09 881.26
  C 455.03 875.89 452.43 870.87 451.54 865.21
  Q 450.44 858.24 449.53 851.25
  Q 442.96 800.89 436.72 750.51
  Q 436.48 748.64 435.00 747.71
  Q 445.00 712.55 454.99 677.39
  Q 457.18 669.66 459.28 663.70
  C 462.88 653.47 467.17 638.57 475.51 631.76
  Q 475.91 631.44 476.35 631.69
  C 483.07 635.58 490.50 663.02 492.58 670.80
  Q 507.24 725.66 512.51 743.50
  C 518.61 764.14 532.94 812.64 557.08 816.62
  Q 567.46 818.33 576.59 811.41
  Z"
/>
<path fill="#ff0000" d="
  M 284.59 646.74
  C 297.86 678.25 309.82 705.92 327.31 739.68
  Q 313.62 797.59 292.07 853.02
  Q 289.79 858.89 287.12 864.59
  C 286.50 865.93 285.44 866.47 284.12 866.84
  Q 283.61 866.98 283.72 867.50
  Q 284.03 868.84 283.04 869.50
  Q 282.09 846.37 280.45 823.28
  C 279.20 805.69 279.60 788.12 280.08 770.18
  C 280.30 761.86 280.21 753.17 280.52 745.29
  Q 282.48 696.02 284.59 646.74
  Z"
/>
<path fill="#e70000" d="
  M 655.50 673.46
  Q 656.24 674.38 656.82 675.34
  C 683.65 719.11 712.63 762.66 746.03 801.74
  C 761.00 819.25 776.60 835.54 794.49 849.46
  C 795.80 850.48 796.57 851.68 797.55 853.01
  Q 797.82 853.38 797.90 853.83
  Q 798.11 855.12 800.00 854.96
  Q 776.42 854.89 752.85 854.54
  C 749.18 854.48 746.32 855.81 742.75 856.54
  Q 741.62 855.87 741.78 854.51
  Q 741.85 853.99 741.49 853.61
  C 715.56 825.46 694.27 797.38 675.45 765.80
  Q 669.75 756.23 665.17 746.07
  Q 655.51 724.61 646.21 702.98
  Q 645.81 702.06 643.75 701.46
  L 655.50 673.46
  Z"
/>
<path fill="#cd0000" d="
  M 643.75 701.46
  Q 645.81 702.06 646.21 702.98
  Q 655.51 724.61 665.17 746.07
  Q 669.75 756.23 675.45 765.80
  C 694.27 797.38 715.56 825.46 741.49 853.61
  Q 741.85 853.99 741.78 854.51
  Q 741.62 855.87 742.75 856.54
  C 738.45 857.68 734.41 859.81 730.36 860.92
  C 708.81 866.78 691.88 879.51 677.84 895.84
  C 673.02 901.45 668.62 907.42 663.26 912.30
  C 655.18 919.68 646.46 928.41 636.87 932.53
  Q 624.49 937.85 612.41 942.99
  Q 611.27 938.58 610.46 934.19
  Q 609.85 930.83 610.26 926.77
  C 611.58 913.94 610.42 901.70 611.04 889.00
  L 611.77 891.03
  Q 612.05 891.79 612.44 891.08
  Q 613.37 889.39 611.96 887.75
  C 611.39 848.86 610.50 810.20 608.71 771.25
  L 626.75 738.21
  L 627.29 738.26
  Q 627.77 738.30 627.92 738.76
  Q 634.65 760.17 643.93 780.62
  A 0.78 0.77 25.6 0 0 645.39 780.11
  L 631.86 727.49
  L 643.75 701.46
  Z"
/>
<path fill="#000000" d="
  M 631.86 727.49
  L 645.39 780.11
  A 0.78 0.77 25.6 0 1 643.93 780.62
  Q 634.65 760.17 627.92 738.76
  Q 627.77 738.30 627.29 738.26
  L 626.75 738.21
  L 631.86 727.49
  Z"
/>
<path fill="#e70000" d="
  M 327.31 739.68
  Q 336.96 757.04 347.29 773.40
  Q 345.84 774.47 345.73 776.13
  Q 345.56 778.88 345.53 779.00
  Q 335.78 819.30 314.84 855.08
  C 313.64 857.13 310.33 860.74 309.75 864.21
  L 284.00 870.59
  Q 283.46 870.73 283.28 870.20
  L 283.04 869.50
  Q 284.03 868.84 283.72 867.50
  Q 283.61 866.98 284.12 866.84
  C 285.44 866.47 286.50 865.93 287.12 864.59
  Q 289.79 858.89 292.07 853.02
  Q 313.62 797.59 327.31 739.68
  Z"
/>
<path fill="#e70000" d="
  M 435.00 747.71
  Q 436.48 748.64 436.72 750.51
  Q 442.96 800.89 449.53 851.25
  Q 450.44 858.24 451.54 865.21
  C 452.43 870.87 455.03 875.89 457.09 881.26
  Q 457.28 881.73 457.02 882.17
  L 455.50 884.71
  Q 430.01 872.30 402.15 866.04
  Q 404.41 848.29 405.42 830.52
  C 406.47 826.60 409.34 823.80 410.71 820.76
  C 413.88 813.72 415.16 806.74 417.15 799.31
  Q 418.15 795.61 418.48 791.74
  Q 428.28 770.33 435.00 747.71
  Z"
/>
<path fill="#000000" d="
  M 608.71 771.25
  C 610.50 810.20 611.39 848.86 611.96 887.75
  L 611.04 887.75
  Q 606.08 836.54 599.74 785.39
  L 608.71 771.25
  Z"
/>
<path fill="#cd0000" d="
  M 347.29 773.40
  C 356.14 787.40 377.49 820.03 397.25 813.92
  C 400.69 812.86 403.93 810.34 407.07 808.19
  Q 405.63 819.32 405.42 830.52
  Q 404.41 848.29 402.15 866.04
  Q 393.31 864.36 384.34 862.81
  C 370.09 860.35 354.98 861.10 340.60 861.75
  C 338.46 861.85 335.96 861.10 334.25 861.22
  Q 328.08 861.64 324.30 861.73
  C 319.10 861.84 314.70 863.27 309.75 864.21
  C 310.33 860.74 313.64 857.13 314.84 855.08
  Q 335.78 819.30 345.53 779.00
  Q 345.56 778.88 345.73 776.13
  Q 345.84 774.47 347.29 773.40
  Z"
/>
<path fill="#e70000" d="
  M 599.74 785.39
  Q 606.08 836.54 611.04 887.75
  L 611.04 889.00
  C 610.42 901.70 611.58 913.94 610.26 926.77
  Q 609.85 930.83 610.46 934.19
  Q 611.27 938.58 612.41 942.99
  C 595.56 945.84 575.93 941.34 560.25 935.04
  Q 560.38 935.00 560.54 935.00
  Q 560.80 934.99 560.89 934.74
  C 561.54 933.00 561.59 931.07 562.17 929.46
  C 575.17 893.04 582.17 856.62 578.68 817.56
  Q 578.35 813.90 576.59 811.41
  Q 589.44 800.09 599.74 785.39
  Z"
/>
<path fill="#000000" d="
  M 418.48 791.74
  Q 418.15 795.61 417.15 799.31
  C 415.16 806.74 413.88 813.72 410.71 820.76
  C 409.34 823.80 406.47 826.60 405.42 830.52
  Q 405.63 819.32 407.07 808.19
  Q 413.33 800.47 418.48 791.74
  Z"
/>
<path fill="#999999" d="
  M 611.04 887.75
  L 611.96 887.75
  Q 613.37 889.39 612.44 891.08
  Q 612.05 891.79 611.77 891.03
  L 611.04 889.00
  L 611.04 887.75
  Z"
/>
<path fill="#4b4b4b" d="
  M 946.25 898.96
  L 951.12 903.80
  Q 952.29 904.95 950.87 904.11
  L 945.17 900.72
  Q 945.22 899.07 946.25 898.96
  Z"
/>
</svg>
