<?xml version="1.0" encoding="UTF-8" standalone="no"?>
<!DOCTYPE svg PUBLIC "-//W3C//DTD SVG 1.1//EN" "http://www.w3.org/Graphics/SVG/1.1/DTD/svg11.dtd">
<svg xmlns="http://www.w3.org/2000/svg" version="1.1" viewBox="0 0 960 960">
<g stroke-width="2.00" fill="none" stroke-linecap="butt">
<path stroke="#a1a3a0" vector-effect="non-scaling-stroke" d="
  M 226.25 14.71
  Q 226.11 14.79 225.97 14.87
  Q 225.71 15.03 225.82 15.31
  Q 227.32 19.28 227.71 23.50"
/>
<path stroke="#bbbcbb" vector-effect="non-scaling-stroke" d="
  M 227.71 23.50
  L 228.04 35.75"
/>
<path stroke="#a1a3a0" vector-effect="non-scaling-stroke" d="
  M 228.04 35.75
  L 228.04 42.25"
/>
<path stroke="#bbbcbb" vector-effect="non-scaling-stroke" d="
  M 228.04 42.25
  L 227.96 52.75"
/>
<path stroke="#a1a3a0" vector-effect="non-scaling-stroke" d="
  M 227.96 52.75
  L 228.04 62.75"
/>
<path stroke="#bbbcbb" vector-effect="non-scaling-stroke" d="
  M 228.04 62.75
  L 227.71 66.25"
/>
<path stroke="#a1a3a0" vector-effect="non-scaling-stroke" d="
  M 227.71 66.25
  Q 227.06 67.53 227.09 69.08
  C 227.27 78.18 225.23 85.68 226.60 95.66
  Q 226.66 96.11 226.98 96.42
  C 228.18 97.58 226.84 108.58 226.91 112.44
  Q 226.91 112.76 226.61 113.24
  Q 226.37 113.64 226.46 114.10
  Q 227.34 118.35 227.19 125.30
  Q 226.91 137.79 225.75 144.60"
/>
<path stroke="#bbbcbb" vector-effect="non-scaling-stroke" d="
  M 225.75 144.60
  Q 226.37 147.40 225.75 149.75"
/>
<path stroke="#a1a3a0" vector-effect="non-scaling-stroke" d="
  M 225.75 149.75
  L 226.96 166.50"
/>
<path stroke="#bbbcbb" vector-effect="non-scaling-stroke" d="
  M 226.96 166.50
  L 226.79 178.25"
/>
<path stroke="#a1a3a0" vector-effect="non-scaling-stroke" d="
  M 226.79 178.25
  L 226.79 185.75"
/>
<path stroke="#bbbcbb" vector-effect="non-scaling-stroke" d="
  M 226.79 185.75
  L 226.71 195.00"
/>
<path stroke="#a1a3a0" vector-effect="non-scaling-stroke" d="
  M 226.71 195.00
  C 226.36 196.49 224.95 206.86 227.71 205.50"
/>
<path stroke="#878986" vector-effect="non-scaling-stroke" d="
  M 226.84 227.98
  Q 225.60 236.97 226.02 246.04
  C 226.25 251.27 225.95 256.49 226.11 261.68
  C 226.22 265.10 225.65 268.44 225.83 271.84
  Q 226.04 275.82 225.78 279.82
  C 225.44 285.23 225.84 292.34 225.84 295.97
  Q 225.88 314.75 225.38 333.75
  A 0.70 0.70 0.0 0 1 224.19 334.24
  Q 221.32 331.48 219.14 327.59"
/>
<path stroke="#8ba7bb" vector-effect="non-scaling-stroke" d="
  M 219.14 327.59
  C 219.28 285.36 220.36 243.17 220.24 201.06
  C 220.07 143.98 221.11 86.91 221.01 29.83
  Q 220.99 22.77 219.95 19.76
  C 214.47 4.01 190.86 6.52 188.59 22.30
  C 187.61 29.10 188.30 38.71 188.25 43.90
  C 187.40 133.99 187.04 224.12 186.75 314.21"
/>
<path stroke="#878986" vector-effect="non-scaling-stroke" d="
  M 186.75 314.21
  L 181.21 314.59
  Q 180.70 314.63 180.63 314.13
  C 180.03 310.22 180.53 305.30 180.51 302.64
  Q 180.40 283.32 180.52 264.00
  Q 180.53 261.90 179.79 258.50"
/>
<path stroke="#4c4d4b" vector-effect="non-scaling-stroke" d="
  M 712.21 585.50
  Q 705.04 590.39 696.25 590.29"
/>
<path stroke="#cb4d4b" vector-effect="non-scaling-stroke" d="
  M 696.25 590.29
  L 686.69 588.30
  Q 686.18 588.19 686.00 588.69
  L 668.67 637.67
  Q 668.48 638.22 667.98 638.52
  Q 666.45 639.43 666.23 639.99
  Q 661.22 652.19 657.60 663.29"
/>
<path stroke="#bf4f4b" vector-effect="non-scaling-stroke" d="
  M 657.60 663.29
  Q 651.01 677.13 646.00 689.96"
/>
<path stroke="#b24d4b" vector-effect="non-scaling-stroke" d="
  M 646.00 689.96
  L 633.86 716.50"
/>
<path stroke="#4c4d4b" vector-effect="non-scaling-stroke" d="
  M 633.86 716.50
  L 628.96 726.75"
/>
<path stroke="#b24d4b" vector-effect="non-scaling-stroke" d="
  M 628.96 726.75
  L 610.77 759.74"
/>
<path stroke="#4c4d4b" vector-effect="non-scaling-stroke" d="
  M 610.77 759.74
  L 601.75 774.46"
/>
<path stroke="#bf4f4b" vector-effect="non-scaling-stroke" d="
  M 601.75 774.46
  C 594.30 783.86 588.20 792.60 578.00 800.71"
/>
<path stroke="#cb4d4b" vector-effect="non-scaling-stroke" d="
  M 578.00 800.71
  C 552.97 817.87 535.93 789.65 528.14 770.82
  C 511.69 731.07 503.85 689.19 491.32 648.35
  C 487.87 637.11 486.08 630.88 480.89 622.84
  A 2.15 2.14 -32.9 0 0 477.93 622.21
  C 474.35 624.54 470.57 632.11 467.69 638.22
  Q 467.48 638.67 467.06 638.94
  C 463.69 641.12 456.40 668.01 455.38 671.67
  Q 446.23 704.63 436.79 737.50"
/>
<path stroke="#bf4f4b" vector-effect="non-scaling-stroke" d="
  M 436.79 737.50
  Q 430.59 757.95 421.96 777.50"
/>
<path stroke="#4c4d4b" vector-effect="non-scaling-stroke" d="
  M 421.96 777.50
  Q 416.57 788.62 408.25 797.71"
/>
<path stroke="#b24d4b" vector-effect="non-scaling-stroke" d="
  M 408.25 797.71
  C 393.70 810.20 379.59 800.80 369.08 788.92
  Q 358.71 777.19 349.29 762.50"
/>
<path stroke="#bf4f4b" vector-effect="non-scaling-stroke" d="
  M 349.29 762.50
  Q 339.14 746.40 330.00 729.71"
/>
<path stroke="#cb4d4b" vector-effect="non-scaling-stroke" d="
  M 330.00 729.71
  C 314.21 699.83 299.77 668.93 287.47 637.44"
/>
<path stroke="#4c4d4b" vector-effect="non-scaling-stroke" d="
  M 287.47 637.44
  Q 284.53 627.68 280.49 617.94
  C 278.99 614.32 276.71 611.59 275.48 607.68
  Q 273.69 601.97 271.29 596.50"
/>
<path stroke="#878986" vector-effect="non-scaling-stroke" d="
  M 225.00 566.53
  Q 223.36 552.82 224.90 539.08
  Q 224.91 538.94 225.03 538.85
  Q 225.13 538.77 225.25 538.71"
/>
<path stroke="#cbcccb" vector-effect="non-scaling-stroke" d="
  M 225.25 538.71
  C 238.90 539.43 252.22 535.12 255.76 520.27
  C 261.51 496.07 247.49 475.67 225.30 467.20"
/>
<path stroke="#878986" vector-effect="non-scaling-stroke" d="
  M 225.30 467.20
  Q 224.27 461.35 225.13 455.34
  Q 225.20 454.85 224.97 454.41
  L 224.60 453.72
  Q 224.36 453.27 224.82 453.06
  Q 225.00 452.98 225.21 453.00"
/>
<path stroke="#878986" vector-effect="non-scaling-stroke" d="
  M 225.21 452.50
  L 224.66 452.21
  Q 224.31 452.02 224.37 451.62
  C 224.86 448.51 225.56 445.60 225.50 442.41
  Q 225.35 434.70 225.79 427.00"
/>
<path stroke="#cbcccb" vector-effect="non-scaling-stroke" d="
  M 225.79 427.00
  Q 225.94 427.02 226.08 427.01
  Q 226.42 426.99 226.66 426.74
  C 236.72 416.41 249.54 392.15 247.50 377.54
  A 0.80 0.79 57.7 0 0 246.05 377.21
  Q 238.27 389.10 225.89 393.70"
/>
<path stroke="#878986" vector-effect="non-scaling-stroke" d="
  M 225.89 393.70
  Q 225.15 393.32 224.08 393.77
  Q 223.61 393.97 223.37 394.43
  L 218.59 403.58"
/>
<path stroke="#9bb7cb" vector-effect="non-scaling-stroke" d="
  M 218.59 403.58
  Q 206.26 418.03 187.26 419.48
  Q 186.69 419.53 186.21 420.25"
/>
<path stroke="#878986" vector-effect="non-scaling-stroke" d="
  M 186.21 420.25
  L 179.04 419.50"
/>
<path stroke="#cbcccb" vector-effect="non-scaling-stroke" d="
  M 179.04 419.50
  L 178.88 419.28
  Q 178.73 419.06 178.47 419.00
  L 171.74 417.27
  A 0.22 0.22 0.0 0 0 171.50 417.61
  Q 174.47 422.10 178.78 425.35"
/>
<path stroke="#878986" vector-effect="non-scaling-stroke" d="
  M 178.78 425.35
  L 179.36 440.07
  Q 179.37 440.45 179.13 440.75
  Q 179.04 440.87 178.96 441.00"
/>
<path stroke="#cbcccb" vector-effect="non-scaling-stroke" d="
  M 178.96 441.00
  Q 165.55 431.25 156.47 417.05
  Q 156.17 416.57 155.71 416.91
  C 102.48 457.11 134.59 500.73 178.75 523.99"
/>
<path stroke="#878986" vector-effect="non-scaling-stroke" d="
  M 178.75 523.99
  Q 180.38 538.00 178.86 551.98
  Q 178.81 552.48 179.14 552.86
  C 180.27 554.12 179.94 556.56 178.04 556.75"
/>
<path stroke="#e5e6e4" vector-effect="non-scaling-stroke" d="
  M 226.71 195.00
  L 227.02 197.49
  A 1.17 1.17 0.0 0 0 228.18 198.51
  Q 258.11 198.47 287.94 198.53
  C 291.39 198.54 294.26 199.35 296.73 196.67
  Q 299.43 193.74 297.70 189.78
  C 296.30 186.56 292.49 185.52 288.91 185.52
  Q 260.87 185.56 232.83 185.23
  C 230.97 185.21 228.69 185.56 226.79 185.75"
/>
<path stroke="#e5e6e4" vector-effect="non-scaling-stroke" d="
  M 226.79 178.25
  Q 276.24 178.96 293.19 178.43
  C 298.79 178.25 300.16 169.92 295.87 166.86
  Q 294.01 165.53 290.18 165.53
  C 274.16 165.52 258.16 165.52 242.15 165.25
  Q 234.84 165.13 227.52 165.46
  Q 227.05 165.48 227.01 165.95
  L 226.96 166.50"
/>
<path stroke="#e5e6e4" vector-effect="non-scaling-stroke" d="
  M 225.75 149.75
  Q 227.26 151.08 227.00 153.02
  Q 226.77 154.77 227.47 156.87
  Q 227.62 157.34 228.11 157.35
  Q 272.70 158.43 291.00 158.26
  C 300.26 158.17 301.29 145.74 291.87 145.52
  Q 258.82 144.77 225.75 144.60"
/>
<path stroke="#e5e6e4" vector-effect="non-scaling-stroke" d="
  M 227.71 66.25
  L 228.15 74.37
  Q 228.18 74.96 228.71 75.22
  L 230.04 75.90
  Q 230.46 76.11 230.90 75.97
  C 232.38 75.48 233.77 75.96 234.93 75.99
  Q 272.56 77.02 294.18 76.39
  C 301.08 76.19 302.14 67.99 297.17 64.13
  Q 296.73 63.79 296.17 63.77
  L 267.68 62.92
  Q 267.16 62.90 266.72 63.19
  Q 266.05 63.63 265.40 63.24
  Q 264.96 62.97 264.43 62.96
  L 228.04 62.75"
/>
<path stroke="#e5e6e4" vector-effect="non-scaling-stroke" d="
  M 227.96 52.75
  L 228.01 55.15
  Q 228.02 55.60 228.46 55.59
  L 250.95 55.49
  Q 251.46 55.49 251.87 55.80
  Q 252.38 56.18 252.87 55.84
  Q 253.37 55.50 253.97 55.50
  L 261.21 55.50
  Q 261.69 55.50 262.07 55.80
  Q 262.50 56.14 262.94 55.80
  Q 263.31 55.50 263.79 55.50
  L 267.79 55.50
  Q 268.33 55.50 268.80 55.77
  Q 269.67 56.28 270.43 55.65
  Q 270.79 55.35 271.26 55.37
  C 276.74 55.68 294.15 57.51 298.19 54.38
  C 303.67 50.14 298.75 42.98 293.01 42.92
  Q 260.51 42.59 228.04 42.25"
/>
<path stroke="#e5e6e4" vector-effect="non-scaling-stroke" d="
  M 228.04 35.75
  Q 259.80 35.34 291.56 35.36
  Q 295.64 35.37 297.40 34.43
  C 303.87 30.97 300.07 22.50 292.92 22.51
  Q 261.61 22.53 230.32 22.23
  Q 228.72 22.21 227.71 23.50"
/>
<path stroke="#9bb7cb" vector-effect="non-scaling-stroke" d="
  M 219.14 327.59
  Q 205.58 316.05 187.79 314.70
  Q 187.35 314.67 187.01 314.41
  L 186.75 314.21"
/>
<path stroke="#7f0000" vector-effect="non-scaling-stroke" d="
  M 287.47 637.44
  Q 286.20 646.09 285.52 660.75
  C 283.30 708.56 281.79 745.56 281.73 789.00
  C 281.69 812.08 283.91 835.43 285.04 858.50"
/>
<path stroke="#740200" vector-effect="non-scaling-stroke" d="
  M 285.04 858.50
  C 285.08 859.51 285.51 859.87 286.52 859.62
  Q 299.45 856.34 311.64 852.96"
/>
<path stroke="#660000" vector-effect="non-scaling-stroke" d="
  M 311.64 852.96
  C 316.48 852.59 320.76 850.76 325.27 850.67
  C 340.68 850.34 355.90 850.22 371.12 850.36
  C 382.26 850.46 393.48 853.06 404.46 855.00"
/>
<path stroke="#740200" vector-effect="non-scaling-stroke" d="
  M 404.46 855.00
  Q 432.02 861.44 457.50 873.71"
/>
<path stroke="#7f0000" vector-effect="non-scaling-stroke" d="
  M 457.50 873.71
  Q 482.87 886.29 507.81 899.69
  Q 527.74 910.39 562.75 924.29"
/>
<path stroke="#740200" vector-effect="non-scaling-stroke" d="
  M 562.75 924.29
  C 577.45 929.97 598.17 935.38 613.50 931.96"
/>
<path stroke="#660000" vector-effect="non-scaling-stroke" d="
  M 613.50 931.96
  Q 626.08 927.43 638.30 921.94
  C 648.50 917.36 657.74 908.69 665.67 900.93
  C 670.94 895.78 676.09 889.33 681.67 882.92
  Q 694.80 867.83 711.75 858.21
  C 721.45 852.70 734.05 849.38 745.00 845.54"
/>
<path stroke="#740200" vector-effect="non-scaling-stroke" d="
  M 745.00 845.54
  Q 750.92 843.50 755.44 843.56
  Q 777.09 843.86 798.76 843.97"
/>
<path stroke="#7f0000" vector-effect="non-scaling-stroke" d="
  M 798.76 843.97
  C 838.19 848.37 879.94 856.13 917.68 868.62
  C 918.82 869.00 920.13 869.05 921.32 869.50
  A 0.43 0.42 -9.7 0 0 921.80 868.83
  C 910.66 855.79 899.89 843.85 887.41 830.72
  Q 853.10 794.62 814.94 748.31
  Q 748.73 667.95 696.25 590.29"
/>
<path stroke="#3c3d3b" vector-effect="non-scaling-stroke" d="
  M 613.50 876.46
  L 612.96 878.00"
/>
<path stroke="#740200" vector-effect="non-scaling-stroke" d="
  M 612.96 878.00
  Q 608.40 828.42 603.33 786.69
  Q 602.39 779.01 602.13 774.85
  Q 602.12 774.68 601.97 774.58
  Q 601.85 774.50 601.75 774.46"
/>
<path stroke="#af3f3b" vector-effect="non-scaling-stroke" d="
  M 612.96 878.00
  L 613.04 878.75"
/>
<path stroke="#da0200" vector-effect="non-scaling-stroke" d="
  M 745.00 845.54
  C 742.97 842.64 741.03 839.93 738.56 837.23
  Q 702.46 797.66 675.47 751.35
  Q 670.41 742.67 662.92 725.82
  Q 655.30 708.67 647.92 691.42
  Q 647.74 691.02 647.37 690.79
  L 646.00 689.96"
/>
<path stroke="#bbbcbb" vector-effect="non-scaling-stroke" d="
  M 225.79 427.00
  L 225.89 393.70"
/>
<path stroke="#bbbcbb" vector-effect="non-scaling-stroke" d="
  M 225.30 467.20
  C 224.97 481.09 225.77 495.45 225.47 508.74
  Q 225.13 523.72 225.25 538.71"
/>
<path stroke="#878986" vector-effect="non-scaling-stroke" d="
  M 189.85 627.65
  Q 187.49 624.54 184.74 621.74
  Q 182.75 619.73 181.42 617.29
  Q 180.09 614.84 178.54 612.47"
/>
<path stroke="#bbbcbb" vector-effect="non-scaling-stroke" d="
  M 178.75 523.99
  L 178.96 441.00"
/>
<path stroke="#bbbcbb" vector-effect="non-scaling-stroke" d="
  M 178.78 425.35
  L 179.04 419.50"
/>
<path stroke="#8ba7bb" vector-effect="non-scaling-stroke" d="
  M 186.21 420.25
  Q 185.55 491.88 185.76 563.50
  C 185.77 567.33 185.16 572.02 185.15 576.18
  Q 185.11 591.07 184.87 605.96
  C 184.52 628.25 217.75 630.73 217.92 604.75
  Q 218.38 533.25 218.25 461.74
  C 218.21 442.45 219.29 423.22 218.59 403.58"
/>
<path stroke="#f30200" vector-effect="non-scaling-stroke" d="
  M 798.76 843.97
  Q 799.01 843.46 798.58 843.25
  Q 798.21 843.07 798.19 842.66
  C 798.01 839.08 796.23 838.32 793.78 836.34
  Q 776.71 822.55 761.88 806.38
  Q 732.85 774.73 708.34 739.45
  Q 682.25 701.88 657.60 663.29"
/>
<path stroke="#f30200" vector-effect="non-scaling-stroke" d="
  M 578.00 800.71
  C 582.55 805.20 581.30 813.19 581.47 818.42
  C 582.61 853.59 575.83 886.60 563.89 919.51
  C 563.38 920.91 563.48 922.43 563.40 923.89
  Q 563.38 924.21 563.06 924.26
  Q 562.91 924.28 562.75 924.29"
/>
<path stroke="#f30200" vector-effect="non-scaling-stroke" d="
  M 457.50 873.71
  Q 459.27 870.96 458.20 868.06
  C 456.70 863.99 454.19 859.23 453.41 854.10
  Q 451.96 844.57 450.74 835.00
  Q 444.69 787.65 438.67 740.32
  Q 438.37 738.03 436.79 737.50"
/>
<path stroke="#660000" vector-effect="non-scaling-stroke" d="
  M 408.25 797.71
  L 408.63 797.73
  Q 409.18 797.77 409.10 798.31
  Q 407.61 808.73 407.50 819.24"
/>
<path stroke="#da0200" vector-effect="non-scaling-stroke" d="
  M 349.29 762.50
  Q 349.19 763.37 348.26 763.66
  Q 347.68 763.83 347.81 764.43
  L 348.07 765.67
  Q 348.17 766.11 348.06 766.55
  Q 336.82 812.77 311.64 852.96"
/>
<path stroke="#f30200" vector-effect="non-scaling-stroke" d="
  M 330.00 729.71
  Q 329.51 729.63 329.06 729.85
  Q 328.60 730.07 328.53 730.58
  Q 327.88 735.24 327.30 737.51
  C 317.58 775.14 307.07 810.53 292.29 846.06
  C 291.07 848.99 291.03 852.88 288.78 855.39
  Q 287.15 857.21 285.04 858.50"
/>
<path stroke="#da0200" vector-effect="non-scaling-stroke" d="
  M 613.50 931.96
  Q 613.33 927.30 612.27 922.74
  Q 611.56 919.66 612.90 907.94
  Q 613.49 902.79 613.52 889.09
  C 613.53 886.06 612.70 882.30 613.04 878.75"
/>
<path stroke="#a23d3b" vector-effect="non-scaling-stroke" d="
  M 613.04 878.75
  L 613.69 879.72
  Q 613.97 880.13 614.44 879.99
  C 615.96 879.57 614.44 876.92 613.50 876.46"
/>
<path stroke="#660000" vector-effect="non-scaling-stroke" d="
  M 613.50 876.46
  Q 613.79 865.29 613.25 841.19
  Q 612.05 787.49 610.77 759.74"
/>
<path stroke="#660000" vector-effect="non-scaling-stroke" d="
  M 628.96 726.75
  L 629.36 727.00
  Q 629.80 727.27 629.95 727.76
  Q 636.67 749.24 646.03 769.71
  A 0.45 0.45 0.0 0 0 646.68 769.91
  Q 647.48 769.42 647.23 768.51
  Q 640.16 742.63 633.86 716.50"
/>
<path stroke="#da0200" vector-effect="non-scaling-stroke" d="
  M 404.46 855.00
  L 407.50 819.24"
/>
<path stroke="#740200" vector-effect="non-scaling-stroke" d="
  M 407.50 819.24
  C 408.28 815.93 410.72 813.96 411.92 811.68
  C 414.54 806.68 416.14 802.07 417.52 796.61
  C 418.72 791.83 420.82 788.30 421.15 782.70
  Q 421.18 782.20 421.45 781.79
  Q 422.80 779.77 421.96 777.50"
/>
<path stroke="#e5e6e4" vector-effect="non-scaling-stroke" d="
  M 227.57 95.56
  A 0.85 0.85 0.0 0 0 228.43 96.37
  L 241.36 96.20
  Q 241.90 96.19 242.39 96.45
  C 244.98 97.84 247.20 96.46 249.24 96.50
  Q 252.96 96.56 256.67 97.22
  Q 257.22 97.32 257.65 96.96
  Q 258.32 96.41 258.91 96.76
  Q 259.30 97.00 259.75 97.01
  Q 269.67 97.31 279.59 97.06
  C 284.00 96.94 295.81 99.21 298.04 93.82
  C 302.79 82.38 286.13 84.20 280.68 84.04
  C 279.66 84.00 278.31 84.54 277.22 84.37
  Q 274.99 84.04 274.73 84.04
  C 259.44 84.33 244.03 83.71 228.73 83.48
  Q 228.30 83.47 227.92 83.70
  Q 226.29 84.68 226.97 86.23
  Q 227.19 86.74 227.22 87.30
  L 227.57 95.56"
/>
<path stroke="#e5e6e4" vector-effect="non-scaling-stroke" d="
  M 229.94 104.54
  Q 229.11 104.32 228.24 104.56
  Q 227.73 104.71 227.73 105.24
  C 227.74 106.93 227.38 115.67 228.59 116.95
  Q 228.95 117.34 229.49 117.34
  C 249.81 117.49 270.10 117.05 290.43 117.44
  C 301.70 117.65 300.49 104.46 292.16 104.48
  C 274.16 104.53 255.62 105.28 237.70 104.08
  Q 234.26 103.85 230.87 104.57
  Q 230.40 104.67 229.94 104.54"
/>
<path stroke="#e5e6e4" vector-effect="non-scaling-stroke" d="
  M 235.31 124.40
  Q 231.73 124.39 228.34 124.57
  A 0.96 0.95 87.8 0 0 227.44 125.55
  L 227.69 136.65
  A 0.91 0.90 -1.0 0 0 228.61 137.53
  Q 259.92 136.92 291.19 137.50
  C 297.70 137.62 301.68 131.02 296.40 126.20
  Q 294.53 124.49 292.94 124.50
  Q 264.13 124.55 235.31 124.40"
/>
<path stroke="#cbcccb" vector-effect="non-scaling-stroke" d="
  M 385.09 787.20
  C 389.60 791.34 394.71 793.46 399.55 788.53
  Q 405.30 782.67 408.29 776.98
  C 417.22 759.99 423.00 741.19 428.25 722.80
  C 436.03 695.55 443.11 668.04 452.27 641.21
  Q 452.80 639.66 454.30 638.69
  Q 454.72 638.42 454.88 637.96
  Q 458.69 627.38 464.92 618.09
  C 471.84 607.76 484.03 605.66 491.61 616.91
  C 496.99 624.92 499.50 632.93 502.24 642.23
  C 513.96 682.04 521.59 716.69 533.30 750.44
  C 536.83 760.60 548.27 791.52 561.55 793.74
  C 575.57 796.10 598.61 756.35 604.58 745.62
  C 623.52 711.62 638.81 676.53 653.04 640.35
  C 653.53 639.09 655.10 638.47 655.62 637.11
  Q 666.13 609.40 675.38 581.18
  Q 675.54 580.67 675.19 580.27
  Q 663.68 567.27 665.37 549.71
  Q 665.41 549.27 665.14 548.92
  C 659.91 542.23 656.47 534.61 658.79 526.01
  C 661.73 515.14 675.67 510.46 685.90 512.71
  A 0.87 0.86 -66.9 0 0 686.81 512.34
  Q 692.47 503.63 699.85 496.26
  A 1.95 1.94 -44.3 0 0 699.89 493.55
  C 677.28 469.53 668.32 439.27 688.89 410.42
  Q 699.67 395.30 717.98 394.33
  Q 718.46 394.30 718.51 393.82
  C 722.26 360.64 722.80 324.10 713.45 291.75
  C 700.17 245.75 662.64 226.61 618.59 219.27
  C 585.37 213.73 550.93 212.30 517.31 212.17
  C 464.85 211.97 410.21 211.23 357.34 219.88
  C 316.66 226.53 277.22 242.76 256.50 280.08
  C 246.02 298.95 242.04 319.89 239.39 341.05
  Q 239.33 341.56 239.73 341.89
  C 243.65 345.11 246.47 349.49 249.55 353.48
  C 257.42 363.68 261.17 375.53 258.55 388.25
  Q 254.70 406.92 243.01 425.05
  C 241.66 427.16 241.87 428.17 242.22 430.52
  Q 245.98 455.21 247.67 464.93
  Q 247.76 465.46 248.15 465.82
  Q 256.02 473.28 257.91 475.81
  C 269.46 491.23 273.70 514.79 264.34 532.64
  Q 264.12 533.07 264.25 533.54
  Q 275.76 573.16 290.05 611.85
  C 290.75 613.75 292.36 614.94 293.17 617.01
  C 297.73 628.57 301.68 639.96 306.70 651.81
  C 324.08 692.81 342.67 731.81 367.51 767.22
  C 372.59 774.48 378.57 781.22 385.09 787.20"
/>
<path stroke="#cbcccb" vector-effect="non-scaling-stroke" d="
  M 150.50 365.23
  C 151.47 383.63 160.34 403.30 180.17 407.87
  C 194.42 411.15 206.77 403.99 212.71 390.66
  A 0.90 0.90 0.0 0 0 212.53 389.65
  C 199.69 376.74 197.82 351.01 210.32 337.28
  Q 211.30 336.21 210.32 335.14
  C 200.04 324.05 184.94 323.28 171.22 328.87
  C 155.32 335.35 149.63 348.62 150.50 365.23"
/>
<path stroke="#b1b3b0" vector-effect="non-scaling-stroke" d="
  M 234.24 338.42
  Q 235.16 339.28 236.46 339.50
  A 0.41 0.41 0.0 0 0 236.77 338.76
  Q 235.70 337.98 234.41 337.98
  Q 233.75 337.98 234.24 338.42"
/>
<path stroke="#cbcccb" vector-effect="non-scaling-stroke" d="
  M 217.77 345.87
  C 207.91 356.79 214.98 399.54 234.97 373.49
  C 245.42 359.87 233.55 345.29 218.59 345.49
  Q 218.10 345.50 217.77 345.87"
/>
<path stroke="#cbcccb" vector-effect="non-scaling-stroke" d="
  M 745.49 480.01
  A 0.45 0.45 0.0 0 1 745.65 480.88
  C 724.66 489.88 700.99 506.88 692.98 528.98
  Q 692.82 529.43 692.43 529.16
  C 687.34 525.63 681.80 523.19 675.70 525.49
  C 665.03 529.50 673.44 540.45 678.73 544.61
  Q 679.15 544.94 678.99 545.45
  Q 674.63 560.15 683.93 571.09
  C 690.64 578.99 707.58 581.67 707.83 566.45
  Q 707.93 560.75 708.06 554.85
  Q 708.07 554.30 708.62 554.32
  C 735.69 555.34 772.99 553.90 785.47 524.29
  C 799.57 490.83 771.64 446.23 749.28 422.97
  C 740.14 413.46 723.03 402.89 709.67 408.91
  C 700.78 412.91 694.13 423.81 691.36 433.34
  C 684.82 455.87 699.63 475.08 714.16 490.45
  Q 714.48 490.78 714.83 490.49
  Q 728.10 479.52 745.49 480.01"
/>
<path stroke="#cbcccb" vector-effect="non-scaling-stroke" d="
  M 607.24 229.24
  C 594.77 225.18 581.82 225.46 568.21 226.95
  C 542.58 229.75 516.54 241.91 500.22 262.58
  A 0.52 0.51 -83.3 0 0 500.84 263.37
  C 516.01 256.26 531.72 249.34 547.78 244.45
  Q 576.88 235.58 607.18 230.06
  A 0.43 0.42 -41.0 0 0 607.24 229.24"
/>
<path stroke="#cbcccb" vector-effect="non-scaling-stroke" d="
  M 486.33 254.47
  C 455.71 226.44 415.34 220.55 376.09 231.16
  Q 374.86 231.49 376.01 232.03
  Q 376.34 232.18 377.52 232.37
  C 404.28 236.65 430.92 238.86 456.98 246.81
  Q 471.70 251.30 486.76 255.82
  A 0.44 0.44 0.0 0 0 487.33 255.41
  C 487.34 254.87 486.66 254.77 486.33 254.47"
/>
<path stroke="#cbcccb" vector-effect="non-scaling-stroke" d="
  M 492.67 261.55
  Q 482.56 253.97 469.91 256.59
  C 460.35 258.58 454.07 266.60 455.81 276.40
  A 0.63 0.63 0.0 0 0 456.79 276.81
  C 467.99 269.23 480.06 266.15 493.26 263.64
  A 0.65 0.65 0.0 0 0 493.72 262.71
  Q 493.41 262.10 492.67 261.55"
/>
<path stroke="#a4a5a4" vector-effect="non-scaling-stroke" d="
  M 416.3500 458.2400
  A 29.04 15.88 90.0 0 0 432.2300 429.2000
  A 29.04 15.88 90.0 0 0 416.3500 400.1600
  A 29.04 15.88 90.0 0 0 400.4700 429.2000
  A 29.04 15.88 90.0 0 0 416.3500 458.2400"
/>
<path stroke="#a4a5a4" vector-effect="non-scaling-stroke" d="
  M 538.1900 458.2700
  A 29.06 15.85 90.0 0 0 554.0400 429.2100
  A 29.06 15.85 90.0 0 0 538.1900 400.1500
  A 29.06 15.85 90.0 0 0 522.3400 429.2100
  A 29.06 15.85 90.0 0 0 538.1900 458.2700"
/>
<path stroke="#a4a5a4" vector-effect="non-scaling-stroke" d="
  M 442.02 472.41
  C 450.94 495.66 473.25 511.68 498.56 509.13
  C 514.62 507.50 527.61 497.25 527.88 480.16
  A 0.48 0.47 -30.2 0 0 526.99 479.93
  C 516.15 499.45 493.87 500.81 475.45 493.37
  C 464.44 488.91 452.24 480.44 442.72 471.92
  A 0.44 0.44 0.0 0 0 442.02 472.41"
/>
</g>
<path fill="#777976" d="
  M 226.25 14.71
  Q 226.11 14.79 225.97 14.87
  Q 225.71 15.03 225.82 15.31
  Q 227.32 19.28 227.71 23.50
  L 228.04 35.75
  L 228.04 42.25
  L 227.96 52.75
  L 228.04 62.75
  L 227.71 66.25
  Q 227.06 67.53 227.09 69.08
  C 227.27 78.18 225.23 85.68 226.60 95.66
  Q 226.66 96.11 226.98 96.42
  C 228.18 97.58 226.84 108.58 226.91 112.44
  Q 226.91 112.76 226.61 113.24
  Q 226.37 113.64 226.46 114.10
  Q 227.34 118.35 227.19 125.30
  Q 226.91 137.79 225.75 144.60
  Q 226.37 147.40 225.75 149.75
  L 226.96 166.50
  L 226.79 178.25
  L 226.79 185.75
  L 226.71 195.00
  C 226.36 196.49 224.95 206.86 227.71 205.50
  C 226.06 212.05 227.02 221.10 226.84 227.98
  Q 225.60 236.97 226.02 246.04
  C 226.25 251.27 225.95 256.49 226.11 261.68
  C 226.22 265.10 225.65 268.44 225.83 271.84
  Q 226.04 275.82 225.78 279.82
  C 225.44 285.23 225.84 292.34 225.84 295.97
  Q 225.88 314.75 225.38 333.75
  A 0.70 0.70 0.0 0 1 224.19 334.24
  Q 221.32 331.48 219.14 327.59
  C 219.28 285.36 220.36 243.17 220.24 201.06
  C 220.07 143.98 221.11 86.91 221.01 29.83
  Q 220.99 22.77 219.95 19.76
  C 214.47 4.01 190.86 6.52 188.59 22.30
  C 187.61 29.10 188.30 38.71 188.25 43.90
  C 187.40 133.99 187.04 224.12 186.75 314.21
  L 181.21 314.59
  Q 180.70 314.63 180.63 314.13
  C 180.03 310.22 180.53 305.30 180.51 302.64
  Q 180.40 283.32 180.52 264.00
  Q 180.53 261.90 179.79 258.50
  Q 179.58 248.56 179.73 238.61
  C 180.42 194.02 179.99 149.36 180.10 104.75
  C 180.14 88.10 180.65 72.19 180.87 55.91
  C 181.00 46.13 181.25 36.28 180.80 26.51
  Q 180.43 18.38 185.05 11.80
  C 195.98 -3.75 217.08 -0.78 226.25 14.71
  Z"
/>
<path fill="#9fd5ff" d="
  M 219.14 327.59
  Q 205.58 316.05 187.79 314.70
  Q 187.35 314.67 187.01 314.41
  L 186.75 314.21
  C 187.04 224.12 187.40 133.99 188.25 43.90
  C 188.30 38.71 187.61 29.10 188.59 22.30
  C 190.86 6.52 214.47 4.01 219.95 19.76
  Q 220.99 22.77 221.01 29.83
  C 221.11 86.91 220.07 143.98 220.24 201.06
  C 220.36 243.17 219.28 285.36 219.14 327.59
  Z"
/>
<path fill="#caccc9" d="
  M 226.25 14.71
  Q 226.46 14.70 226.63 14.80
  Q 226.89 14.94 227.18 14.94
  Q 257.22 15.23 287.27 15.72
  C 295.92 15.86 301.62 15.15 305.71 22.42
  C 308.72 27.77 307.64 33.84 304.17 38.70
  Q 303.87 39.13 304.00 39.63
  C 304.66 42.12 306.59 43.66 307.06 45.96
  Q 308.56 53.33 303.30 59.13
  A 0.78 0.78 0.0 0 0 303.29 60.16
  Q 311.09 69.05 304.10 78.63
  A 2.13 2.12 -41.3 0 0 303.95 80.88
  C 307.60 87.57 309.12 93.64 303.17 99.58
  Q 302.80 99.95 303.13 100.36
  Q 311.95 111.35 301.73 120.92
  A 0.66 0.66 0.0 0 0 301.72 121.87
  Q 307.44 127.48 305.13 134.95
  C 304.48 137.04 303.04 138.94 301.88 141.00
  Q 301.63 141.45 301.88 141.91
  C 305.61 148.78 307.63 155.08 301.27 161.42
  A 0.43 0.43 0.0 0 0 301.25 162.00
  Q 309.53 171.83 301.03 181.59
  Q 300.69 181.98 301.06 182.35
  C 307.96 189.29 305.52 196.89 300.07 204.18
  Q 299.78 204.57 299.32 204.72
  Q 295.22 206.12 290.74 205.99
  Q 268.26 205.34 245.75 205.63
  Q 238.36 205.72 232.01 204.56
  Q 229.47 204.09 227.71 205.50
  C 224.95 206.86 226.36 196.49 226.71 195.00
  L 227.02 197.49
  A 1.17 1.17 0.0 0 0 228.18 198.51
  Q 258.11 198.47 287.94 198.53
  C 291.39 198.54 294.26 199.35 296.73 196.67
  Q 299.43 193.74 297.70 189.78
  C 296.30 186.56 292.49 185.52 288.91 185.52
  Q 260.87 185.56 232.83 185.23
  C 230.97 185.21 228.69 185.56 226.79 185.75
  L 226.79 178.25
  Q 276.24 178.96 293.19 178.43
  C 298.79 178.25 300.16 169.92 295.87 166.86
  Q 294.01 165.53 290.18 165.53
  C 274.16 165.52 258.16 165.52 242.15 165.25
  Q 234.84 165.13 227.52 165.46
  Q 227.05 165.48 227.01 165.95
  L 226.96 166.50
  L 225.75 149.75
  Q 227.26 151.08 227.00 153.02
  Q 226.77 154.77 227.47 156.87
  Q 227.62 157.34 228.11 157.35
  Q 272.70 158.43 291.00 158.26
  C 300.26 158.17 301.29 145.74 291.87 145.52
  Q 258.82 144.77 225.75 144.60
  Q 226.91 137.79 227.19 125.30
  Q 227.34 118.35 226.46 114.10
  Q 226.37 113.64 226.61 113.24
  Q 226.91 112.76 226.91 112.44
  C 226.84 108.58 228.18 97.58 226.98 96.42
  Q 226.66 96.11 226.60 95.66
  C 225.23 85.68 227.27 78.18 227.09 69.08
  Q 227.06 67.53 227.71 66.25
  L 228.15 74.37
  Q 228.18 74.96 228.71 75.22
  L 230.04 75.90
  Q 230.46 76.11 230.90 75.97
  C 232.38 75.48 233.77 75.96 234.93 75.99
  Q 272.56 77.02 294.18 76.39
  C 301.08 76.19 302.14 67.99 297.17 64.13
  Q 296.73 63.79 296.17 63.77
  L 267.68 62.92
  Q 267.16 62.90 266.72 63.19
  Q 266.05 63.63 265.40 63.24
  Q 264.96 62.97 264.43 62.96
  L 228.04 62.75
  L 227.96 52.75
  L 228.01 55.15
  Q 228.02 55.60 228.46 55.59
  L 250.95 55.49
  Q 251.46 55.49 251.87 55.80
  Q 252.38 56.18 252.87 55.84
  Q 253.37 55.50 253.97 55.50
  L 261.21 55.50
  Q 261.69 55.50 262.07 55.80
  Q 262.50 56.14 262.94 55.80
  Q 263.31 55.50 263.79 55.50
  L 267.79 55.50
  Q 268.33 55.50 268.80 55.77
  Q 269.67 56.28 270.43 55.65
  Q 270.79 55.35 271.26 55.37
  C 276.74 55.68 294.15 57.51 298.19 54.38
  C 303.67 50.14 298.75 42.98 293.01 42.92
  Q 260.51 42.59 228.04 42.25
  L 228.04 35.75
  Q 259.80 35.34 291.56 35.36
  Q 295.64 35.37 297.40 34.43
  C 303.87 30.97 300.07 22.50 292.92 22.51
  Q 261.61 22.53 230.32 22.23
  Q 228.72 22.21 227.71 23.50
  Q 227.32 19.28 225.82 15.31
  Q 225.71 15.03 225.97 14.87
  Q 226.11 14.79 226.25 14.71
  Z
  M 227.57 95.56
  A 0.85 0.85 0.0 0 0 228.43 96.37
  L 241.36 96.20
  Q 241.90 96.19 242.39 96.45
  C 244.98 97.84 247.20 96.46 249.24 96.50
  Q 252.96 96.56 256.67 97.22
  Q 257.22 97.32 257.65 96.96
  Q 258.32 96.41 258.91 96.76
  Q 259.30 97.00 259.75 97.01
  Q 269.67 97.31 279.59 97.06
  C 284.00 96.94 295.81 99.21 298.04 93.82
  C 302.79 82.38 286.13 84.20 280.68 84.04
  C 279.66 84.00 278.31 84.54 277.22 84.37
  Q 274.99 84.04 274.73 84.04
  C 259.44 84.33 244.03 83.71 228.73 83.48
  Q 228.30 83.47 227.92 83.70
  Q 226.29 84.68 226.97 86.23
  Q 227.19 86.74 227.22 87.30
  L 227.57 95.56
  Z
  M 229.94 104.54
  Q 229.11 104.32 228.24 104.56
  Q 227.73 104.71 227.73 105.24
  C 227.74 106.93 227.38 115.67 228.59 116.95
  Q 228.95 117.34 229.49 117.34
  C 249.81 117.49 270.10 117.05 290.43 117.44
  C 301.70 117.65 300.49 104.46 292.16 104.48
  C 274.16 104.53 255.62 105.28 237.70 104.08
  Q 234.26 103.85 230.87 104.57
  Q 230.40 104.67 229.94 104.54
  Z
  M 235.31 124.40
  Q 231.73 124.39 228.34 124.57
  A 0.96 0.95 87.8 0 0 227.44 125.55
  L 227.69 136.65
  A 0.91 0.90 -1.0 0 0 228.61 137.53
  Q 259.92 136.92 291.19 137.50
  C 297.70 137.62 301.68 131.02 296.40 126.20
  Q 294.53 124.49 292.94 124.50
  Q 264.13 124.55 235.31 124.40
  Z"
/>
<path fill="#ffffff" d="
  M 228.04 35.75
  L 227.71 23.50
  Q 228.72 22.21 230.32 22.23
  Q 261.61 22.53 292.92 22.51
  C 300.07 22.50 303.87 30.97 297.40 34.43
  Q 295.64 35.37 291.56 35.36
  Q 259.80 35.34 228.04 35.75
  Z"
/>
<path fill="#ffffff" d="
  M 228.04 42.25
  Q 260.51 42.59 293.01 42.92
  C 298.75 42.98 303.67 50.14 298.19 54.38
  C 294.15 57.51 276.74 55.68 271.26 55.37
  Q 270.79 55.35 270.43 55.65
  Q 269.67 56.28 268.80 55.77
  Q 268.33 55.50 267.79 55.50
  L 263.79 55.50
  Q 263.31 55.50 262.94 55.80
  Q 262.50 56.14 262.07 55.80
  Q 261.69 55.50 261.21 55.50
  L 253.97 55.50
  Q 253.37 55.50 252.87 55.84
  Q 252.38 56.18 251.87 55.80
  Q 251.46 55.49 250.95 55.49
  L 228.46 55.59
  Q 228.02 55.60 228.01 55.15
  L 227.96 52.75
  L 228.04 42.25
  Z"
/>
<path fill="#ffffff" d="
  M 227.71 66.25
  L 228.04 62.75
  L 264.43 62.96
  Q 264.96 62.97 265.40 63.24
  Q 266.05 63.63 266.72 63.19
  Q 267.16 62.90 267.68 62.92
  L 296.17 63.77
  Q 296.73 63.79 297.17 64.13
  C 302.14 67.99 301.08 76.19 294.18 76.39
  Q 272.56 77.02 234.93 75.99
  C 233.77 75.96 232.38 75.48 230.90 75.97
  Q 230.46 76.11 230.04 75.90
  L 228.71 75.22
  Q 228.18 74.96 228.15 74.37
  L 227.71 66.25
  Z"
/>
<path fill="#ffffff" d="
  M 227.57 95.56
  L 227.22 87.30
  Q 227.19 86.74 226.97 86.23
  Q 226.29 84.68 227.92 83.70
  Q 228.30 83.47 228.73 83.48
  C 244.03 83.71 259.44 84.33 274.73 84.04
  Q 274.99 84.04 277.22 84.37
  C 278.31 84.54 279.66 84.00 280.68 84.04
  C 286.13 84.20 302.79 82.38 298.04 93.82
  C 295.81 99.21 284.00 96.94 279.59 97.06
  Q 269.67 97.31 259.75 97.01
  Q 259.30 97.00 258.91 96.76
  Q 258.32 96.41 257.65 96.96
  Q 257.22 97.32 256.67 97.22
  Q 252.96 96.56 249.24 96.50
  C 247.20 96.46 244.98 97.84 242.39 96.45
  Q 241.90 96.19 241.36 96.20
  L 228.43 96.37
  A 0.85 0.85 0.0 0 1 227.57 95.56
  Z"
/>
<path fill="#ffffff" d="
  M 230.87 104.57
  Q 234.26 103.85 237.70 104.08
  C 255.62 105.28 274.16 104.53 292.16 104.48
  C 300.49 104.46 301.70 117.65 290.43 117.44
  C 270.10 117.05 249.81 117.49 229.49 117.34
  Q 228.95 117.34 228.59 116.95
  C 227.38 115.67 227.74 106.93 227.73 105.24
  Q 227.73 104.71 228.24 104.56
  Q 229.11 104.32 229.94 104.54
  Q 230.40 104.67 230.87 104.57
  Z"
/>
<path fill="#ffffff" d="
  M 235.31 124.40
  Q 264.13 124.55 292.94 124.50
  Q 294.53 124.49 296.40 126.20
  C 301.68 131.02 297.70 137.62 291.19 137.50
  Q 259.92 136.92 228.61 137.53
  A 0.91 0.90 -1.0 0 1 227.69 136.65
  L 227.44 125.55
  A 0.96 0.95 87.8 0 1 228.34 124.57
  Q 231.73 124.39 235.31 124.40
  Z"
/>
<path fill="#ffffff" d="
  M 225.75 149.75
  Q 226.37 147.40 225.75 144.60
  Q 258.82 144.77 291.87 145.52
  C 301.29 145.74 300.26 158.17 291.00 158.26
  Q 272.70 158.43 228.11 157.35
  Q 227.62 157.34 227.47 156.87
  Q 226.77 154.77 227.00 153.02
  Q 227.26 151.08 225.75 149.75
  Z"
/>
<path fill="#ffffff" d="
  M 226.79 178.25
  L 226.96 166.50
  L 227.01 165.95
  Q 227.05 165.48 227.52 165.46
  Q 234.84 165.13 242.15 165.25
  C 258.16 165.52 274.16 165.52 290.18 165.53
  Q 294.01 165.53 295.87 166.86
  C 300.16 169.92 298.79 178.25 293.19 178.43
  Q 276.24 178.96 226.79 178.25
  Z"
/>
<path fill="#ffffff" d="
  M 226.71 195.00
  L 226.79 185.75
  C 228.69 185.56 230.97 185.21 232.83 185.23
  Q 260.87 185.56 288.91 185.52
  C 292.49 185.52 296.30 186.56 297.70 189.78
  Q 299.43 193.74 296.73 196.67
  C 294.26 199.35 291.39 198.54 287.94 198.53
  Q 258.11 198.47 228.18 198.51
  A 1.17 1.17 0.0 0 1 227.02 197.49
  L 226.71 195.00
  Z"
/>
<path fill="#979996" d="
  M 712.21 585.50
  Q 705.04 590.39 696.25 590.29
  L 686.69 588.30
  Q 686.18 588.19 686.00 588.69
  L 668.67 637.67
  Q 668.48 638.22 667.98 638.52
  Q 666.45 639.43 666.23 639.99
  Q 661.22 652.19 657.60 663.29
  Q 651.01 677.13 646.00 689.96
  L 633.86 716.50
  L 628.96 726.75
  L 610.77 759.74
  L 601.75 774.46
  C 594.30 783.86 588.20 792.60 578.00 800.71
  C 552.97 817.87 535.93 789.65 528.14 770.82
  C 511.69 731.07 503.85 689.19 491.32 648.35
  C 487.87 637.11 486.08 630.88 480.89 622.84
  A 2.15 2.14 -32.9 0 0 477.93 622.21
  C 474.35 624.54 470.57 632.11 467.69 638.22
  Q 467.48 638.67 467.06 638.94
  C 463.69 641.12 456.40 668.01 455.38 671.67
  Q 446.23 704.63 436.79 737.50
  Q 430.59 757.95 421.96 777.50
  Q 416.57 788.62 408.25 797.71
  C 393.70 810.20 379.59 800.80 369.08 788.92
  Q 358.71 777.19 349.29 762.50
  Q 339.14 746.40 330.00 729.71
  C 314.21 699.83 299.77 668.93 287.47 637.44
  Q 284.53 627.68 280.49 617.94
  C 278.99 614.32 276.71 611.59 275.48 607.68
  Q 273.69 601.97 271.29 596.50
  Q 270.22 589.38 266.43 583.92
  Q 262.95 578.90 264.74 573.27
  C 265.90 569.61 259.70 552.87 258.23 547.89
  A 1.31 1.31 0.0 0 0 256.38 547.10
  L 250.59 550.06
  A 1.00 0.99 69.7 0 1 249.17 549.40
  C 248.59 547.02 242.08 549.46 240.42 549.89
  C 236.04 551.05 231.43 551.05 226.86 551.88
  Q 226.32 551.98 226.13 552.49
  Q 224.97 555.48 225.36 558.53
  C 225.78 561.75 225.47 563.67 225.00 566.53
  Q 223.36 552.82 224.90 539.08
  Q 224.91 538.94 225.03 538.85
  Q 225.13 538.77 225.25 538.71
  C 238.90 539.43 252.22 535.12 255.76 520.27
  C 261.51 496.07 247.49 475.67 225.30 467.20
  Q 224.27 461.35 225.13 455.34
  Q 225.20 454.85 224.97 454.41
  L 224.60 453.72
  Q 224.36 453.27 224.82 453.06
  Q 225.00 452.98 225.21 453.00
  Q 229.63 455.41 233.45 456.49
  Q 235.26 456.99 234.85 455.16
  L 231.60 440.68
  Q 231.49 440.21 231.09 440.47
  C 228.38 442.23 226.27 449.42 225.21 452.50
  L 224.66 452.21
  Q 224.31 452.02 224.37 451.62
  C 224.86 448.51 225.56 445.60 225.50 442.41
  Q 225.35 434.70 225.79 427.00
  Q 225.94 427.02 226.08 427.01
  Q 226.42 426.99 226.66 426.74
  C 236.72 416.41 249.54 392.15 247.50 377.54
  A 0.80 0.79 57.7 0 0 246.05 377.21
  Q 238.27 389.10 225.89 393.70
  Q 225.15 393.32 224.08 393.77
  Q 223.61 393.97 223.37 394.43
  L 218.59 403.58
  Q 206.26 418.03 187.26 419.48
  Q 186.69 419.53 186.21 420.25
  L 179.04 419.50
  L 178.88 419.28
  Q 178.73 419.06 178.47 419.00
  L 171.74 417.27
  A 0.22 0.22 0.0 0 0 171.50 417.61
  Q 174.47 422.10 178.78 425.35
  L 179.36 440.07
  Q 179.37 440.45 179.13 440.75
  Q 179.04 440.87 178.96 441.00
  Q 165.55 431.25 156.47 417.05
  Q 156.17 416.57 155.71 416.91
  C 102.48 457.11 134.59 500.73 178.75 523.99
  Q 180.38 538.00 178.86 551.98
  Q 178.81 552.48 179.14 552.86
  C 180.27 554.12 179.94 556.56 178.04 556.75
  L 178.01 539.40
  Q 178.01 538.90 177.71 538.49
  Q 176.52 536.84 175.24 536.22
  C 149.13 523.75 120.92 500.60 115.97 470.22
  C 111.63 443.58 127.69 421.18 148.87 406.77
  A 0.65 0.65 0.0 0 0 149.08 405.94
  C 143.78 395.89 141.11 386.31 139.96 374.52
  C 138.61 360.72 137.77 346.44 146.33 334.61
  C 154.23 323.68 165.26 317.55 178.53 314.94
  Q 179.07 314.83 179.07 314.28
  Q 178.72 286.34 179.79 258.50
  Q 180.53 261.90 180.52 264.00
  Q 180.40 283.32 180.51 302.64
  C 180.53 305.30 180.03 310.22 180.63 314.13
  Q 180.70 314.63 181.21 314.59
  L 186.75 314.21
  L 187.01 314.41
  Q 187.35 314.67 187.79 314.70
  Q 205.58 316.05 219.14 327.59
  Q 221.32 331.48 224.19 334.24
  A 0.70 0.70 0.0 0 0 225.38 333.75
  Q 225.88 314.75 225.84 295.97
  C 225.84 292.34 225.44 285.23 225.78 279.82
  Q 226.04 275.82 225.83 271.84
  C 225.65 268.44 226.22 265.10 226.11 261.68
  C 225.95 256.49 226.25 251.27 226.02 246.04
  Q 225.60 236.97 226.84 227.98
  L 226.96 334.59
  A 0.54 0.54 0.0 0 0 228.02 334.72
  Q 228.97 331.04 229.46 327.28
  C 235.41 281.84 256.72 244.76 299.22 225.01
  C 325.71 212.70 354.91 206.98 383.82 204.13
  Q 412.81 201.27 441.93 200.55
  Q 503.12 199.04 564.25 201.75
  C 597.72 203.24 630.48 207.04 661.47 218.81
  C 736.49 247.29 736.26 329.78 730.93 394.98
  Q 730.88 395.51 731.36 395.75
  C 741.28 400.77 748.70 404.31 756.93 412.54
  C 784.92 440.54 814.71 490.88 796.29 531.37
  C 783.47 559.56 749.50 568.02 721.44 567.23
  A 0.80 0.80 0.0 0 0 720.62 567.99
  Q 720.09 578.53 712.21 585.50
  Z
  M 385.09 787.20
  C 389.60 791.34 394.71 793.46 399.55 788.53
  Q 405.30 782.67 408.29 776.98
  C 417.22 759.99 423.00 741.19 428.25 722.80
  C 436.03 695.55 443.11 668.04 452.27 641.21
  Q 452.80 639.66 454.30 638.69
  Q 454.72 638.42 454.88 637.96
  Q 458.69 627.38 464.92 618.09
  C 471.84 607.76 484.03 605.66 491.61 616.91
  C 496.99 624.92 499.50 632.93 502.24 642.23
  C 513.96 682.04 521.59 716.69 533.30 750.44
  C 536.83 760.60 548.27 791.52 561.55 793.74
  C 575.57 796.10 598.61 756.35 604.58 745.62
  C 623.52 711.62 638.81 676.53 653.04 640.35
  C 653.53 639.09 655.10 638.47 655.62 637.11
  Q 666.13 609.40 675.38 581.18
  Q 675.54 580.67 675.19 580.27
  Q 663.68 567.27 665.37 549.71
  Q 665.41 549.27 665.14 548.92
  C 659.91 542.23 656.47 534.61 658.79 526.01
  C 661.73 515.14 675.67 510.46 685.90 512.71
  A 0.87 0.86 -66.9 0 0 686.81 512.34
  Q 692.47 503.63 699.85 496.26
  A 1.95 1.94 -44.3 0 0 699.89 493.55
  C 677.28 469.53 668.32 439.27 688.89 410.42
  Q 699.67 395.30 717.98 394.33
  Q 718.46 394.30 718.51 393.82
  C 722.26 360.64 722.80 324.10 713.45 291.75
  C 700.17 245.75 662.64 226.61 618.59 219.27
  C 585.37 213.73 550.93 212.30 517.31 212.17
  C 464.85 211.97 410.21 211.23 357.34 219.88
  C 316.66 226.53 277.22 242.76 256.50 280.08
  C 246.02 298.95 242.04 319.89 239.39 341.05
  Q 239.33 341.56 239.73 341.89
  C 243.65 345.11 246.47 349.49 249.55 353.48
  C 257.42 363.68 261.17 375.53 258.55 388.25
  Q 254.70 406.92 243.01 425.05
  C 241.66 427.16 241.87 428.17 242.22 430.52
  Q 245.98 455.21 247.67 464.93
  Q 247.76 465.46 248.15 465.82
  Q 256.02 473.28 257.91 475.81
  C 269.46 491.23 273.70 514.79 264.34 532.64
  Q 264.12 533.07 264.25 533.54
  Q 275.76 573.16 290.05 611.85
  C 290.75 613.75 292.36 614.94 293.17 617.01
  C 297.73 628.57 301.68 639.96 306.70 651.81
  C 324.08 692.81 342.67 731.81 367.51 767.22
  C 372.59 774.48 378.57 781.22 385.09 787.20
  Z
  M 150.50 365.23
  C 151.47 383.63 160.34 403.30 180.17 407.87
  C 194.42 411.15 206.77 403.99 212.71 390.66
  A 0.90 0.90 0.0 0 0 212.53 389.65
  C 199.69 376.74 197.82 351.01 210.32 337.28
  Q 211.30 336.21 210.32 335.14
  C 200.04 324.05 184.94 323.28 171.22 328.87
  C 155.32 335.35 149.63 348.62 150.50 365.23
  Z
  M 234.24 338.42
  Q 235.16 339.28 236.46 339.50
  A 0.41 0.41 0.0 0 0 236.77 338.76
  Q 235.70 337.98 234.41 337.98
  Q 233.75 337.98 234.24 338.42
  Z
  M 217.77 345.87
  C 207.91 356.79 214.98 399.54 234.97 373.49
  C 245.42 359.87 233.55 345.29 218.59 345.49
  Q 218.10 345.50 217.77 345.87
  Z
  M 745.49 480.01
  A 0.45 0.45 0.0 0 1 745.65 480.88
  C 724.66 489.88 700.99 506.88 692.98 528.98
  Q 692.82 529.43 692.43 529.16
  C 687.34 525.63 681.80 523.19 675.70 525.49
  C 665.03 529.50 673.44 540.45 678.73 544.61
  Q 679.15 544.94 678.99 545.45
  Q 674.63 560.15 683.93 571.09
  C 690.64 578.99 707.58 581.67 707.83 566.45
  Q 707.93 560.75 708.06 554.85
  Q 708.07 554.30 708.62 554.32
  C 735.69 555.34 772.99 553.90 785.47 524.29
  C 799.57 490.83 771.64 446.23 749.28 422.97
  C 740.14 413.46 723.03 402.89 709.67 408.91
  C 700.78 412.91 694.13 423.81 691.36 433.34
  C 684.82 455.87 699.63 475.08 714.16 490.45
  Q 714.48 490.78 714.83 490.49
  Q 728.10 479.52 745.49 480.01
  Z"
/>
<path fill="#ffffff" d="
  M 385.09 787.20
  C 378.57 781.22 372.59 774.48 367.51 767.22
  C 342.67 731.81 324.08 692.81 306.70 651.81
  C 301.68 639.96 297.73 628.57 293.17 617.01
  C 292.36 614.94 290.75 613.75 290.05 611.85
  Q 275.76 573.16 264.25 533.54
  Q 264.12 533.07 264.34 532.64
  C 273.70 514.79 269.46 491.23 257.91 475.81
  Q 256.02 473.28 248.15 465.82
  Q 247.76 465.46 247.67 464.93
  Q 245.98 455.21 242.22 430.52
  C 241.87 428.17 241.66 427.16 243.01 425.05
  Q 254.70 406.92 258.55 388.25
  C 261.17 375.53 257.42 363.68 249.55 353.48
  C 246.47 349.49 243.65 345.11 239.73 341.89
  Q 239.33 341.56 239.39 341.05
  C 242.04 319.89 246.02 298.95 256.50 280.08
  C 277.22 242.76 316.66 226.53 357.34 219.88
  C 410.21 211.23 464.85 211.97 517.31 212.17
  C 550.93 212.30 585.37 213.73 618.59 219.27
  C 662.64 226.61 700.17 245.75 713.45 291.75
  C 722.80 324.10 722.26 360.64 718.51 393.82
  Q 718.46 394.30 717.98 394.33
  Q 699.67 395.30 688.89 410.42
  C 668.32 439.27 677.28 469.53 699.89 493.55
  A 1.95 1.94 -44.3 0 1 699.85 496.26
  Q 692.47 503.63 686.81 512.34
  A 0.87 0.86 -66.9 0 1 685.90 512.71
  C 675.67 510.46 661.73 515.14 658.79 526.01
  C 656.47 534.61 659.91 542.23 665.14 548.92
  Q 665.41 549.27 665.37 549.71
  Q 663.68 567.27 675.19 580.27
  Q 675.54 580.67 675.38 581.18
  Q 666.13 609.40 655.62 637.11
  C 655.10 638.47 653.53 639.09 653.04 640.35
  C 638.81 676.53 623.52 711.62 604.58 745.62
  C 598.61 756.35 575.57 796.10 561.55 793.74
  C 548.27 791.52 536.83 760.60 533.30 750.44
  C 521.59 716.69 513.96 682.04 502.24 642.23
  C 499.50 632.93 496.99 624.92 491.61 616.91
  C 484.03 605.66 471.84 607.76 464.92 618.09
  Q 458.69 627.38 454.88 637.96
  Q 454.72 638.42 454.30 638.69
  Q 452.80 639.66 452.27 641.21
  C 443.11 668.04 436.03 695.55 428.25 722.80
  C 423.00 741.19 417.22 759.99 408.29 776.98
  Q 405.30 782.67 399.55 788.53
  C 394.71 793.46 389.60 791.34 385.09 787.20
  Z
  M 607.24 229.24
  C 594.77 225.18 581.82 225.46 568.21 226.95
  C 542.58 229.75 516.54 241.91 500.22 262.58
  A 0.52 0.51 -83.3 0 0 500.84 263.37
  C 516.01 256.26 531.72 249.34 547.78 244.45
  Q 576.88 235.58 607.18 230.06
  A 0.43 0.42 -41.0 0 0 607.24 229.24
  Z
  M 486.33 254.47
  C 455.71 226.44 415.34 220.55 376.09 231.16
  Q 374.86 231.49 376.01 232.03
  Q 376.34 232.18 377.52 232.37
  C 404.28 236.65 430.92 238.86 456.98 246.81
  Q 471.70 251.30 486.76 255.82
  A 0.44 0.44 0.0 0 0 487.33 255.41
  C 487.34 254.87 486.66 254.77 486.33 254.47
  Z
  M 492.67 261.55
  Q 482.56 253.97 469.91 256.59
  C 460.35 258.58 454.07 266.60 455.81 276.40
  A 0.63 0.63 0.0 0 0 456.79 276.81
  C 467.99 269.23 480.06 266.15 493.26 263.64
  A 0.65 0.65 0.0 0 0 493.72 262.71
  Q 493.41 262.10 492.67 261.55
  Z
  M 416.3500 458.2400
  A 29.04 15.88 90.0 0 0 432.2300 429.2000
  A 29.04 15.88 90.0 0 0 416.3500 400.1600
  A 29.04 15.88 90.0 0 0 400.4700 429.2000
  A 29.04 15.88 90.0 0 0 416.3500 458.2400
  Z
  M 538.1900 458.2700
  A 29.06 15.85 90.0 0 0 554.0400 429.2100
  A 29.06 15.85 90.0 0 0 538.1900 400.1500
  A 29.06 15.85 90.0 0 0 522.3400 429.2100
  A 29.06 15.85 90.0 0 0 538.1900 458.2700
  Z
  M 442.02 472.41
  C 450.94 495.66 473.25 511.68 498.56 509.13
  C 514.62 507.50 527.61 497.25 527.88 480.16
  A 0.48 0.47 -30.2 0 0 526.99 479.93
  C 516.15 499.45 493.87 500.81 475.45 493.37
  C 464.44 488.91 452.24 480.44 442.72 471.92
  A 0.44 0.44 0.0 0 0 442.02 472.41
  Z"
/>
<path fill="#979996" d="
  M 568.21 226.95
  C 581.82 225.46 594.77 225.18 607.24 229.24
  A 0.43 0.42 -41.0 0 1 607.18 230.06
  Q 576.88 235.58 547.78 244.45
  C 531.72 249.34 516.01 256.26 500.84 263.37
  A 0.52 0.51 -83.3 0 1 500.22 262.58
  C 516.54 241.91 542.58 229.75 568.21 226.95
  Z"
/>
<path fill="#979996" d="
  M 486.33 254.47
  C 486.66 254.77 487.34 254.87 487.33 255.41
  A 0.44 0.44 0.0 0 1 486.76 255.82
  Q 471.70 251.30 456.98 246.81
  C 430.92 238.86 404.28 236.65 377.52 232.37
  Q 376.34 232.18 376.01 232.03
  Q 374.86 231.49 376.09 231.16
  C 415.34 220.55 455.71 226.44 486.33 254.47
  Z"
/>
<path fill="#979996" d="
  M 492.67 261.55
  Q 493.41 262.10 493.72 262.71
  A 0.65 0.65 0.0 0 1 493.26 263.64
  C 480.06 266.15 467.99 269.23 456.79 276.81
  A 0.63 0.63 0.0 0 1 455.81 276.40
  C 454.07 266.60 460.35 258.58 469.91 256.59
  Q 482.56 253.97 492.67 261.55
  Z"
/>
<path fill="#ffffff" d="
  M 180.17 407.87
  C 160.34 403.30 151.47 383.63 150.50 365.23
  C 149.63 348.62 155.32 335.35 171.22 328.87
  C 184.94 323.28 200.04 324.05 210.32 335.14
  Q 211.30 336.21 210.32 337.28
  C 197.82 351.01 199.69 376.74 212.53 389.65
  A 0.90 0.90 0.0 0 1 212.71 390.66
  C 206.77 403.99 194.42 411.15 180.17 407.87
  Z"
/>
<path fill="#caccc9" d="
  M 234.41 337.98
  Q 235.70 337.98 236.77 338.76
  A 0.41 0.41 0.0 0 1 236.46 339.50
  Q 235.16 339.28 234.24 338.42
  Q 233.75 337.98 234.41 337.98
  Z"
/>
<path fill="#ffffff" d="
  M 234.97 373.49
  C 214.98 399.54 207.91 356.79 217.77 345.87
  Q 218.10 345.50 218.59 345.49
  C 233.55 345.29 245.42 359.87 234.97 373.49
  Z"
/>
<path fill="#ffffff" d="
  M 225.79 427.00
  L 225.89 393.70
  Q 238.27 389.10 246.05 377.21
  A 0.80 0.79 57.7 0 1 247.50 377.54
  C 249.54 392.15 236.72 416.41 226.66 426.74
  Q 226.42 426.99 226.08 427.01
  Q 225.94 427.02 225.79 427.00
  Z"
/>
<path fill="#777976" d="
  M 225.89 393.70
  L 225.79 427.00
  Q 225.35 434.70 225.50 442.41
  C 225.56 445.60 224.86 448.51 224.37 451.62
  Q 224.31 452.02 224.66 452.21
  L 225.21 452.50
  L 225.21 453.00
  Q 225.00 452.98 224.82 453.06
  Q 224.36 453.27 224.60 453.72
  L 224.97 454.41
  Q 225.20 454.85 225.13 455.34
  Q 224.27 461.35 225.30 467.20
  C 224.97 481.09 225.77 495.45 225.47 508.74
  Q 225.13 523.72 225.25 538.71
  Q 225.13 538.77 225.03 538.85
  Q 224.91 538.94 224.90 539.08
  Q 223.36 552.82 225.00 566.53
  Q 225.12 582.83 225.09 599.21
  Q 225.07 611.64 223.43 616.14
  C 218.65 629.19 202.13 635.04 189.85 627.65
  Q 187.49 624.54 184.74 621.74
  Q 182.75 619.73 181.42 617.29
  Q 180.09 614.84 178.54 612.47
  Q 177.80 609.32 177.81 606.94
  Q 177.93 581.84 178.04 556.75
  C 179.94 556.56 180.27 554.12 179.14 552.86
  Q 178.81 552.48 178.86 551.98
  Q 180.38 538.00 178.75 523.99
  L 178.96 441.00
  Q 179.04 440.87 179.13 440.75
  Q 179.37 440.45 179.36 440.07
  L 178.78 425.35
  L 179.04 419.50
  L 186.21 420.25
  Q 185.55 491.88 185.76 563.50
  C 185.77 567.33 185.16 572.02 185.15 576.18
  Q 185.11 591.07 184.87 605.96
  C 184.52 628.25 217.75 630.73 217.92 604.75
  Q 218.38 533.25 218.25 461.74
  C 218.21 442.45 219.29 423.22 218.59 403.58
  L 223.37 394.43
  Q 223.61 393.97 224.08 393.77
  Q 225.15 393.32 225.89 393.70
  Z"
/>
<ellipse fill="#494b49" cx="0.00" cy="0.00" transform="translate(416.35,429.20) rotate(90.0)" rx="29.04" ry="15.88"/>
<ellipse fill="#494b49" cx="0.00" cy="0.00" transform="translate(538.19,429.21) rotate(90.0)" rx="29.06" ry="15.85"/>
<path fill="#9fd5ff" d="
  M 218.59 403.58
  C 219.29 423.22 218.21 442.45 218.25 461.74
  Q 218.38 533.25 217.92 604.75
  C 217.75 630.73 184.52 628.25 184.87 605.96
  Q 185.11 591.07 185.15 576.18
  C 185.16 572.02 185.77 567.33 185.76 563.50
  Q 185.55 491.88 186.21 420.25
  Q 186.69 419.53 187.26 419.48
  Q 206.26 418.03 218.59 403.58
  Z"
/>
<path fill="#ffffff" d="
  M 745.49 480.01
  Q 728.10 479.52 714.83 490.49
  Q 714.48 490.78 714.16 490.45
  C 699.63 475.08 684.82 455.87 691.36 433.34
  C 694.13 423.81 700.78 412.91 709.67 408.91
  C 723.03 402.89 740.14 413.46 749.28 422.97
  C 771.64 446.23 799.57 490.83 785.47 524.29
  C 772.99 553.90 735.69 555.34 708.62 554.32
  Q 708.07 554.30 708.06 554.85
  Q 707.93 560.75 707.83 566.45
  C 707.58 581.67 690.64 578.99 683.93 571.09
  Q 674.63 560.15 678.99 545.45
  Q 679.15 544.94 678.73 544.61
  C 673.44 540.45 665.03 529.50 675.70 525.49
  C 681.80 523.19 687.34 525.63 692.43 529.16
  Q 692.82 529.43 692.98 528.98
  C 700.99 506.88 724.66 489.88 745.65 480.88
  A 0.45 0.45 0.0 0 0 745.49 480.01
  Z"
/>
<path fill="#ffffff" d="
  M 178.96 441.00
  L 178.75 523.99
  C 134.59 500.73 102.48 457.11 155.71 416.91
  Q 156.17 416.57 156.47 417.05
  Q 165.55 431.25 178.96 441.00
  Z"
/>
<path fill="#ffffff" d="
  M 179.04 419.50
  L 178.78 425.35
  Q 174.47 422.10 171.50 417.61
  A 0.22 0.22 0.0 0 1 171.74 417.27
  L 178.47 419.00
  Q 178.73 419.06 178.88 419.28
  L 179.04 419.50
  Z"
/>
<path fill="#ffffff" d="
  M 225.30 467.20
  C 247.49 475.67 261.51 496.07 255.76 520.27
  C 252.22 535.12 238.90 539.43 225.25 538.71
  Q 225.13 523.72 225.47 508.74
  C 225.77 495.45 224.97 481.09 225.30 467.20
  Z"
/>
<path fill="#494b49" d="
  M 498.56 509.13
  C 473.25 511.68 450.94 495.66 442.02 472.41
  A 0.44 0.44 0.0 0 1 442.72 471.92
  C 452.24 480.44 464.44 488.91 475.45 493.37
  C 493.87 500.81 516.15 499.45 526.99 479.93
  A 0.48 0.47 -30.2 0 1 527.88 480.16
  C 527.61 497.25 514.62 507.50 498.56 509.13
  Z"
/>
<path fill="#000000" d="
  M 712.21 585.50
  Q 730.20 611.49 748.31 637.40
  C 749.70 639.40 750.98 641.63 752.32 643.47
  C 809.18 721.11 870.14 795.67 932.67 868.79
  C 937.80 874.79 943.64 880.50 947.89 888.10
  Q 948.25 888.74 947.53 888.87
  Q 944.08 889.51 941.48 887.32
  Q 941.07 886.97 940.54 886.86
  C 882.60 873.75 826.09 856.57 768.50 856.81
  C 745.69 856.91 721.39 868.63 705.23 884.48
  C 696.50 893.05 688.06 901.52 678.45 909.31
  Q 663.50 921.43 648.58 933.59
  Q 645.36 936.21 640.85 937.67
  C 627.50 942.00 614.89 947.41 600.75 947.25
  C 577.85 946.99 555.02 942.32 535.48 930.58
  C 516.87 919.38 498.21 907.87 479.15 897.45
  Q 444.60 878.56 405.49 871.77
  Q 396.71 870.25 377.46 868.68
  Q 367.93 867.90 357.49 868.13
  C 329.78 868.74 302.04 868.72 275.09 873.07
  A 1.54 1.54 0.0 0 1 273.36 871.95
  C 267.00 848.06 264.30 826.54 263.37 799.19
  C 262.59 776.34 262.52 746.37 263.77 717.82
  Q 266.21 662.37 270.25 607.00
  Q 270.41 604.77 271.29 596.50
  Q 273.69 601.97 275.48 607.68
  C 276.71 611.59 278.99 614.32 280.49 617.94
  Q 284.53 627.68 287.47 637.44
  Q 286.20 646.09 285.52 660.75
  C 283.30 708.56 281.79 745.56 281.73 789.00
  C 281.69 812.08 283.91 835.43 285.04 858.50
  C 285.08 859.51 285.51 859.87 286.52 859.62
  Q 299.45 856.34 311.64 852.96
  C 316.48 852.59 320.76 850.76 325.27 850.67
  C 340.68 850.34 355.90 850.22 371.12 850.36
  C 382.26 850.46 393.48 853.06 404.46 855.00
  Q 432.02 861.44 457.50 873.71
  Q 482.87 886.29 507.81 899.69
  Q 527.74 910.39 562.75 924.29
  C 577.45 929.97 598.17 935.38 613.50 931.96
  Q 626.08 927.43 638.30 921.94
  C 648.50 917.36 657.74 908.69 665.67 900.93
  C 670.94 895.78 676.09 889.33 681.67 882.92
  Q 694.80 867.83 711.75 858.21
  C 721.45 852.70 734.05 849.38 745.00 845.54
  Q 750.92 843.50 755.44 843.56
  Q 777.09 843.86 798.76 843.97
  C 838.19 848.37 879.94 856.13 917.68 868.62
  C 918.82 869.00 920.13 869.05 921.32 869.50
  A 0.43 0.42 -9.7 0 0 921.80 868.83
  C 910.66 855.79 899.89 843.85 887.41 830.72
  Q 853.10 794.62 814.94 748.31
  Q 748.73 667.95 696.25 590.29
  Q 705.04 590.39 712.21 585.50
  Z"
/>
<path fill="#fe0000" d="
  M 696.25 590.29
  Q 748.73 667.95 814.94 748.31
  Q 853.10 794.62 887.41 830.72
  C 899.89 843.85 910.66 855.79 921.80 868.83
  A 0.43 0.42 -9.7 0 1 921.32 869.50
  C 920.13 869.05 918.82 869.00 917.68 868.62
  C 879.94 856.13 838.19 848.37 798.76 843.97
  Q 799.01 843.46 798.58 843.25
  Q 798.21 843.07 798.19 842.66
  C 798.01 839.08 796.23 838.32 793.78 836.34
  Q 776.71 822.55 761.88 806.38
  Q 732.85 774.73 708.34 739.45
  Q 682.25 701.88 657.60 663.29
  Q 661.22 652.19 666.23 639.99
  Q 666.45 639.43 667.98 638.52
  Q 668.48 638.22 668.67 637.67
  L 686.00 588.69
  Q 686.18 588.19 686.69 588.30
  L 696.25 590.29
  Z"
/>
<path fill="#979996" d="
  M 189.85 627.65
  Q 180.07 623.09 178.54 612.47
  Q 180.09 614.84 181.42 617.29
  Q 182.75 619.73 184.74 621.74
  Q 187.49 624.54 189.85 627.65
  Z"
/>
<path fill="#fe0000" d="
  M 578.00 800.71
  C 582.55 805.20 581.30 813.19 581.47 818.42
  C 582.61 853.59 575.83 886.60 563.89 919.51
  C 563.38 920.91 563.48 922.43 563.40 923.89
  Q 563.38 924.21 563.06 924.26
  Q 562.91 924.28 562.75 924.29
  Q 527.74 910.39 507.81 899.69
  Q 482.87 886.29 457.50 873.71
  Q 459.27 870.96 458.20 868.06
  C 456.70 863.99 454.19 859.23 453.41 854.10
  Q 451.96 844.57 450.74 835.00
  Q 444.69 787.65 438.67 740.32
  Q 438.37 738.03 436.79 737.50
  Q 446.23 704.63 455.38 671.67
  C 456.40 668.01 463.69 641.12 467.06 638.94
  Q 467.48 638.67 467.69 638.22
  C 470.57 632.11 474.35 624.54 477.93 622.21
  A 2.15 2.14 -32.9 0 1 480.89 622.84
  C 486.08 630.88 487.87 637.11 491.32 648.35
  C 503.85 689.19 511.69 731.07 528.14 770.82
  C 535.93 789.65 552.97 817.87 578.00 800.71
  Z"
/>
<path fill="#fe0000" d="
  M 287.47 637.44
  C 299.77 668.93 314.21 699.83 330.00 729.71
  Q 329.51 729.63 329.06 729.85
  Q 328.60 730.07 328.53 730.58
  Q 327.88 735.24 327.30 737.51
  C 317.58 775.14 307.07 810.53 292.29 846.06
  C 291.07 848.99 291.03 852.88 288.78 855.39
  Q 287.15 857.21 285.04 858.50
  C 283.91 835.43 281.69 812.08 281.73 789.00
  C 281.79 745.56 283.30 708.56 285.52 660.75
  Q 286.20 646.09 287.47 637.44
  Z"
/>
<path fill="#e70400" d="
  M 657.60 663.29
  Q 682.25 701.88 708.34 739.45
  Q 732.85 774.73 761.88 806.38
  Q 776.71 822.55 793.78 836.34
  C 796.23 838.32 798.01 839.08 798.19 842.66
  Q 798.21 843.07 798.58 843.25
  Q 799.01 843.46 798.76 843.97
  Q 777.09 843.86 755.44 843.56
  Q 750.92 843.50 745.00 845.54
  C 742.97 842.64 741.03 839.93 738.56 837.23
  Q 702.46 797.66 675.47 751.35
  Q 670.41 742.67 662.92 725.82
  Q 655.30 708.67 647.92 691.42
  Q 647.74 691.02 647.37 690.79
  L 646.00 689.96
  Q 651.01 677.13 657.60 663.29
  Z"
/>
<path fill="#cc0000" d="
  M 646.00 689.96
  L 647.37 690.79
  Q 647.74 691.02 647.92 691.42
  Q 655.30 708.67 662.92 725.82
  Q 670.41 742.67 675.47 751.35
  Q 702.46 797.66 738.56 837.23
  C 741.03 839.93 742.97 842.64 745.00 845.54
  C 734.05 849.38 721.45 852.70 711.75 858.21
  Q 694.80 867.83 681.67 882.92
  C 676.09 889.33 670.94 895.78 665.67 900.93
  C 657.74 908.69 648.50 917.36 638.30 921.94
  Q 626.08 927.43 613.50 931.96
  Q 613.33 927.30 612.27 922.74
  Q 611.56 919.66 612.90 907.94
  Q 613.49 902.79 613.52 889.09
  C 613.53 886.06 612.70 882.30 613.04 878.75
  L 613.69 879.72
  Q 613.97 880.13 614.44 879.99
  C 615.96 879.57 614.44 876.92 613.50 876.46
  Q 613.79 865.29 613.25 841.19
  Q 612.05 787.49 610.77 759.74
  L 628.96 726.75
  L 629.36 727.00
  Q 629.80 727.27 629.95 727.76
  Q 636.67 749.24 646.03 769.71
  A 0.45 0.45 0.0 0 0 646.68 769.91
  Q 647.48 769.42 647.23 768.51
  Q 640.16 742.63 633.86 716.50
  L 646.00 689.96
  Z"
/>
<path fill="#000000" d="
  M 633.86 716.50
  Q 640.16 742.63 647.23 768.51
  Q 647.48 769.42 646.68 769.91
  A 0.45 0.45 0.0 0 1 646.03 769.71
  Q 636.67 749.24 629.95 727.76
  Q 629.80 727.27 629.36 727.00
  L 628.96 726.75
  L 633.86 716.50
  Z"
/>
<path fill="#e70400" d="
  M 330.00 729.71
  Q 339.14 746.40 349.29 762.50
  Q 349.19 763.37 348.26 763.66
  Q 347.68 763.83 347.81 764.43
  L 348.07 765.67
  Q 348.17 766.11 348.06 766.55
  Q 336.82 812.77 311.64 852.96
  Q 299.45 856.34 286.52 859.62
  C 285.51 859.87 285.08 859.51 285.04 858.50
  Q 287.15 857.21 288.78 855.39
  C 291.03 852.88 291.07 848.99 292.29 846.06
  C 307.07 810.53 317.58 775.14 327.30 737.51
  Q 327.88 735.24 328.53 730.58
  Q 328.60 730.07 329.06 729.85
  Q 329.51 729.63 330.00 729.71
  Z"
/>
<path fill="#e70400" d="
  M 436.79 737.50
  Q 438.37 738.03 438.67 740.32
  Q 444.69 787.65 450.74 835.00
  Q 451.96 844.57 453.41 854.10
  C 454.19 859.23 456.70 863.99 458.20 868.06
  Q 459.27 870.96 457.50 873.71
  Q 432.02 861.44 404.46 855.00
  L 407.50 819.24
  C 408.28 815.93 410.72 813.96 411.92 811.68
  C 414.54 806.68 416.14 802.07 417.52 796.61
  C 418.72 791.83 420.82 788.30 421.15 782.70
  Q 421.18 782.20 421.45 781.79
  Q 422.80 779.77 421.96 777.50
  Q 430.59 757.95 436.79 737.50
  Z"
/>
<path fill="#000000" d="
  M 610.77 759.74
  Q 612.05 787.49 613.25 841.19
  Q 613.79 865.29 613.50 876.46
  L 612.96 878.00
  Q 608.40 828.42 603.33 786.69
  Q 602.39 779.01 602.13 774.85
  Q 602.12 774.68 601.97 774.58
  Q 601.85 774.50 601.75 774.46
  L 610.77 759.74
  Z"
/>
<path fill="#cc0000" d="
  M 349.29 762.50
  Q 358.71 777.19 369.08 788.92
  C 379.59 800.80 393.70 810.20 408.25 797.71
  L 408.63 797.73
  Q 409.18 797.77 409.10 798.31
  Q 407.61 808.73 407.50 819.24
  L 404.46 855.00
  C 393.48 853.06 382.26 850.46 371.12 850.36
  C 355.90 850.22 340.68 850.34 325.27 850.67
  C 320.76 850.76 316.48 852.59 311.64 852.96
  Q 336.82 812.77 348.06 766.55
  Q 348.17 766.11 348.07 765.67
  L 347.81 764.43
  Q 347.68 763.83 348.26 763.66
  Q 349.19 763.37 349.29 762.50
  Z"
/>
<path fill="#e70400" d="
  M 601.75 774.46
  Q 601.85 774.50 601.97 774.58
  Q 602.12 774.68 602.13 774.85
  Q 602.39 779.01 603.33 786.69
  Q 608.40 828.42 612.96 878.00
  L 613.04 878.75
  C 612.70 882.30 613.53 886.06 613.52 889.09
  Q 613.49 902.79 612.90 907.94
  Q 611.56 919.66 612.27 922.74
  Q 613.33 927.30 613.50 931.96
  C 598.17 935.38 577.45 929.97 562.75 924.29
  Q 562.91 924.28 563.06 924.26
  Q 563.38 924.21 563.40 923.89
  C 563.48 922.43 563.38 920.91 563.89 919.51
  C 575.83 886.60 582.61 853.59 581.47 818.42
  C 581.30 813.19 582.55 805.20 578.00 800.71
  C 588.20 792.60 594.30 783.86 601.75 774.46
  Z"
/>
<path fill="#000000" d="
  M 421.96 777.50
  Q 422.80 779.77 421.45 781.79
  Q 421.18 782.20 421.15 782.70
  C 420.82 788.30 418.72 791.83 417.52 796.61
  C 416.14 802.07 414.54 806.68 411.92 811.68
  C 410.72 813.96 408.28 815.93 407.50 819.24
  Q 407.61 808.73 409.10 798.31
  Q 409.18 797.77 408.63 797.73
  L 408.25 797.71
  Q 416.57 788.62 421.96 777.50
  Z"
/>
<path fill="#777976" d="
  M 613.50 876.46
  C 614.44 876.92 615.96 879.57 614.44 879.99
  Q 613.97 880.13 613.69 879.72
  L 613.04 878.75
  L 612.96 878.00
  L 613.50 876.46
  Z"
/>
</svg>
