<?xml version="1.0" encoding="UTF-8" standalone="no"?>
<!DOCTYPE svg PUBLIC "-//W3C//DTD SVG 1.1//EN" "http://www.w3.org/Graphics/SVG/1.1/DTD/svg11.dtd">
<svg xmlns="http://www.w3.org/2000/svg" version="1.1" viewBox="0 0 960 960">
<g stroke-width="2.00" fill="none" stroke-linecap="butt">
<path stroke="#c9b24b" vector-effect="non-scaling-stroke" d="
  M 685.21 230.75
  Q 682.05 236.37 680.04 242.50"
/>
<path stroke="#fde580" vector-effect="non-scaling-stroke" d="
  M 680.04 242.50
  Q 675.62 254.19 672.48 266.72
  A 0.60 0.60 0.0 0 1 671.32 266.74
  Q 666.05 248.13 657.48 230.28
  C 657.19 229.68 656.50 229.14 656.00 228.71"
/>
<path stroke="#c9b24b" vector-effect="non-scaling-stroke" d="
  M 656.00 228.71
  C 656.00 228.36 656.05 228.11 655.90 227.79
  Q 649.96 215.75 638.03 209.85"
/>
<path stroke="#cbcccb" vector-effect="non-scaling-stroke" d="
  M 680.04 242.50
  C 698.08 255.46 709.15 275.58 714.20 296.76
  C 721.54 327.60 720.99 361.40 717.54 392.88
  Q 717.49 393.37 717.00 393.39
  Q 699.17 394.18 688.73 408.26
  C 666.62 438.04 676.46 467.70 698.93 492.71
  A 1.91 1.91 0.0 0 1 698.85 495.35
  Q 691.43 502.60 685.85 511.33
  Q 685.55 511.80 684.99 511.70
  C 674.96 509.82 663.63 513.10 658.84 522.44
  C 654.43 531.02 658.43 540.51 664.13 547.77
  Q 664.41 548.13 664.37 548.58
  Q 662.64 566.22 674.17 579.27
  Q 674.52 579.66 674.35 580.17
  Q 655.33 638.73 630.13 694.91
  C 618.43 721.00 604.82 748.26 587.92 772.00
  C 583.26 778.56 573.54 791.12 565.90 793.42
  C 545.02 799.72 526.35 729.76 522.35 715.10
  Q 515.12 688.64 508.04 662.13
  C 504.84 650.17 496.02 616.22 485.46 610.49
  C 464.00 598.83 452.03 640.68 447.98 653.75
  Q 442.28 672.14 431.42 711.86
  C 427.91 724.67 409.79 792.75 392.99 791.46
  C 384.76 790.83 370.58 771.69 365.31 763.99
  Q 348.81 739.84 335.53 713.70
  Q 301.13 645.98 277.16 573.87
  Q 276.98 573.34 277.26 572.86
  Q 283.55 561.71 282.38 548.82
  Q 282.33 548.30 282.64 547.88
  Q 286.17 543.12 287.20 540.69
  C 295.52 521.25 279.97 508.56 261.90 511.56
  Q 261.41 511.64 261.08 511.28
  C 255.20 505.04 254.52 496.25 252.46 488.42
  A 2.16 2.15 -32.6 0 1 252.89 486.48
  C 273.70 461.81 277.71 430.88 255.24 405.20
  Q 248.46 397.46 238.49 394.62
  A 0.81 0.79 6.8 0 1 237.91 393.90
  Q 236.05 365.80 238.75 337.71"
/>
<path stroke="#4c4d4b" vector-effect="non-scaling-stroke" d="
  M 711.25 584.54
  Q 704.06 589.43 695.25 589.29"
/>
<path stroke="#cb4d4b" vector-effect="non-scaling-stroke" d="
  M 695.25 589.29
  L 685.53 587.18
  A 0.60 0.60 0.0 0 0 684.84 587.58
  Q 672.13 625.65 657.58 662.39"
/>
<path stroke="#bf4f4b" vector-effect="non-scaling-stroke" d="
  M 657.58 662.39
  L 646.00 689.96"
/>
<path stroke="#b24d4b" vector-effect="non-scaling-stroke" d="
  M 646.00 689.96
  L 633.86 716.50"
/>
<path stroke="#4c4d4b" vector-effect="non-scaling-stroke" d="
  M 633.86 716.50
  L 629.14 727.03"
/>
<path stroke="#b24d4b" vector-effect="non-scaling-stroke" d="
  M 629.14 727.03
  L 610.86 759.75"
/>
<path stroke="#4c4d4b" vector-effect="non-scaling-stroke" d="
  M 610.86 759.75
  L 601.75 774.46"
/>
<path stroke="#bf4f4b" vector-effect="non-scaling-stroke" d="
  M 601.75 774.46
  C 594.48 783.62 588.59 791.98 578.76 800.17"
/>
<path stroke="#cb4d4b" vector-effect="non-scaling-stroke" d="
  M 578.76 800.17
  C 553.64 818.56 536.03 789.94 528.14 770.82
  C 513.44 735.22 504.84 697.61 495.01 660.75
  C 491.77 648.58 486.78 629.77 478.63 620.70
  Q 478.26 620.28 477.80 620.60
  C 472.20 624.47 468.54 633.18 466.11 639.58
  C 454.03 671.33 446.12 705.06 436.75 737.71"
/>
<path stroke="#bf4f4b" vector-effect="non-scaling-stroke" d="
  M 436.75 737.71
  Q 430.48 758.05 422.02 777.49"
/>
<path stroke="#4c4d4b" vector-effect="non-scaling-stroke" d="
  M 422.02 777.49
  Q 416.52 788.64 408.25 797.71"
/>
<path stroke="#b24d4b" vector-effect="non-scaling-stroke" d="
  M 408.25 797.71
  C 393.67 810.22 379.61 800.78 369.09 788.91
  Q 359.19 777.75 350.25 763.96"
/>
<path stroke="#bf4f4b" vector-effect="non-scaling-stroke" d="
  M 350.25 763.96
  Q 339.54 747.18 330.00 729.71"
/>
<path stroke="#cb4d4b" vector-effect="non-scaling-stroke" d="
  M 330.00 729.71
  C 313.72 699.03 300.11 667.62 286.50 635.71"
/>
<path stroke="#4c4d4b" vector-effect="non-scaling-stroke" d="
  M 286.50 635.71
  L 271.29 595.50"
/>
<path stroke="#cbcccb" vector-effect="non-scaling-stroke" d="
  M 656.00 228.71
  Q 634.45 220.85 614.25 217.75
  Q 579.50 212.42 540.56 211.55
  C 480.98 210.22 420.61 209.22 361.52 218.08
  C 329.72 222.84 298.08 232.65 274.10 254.88"
/>
<path stroke="#c9b24b" vector-effect="non-scaling-stroke" d="
  M 264.25 246.79
  Q 268.36 251.88 274.10 254.88"
/>
<path stroke="#fde580" vector-effect="non-scaling-stroke" d="
  M 274.10 254.88
  C 288.95 264.14 306.06 268.04 321.93 272.20
  A 0.37 0.37 0.0 0 1 321.90 272.92
  C 297.61 277.69 267.53 280.54 255.39 306.25
  Q 246.88 324.30 242.43 343.88
  A 0.75 0.75 0.0 0 1 240.99 343.97
  L 238.75 337.71"
/>
<path stroke="#c9b24b" vector-effect="non-scaling-stroke" d="
  M 238.75 337.71
  Q 235.69 326.34 230.83 315.62
  Q 230.68 315.29 230.33 315.24
  Q 230.17 315.22 230.00 315.21"
/>
<path stroke="#f30200" vector-effect="non-scaling-stroke" d="
  M 330.00 729.71
  C 329.12 729.58 328.61 729.97 328.49 730.87
  Q 327.95 735.00 327.30 737.51
  C 317.66 774.81 307.28 809.84 292.73 845.02
  C 291.71 847.49 291.05 850.04 290.35 852.56
  Q 290.22 853.03 289.81 853.32
  C 288.50 854.24 286.90 857.05 285.04 855.25"
/>
<path stroke="#f30200" vector-effect="non-scaling-stroke" d="
  M 578.76 800.17
  Q 581.34 804.91 581.27 808.00
  C 581.09 815.05 581.81 823.03 581.72 829.01
  C 581.34 855.36 576.59 881.55 568.32 906.57
  Q 565.42 915.34 562.35 924.12"
/>
<path stroke="#f30200" vector-effect="non-scaling-stroke" d="
  M 457.71 873.75
  Q 459.17 870.69 458.53 869.00
  C 456.58 863.86 454.19 859.20 453.35 853.77
  C 448.96 825.43 445.80 796.72 442.05 768.28
  Q 440.53 756.79 439.49 745.26
  Q 439.30 743.14 436.75 737.71"
/>
<path stroke="#660000" vector-effect="non-scaling-stroke" d="
  M 408.25 797.71
  L 408.62 797.73
  Q 409.15 797.76 409.08 798.29
  Q 407.75 808.24 407.45 818.22"
/>
<path stroke="#f30200" vector-effect="non-scaling-stroke" d="
  M 801.50 844.21
  Q 800.61 843.91 799.61 844.01
  Q 798.89 844.09 799.26 843.46
  L 799.41 843.21
  Q 799.68 842.75 799.41 842.28
  Q 797.80 839.49 794.41 836.84
  Q 778.01 823.97 761.88 806.38
  Q 732.84 774.73 708.21 739.54
  Q 681.74 701.75 657.58 662.39"
/>
<path stroke="#da0200" vector-effect="non-scaling-stroke" d="
  M 745.00 845.54
  C 743.57 843.66 742.32 841.35 740.78 839.68
  Q 703.32 799.08 675.47 751.35
  Q 670.53 742.88 662.70 725.31
  Q 655.18 708.41 647.92 691.42
  Q 647.75 691.02 647.37 690.79
  L 646.00 689.96"
/>
<path stroke="#da0200" vector-effect="non-scaling-stroke" d="
  M 404.46 855.00
  C 405.15 842.86 407.81 830.27 407.45 818.22"
/>
<path stroke="#740200" vector-effect="non-scaling-stroke" d="
  M 407.45 818.22
  Q 408.94 815.98 410.41 813.88
  C 414.37 808.25 416.72 801.21 417.97 794.50
  C 418.33 792.56 420.17 789.85 420.67 787.39
  Q 421.65 782.50 422.02 777.49"
/>
<path stroke="#7f0000" vector-effect="non-scaling-stroke" d="
  M 286.50 635.71
  L 286.07 636.33
  Q 285.80 636.73 285.89 637.22
  C 286.99 643.08 286.23 648.18 285.94 653.90
  C 283.49 701.03 281.69 744.33 281.74 789.75
  C 281.76 811.52 283.72 833.52 285.04 855.25"
/>
<path stroke="#740200" vector-effect="non-scaling-stroke" d="
  M 285.04 855.25
  Q 284.56 857.39 285.32 859.25
  Q 285.53 859.76 286.07 859.64
  Q 299.67 856.50 311.96 852.65"
/>
<path stroke="#660000" vector-effect="non-scaling-stroke" d="
  M 311.96 852.65
  Q 317.89 852.50 322.36 850.97
  Q 323.46 850.59 327.31 850.64
  Q 339.60 850.79 369.43 850.24
  C 380.97 850.02 393.11 853.00 404.46 855.00"
/>
<path stroke="#740200" vector-effect="non-scaling-stroke" d="
  M 404.46 855.00
  Q 432.10 861.51 457.71 873.75"
/>
<path stroke="#7f0000" vector-effect="non-scaling-stroke" d="
  M 457.71 873.75
  Q 482.94 886.38 507.81 899.69
  C 522.71 907.67 538.62 914.08 554.07 920.92
  Q 558.00 922.66 562.35 924.12"
/>
<path stroke="#740200" vector-effect="non-scaling-stroke" d="
  M 562.35 924.12
  C 576.91 929.86 598.14 935.44 613.50 931.96"
/>
<path stroke="#660000" vector-effect="non-scaling-stroke" d="
  M 613.50 931.96
  Q 626.12 927.41 638.39 921.90
  C 648.04 917.57 656.56 909.64 664.15 902.42
  C 670.02 896.84 675.63 889.91 681.19 883.44
  C 692.81 869.95 707.32 858.67 724.21 852.77
  Q 734.61 849.13 745.00 845.54"
/>
<path stroke="#740200" vector-effect="non-scaling-stroke" d="
  M 745.00 845.54
  Q 750.12 843.66 755.47 843.64
  C 770.80 843.59 786.16 843.89 801.50 844.21"
/>
<path stroke="#7f0000" vector-effect="non-scaling-stroke" d="
  M 801.50 844.21
  C 840.32 849.04 880.18 856.19 917.67 868.62
  C 918.81 869.00 920.12 869.05 921.32 869.50
  A 0.42 0.42 0.0 0 0 921.79 868.83
  C 910.71 855.83 899.97 843.92 887.52 830.84
  Q 852.85 794.38 814.72 748.04
  Q 748.24 667.25 695.25 589.29"
/>
<path stroke="#982825" vector-effect="non-scaling-stroke" d="
  M 612.75 876.29
  L 612.96 879.26"
/>
<path stroke="#252625" vector-effect="non-scaling-stroke" d="
  M 613.50 876.46
  L 612.75 876.29"
/>
<path stroke="#740200" vector-effect="non-scaling-stroke" d="
  M 612.75 876.29
  Q 608.08 825.40 601.92 774.66
  Q 601.91 774.55 601.84 774.51
  Q 601.80 774.48 601.75 774.46"
/>
<path stroke="#da0200" vector-effect="non-scaling-stroke" d="
  M 350.25 763.96
  L 348.25 764.97
  Q 347.70 765.25 348.09 765.72
  Q 348.96 766.80 347.97 767.91
  Q 347.64 768.28 347.52 768.75
  Q 336.21 813.47 311.96 852.65"
/>
<path stroke="#da0200" vector-effect="non-scaling-stroke" d="
  M 613.50 931.96
  C 613.37 927.76 612.20 923.50 612.25 919.64
  C 612.44 906.00 614.01 893.28 612.96 879.26"
/>
<path stroke="#8b2625" vector-effect="non-scaling-stroke" d="
  M 612.96 879.26
  C 615.84 881.14 615.39 877.39 613.50 876.46"
/>
<path stroke="#660000" vector-effect="non-scaling-stroke" d="
  M 613.50 876.46
  Q 613.85 875.96 613.84 875.69
  C 613.28 827.49 612.10 798.40 610.86 759.75"
/>
<path stroke="#660000" vector-effect="non-scaling-stroke" d="
  M 629.14 727.03
  Q 636.87 748.66 645.92 769.77
  A 0.43 0.42 66.8 0 0 646.47 770.00
  Q 647.52 769.58 647.23 768.51
  Q 640.15 742.63 633.86 716.50"
/>
<path stroke="#fde532" vector-effect="non-scaling-stroke" d="
  M 673.04 159.49
  Q 661.54 183.02 638.22 195.07
  A 0.45 0.45 0.0 0 0 638.23 195.87
  C 649.85 201.47 659.70 208.77 665.87 220.45
  Q 668.52 225.47 671.04 230.59
  Q 671.38 231.28 671.69 230.57
  C 679.52 212.77 688.67 200.46 707.17 194.33
  A 0.76 0.76 0.0 0 0 707.23 192.91
  Q 683.36 182.75 674.35 158.45
  A 0.47 0.47 0.0 0 0 673.53 158.33
  C 673.21 158.73 673.20 159.17 673.04 159.49"
/>
<path stroke="#fde532" vector-effect="non-scaling-stroke" d="
  M 277.29 270.61
  C 265.27 265.00 254.81 257.48 248.54 245.45
  Q 246.06 240.71 243.78 235.63
  Q 243.47 234.93 243.15 235.63
  Q 231.95 260.29 207.80 272.59
  Q 207.17 272.91 207.80 273.23
  C 224.73 281.85 232.61 290.25 240.53 307.68
  A 0.56 0.56 0.0 0 0 241.55 307.67
  C 249.45 289.38 258.40 278.84 277.26 271.41
  A 0.44 0.43 -43.0 0 0 277.29 270.61"
/>
<path stroke="#cbcccb" vector-effect="non-scaling-stroke" d="
  M 606.14 228.34
  Q 598.93 225.85 591.94 225.33
  C 558.01 222.83 520.76 234.03 499.08 261.78
  A 0.46 0.46 0.0 0 0 499.64 262.48
  C 519.57 253.09 539.88 244.76 561.22 239.15
  Q 583.66 233.26 606.08 229.03
  A 0.36 0.36 0.0 0 0 606.14 228.34"
/>
<path stroke="#cbcccb" vector-effect="non-scaling-stroke" d="
  M 485.81 253.94
  C 455.46 225.68 414.10 219.17 374.87 230.35
  Q 374.17 230.55 374.83 230.86
  Q 376.11 231.46 377.81 231.72
  C 405.98 236.04 430.76 238.10 456.74 246.03
  Q 471.37 250.49 486.05 254.97
  A 0.30 0.29 -87.8 0 0 486.42 254.62
  Q 486.28 254.03 485.81 253.94"
/>
<path stroke="#cbcccb" vector-effect="non-scaling-stroke" d="
  M 491.70 260.51
  C 478.31 250.50 454.55 253.27 454.30 274.28
  A 1.33 1.33 0.0 0 0 456.36 275.41
  C 467.18 268.29 479.26 264.94 492.04 262.75
  A 0.69 0.67 11.4 0 0 492.49 262.46
  Q 493.09 261.55 491.70 260.51"
/>
<path stroke="#a4a5a4" vector-effect="non-scaling-stroke" d="
  M 415.3500 457.2100
  A 29.02 15.88 90.0 0 0 431.2300 428.1900
  A 29.02 15.88 90.0 0 0 415.3500 399.1700
  A 29.02 15.88 90.0 0 0 399.4700 428.1900
  A 29.02 15.88 90.0 0 0 415.3500 457.2100"
/>
<path stroke="#a4a5a4" vector-effect="non-scaling-stroke" d="
  M 537.2000 457.2500
  A 29.05 15.86 90.0 0 0 553.0600 428.2000
  A 29.05 15.86 90.0 0 0 537.2000 399.1500
  A 29.05 15.86 90.0 0 0 521.3400 428.2000
  A 29.05 15.86 90.0 0 0 537.2000 457.2500"
/>
<path stroke="#c58080" vector-effect="non-scaling-stroke" d="
  M 510.79 494.25
  Q 508.65 483.61 513.16 473.23"
/>
<path stroke="#a4a5a4" vector-effect="non-scaling-stroke" d="
  M 513.16 473.23
  Q 515.85 473.30 517.82 471.83
  Q 518.22 471.53 518.22 471.03
  C 518.23 468.39 516.35 467.98 514.07 468.40
  Q 472.76 475.94 432.65 463.60
  Q 432.15 463.45 431.89 463.90
  C 425.03 475.74 424.52 487.77 434.22 498.29
  C 453.41 519.12 485.76 513.77 507.21 500.49
  Q 509.39 499.15 511.64 496.16
  Q 511.93 495.77 511.70 495.34
  Q 511.34 494.66 510.79 494.25"
/>
<path stroke="#6a2625" vector-effect="non-scaling-stroke" d="
  M 513.16 473.23
  Q 498.69 475.53 484.07 475.89
  C 467.48 476.30 450.88 473.36 434.96 468.91
  A 0.73 0.72 -71.4 0 0 434.09 469.35
  C 432.09 474.59 428.78 487.28 435.00 491.29"
/>
<path stroke="#982825" vector-effect="non-scaling-stroke" d="
  M 435.00 491.29
  C 439.86 500.25 450.80 505.57 460.51 506.98
  Q 461.23 507.08 461.71 506.50"
/>
<path stroke="#6a2625" vector-effect="non-scaling-stroke" d="
  M 461.71 506.50
  C 461.78 506.70 461.85 506.80 462.07 506.82
  Q 487.68 509.40 509.30 495.98
  Q 509.71 495.73 509.99 495.34
  L 510.79 494.25"
/>
<path stroke="#b90200" vector-effect="non-scaling-stroke" d="
  M 461.71 506.50
  Q 460.22 498.96 455.12 493.62
  C 450.39 488.65 440.92 489.38 435.00 491.29"
/>
<path stroke="#cbcccb" vector-effect="non-scaling-stroke" d="
  M 254.38 527.77
  C 248.02 506.51 221.52 487.90 202.05 479.85
  A 0.44 0.44 0.0 0 1 202.20 479.00
  Q 219.61 478.37 232.80 489.45
  A 0.50 0.50 0.0 0 0 233.48 489.42
  C 250.09 472.24 266.18 449.47 253.39 424.69
  C 243.95 406.41 232.19 401.78 213.25 410.81
  Q 207.18 413.70 203.26 417.27
  Q 179.84 438.59 166.07 470.13
  C 155.81 493.62 153.51 524.20 175.97 540.81
  C 193.76 553.97 218.23 553.69 239.17 553.44
  Q 239.72 553.43 239.75 553.98
  C 240.08 559.33 239.30 567.38 241.08 571.33
  C 245.14 580.33 258.82 575.81 263.56 570.33
  Q 273.15 559.25 268.64 544.26
  Q 268.49 543.77 268.90 543.46
  C 274.23 539.45 282.73 528.49 271.70 524.47
  C 265.19 522.10 260.69 525.03 255.11 528.07
  Q 254.56 528.37 254.38 527.77"
/>
<path stroke="#cbcccb" vector-effect="non-scaling-stroke" d="
  M 744.71 479.09
  A 0.34 0.34 0.0 0 1 744.83 479.74
  C 724.48 488.46 699.46 505.98 692.08 527.96
  A 0.45 0.45 0.0 0 1 691.37 528.17
  C 686.77 524.54 680.54 522.29 674.77 524.51
  C 663.91 528.69 672.61 539.53 677.71 543.69
  Q 678.11 544.01 677.95 544.51
  C 673.97 556.77 679.18 571.66 692.09 575.68
  C 708.64 580.84 707.17 563.74 706.98 553.89
  Q 706.97 553.30 707.55 553.33
  C 728.71 554.18 755.89 553.57 772.96 539.12
  C 793.04 522.12 790.44 493.89 781.15 471.83
  Q 769.18 443.41 747.58 421.41
  C 734.95 408.54 713.29 397.89 699.29 415.33
  C 677.36 442.65 693.34 468.41 712.97 489.26
  Q 713.33 489.65 713.77 489.35
  C 723.66 482.50 732.28 478.41 744.71 479.09"
/>
</g>
<path fill="#fbca00" d="
  M 685.21 230.75
  Q 682.05 236.37 680.04 242.50
  Q 675.62 254.19 672.48 266.72
  A 0.60 0.60 0.0 0 1 671.32 266.74
  Q 666.05 248.13 657.48 230.28
  C 657.19 229.68 656.50 229.14 656.00 228.71
  C 656.00 228.36 656.05 228.11 655.90 227.79
  Q 649.96 215.75 638.03 209.85
  C 629.46 203.90 614.88 200.11 604.78 197.38
  Q 602.85 196.85 601.16 196.04
  A 0.52 0.52 0.0 0 1 601.25 195.07
  C 613.67 191.66 625.88 188.48 637.05 181.82
  C 665.30 164.95 668.40 136.37 673.25 107.11
  A 0.46 0.45 33.2 0 1 674.08 106.94
  Q 674.31 107.30 674.45 108.01
  Q 677.38 123.32 680.69 138.56
  C 683.18 150.03 689.03 165.65 698.35 173.34
  C 712.38 184.90 732.43 189.67 752.11 194.54
  A 0.62 0.62 0.0 0 1 752.07 195.75
  C 727.26 200.22 696.02 203.46 685.21 230.75
  Z
  M 673.04 159.49
  Q 661.54 183.02 638.22 195.07
  A 0.45 0.45 0.0 0 0 638.23 195.87
  C 649.85 201.47 659.70 208.77 665.87 220.45
  Q 668.52 225.47 671.04 230.59
  Q 671.38 231.28 671.69 230.57
  C 679.52 212.77 688.67 200.46 707.17 194.33
  A 0.76 0.76 0.0 0 0 707.23 192.91
  Q 683.36 182.75 674.35 158.45
  A 0.47 0.47 0.0 0 0 673.53 158.33
  C 673.21 158.73 673.20 159.17 673.04 159.49
  Z"
/>
<path fill="#ffff63" d="
  M 673.04 159.49
  C 673.20 159.17 673.21 158.73 673.53 158.33
  A 0.47 0.47 0.0 0 1 674.35 158.45
  Q 683.36 182.75 707.23 192.91
  A 0.76 0.76 0.0 0 1 707.17 194.33
  C 688.67 200.46 679.52 212.77 671.69 230.57
  Q 671.38 231.28 671.04 230.59
  Q 668.52 225.47 665.87 220.45
  C 659.70 208.77 649.85 201.47 638.23 195.87
  A 0.45 0.45 0.0 0 1 638.22 195.07
  Q 661.54 183.02 673.04 159.49
  Z"
/>
<path fill="#fbca00" d="
  M 264.25 246.79
  Q 268.36 251.88 274.10 254.88
  C 288.95 264.14 306.06 268.04 321.93 272.20
  A 0.37 0.37 0.0 0 1 321.90 272.92
  C 297.61 277.69 267.53 280.54 255.39 306.25
  Q 246.88 324.30 242.43 343.88
  A 0.75 0.75 0.0 0 1 240.99 343.97
  L 238.75 337.71
  Q 235.69 326.34 230.83 315.62
  Q 230.68 315.29 230.33 315.24
  Q 230.17 315.22 230.00 315.21
  C 221.47 286.94 197.34 281.78 172.35 274.08
  Q 171.27 273.74 170.95 273.43
  Q 170.23 272.70 171.22 272.43
  C 181.38 269.72 192.49 266.64 201.21 262.20
  Q 228.78 248.17 236.71 218.10
  C 239.05 209.25 241.18 195.57 242.98 184.44
  A 0.53 0.53 0.0 0 1 244.02 184.43
  C 248.06 205.76 250.67 227.18 263.04 245.69
  Q 263.23 245.98 264.25 246.79
  Z
  M 277.29 270.61
  C 265.27 265.00 254.81 257.48 248.54 245.45
  Q 246.06 240.71 243.78 235.63
  Q 243.47 234.93 243.15 235.63
  Q 231.95 260.29 207.80 272.59
  Q 207.17 272.91 207.80 273.23
  C 224.73 281.85 232.61 290.25 240.53 307.68
  A 0.56 0.56 0.0 0 0 241.55 307.67
  C 249.45 289.38 258.40 278.84 277.26 271.41
  A 0.44 0.43 -43.0 0 0 277.29 270.61
  Z"
/>
<path fill="#979996" d="
  M 638.03 209.85
  Q 649.96 215.75 655.90 227.79
  C 656.05 228.11 656.00 228.36 656.00 228.71
  Q 634.45 220.85 614.25 217.75
  Q 579.50 212.42 540.56 211.55
  C 480.98 210.22 420.61 209.22 361.52 218.08
  C 329.72 222.84 298.08 232.65 274.10 254.88
  Q 268.36 251.88 264.25 246.79
  Q 291.73 222.15 328.96 212.48
  C 368.97 202.08 408.28 199.63 452.44 199.16
  C 491.84 198.75 531.39 198.48 570.74 200.70
  C 590.80 201.83 611.72 203.95 631.29 208.63
  Q 634.63 209.43 638.03 209.85
  Z"
/>
<path fill="#ffffff" d="
  M 656.00 228.71
  C 656.50 229.14 657.19 229.68 657.48 230.28
  Q 666.05 248.13 671.32 266.74
  A 0.60 0.60 0.0 0 0 672.48 266.72
  Q 675.62 254.19 680.04 242.50
  C 698.08 255.46 709.15 275.58 714.20 296.76
  C 721.54 327.60 720.99 361.40 717.54 392.88
  Q 717.49 393.37 717.00 393.39
  Q 699.17 394.18 688.73 408.26
  C 666.62 438.04 676.46 467.70 698.93 492.71
  A 1.91 1.91 0.0 0 1 698.85 495.35
  Q 691.43 502.60 685.85 511.33
  Q 685.55 511.80 684.99 511.70
  C 674.96 509.82 663.63 513.10 658.84 522.44
  C 654.43 531.02 658.43 540.51 664.13 547.77
  Q 664.41 548.13 664.37 548.58
  Q 662.64 566.22 674.17 579.27
  Q 674.52 579.66 674.35 580.17
  Q 655.33 638.73 630.13 694.91
  C 618.43 721.00 604.82 748.26 587.92 772.00
  C 583.26 778.56 573.54 791.12 565.90 793.42
  C 545.02 799.72 526.35 729.76 522.35 715.10
  Q 515.12 688.64 508.04 662.13
  C 504.84 650.17 496.02 616.22 485.46 610.49
  C 464.00 598.83 452.03 640.68 447.98 653.75
  Q 442.28 672.14 431.42 711.86
  C 427.91 724.67 409.79 792.75 392.99 791.46
  C 384.76 790.83 370.58 771.69 365.31 763.99
  Q 348.81 739.84 335.53 713.70
  Q 301.13 645.98 277.16 573.87
  Q 276.98 573.34 277.26 572.86
  Q 283.55 561.71 282.38 548.82
  Q 282.33 548.30 282.64 547.88
  Q 286.17 543.12 287.20 540.69
  C 295.52 521.25 279.97 508.56 261.90 511.56
  Q 261.41 511.64 261.08 511.28
  C 255.20 505.04 254.52 496.25 252.46 488.42
  A 2.16 2.15 -32.6 0 1 252.89 486.48
  C 273.70 461.81 277.71 430.88 255.24 405.20
  Q 248.46 397.46 238.49 394.62
  A 0.81 0.79 6.8 0 1 237.91 393.90
  Q 236.05 365.80 238.75 337.71
  L 240.99 343.97
  A 0.75 0.75 0.0 0 0 242.43 343.88
  Q 246.88 324.30 255.39 306.25
  C 267.53 280.54 297.61 277.69 321.90 272.92
  A 0.37 0.37 0.0 0 0 321.93 272.20
  C 306.06 268.04 288.95 264.14 274.10 254.88
  C 298.08 232.65 329.72 222.84 361.52 218.08
  C 420.61 209.22 480.98 210.22 540.56 211.55
  Q 579.50 212.42 614.25 217.75
  Q 634.45 220.85 656.00 228.71
  Z
  M 606.14 228.34
  Q 598.93 225.85 591.94 225.33
  C 558.01 222.83 520.76 234.03 499.08 261.78
  A 0.46 0.46 0.0 0 0 499.64 262.48
  C 519.57 253.09 539.88 244.76 561.22 239.15
  Q 583.66 233.26 606.08 229.03
  A 0.36 0.36 0.0 0 0 606.14 228.34
  Z
  M 485.81 253.94
  C 455.46 225.68 414.10 219.17 374.87 230.35
  Q 374.17 230.55 374.83 230.86
  Q 376.11 231.46 377.81 231.72
  C 405.98 236.04 430.76 238.10 456.74 246.03
  Q 471.37 250.49 486.05 254.97
  A 0.30 0.29 -87.8 0 0 486.42 254.62
  Q 486.28 254.03 485.81 253.94
  Z
  M 491.70 260.51
  C 478.31 250.50 454.55 253.27 454.30 274.28
  A 1.33 1.33 0.0 0 0 456.36 275.41
  C 467.18 268.29 479.26 264.94 492.04 262.75
  A 0.69 0.67 11.4 0 0 492.49 262.46
  Q 493.09 261.55 491.70 260.51
  Z
  M 415.3500 457.2100
  A 29.02 15.88 90.0 0 0 431.2300 428.1900
  A 29.02 15.88 90.0 0 0 415.3500 399.1700
  A 29.02 15.88 90.0 0 0 399.4700 428.1900
  A 29.02 15.88 90.0 0 0 415.3500 457.2100
  Z
  M 537.2000 457.2500
  A 29.05 15.86 90.0 0 0 553.0600 428.2000
  A 29.05 15.86 90.0 0 0 537.2000 399.1500
  A 29.05 15.86 90.0 0 0 521.3400 428.2000
  A 29.05 15.86 90.0 0 0 537.2000 457.2500
  Z
  M 510.79 494.25
  Q 508.65 483.61 513.16 473.23
  Q 515.85 473.30 517.82 471.83
  Q 518.22 471.53 518.22 471.03
  C 518.23 468.39 516.35 467.98 514.07 468.40
  Q 472.76 475.94 432.65 463.60
  Q 432.15 463.45 431.89 463.90
  C 425.03 475.74 424.52 487.77 434.22 498.29
  C 453.41 519.12 485.76 513.77 507.21 500.49
  Q 509.39 499.15 511.64 496.16
  Q 511.93 495.77 511.70 495.34
  Q 511.34 494.66 510.79 494.25
  Z"
/>
<path fill="#979996" d="
  M 606.14 228.34
  A 0.36 0.36 0.0 0 1 606.08 229.03
  Q 583.66 233.26 561.22 239.15
  C 539.88 244.76 519.57 253.09 499.64 262.48
  A 0.46 0.46 0.0 0 1 499.08 261.78
  C 520.76 234.03 558.01 222.83 591.94 225.33
  Q 598.93 225.85 606.14 228.34
  Z"
/>
<path fill="#979996" d="
  M 485.81 253.94
  Q 486.28 254.03 486.42 254.62
  A 0.30 0.29 -87.8 0 1 486.05 254.97
  Q 471.37 250.49 456.74 246.03
  C 430.76 238.10 405.98 236.04 377.81 231.72
  Q 376.11 231.46 374.83 230.86
  Q 374.17 230.55 374.87 230.35
  C 414.10 219.17 455.46 225.68 485.81 253.94
  Z"
/>
<path fill="#979996" d="
  M 685.21 230.75
  C 737.05 267.57 734.60 339.13 729.95 394.57
  A 1.12 1.11 12.8 0 0 730.66 395.69
  C 741.24 399.75 749.25 404.78 757.47 413.14
  C 786.07 442.24 819.62 501.27 789.24 540.61
  C 774.31 559.94 744.42 567.45 721.20 565.97
  A 1.55 1.53 -86.7 0 0 719.57 567.44
  Q 719.08 577.55 711.25 584.54
  Q 704.06 589.43 695.25 589.29
  L 685.53 587.18
  A 0.60 0.60 0.0 0 0 684.84 587.58
  Q 672.13 625.65 657.58 662.39
  L 646.00 689.96
  L 633.86 716.50
  L 629.14 727.03
  L 610.86 759.75
  L 601.75 774.46
  C 594.48 783.62 588.59 791.98 578.76 800.17
  C 553.64 818.56 536.03 789.94 528.14 770.82
  C 513.44 735.22 504.84 697.61 495.01 660.75
  C 491.77 648.58 486.78 629.77 478.63 620.70
  Q 478.26 620.28 477.80 620.60
  C 472.20 624.47 468.54 633.18 466.11 639.58
  C 454.03 671.33 446.12 705.06 436.75 737.71
  Q 430.48 758.05 422.02 777.49
  Q 416.52 788.64 408.25 797.71
  C 393.67 810.22 379.61 800.78 369.09 788.91
  Q 359.19 777.75 350.25 763.96
  Q 339.54 747.18 330.00 729.71
  C 313.72 699.03 300.11 667.62 286.50 635.71
  L 271.29 595.50
  L 267.59 584.41
  Q 267.41 583.88 266.89 584.12
  C 264.10 585.42 261.12 587.11 258.52 587.92
  C 246.49 591.71 233.51 587.33 228.71 575.02
  Q 227.86 572.82 226.70 566.75
  Q 226.59 566.21 226.04 566.22
  C 202.73 566.67 175.30 561.29 159.25 542.68
  C 126.24 504.39 159.27 444.76 187.42 414.90
  C 197.73 403.97 210.22 395.80 225.41 393.46
  A 0.49 0.49 0.0 0 0 225.73 392.68
  Q 225.48 392.36 225.45 391.93
  C 223.94 367.60 224.10 339.49 230.00 315.21
  Q 230.17 315.22 230.33 315.24
  Q 230.68 315.29 230.83 315.62
  Q 235.69 326.34 238.75 337.71
  Q 236.05 365.80 237.91 393.90
  A 0.81 0.79 6.8 0 0 238.49 394.62
  Q 248.46 397.46 255.24 405.20
  C 277.71 430.88 273.70 461.81 252.89 486.48
  A 2.16 2.15 -32.6 0 0 252.46 488.42
  C 254.52 496.25 255.20 505.04 261.08 511.28
  Q 261.41 511.64 261.90 511.56
  C 279.97 508.56 295.52 521.25 287.20 540.69
  Q 286.17 543.12 282.64 547.88
  Q 282.33 548.30 282.38 548.82
  Q 283.55 561.71 277.26 572.86
  Q 276.98 573.34 277.16 573.87
  Q 301.13 645.98 335.53 713.70
  Q 348.81 739.84 365.31 763.99
  C 370.58 771.69 384.76 790.83 392.99 791.46
  C 409.79 792.75 427.91 724.67 431.42 711.86
  Q 442.28 672.14 447.98 653.75
  C 452.03 640.68 464.00 598.83 485.46 610.49
  C 496.02 616.22 504.84 650.17 508.04 662.13
  Q 515.12 688.64 522.35 715.10
  C 526.35 729.76 545.02 799.72 565.90 793.42
  C 573.54 791.12 583.26 778.56 587.92 772.00
  C 604.82 748.26 618.43 721.00 630.13 694.91
  Q 655.33 638.73 674.35 580.17
  Q 674.52 579.66 674.17 579.27
  Q 662.64 566.22 664.37 548.58
  Q 664.41 548.13 664.13 547.77
  C 658.43 540.51 654.43 531.02 658.84 522.44
  C 663.63 513.10 674.96 509.82 684.99 511.70
  Q 685.55 511.80 685.85 511.33
  Q 691.43 502.60 698.85 495.35
  A 1.91 1.91 0.0 0 0 698.93 492.71
  C 676.46 467.70 666.62 438.04 688.73 408.26
  Q 699.17 394.18 717.00 393.39
  Q 717.49 393.37 717.54 392.88
  C 720.99 361.40 721.54 327.60 714.20 296.76
  C 709.15 275.58 698.08 255.46 680.04 242.50
  Q 682.05 236.37 685.21 230.75
  Z
  M 254.38 527.77
  C 248.02 506.51 221.52 487.90 202.05 479.85
  A 0.44 0.44 0.0 0 1 202.20 479.00
  Q 219.61 478.37 232.80 489.45
  A 0.50 0.50 0.0 0 0 233.48 489.42
  C 250.09 472.24 266.18 449.47 253.39 424.69
  C 243.95 406.41 232.19 401.78 213.25 410.81
  Q 207.18 413.70 203.26 417.27
  Q 179.84 438.59 166.07 470.13
  C 155.81 493.62 153.51 524.20 175.97 540.81
  C 193.76 553.97 218.23 553.69 239.17 553.44
  Q 239.72 553.43 239.75 553.98
  C 240.08 559.33 239.30 567.38 241.08 571.33
  C 245.14 580.33 258.82 575.81 263.56 570.33
  Q 273.15 559.25 268.64 544.26
  Q 268.49 543.77 268.90 543.46
  C 274.23 539.45 282.73 528.49 271.70 524.47
  C 265.19 522.10 260.69 525.03 255.11 528.07
  Q 254.56 528.37 254.38 527.77
  Z
  M 744.71 479.09
  A 0.34 0.34 0.0 0 1 744.83 479.74
  C 724.48 488.46 699.46 505.98 692.08 527.96
  A 0.45 0.45 0.0 0 1 691.37 528.17
  C 686.77 524.54 680.54 522.29 674.77 524.51
  C 663.91 528.69 672.61 539.53 677.71 543.69
  Q 678.11 544.01 677.95 544.51
  C 673.97 556.77 679.18 571.66 692.09 575.68
  C 708.64 580.84 707.17 563.74 706.98 553.89
  Q 706.97 553.30 707.55 553.33
  C 728.71 554.18 755.89 553.57 772.96 539.12
  C 793.04 522.12 790.44 493.89 781.15 471.83
  Q 769.18 443.41 747.58 421.41
  C 734.95 408.54 713.29 397.89 699.29 415.33
  C 677.36 442.65 693.34 468.41 712.97 489.26
  Q 713.33 489.65 713.77 489.35
  C 723.66 482.50 732.28 478.41 744.71 479.09
  Z"
/>
<path fill="#ffff63" d="
  M 277.29 270.61
  A 0.44 0.43 -43.0 0 1 277.26 271.41
  C 258.40 278.84 249.45 289.38 241.55 307.67
  A 0.56 0.56 0.0 0 1 240.53 307.68
  C 232.61 290.25 224.73 281.85 207.80 273.23
  Q 207.17 272.91 207.80 272.59
  Q 231.95 260.29 243.15 235.63
  Q 243.47 234.93 243.78 235.63
  Q 246.06 240.71 248.54 245.45
  C 254.81 257.48 265.27 265.00 277.29 270.61
  Z"
/>
<path fill="#979996" d="
  M 491.70 260.51
  Q 493.09 261.55 492.49 262.46
  A 0.69 0.67 11.4 0 1 492.04 262.75
  C 479.26 264.94 467.18 268.29 456.36 275.41
  A 1.33 1.33 0.0 0 1 454.30 274.28
  C 454.55 253.27 478.31 250.50 491.70 260.51
  Z"
/>
<ellipse fill="#494b49" cx="0.00" cy="0.00" transform="translate(415.35,428.19) rotate(90.0)" rx="29.02" ry="15.88"/>
<ellipse fill="#494b49" cx="0.00" cy="0.00" transform="translate(537.20,428.20) rotate(90.0)" rx="29.05" ry="15.86"/>
<path fill="#ffffff" d="
  M 255.11 528.07
  C 260.69 525.03 265.19 522.10 271.70 524.47
  C 282.73 528.49 274.23 539.45 268.90 543.46
  Q 268.49 543.77 268.64 544.26
  Q 273.15 559.25 263.56 570.33
  C 258.82 575.81 245.14 580.33 241.08 571.33
  C 239.30 567.38 240.08 559.33 239.75 553.98
  Q 239.72 553.43 239.17 553.44
  C 218.23 553.69 193.76 553.97 175.97 540.81
  C 153.51 524.20 155.81 493.62 166.07 470.13
  Q 179.84 438.59 203.26 417.27
  Q 207.18 413.70 213.25 410.81
  C 232.19 401.78 243.95 406.41 253.39 424.69
  C 266.18 449.47 250.09 472.24 233.48 489.42
  A 0.50 0.50 0.0 0 1 232.80 489.45
  Q 219.61 478.37 202.20 479.00
  A 0.44 0.44 0.0 0 0 202.05 479.85
  C 221.52 487.90 248.02 506.51 254.38 527.77
  Q 254.56 528.37 255.11 528.07
  Z"
/>
<path fill="#ffffff" d="
  M 744.71 479.09
  C 732.28 478.41 723.66 482.50 713.77 489.35
  Q 713.33 489.65 712.97 489.26
  C 693.34 468.41 677.36 442.65 699.29 415.33
  C 713.29 397.89 734.95 408.54 747.58 421.41
  Q 769.18 443.41 781.15 471.83
  C 790.44 493.89 793.04 522.12 772.96 539.12
  C 755.89 553.57 728.71 554.18 707.55 553.33
  Q 706.97 553.30 706.98 553.89
  C 707.17 563.74 708.64 580.84 692.09 575.68
  C 679.18 571.66 673.97 556.77 677.95 544.51
  Q 678.11 544.01 677.71 543.69
  C 672.61 539.53 663.91 528.69 674.77 524.51
  C 680.54 522.29 686.77 524.54 691.37 528.17
  A 0.45 0.45 0.0 0 0 692.08 527.96
  C 699.46 505.98 724.48 488.46 744.83 479.74
  A 0.34 0.34 0.0 0 0 744.71 479.09
  Z"
/>
<path fill="#494b49" d="
  M 513.16 473.23
  Q 498.69 475.53 484.07 475.89
  C 467.48 476.30 450.88 473.36 434.96 468.91
  A 0.73 0.72 -71.4 0 0 434.09 469.35
  C 432.09 474.59 428.78 487.28 435.00 491.29
  C 439.86 500.25 450.80 505.57 460.51 506.98
  Q 461.23 507.08 461.71 506.50
  C 461.78 506.70 461.85 506.80 462.07 506.82
  Q 487.68 509.40 509.30 495.98
  Q 509.71 495.73 509.99 495.34
  L 510.79 494.25
  Q 511.34 494.66 511.70 495.34
  Q 511.93 495.77 511.64 496.16
  Q 509.39 499.15 507.21 500.49
  C 485.76 513.77 453.41 519.12 434.22 498.29
  C 424.52 487.77 425.03 475.74 431.89 463.90
  Q 432.15 463.45 432.65 463.60
  Q 472.76 475.94 514.07 468.40
  C 516.35 467.98 518.23 468.39 518.22 471.03
  Q 518.22 471.53 517.82 471.83
  Q 515.85 473.30 513.16 473.23
  Z"
/>
<path fill="#8b0000" d="
  M 513.16 473.23
  Q 508.65 483.61 510.79 494.25
  L 509.99 495.34
  Q 509.71 495.73 509.30 495.98
  Q 487.68 509.40 462.07 506.82
  C 461.85 506.80 461.78 506.70 461.71 506.50
  Q 460.22 498.96 455.12 493.62
  C 450.39 488.65 440.92 489.38 435.00 491.29
  C 428.78 487.28 432.09 474.59 434.09 469.35
  A 0.73 0.72 -71.4 0 1 434.96 468.91
  C 450.88 473.36 467.48 476.30 484.07 475.89
  Q 498.69 475.53 513.16 473.23
  Z"
/>
<path fill="#e70400" d="
  M 461.71 506.50
  Q 461.23 507.08 460.51 506.98
  C 450.80 505.57 439.86 500.25 435.00 491.29
  C 440.92 489.38 450.39 488.65 455.12 493.62
  Q 460.22 498.96 461.71 506.50
  Z"
/>
<path fill="#000000" d="
  M 711.25 584.54
  L 711.25 585.29
  Q 711.25 585.80 711.61 586.17
  Q 712.96 587.56 714.48 589.77
  C 781.30 687.26 851.54 773.88 932.63 868.75
  C 937.71 874.70 943.64 880.48 947.89 888.11
  Q 948.25 888.74 947.53 888.87
  Q 944.08 889.51 941.48 887.32
  Q 941.07 886.97 940.54 886.85
  C 882.49 873.71 825.92 856.55 768.25 856.82
  C 745.56 856.92 721.25 868.76 705.23 884.48
  C 696.50 893.05 688.06 901.52 678.45 909.31
  Q 663.50 921.43 648.58 933.59
  Q 645.35 936.21 640.85 937.68
  C 628.85 941.57 616.33 947.07 603.69 947.20
  C 581.47 947.44 557.45 943.36 538.09 931.89
  Q 510.35 915.45 482.44 899.30
  C 456.16 884.10 426.16 874.16 395.56 870.53
  Q 381.59 868.86 369.43 868.13
  C 360.85 867.61 349.10 868.38 343.08 868.50
  C 320.04 868.94 297.90 869.42 275.05 873.07
  A 1.50 1.50 0.0 0 1 273.37 871.98
  C 267.01 848.08 264.30 826.50 263.37 799.19
  C 262.59 776.25 262.53 746.34 263.77 717.82
  Q 266.43 656.60 271.29 595.50
  L 286.50 635.71
  L 286.07 636.33
  Q 285.80 636.73 285.89 637.22
  C 286.99 643.08 286.23 648.18 285.94 653.90
  C 283.49 701.03 281.69 744.33 281.74 789.75
  C 281.76 811.52 283.72 833.52 285.04 855.25
  Q 284.56 857.39 285.32 859.25
  Q 285.53 859.76 286.07 859.64
  Q 299.67 856.50 311.96 852.65
  Q 317.89 852.50 322.36 850.97
  Q 323.46 850.59 327.31 850.64
  Q 339.60 850.79 369.43 850.24
  C 380.97 850.02 393.11 853.00 404.46 855.00
  Q 432.10 861.51 457.71 873.75
  Q 482.94 886.38 507.81 899.69
  C 522.71 907.67 538.62 914.08 554.07 920.92
  Q 558.00 922.66 562.35 924.12
  C 576.91 929.86 598.14 935.44 613.50 931.96
  Q 626.12 927.41 638.39 921.90
  C 648.04 917.57 656.56 909.64 664.15 902.42
  C 670.02 896.84 675.63 889.91 681.19 883.44
  C 692.81 869.95 707.32 858.67 724.21 852.77
  Q 734.61 849.13 745.00 845.54
  Q 750.12 843.66 755.47 843.64
  C 770.80 843.59 786.16 843.89 801.50 844.21
  C 840.32 849.04 880.18 856.19 917.67 868.62
  C 918.81 869.00 920.12 869.05 921.32 869.50
  A 0.42 0.42 0.0 0 0 921.79 868.83
  C 910.71 855.83 899.97 843.92 887.52 830.84
  Q 852.85 794.38 814.72 748.04
  Q 748.24 667.25 695.25 589.29
  Q 704.06 589.43 711.25 584.54
  Z"
/>
<path fill="#fe0000" d="
  M 695.25 589.29
  Q 748.24 667.25 814.72 748.04
  Q 852.85 794.38 887.52 830.84
  C 899.97 843.92 910.71 855.83 921.79 868.83
  A 0.42 0.42 0.0 0 1 921.32 869.50
  C 920.12 869.05 918.81 869.00 917.67 868.62
  C 880.18 856.19 840.32 849.04 801.50 844.21
  Q 800.61 843.91 799.61 844.01
  Q 798.89 844.09 799.26 843.46
  L 799.41 843.21
  Q 799.68 842.75 799.41 842.28
  Q 797.80 839.49 794.41 836.84
  Q 778.01 823.97 761.88 806.38
  Q 732.84 774.73 708.21 739.54
  Q 681.74 701.75 657.58 662.39
  Q 672.13 625.65 684.84 587.58
  A 0.60 0.60 0.0 0 1 685.53 587.18
  L 695.25 589.29
  Z"
/>
<path fill="#fe0000" d="
  M 578.76 800.17
  Q 581.34 804.91 581.27 808.00
  C 581.09 815.05 581.81 823.03 581.72 829.01
  C 581.34 855.36 576.59 881.55 568.32 906.57
  Q 565.42 915.34 562.35 924.12
  Q 558.00 922.66 554.07 920.92
  C 538.62 914.08 522.71 907.67 507.81 899.69
  Q 482.94 886.38 457.71 873.75
  Q 459.17 870.69 458.53 869.00
  C 456.58 863.86 454.19 859.20 453.35 853.77
  C 448.96 825.43 445.80 796.72 442.05 768.28
  Q 440.53 756.79 439.49 745.26
  Q 439.30 743.14 436.75 737.71
  C 446.12 705.06 454.03 671.33 466.11 639.58
  C 468.54 633.18 472.20 624.47 477.80 620.60
  Q 478.26 620.28 478.63 620.70
  C 486.78 629.77 491.77 648.58 495.01 660.75
  C 504.84 697.61 513.44 735.22 528.14 770.82
  C 536.03 789.94 553.64 818.56 578.76 800.17
  Z"
/>
<path fill="#fe0000" d="
  M 286.50 635.71
  C 300.11 667.62 313.72 699.03 330.00 729.71
  C 329.12 729.58 328.61 729.97 328.49 730.87
  Q 327.95 735.00 327.30 737.51
  C 317.66 774.81 307.28 809.84 292.73 845.02
  C 291.71 847.49 291.05 850.04 290.35 852.56
  Q 290.22 853.03 289.81 853.32
  C 288.50 854.24 286.90 857.05 285.04 855.25
  C 283.72 833.52 281.76 811.52 281.74 789.75
  C 281.69 744.33 283.49 701.03 285.94 653.90
  C 286.23 648.18 286.99 643.08 285.89 637.22
  Q 285.80 636.73 286.07 636.33
  L 286.50 635.71
  Z"
/>
<path fill="#e70400" d="
  M 657.58 662.39
  Q 681.74 701.75 708.21 739.54
  Q 732.84 774.73 761.88 806.38
  Q 778.01 823.97 794.41 836.84
  Q 797.80 839.49 799.41 842.28
  Q 799.68 842.75 799.41 843.21
  L 799.26 843.46
  Q 798.89 844.09 799.61 844.01
  Q 800.61 843.91 801.50 844.21
  C 786.16 843.89 770.80 843.59 755.47 843.64
  Q 750.12 843.66 745.00 845.54
  C 743.57 843.66 742.32 841.35 740.78 839.68
  Q 703.32 799.08 675.47 751.35
  Q 670.53 742.88 662.70 725.31
  Q 655.18 708.41 647.92 691.42
  Q 647.75 691.02 647.37 690.79
  L 646.00 689.96
  L 657.58 662.39
  Z"
/>
<path fill="#cc0000" d="
  M 646.00 689.96
  L 647.37 690.79
  Q 647.75 691.02 647.92 691.42
  Q 655.18 708.41 662.70 725.31
  Q 670.53 742.88 675.47 751.35
  Q 703.32 799.08 740.78 839.68
  C 742.32 841.35 743.57 843.66 745.00 845.54
  Q 734.61 849.13 724.21 852.77
  C 707.32 858.67 692.81 869.95 681.19 883.44
  C 675.63 889.91 670.02 896.84 664.15 902.42
  C 656.56 909.64 648.04 917.57 638.39 921.90
  Q 626.12 927.41 613.50 931.96
  C 613.37 927.76 612.20 923.50 612.25 919.64
  C 612.44 906.00 614.01 893.28 612.96 879.26
  C 615.84 881.14 615.39 877.39 613.50 876.46
  Q 613.85 875.96 613.84 875.69
  C 613.28 827.49 612.10 798.40 610.86 759.75
  L 629.14 727.03
  Q 636.87 748.66 645.92 769.77
  A 0.43 0.42 66.8 0 0 646.47 770.00
  Q 647.52 769.58 647.23 768.51
  Q 640.15 742.63 633.86 716.50
  L 646.00 689.96
  Z"
/>
<path fill="#000000" d="
  M 633.86 716.50
  Q 640.15 742.63 647.23 768.51
  Q 647.52 769.58 646.47 770.00
  A 0.43 0.42 66.8 0 1 645.92 769.77
  Q 636.87 748.66 629.14 727.03
  L 633.86 716.50
  Z"
/>
<path fill="#e70400" d="
  M 330.00 729.71
  Q 339.54 747.18 350.25 763.96
  L 348.25 764.97
  Q 347.70 765.25 348.09 765.72
  Q 348.96 766.80 347.97 767.91
  Q 347.64 768.28 347.52 768.75
  Q 336.21 813.47 311.96 852.65
  Q 299.67 856.50 286.07 859.64
  Q 285.53 859.76 285.32 859.25
  Q 284.56 857.39 285.04 855.25
  C 286.90 857.05 288.50 854.24 289.81 853.32
  Q 290.22 853.03 290.35 852.56
  C 291.05 850.04 291.71 847.49 292.73 845.02
  C 307.28 809.84 317.66 774.81 327.30 737.51
  Q 327.95 735.00 328.49 730.87
  C 328.61 729.97 329.12 729.58 330.00 729.71
  Z"
/>
<path fill="#e70400" d="
  M 436.75 737.71
  Q 439.30 743.14 439.49 745.26
  Q 440.53 756.79 442.05 768.28
  C 445.80 796.72 448.96 825.43 453.35 853.77
  C 454.19 859.20 456.58 863.86 458.53 869.00
  Q 459.17 870.69 457.71 873.75
  Q 432.10 861.51 404.46 855.00
  C 405.15 842.86 407.81 830.27 407.45 818.22
  Q 408.94 815.98 410.41 813.88
  C 414.37 808.25 416.72 801.21 417.97 794.50
  C 418.33 792.56 420.17 789.85 420.67 787.39
  Q 421.65 782.50 422.02 777.49
  Q 430.48 758.05 436.75 737.71
  Z"
/>
<path fill="#000000" d="
  M 610.86 759.75
  C 612.10 798.40 613.28 827.49 613.84 875.69
  Q 613.85 875.96 613.50 876.46
  L 612.75 876.29
  Q 608.08 825.40 601.92 774.66
  Q 601.91 774.55 601.84 774.51
  Q 601.80 774.48 601.75 774.46
  L 610.86 759.75
  Z"
/>
<path fill="#cc0000" d="
  M 350.25 763.96
  Q 359.19 777.75 369.09 788.91
  C 379.61 800.78 393.67 810.22 408.25 797.71
  L 408.62 797.73
  Q 409.15 797.76 409.08 798.29
  Q 407.75 808.24 407.45 818.22
  C 407.81 830.27 405.15 842.86 404.46 855.00
  C 393.11 853.00 380.97 850.02 369.43 850.24
  Q 339.60 850.79 327.31 850.64
  Q 323.46 850.59 322.36 850.97
  Q 317.89 852.50 311.96 852.65
  Q 336.21 813.47 347.52 768.75
  Q 347.64 768.28 347.97 767.91
  Q 348.96 766.80 348.09 765.72
  Q 347.70 765.25 348.25 764.97
  L 350.25 763.96
  Z"
/>
<path fill="#e70400" d="
  M 601.75 774.46
  Q 601.80 774.48 601.84 774.51
  Q 601.91 774.55 601.92 774.66
  Q 608.08 825.40 612.75 876.29
  L 612.96 879.26
  C 614.01 893.28 612.44 906.00 612.25 919.64
  C 612.20 923.50 613.37 927.76 613.50 931.96
  C 598.14 935.44 576.91 929.86 562.35 924.12
  Q 565.42 915.34 568.32 906.57
  C 576.59 881.55 581.34 855.36 581.72 829.01
  C 581.81 823.03 581.09 815.05 581.27 808.00
  Q 581.34 804.91 578.76 800.17
  C 588.59 791.98 594.48 783.62 601.75 774.46
  Z"
/>
<path fill="#000000" d="
  M 422.02 777.49
  Q 421.65 782.50 420.67 787.39
  C 420.17 789.85 418.33 792.56 417.97 794.50
  C 416.72 801.21 414.37 808.25 410.41 813.88
  Q 408.94 815.98 407.45 818.22
  Q 407.75 808.24 409.08 798.29
  Q 409.15 797.76 408.62 797.73
  L 408.25 797.71
  Q 416.52 788.64 422.02 777.49
  Z"
/>
<path fill="#494b49" d="
  M 612.75 876.29
  L 613.50 876.46
  C 615.39 877.39 615.84 881.14 612.96 879.26
  L 612.75 876.29
  Z"
/>
</svg>
