<?xml version="1.0" encoding="UTF-8" standalone="no"?>
<!DOCTYPE svg PUBLIC "-//W3C//DTD SVG 1.1//EN" "http://www.w3.org/Graphics/SVG/1.1/DTD/svg11.dtd">
<svg xmlns="http://www.w3.org/2000/svg" version="1.1" viewBox="0 0 960 960">
<g stroke-width="2.00" fill="none" stroke-linecap="butt">
<path stroke="#afc668" vector-effect="non-scaling-stroke" d="
  M 685.21 607.75
  Q 683.56 606.86 682.61 605.23
  Q 682.35 604.78 682.47 604.28
  C 684.43 595.69 684.66 591.28 680.30 583.98"
/>
<path stroke="#cccccc" vector-effect="non-scaling-stroke" d="
  M 680.30 583.98
  C 695.42 535.84 707.57 487.26 715.53 437.41
  Q 720.32 407.39 721.20 377.00
  C 721.91 352.54 720.25 326.63 712.47 303.53
  C 695.83 254.15 650.39 239.38 603.48 233.68
  Q 572.44 229.91 541.18 229.13
  C 489.73 227.86 437.71 227.36 386.43 232.34
  C 330.73 237.74 272.12 253.40 250.18 311.59
  C 242.14 332.92 239.25 356.08 238.79 378.75
  C 237.93 421.61 243.71 462.54 254.21 506.15
  Q 275.97 596.48 313.41 681.41
  C 324.81 707.27 336.95 732.09 351.69 757.81
  C 357.47 767.91 384.95 813.82 397.69 808.46
  C 410.13 803.23 420.89 769.49 424.78 756.76
  C 435.23 722.63 442.75 690.99 453.80 658.77
  C 457.22 648.79 465.05 627.13 478.49 626.01
  C 488.68 625.16 494.72 636.20 497.98 644.26
  C 508.37 669.91 514.65 698.24 521.71 725.05
  C 527.63 747.54 535.90 777.05 549.21 799.17
  C 551.58 803.10 554.63 806.18 558.10 808.93
  C 563.55 813.26 568.38 811.48 573.43 807.25
  C 588.59 794.53 601.37 773.01 609.54 756.75"
/>
<path stroke="#9db75b" vector-effect="non-scaling-stroke" d="
  M 609.54 756.75
  Q 615.58 759.68 622.25 760.54"
/>
<path stroke="#e2f99b" vector-effect="non-scaling-stroke" d="
  M 680.30 583.98
  Q 674.37 578.25 666.95 574.76
  C 662.26 572.56 657.75 573.23 652.83 574.12
  Q 652.22 574.23 652.17 573.61
  Q 651.00 559.31 636.69 557.50
  Q 636.17 557.43 636.14 556.91
  Q 635.65 549.38 629.75 544.79"
/>
<path stroke="#d0ea8e" vector-effect="non-scaling-stroke" d="
  M 629.75 544.79
  Q 622.68 539.85 615.47 543.44
  Q 604.92 548.69 606.14 560.95
  Q 606.19 561.46 605.68 561.49
  C 585.71 562.39 575.65 583.18 587.56 599.37
  A 0.57 0.56 -33.5 0 1 587.39 600.19
  Q 567.01 612.31 571.62 636.28
  Q 571.71 636.74 571.27 636.91
  C 552.07 644.30 548.94 668.73 567.01 679.24
  Q 567.43 679.49 567.23 679.93
  C 558.85 698.33 562.71 715.46 577.49 728.46
  C 585.22 735.26 591.55 743.51 599.29 750.50"
/>
<path stroke="#e3cdc1" vector-effect="non-scaling-stroke" d="
  M 599.29 750.50
  Q 602.75 754.37 607.75 755.96"
/>
<path stroke="#d0ea8e" vector-effect="non-scaling-stroke" d="
  M 607.75 755.96
  L 609.54 756.75"
/>
<path stroke="#9fd632" vector-effect="non-scaling-stroke" d="
  M 623.46 733.40
  C 623.48 726.19 624.94 709.01 630.37 703.71
  Q 647.92 686.61 672.93 686.17
  Q 673.42 686.16 673.83 685.88
  C 677.07 683.67 675.97 678.91 671.80 678.92
  Q 652.87 678.95 637.49 688.86
  A 0.70 0.70 0.0 0 1 636.52 687.89
  C 643.20 677.43 649.94 670.50 658.79 661.70
  C 661.79 658.73 659.62 654.71 655.71 655.23"
/>
<path stroke="#b3e429" vector-effect="non-scaling-stroke" d="
  M 655.71 655.23
  Q 657.64 637.69 661.83 620.50"
/>
<path stroke="#9fd632" vector-effect="non-scaling-stroke" d="
  M 661.83 620.50
  C 663.63 617.41 669.66 613.48 667.20 610.02
  C 664.34 606.01 658.94 611.22 656.31 614.08
  C 642.51 629.09 640.85 644.05 640.46 664.75"
/>
<path stroke="#b3e429" vector-effect="non-scaling-stroke" d="
  M 640.46 664.75
  Q 636.25 671.49 633.04 678.75"
/>
<path stroke="#9fd632" vector-effect="non-scaling-stroke" d="
  M 633.04 678.75
  L 627.25 688.54"
/>
<path stroke="#b3e429" vector-effect="non-scaling-stroke" d="
  M 627.25 688.54
  Q 625.13 688.03 625.94 685.18
  Q 629.48 672.71 633.77 650.51
  Q 634.63 646.09 631.21 642.25"
/>
<path stroke="#9fd632" vector-effect="non-scaling-stroke" d="
  M 631.21 642.25
  C 631.67 639.88 633.10 636.93 632.73 634.85
  C 632.30 632.44 629.59 631.05 627.26 632.06
  C 624.93 633.07 623.35 640.71 622.78 643.28
  A 0.53 0.52 -60.2 0 1 621.88 643.53
  C 618.56 639.94 615.35 625.50 614.33 620.41
  Q 614.22 619.86 614.74 619.62
  C 627.60 613.70 635.74 604.44 636.54 589.73
  C 636.75 585.92 634.88 584.36 631.12 585.24
  A 2.42 2.41 81.9 0 0 629.26 587.73
  Q 629.53 592.63 626.96 597.50"
/>
<path stroke="#b3e429" vector-effect="non-scaling-stroke" d="
  M 626.96 597.50
  Q 620.66 602.08 613.13 603.79"
/>
<path stroke="#9fd632" vector-effect="non-scaling-stroke" d="
  M 613.13 603.79
  C 611.65 598.39 605.65 599.91 605.74 605.58
  Q 606.20 632.17 619.48 655.10
  Q 619.72 655.50 619.60 655.96
  L 618.46 660.50"
/>
<path stroke="#b3e429" vector-effect="non-scaling-stroke" d="
  M 618.46 660.50
  C 612.48 663.86 610.72 668.33 610.78 675.40
  Q 610.90 689.03 611.92 703.00
  A 0.42 0.42 0.0 0 1 611.47 703.44
  Q 610.46 703.36 610.17 702.41
  Q 603.40 680.21 596.33 658.09"
/>
<path stroke="#9fd632" vector-effect="non-scaling-stroke" d="
  M 596.33 658.09
  C 595.02 654.58 597.11 644.94 589.50 648.17
  A 2.15 2.13 -10.9 0 0 588.20 650.07
  L 587.96 658.00"
/>
<path stroke="#b3e429" vector-effect="non-scaling-stroke" d="
  M 629.75 544.79
  C 629.44 545.01 629.17 545.28 628.81 545.37
  C 617.40 548.39 608.81 557.66 609.17 569.76
  C 609.33 575.29 611.88 579.24 614.13 583.72
  Q 614.35 584.16 613.94 584.42
  Q 594.02 596.86 598.50 620.55
  Q 598.60 621.09 598.09 621.30
  C 583.06 627.20 576.79 644.86 587.46 657.89
  Q 587.55 658.00 587.70 658.00
  Q 587.84 658.00 587.96 658.00"
/>
<path stroke="#8ec725" vector-effect="non-scaling-stroke" d="
  M 587.96 658.00
  Q 590.41 700.80 613.86 736.40
  Q 614.99 738.11 616.80 742.17
  Q 617.01 742.65 617.52 742.78
  C 624.32 744.59 623.09 737.16 623.46 733.40"
/>
<path stroke="#b3e429" vector-effect="non-scaling-stroke" d="
  M 623.46 733.40
  Q 629.71 738.86 637.07 740.86"
/>
<path stroke="#b4b850" vector-effect="non-scaling-stroke" d="
  M 607.75 755.96
  L 599.29 750.50"
/>
<path stroke="#8ec725" vector-effect="non-scaling-stroke" d="
  M 631.21 642.25
  Q 625.47 662.04 623.16 682.48
  C 622.63 687.14 622.86 693.23 622.01 698.60
  A 0.35 0.35 0.0 0 0 622.67 698.79
  L 627.25 688.54"
/>
<path stroke="#8ec725" vector-effect="non-scaling-stroke" d="
  M 633.04 678.75
  C 636.59 674.44 641.82 668.88 640.46 664.75"
/>
<path stroke="#8ec725" vector-effect="non-scaling-stroke" d="
  M 661.83 620.50
  C 650.86 629.71 647.19 646.59 648.87 660.29
  A 0.38 0.38 0.0 0 0 649.55 660.47
  Q 651.92 657.33 655.71 655.23"
/>
<path stroke="#8ec725" vector-effect="non-scaling-stroke" d="
  M 596.33 658.09
  Q 595.32 660.61 595.76 662.91
  Q 596.16 665.03 596.17 665.11
  Q 599.47 694.73 613.39 720.73
  A 0.33 0.32 -57.7 0 0 614.00 720.59
  C 614.29 714.46 613.61 708.46 614.06 702.36
  C 615.05 688.84 615.74 674.94 618.48 661.64
  Q 618.60 661.09 618.46 660.50"
/>
<path stroke="#8ec725" vector-effect="non-scaling-stroke" d="
  M 613.13 603.79
  L 613.50 611.05
  A 0.54 0.54 0.0 0 0 614.25 611.52
  Q 623.80 607.37 626.96 597.50"
/>
<path stroke="#b2b2b2" vector-effect="non-scaling-stroke" d="
  M 384.23 290.38
  A 0.37 0.37 0.0 0 1 384.20 291.02
  Q 370.81 297.83 357.36 304.53
  C 340.49 312.92 324.01 322.92 316.95 341.39
  A 0.59 0.59 0.0 0 0 317.76 342.13
  C 345.22 328.87 373.39 326.15 404.24 322.18
  C 417.87 320.43 426.57 320.89 437.27 330.11
  Q 452.63 343.33 467.49 357.12
  Q 472.99 362.23 476.22 363.29
  C 485.63 366.38 495.86 359.39 497.96 349.94
  C 498.73 346.45 499.31 342.66 500.63 339.79
  C 505.21 329.81 517.05 323.08 528.00 325.72
  C 536.68 327.81 538.81 326.89 544.37 319.88
  C 552.62 309.49 559.42 298.64 574.91 300.77
  C 602.20 304.53 625.56 313.82 649.16 327.76
  Q 649.53 327.98 649.34 327.59
  Q 646.46 321.74 643.85 315.76
  C 638.47 303.42 628.30 291.08 615.24 286.54
  Q 607.80 283.96 595.42 280.89
  Q 593.50 280.41 593.12 278.85
  Q 592.97 278.26 593.42 277.84
  Q 601.30 270.50 611.49 267.04
  A 0.32 0.32 0.0 0 0 611.55 266.47
  C 583.31 249.57 541.86 239.24 514.84 264.26
  Q 514.48 264.60 514.07 264.31
  C 492.89 248.97 471.77 258.95 450.89 267.62
  Q 450.41 267.82 449.97 267.53
  Q 424.41 250.81 394.51 245.71
  C 377.53 242.81 363.73 245.61 351.79 258.19
  Q 345.09 265.25 338.88 272.14
  Q 338.09 273.02 339.27 273.13
  C 356.70 274.73 369.90 280.93 384.23 290.38"
/>
<path stroke="#d0bbb2" vector-effect="non-scaling-stroke" d="
  M 253.47 409.11
  C 255.58 418.87 266.04 421.75 268.39 430.69
  Q 270.79 439.77 263.76 447.08
  C 257.72 453.36 253.40 457.96 253.27 467.05
  C 253.00 486.60 271.74 492.06 286.16 482.33
  Q 292.48 478.06 297.23 475.49
  C 307.15 470.13 314.86 476.68 322.76 481.97
  C 335.85 490.74 357.89 488.20 359.21 469.25"
/>
<path stroke="#e3cdc1" vector-effect="non-scaling-stroke" d="
  M 359.21 469.25
  C 358.72 453.56 346.31 444.23 332.48 440.79
  C 325.55 439.06 316.90 437.17 318.75 427.49
  C 321.38 413.71 324.83 402.04 318.86 389.44
  C 314.99 381.29 304.63 377.81 297.69 384.93
  C 293.50 389.23 288.21 395.54 282.60 397.72
  C 273.90 401.10 251.68 393.07 253.47 409.11"
/>
<path stroke="#b48974" vector-effect="non-scaling-stroke" d="
  M 359.21 469.25
  C 348.43 486.27 333.09 473.59 321.92 465.83
  C 312.45 459.24 303.51 459.96 293.09 463.33
  C 287.49 465.15 276.62 470.50 273.91 461.33
  C 272.74 457.38 277.81 451.31 278.80 447.66
  C 282.18 435.21 278.46 421.37 266.30 414.94
  Q 259.11 411.15 253.47 409.11"
/>
<path stroke="#e3cdc1" vector-effect="non-scaling-stroke" d="
  M 341.13 426.13
  C 347.18 430.93 358.34 433.47 359.28 422.01
  C 359.96 413.64 355.41 403.48 345.85 404.05
  C 332.94 404.83 333.01 419.70 341.13 426.13"
/>
<path stroke="#b2b2b2" vector-effect="non-scaling-stroke" d="
  M 393.95 457.23
  C 394.03 467.80 399.85 494.09 415.85 491.39
  C 423.91 490.04 429.29 480.09 431.28 472.74
  C 435.46 457.27 434.93 436.08 423.74 423.46
  Q 423.34 423.01 422.93 423.45
  Q 408.66 438.85 395.09 453.75
  C 394.12 454.81 393.94 455.88 393.95 457.23"
/>
<path stroke="#b2b2b2" vector-effect="non-scaling-stroke" d="
  M 527.48 475.30
  C 530.00 482.92 536.52 492.95 545.67 491.47
  C 559.69 489.19 563.95 466.55 564.00 455.61
  Q 564.00 455.06 563.62 454.66
  L 534.96 424.00
  A 0.81 0.80 44.6 0 0 533.78 424.00
  C 522.16 436.72 522.41 459.97 527.48 475.30"
/>
<path stroke="#d0bbb2" vector-effect="non-scaling-stroke" d="
  M 277.48 519.10
  C 278.21 524.40 285.49 527.09 286.70 532.64
  C 288.47 540.71 279.82 543.46 277.87 550.20
  C 274.98 560.24 281.54 568.84 292.14 566.17
  C 297.56 564.80 301.41 559.86 306.72 558.52
  C 313.18 556.89 318.66 563.72 324.43 565.74
  C 331.63 568.27 340.55 565.38 342.21 557.00"
/>
<path stroke="#e3cdc1" vector-effect="non-scaling-stroke" d="
  M 342.21 557.00
  C 342.75 545.20 333.58 540.23 323.76 537.51
  C 314.16 534.85 317.81 527.85 319.11 520.83
  C 320.27 514.53 318.52 499.30 308.48 501.57
  C 303.17 502.77 300.19 510.09 294.48 511.93
  C 289.71 513.46 275.27 509.33 277.48 519.10"
/>
<path stroke="#b48974" vector-effect="non-scaling-stroke" d="
  M 342.21 557.00
  Q 334.74 563.83 326.30 558.21
  C 319.69 553.81 314.48 548.87 305.47 551.08
  Q 300.51 552.30 295.64 553.74
  C 292.20 554.76 288.21 551.19 289.98 548.27
  C 298.31 534.52 291.88 523.10 277.48 519.10"
/>
<path stroke="#b2b2b2" vector-effect="non-scaling-stroke" d="
  M 487.21 530.72
  C 500.13 534.25 512.59 540.94 524.45 546.98
  A 0.45 0.45 0.0 0 0 525.04 546.35
  C 515.10 529.49 496.49 514.43 476.55 512.92
  C 456.87 511.42 439.22 526.19 431.31 543.66
  Q 431.01 544.32 431.45 544.70
  A 0.65 0.64 -38.6 0 0 432.19 544.78
  Q 442.91 538.79 453.94 533.71
  C 465.42 528.43 474.60 527.27 487.21 530.72"
/>
<path stroke="#e3cdc1" vector-effect="non-scaling-stroke" d="
  M 329.62 517.37
  C 322.67 523.57 335.14 535.57 340.78 530.59
  C 343.51 528.18 342.20 521.08 340.26 518.54
  C 337.76 515.27 332.73 514.59 329.62 517.37"
/>
</g>
<path fill="#999999" d="
  M 685.21 607.75
  Q 683.56 606.86 682.61 605.23
  Q 682.35 604.78 682.47 604.28
  C 684.43 595.69 684.66 591.28 680.30 583.98
  C 695.42 535.84 707.57 487.26 715.53 437.41
  Q 720.32 407.39 721.20 377.00
  C 721.91 352.54 720.25 326.63 712.47 303.53
  C 695.83 254.15 650.39 239.38 603.48 233.68
  Q 572.44 229.91 541.18 229.13
  C 489.73 227.86 437.71 227.36 386.43 232.34
  C 330.73 237.74 272.12 253.40 250.18 311.59
  C 242.14 332.92 239.25 356.08 238.79 378.75
  C 237.93 421.61 243.71 462.54 254.21 506.15
  Q 275.97 596.48 313.41 681.41
  C 324.81 707.27 336.95 732.09 351.69 757.81
  C 357.47 767.91 384.95 813.82 397.69 808.46
  C 410.13 803.23 420.89 769.49 424.78 756.76
  C 435.23 722.63 442.75 690.99 453.80 658.77
  C 457.22 648.79 465.05 627.13 478.49 626.01
  C 488.68 625.16 494.72 636.20 497.98 644.26
  C 508.37 669.91 514.65 698.24 521.71 725.05
  C 527.63 747.54 535.90 777.05 549.21 799.17
  C 551.58 803.10 554.63 806.18 558.10 808.93
  C 563.55 813.26 568.38 811.48 573.43 807.25
  C 588.59 794.53 601.37 773.01 609.54 756.75
  Q 615.58 759.68 622.25 760.54
  Q 620.58 761.97 620.29 762.55
  Q 609.11 784.51 594.30 803.30
  C 580.63 820.66 563.83 832.84 544.61 813.38
  Q 540.04 808.75 534.31 797.72
  C 525.00 779.77 519.07 759.87 513.69 740.45
  Q 502.69 700.65 499.03 686.49
  Q 494.26 667.99 488.03 651.68
  C 486.38 647.36 483.82 642.00 481.33 638.91
  C 471.20 626.35 444.45 732.34 442.80 738.31
  C 437.34 758.01 422.95 815.16 399.77 820.39
  C 387.64 823.13 377.31 814.10 369.92 805.34
  Q 353.64 786.05 341.19 764.05
  Q 317.15 721.56 298.06 676.61
  C 271.68 614.48 250.24 549.30 236.86 483.08
  Q 228.14 439.93 226.93 395.94
  C 225.81 355.11 230.39 310.72 255.05 277.05
  C 290.42 228.76 362.27 221.22 416.57 218.08
  Q 425.08 217.59 436.56 217.39
  C 483.76 216.57 531.44 216.04 578.57 219.11
  C 612.46 221.33 648.45 226.69 678.19 243.04
  C 735.77 274.68 736.65 350.70 731.26 406.56
  C 724.68 474.88 706.85 542.78 685.21 607.75
  Z"
/>
<path fill="#ffffff" d="
  M 680.30 583.98
  Q 674.37 578.25 666.95 574.76
  C 662.26 572.56 657.75 573.23 652.83 574.12
  Q 652.22 574.23 652.17 573.61
  Q 651.00 559.31 636.69 557.50
  Q 636.17 557.43 636.14 556.91
  Q 635.65 549.38 629.75 544.79
  Q 622.68 539.85 615.47 543.44
  Q 604.92 548.69 606.14 560.95
  Q 606.19 561.46 605.68 561.49
  C 585.71 562.39 575.65 583.18 587.56 599.37
  A 0.57 0.56 -33.5 0 1 587.39 600.19
  Q 567.01 612.31 571.62 636.28
  Q 571.71 636.74 571.27 636.91
  C 552.07 644.30 548.94 668.73 567.01 679.24
  Q 567.43 679.49 567.23 679.93
  C 558.85 698.33 562.71 715.46 577.49 728.46
  C 585.22 735.26 591.55 743.51 599.29 750.50
  Q 602.75 754.37 607.75 755.96
  L 609.54 756.75
  C 601.37 773.01 588.59 794.53 573.43 807.25
  C 568.38 811.48 563.55 813.26 558.10 808.93
  C 554.63 806.18 551.58 803.10 549.21 799.17
  C 535.90 777.05 527.63 747.54 521.71 725.05
  C 514.65 698.24 508.37 669.91 497.98 644.26
  C 494.72 636.20 488.68 625.16 478.49 626.01
  C 465.05 627.13 457.22 648.79 453.80 658.77
  C 442.75 690.99 435.23 722.63 424.78 756.76
  C 420.89 769.49 410.13 803.23 397.69 808.46
  C 384.95 813.82 357.47 767.91 351.69 757.81
  C 336.95 732.09 324.81 707.27 313.41 681.41
  Q 275.97 596.48 254.21 506.15
  C 243.71 462.54 237.93 421.61 238.79 378.75
  C 239.25 356.08 242.14 332.92 250.18 311.59
  C 272.12 253.40 330.73 237.74 386.43 232.34
  C 437.71 227.36 489.73 227.86 541.18 229.13
  Q 572.44 229.91 603.48 233.68
  C 650.39 239.38 695.83 254.15 712.47 303.53
  C 720.25 326.63 721.91 352.54 721.20 377.00
  Q 720.32 407.39 715.53 437.41
  C 707.57 487.26 695.42 535.84 680.30 583.98
  Z
  M 384.23 290.38
  A 0.37 0.37 0.0 0 1 384.20 291.02
  Q 370.81 297.83 357.36 304.53
  C 340.49 312.92 324.01 322.92 316.95 341.39
  A 0.59 0.59 0.0 0 0 317.76 342.13
  C 345.22 328.87 373.39 326.15 404.24 322.18
  C 417.87 320.43 426.57 320.89 437.27 330.11
  Q 452.63 343.33 467.49 357.12
  Q 472.99 362.23 476.22 363.29
  C 485.63 366.38 495.86 359.39 497.96 349.94
  C 498.73 346.45 499.31 342.66 500.63 339.79
  C 505.21 329.81 517.05 323.08 528.00 325.72
  C 536.68 327.81 538.81 326.89 544.37 319.88
  C 552.62 309.49 559.42 298.64 574.91 300.77
  C 602.20 304.53 625.56 313.82 649.16 327.76
  Q 649.53 327.98 649.34 327.59
  Q 646.46 321.74 643.85 315.76
  C 638.47 303.42 628.30 291.08 615.24 286.54
  Q 607.80 283.96 595.42 280.89
  Q 593.50 280.41 593.12 278.85
  Q 592.97 278.26 593.42 277.84
  Q 601.30 270.50 611.49 267.04
  A 0.32 0.32 0.0 0 0 611.55 266.47
  C 583.31 249.57 541.86 239.24 514.84 264.26
  Q 514.48 264.60 514.07 264.31
  C 492.89 248.97 471.77 258.95 450.89 267.62
  Q 450.41 267.82 449.97 267.53
  Q 424.41 250.81 394.51 245.71
  C 377.53 242.81 363.73 245.61 351.79 258.19
  Q 345.09 265.25 338.88 272.14
  Q 338.09 273.02 339.27 273.13
  C 356.70 274.73 369.90 280.93 384.23 290.38
  Z
  M 253.47 409.11
  C 255.58 418.87 266.04 421.75 268.39 430.69
  Q 270.79 439.77 263.76 447.08
  C 257.72 453.36 253.40 457.96 253.27 467.05
  C 253.00 486.60 271.74 492.06 286.16 482.33
  Q 292.48 478.06 297.23 475.49
  C 307.15 470.13 314.86 476.68 322.76 481.97
  C 335.85 490.74 357.89 488.20 359.21 469.25
  C 358.72 453.56 346.31 444.23 332.48 440.79
  C 325.55 439.06 316.90 437.17 318.75 427.49
  C 321.38 413.71 324.83 402.04 318.86 389.44
  C 314.99 381.29 304.63 377.81 297.69 384.93
  C 293.50 389.23 288.21 395.54 282.60 397.72
  C 273.90 401.10 251.68 393.07 253.47 409.11
  Z
  M 341.13 426.13
  C 347.18 430.93 358.34 433.47 359.28 422.01
  C 359.96 413.64 355.41 403.48 345.85 404.05
  C 332.94 404.83 333.01 419.70 341.13 426.13
  Z
  M 393.95 457.23
  C 394.03 467.80 399.85 494.09 415.85 491.39
  C 423.91 490.04 429.29 480.09 431.28 472.74
  C 435.46 457.27 434.93 436.08 423.74 423.46
  Q 423.34 423.01 422.93 423.45
  Q 408.66 438.85 395.09 453.75
  C 394.12 454.81 393.94 455.88 393.95 457.23
  Z
  M 527.48 475.30
  C 530.00 482.92 536.52 492.95 545.67 491.47
  C 559.69 489.19 563.95 466.55 564.00 455.61
  Q 564.00 455.06 563.62 454.66
  L 534.96 424.00
  A 0.81 0.80 44.6 0 0 533.78 424.00
  C 522.16 436.72 522.41 459.97 527.48 475.30
  Z
  M 277.48 519.10
  C 278.21 524.40 285.49 527.09 286.70 532.64
  C 288.47 540.71 279.82 543.46 277.87 550.20
  C 274.98 560.24 281.54 568.84 292.14 566.17
  C 297.56 564.80 301.41 559.86 306.72 558.52
  C 313.18 556.89 318.66 563.72 324.43 565.74
  C 331.63 568.27 340.55 565.38 342.21 557.00
  C 342.75 545.20 333.58 540.23 323.76 537.51
  C 314.16 534.85 317.81 527.85 319.11 520.83
  C 320.27 514.53 318.52 499.30 308.48 501.57
  C 303.17 502.77 300.19 510.09 294.48 511.93
  C 289.71 513.46 275.27 509.33 277.48 519.10
  Z
  M 487.21 530.72
  C 500.13 534.25 512.59 540.94 524.45 546.98
  A 0.45 0.45 0.0 0 0 525.04 546.35
  C 515.10 529.49 496.49 514.43 476.55 512.92
  C 456.87 511.42 439.22 526.19 431.31 543.66
  Q 431.01 544.32 431.45 544.70
  A 0.65 0.64 -38.6 0 0 432.19 544.78
  Q 442.91 538.79 453.94 533.71
  C 465.42 528.43 474.60 527.27 487.21 530.72
  Z
  M 329.62 517.37
  C 322.67 523.57 335.14 535.57 340.78 530.59
  C 343.51 528.18 342.20 521.08 340.26 518.54
  C 337.76 515.27 332.73 514.59 329.62 517.37
  Z"
/>
<path fill="#646464" d="
  M 384.23 290.38
  C 369.90 280.93 356.70 274.73 339.27 273.13
  Q 338.09 273.02 338.88 272.14
  Q 345.09 265.25 351.79 258.19
  C 363.73 245.61 377.53 242.81 394.51 245.71
  Q 424.41 250.81 449.97 267.53
  Q 450.41 267.82 450.89 267.62
  C 471.77 258.95 492.89 248.97 514.07 264.31
  Q 514.48 264.60 514.84 264.26
  C 541.86 239.24 583.31 249.57 611.55 266.47
  A 0.32 0.32 0.0 0 1 611.49 267.04
  Q 601.30 270.50 593.42 277.84
  Q 592.97 278.26 593.12 278.85
  Q 593.50 280.41 595.42 280.89
  Q 607.80 283.96 615.24 286.54
  C 628.30 291.08 638.47 303.42 643.85 315.76
  Q 646.46 321.74 649.34 327.59
  Q 649.53 327.98 649.16 327.76
  C 625.56 313.82 602.20 304.53 574.91 300.77
  C 559.42 298.64 552.62 309.49 544.37 319.88
  C 538.81 326.89 536.68 327.81 528.00 325.72
  C 517.05 323.08 505.21 329.81 500.63 339.79
  C 499.31 342.66 498.73 346.45 497.96 349.94
  C 495.86 359.39 485.63 366.38 476.22 363.29
  Q 472.99 362.23 467.49 357.12
  Q 452.63 343.33 437.27 330.11
  C 426.57 320.89 417.87 320.43 404.24 322.18
  C 373.39 326.15 345.22 328.87 317.76 342.13
  A 0.59 0.59 0.0 0 1 316.95 341.39
  C 324.01 322.92 340.49 312.92 357.36 304.53
  Q 370.81 297.83 384.20 291.02
  A 0.37 0.37 0.0 0 0 384.23 290.38
  Z"
/>
<path fill="#c79a83" d="
  M 359.21 469.25
  C 348.43 486.27 333.09 473.59 321.92 465.83
  C 312.45 459.24 303.51 459.96 293.09 463.33
  C 287.49 465.15 276.62 470.50 273.91 461.33
  C 272.74 457.38 277.81 451.31 278.80 447.66
  C 282.18 435.21 278.46 421.37 266.30 414.94
  Q 259.11 411.15 253.47 409.11
  C 251.68 393.07 273.90 401.10 282.60 397.72
  C 288.21 395.54 293.50 389.23 297.69 384.93
  C 304.63 377.81 314.99 381.29 318.86 389.44
  C 324.83 402.04 321.38 413.71 318.75 427.49
  C 316.90 437.17 325.55 439.06 332.48 440.79
  C 346.31 444.23 358.72 453.56 359.21 469.25
  Z"
/>
<path fill="#c79a83" d="
  M 341.13 426.13
  C 333.01 419.70 332.94 404.83 345.85 404.05
  C 355.41 403.48 359.96 413.64 359.28 422.01
  C 358.34 433.47 347.18 430.93 341.13 426.13
  Z"
/>
<path fill="#a07765" d="
  M 359.21 469.25
  C 357.89 488.20 335.85 490.74 322.76 481.97
  C 314.86 476.68 307.15 470.13 297.23 475.49
  Q 292.48 478.06 286.16 482.33
  C 271.74 492.06 253.00 486.60 253.27 467.05
  C 253.40 457.96 257.72 453.36 263.76 447.08
  Q 270.79 439.77 268.39 430.69
  C 266.04 421.75 255.58 418.87 253.47 409.11
  Q 259.11 411.15 266.30 414.94
  C 278.46 421.37 282.18 435.21 278.80 447.66
  C 277.81 451.31 272.74 457.38 273.91 461.33
  C 276.62 470.50 287.49 465.15 293.09 463.33
  C 303.51 459.96 312.45 459.24 321.92 465.83
  C 333.09 473.59 348.43 486.27 359.21 469.25
  Z"
/>
<path fill="#646464" d="
  M 415.85 491.39
  C 399.85 494.09 394.03 467.80 393.95 457.23
  C 393.94 455.88 394.12 454.81 395.09 453.75
  Q 408.66 438.85 422.93 423.45
  Q 423.34 423.01 423.74 423.46
  C 434.93 436.08 435.46 457.27 431.28 472.74
  C 429.29 480.09 423.91 490.04 415.85 491.39
  Z"
/>
<path fill="#646464" d="
  M 545.67 491.47
  C 536.52 492.95 530.00 482.92 527.48 475.30
  C 522.41 459.97 522.16 436.72 533.78 424.00
  A 0.81 0.80 44.6 0 1 534.96 424.00
  L 563.62 454.66
  Q 564.00 455.06 564.00 455.61
  C 563.95 466.55 559.69 489.19 545.67 491.47
  Z"
/>
<path fill="#c79a83" d="
  M 342.21 557.00
  Q 334.74 563.83 326.30 558.21
  C 319.69 553.81 314.48 548.87 305.47 551.08
  Q 300.51 552.30 295.64 553.74
  C 292.20 554.76 288.21 551.19 289.98 548.27
  C 298.31 534.52 291.88 523.10 277.48 519.10
  C 275.27 509.33 289.71 513.46 294.48 511.93
  C 300.19 510.09 303.17 502.77 308.48 501.57
  C 318.52 499.30 320.27 514.53 319.11 520.83
  C 317.81 527.85 314.16 534.85 323.76 537.51
  C 333.58 540.23 342.75 545.20 342.21 557.00
  Z"
/>
<path fill="#646464" d="
  M 487.21 530.72
  C 474.60 527.27 465.42 528.43 453.94 533.71
  Q 442.91 538.79 432.19 544.78
  A 0.65 0.64 -38.6 0 1 431.45 544.70
  Q 431.01 544.32 431.31 543.66
  C 439.22 526.19 456.87 511.42 476.55 512.92
  C 496.49 514.43 515.10 529.49 525.04 546.35
  A 0.45 0.45 0.0 0 1 524.45 546.98
  C 512.59 540.94 500.13 534.25 487.21 530.72
  Z"
/>
<path fill="#c79a83" d="
  M 340.78 530.59
  C 335.14 535.57 322.67 523.57 329.62 517.37
  C 332.73 514.59 337.76 515.27 340.26 518.54
  C 342.20 521.08 343.51 528.18 340.78 530.59
  Z"
/>
<path fill="#a07765" d="
  M 342.21 557.00
  C 340.55 565.38 331.63 568.27 324.43 565.74
  C 318.66 563.72 313.18 556.89 306.72 558.52
  C 301.41 559.86 297.56 564.80 292.14 566.17
  C 281.54 568.84 274.98 560.24 277.87 550.20
  C 279.82 543.46 288.47 540.71 286.70 532.64
  C 285.49 527.09 278.21 524.40 277.48 519.10
  C 291.88 523.10 298.31 534.52 289.98 548.27
  C 288.21 551.19 292.20 554.76 295.64 553.74
  Q 300.51 552.30 305.47 551.08
  C 314.48 548.87 319.69 553.81 326.30 558.21
  Q 334.74 563.83 342.21 557.00
  Z"
/>
<path fill="#a1d51c" d="
  M 629.75 544.79
  C 629.44 545.01 629.17 545.28 628.81 545.37
  C 617.40 548.39 608.81 557.66 609.17 569.76
  C 609.33 575.29 611.88 579.24 614.13 583.72
  Q 614.35 584.16 613.94 584.42
  Q 594.02 596.86 598.50 620.55
  Q 598.60 621.09 598.09 621.30
  C 583.06 627.20 576.79 644.86 587.46 657.89
  Q 587.55 658.00 587.70 658.00
  Q 587.84 658.00 587.96 658.00
  Q 590.41 700.80 613.86 736.40
  Q 614.99 738.11 616.80 742.17
  Q 617.01 742.65 617.52 742.78
  C 624.32 744.59 623.09 737.16 623.46 733.40
  Q 629.71 738.86 637.07 740.86
  Q 636.68 746.02 637.29 751.38
  C 638.47 761.59 629.48 761.68 622.25 760.54
  Q 615.58 759.68 609.54 756.75
  L 607.75 755.96
  L 599.29 750.50
  C 591.55 743.51 585.22 735.26 577.49 728.46
  C 562.71 715.46 558.85 698.33 567.23 679.93
  Q 567.43 679.49 567.01 679.24
  C 548.94 668.73 552.07 644.30 571.27 636.91
  Q 571.71 636.74 571.62 636.28
  Q 567.01 612.31 587.39 600.19
  A 0.57 0.56 -33.5 0 0 587.56 599.37
  C 575.65 583.18 585.71 562.39 605.68 561.49
  Q 606.19 561.46 606.14 560.95
  Q 604.92 548.69 615.47 543.44
  Q 622.68 539.85 629.75 544.79
  Z"
/>
<path fill="#c4f236" d="
  M 629.75 544.79
  Q 635.65 549.38 636.14 556.91
  Q 636.17 557.43 636.69 557.50
  Q 651.00 559.31 652.17 573.61
  Q 652.22 574.23 652.83 574.12
  C 657.75 573.23 662.26 572.56 666.95 574.76
  Q 674.37 578.25 680.30 583.98
  C 684.66 591.28 684.43 595.69 682.47 604.28
  Q 682.35 604.78 682.61 605.23
  Q 683.56 606.86 685.21 607.75
  Q 696.34 620.89 688.04 636.27
  A 0.50 0.50 0.0 0 0 688.17 636.89
  Q 704.08 649.80 697.43 669.91
  Q 697.29 670.35 697.49 670.78
  Q 702.42 681.29 694.90 689.67
  C 694.02 690.64 692.56 691.26 691.52 692.38
  Q 691.14 692.79 691.25 693.34
  C 693.73 705.59 686.54 715.80 673.32 714.14
  C 655.33 711.89 640.50 722.87 637.07 740.86
  Q 629.71 738.86 623.46 733.40
  C 623.48 726.19 624.94 709.01 630.37 703.71
  Q 647.92 686.61 672.93 686.17
  Q 673.42 686.16 673.83 685.88
  C 677.07 683.67 675.97 678.91 671.80 678.92
  Q 652.87 678.95 637.49 688.86
  A 0.70 0.70 0.0 0 1 636.52 687.89
  C 643.20 677.43 649.94 670.50 658.79 661.70
  C 661.79 658.73 659.62 654.71 655.71 655.23
  Q 657.64 637.69 661.83 620.50
  C 663.63 617.41 669.66 613.48 667.20 610.02
  C 664.34 606.01 658.94 611.22 656.31 614.08
  C 642.51 629.09 640.85 644.05 640.46 664.75
  Q 636.25 671.49 633.04 678.75
  L 627.25 688.54
  Q 625.13 688.03 625.94 685.18
  Q 629.48 672.71 633.77 650.51
  Q 634.63 646.09 631.21 642.25
  C 631.67 639.88 633.10 636.93 632.73 634.85
  C 632.30 632.44 629.59 631.05 627.26 632.06
  C 624.93 633.07 623.35 640.71 622.78 643.28
  A 0.53 0.52 -60.2 0 1 621.88 643.53
  C 618.56 639.94 615.35 625.50 614.33 620.41
  Q 614.22 619.86 614.74 619.62
  C 627.60 613.70 635.74 604.44 636.54 589.73
  C 636.75 585.92 634.88 584.36 631.12 585.24
  A 2.42 2.41 81.9 0 0 629.26 587.73
  Q 629.53 592.63 626.96 597.50
  Q 620.66 602.08 613.13 603.79
  C 611.65 598.39 605.65 599.91 605.74 605.58
  Q 606.20 632.17 619.48 655.10
  Q 619.72 655.50 619.60 655.96
  L 618.46 660.50
  C 612.48 663.86 610.72 668.33 610.78 675.40
  Q 610.90 689.03 611.92 703.00
  A 0.42 0.42 0.0 0 1 611.47 703.44
  Q 610.46 703.36 610.17 702.41
  Q 603.40 680.21 596.33 658.09
  C 595.02 654.58 597.11 644.94 589.50 648.17
  A 2.15 2.13 -10.9 0 0 588.20 650.07
  L 587.96 658.00
  Q 587.84 658.00 587.70 658.00
  Q 587.55 658.00 587.46 657.89
  C 576.79 644.86 583.06 627.20 598.09 621.30
  Q 598.60 621.09 598.50 620.55
  Q 594.02 596.86 613.94 584.42
  Q 614.35 584.16 614.13 583.72
  C 611.88 579.24 609.33 575.29 609.17 569.76
  C 608.81 557.66 617.40 548.39 628.81 545.37
  C 629.17 545.28 629.44 545.01 629.75 544.79
  Z"
/>
<path fill="#7ab92d" d="
  M 631.21 642.25
  Q 625.47 662.04 623.16 682.48
  C 622.63 687.14 622.86 693.23 622.01 698.60
  A 0.35 0.35 0.0 0 0 622.67 698.79
  L 627.25 688.54
  L 633.04 678.75
  C 636.59 674.44 641.82 668.88 640.46 664.75
  C 640.85 644.05 642.51 629.09 656.31 614.08
  C 658.94 611.22 664.34 606.01 667.20 610.02
  C 669.66 613.48 663.63 617.41 661.83 620.50
  C 650.86 629.71 647.19 646.59 648.87 660.29
  A 0.38 0.38 0.0 0 0 649.55 660.47
  Q 651.92 657.33 655.71 655.23
  C 659.62 654.71 661.79 658.73 658.79 661.70
  C 649.94 670.50 643.20 677.43 636.52 687.89
  A 0.70 0.70 0.0 0 0 637.49 688.86
  Q 652.87 678.95 671.80 678.92
  C 675.97 678.91 677.07 683.67 673.83 685.88
  Q 673.42 686.16 672.93 686.17
  Q 647.92 686.61 630.37 703.71
  C 624.94 709.01 623.48 726.19 623.46 733.40
  C 623.09 737.16 624.32 744.59 617.52 742.78
  Q 617.01 742.65 616.80 742.17
  Q 614.99 738.11 613.86 736.40
  Q 590.41 700.80 587.96 658.00
  L 588.20 650.07
  A 2.15 2.13 -10.9 0 1 589.50 648.17
  C 597.11 644.94 595.02 654.58 596.33 658.09
  Q 595.32 660.61 595.76 662.91
  Q 596.16 665.03 596.17 665.11
  Q 599.47 694.73 613.39 720.73
  A 0.33 0.32 -57.7 0 0 614.00 720.59
  C 614.29 714.46 613.61 708.46 614.06 702.36
  C 615.05 688.84 615.74 674.94 618.48 661.64
  Q 618.60 661.09 618.46 660.50
  L 619.60 655.96
  Q 619.72 655.50 619.48 655.10
  Q 606.20 632.17 605.74 605.58
  C 605.65 599.91 611.65 598.39 613.13 603.79
  L 613.50 611.05
  A 0.54 0.54 0.0 0 0 614.25 611.52
  Q 623.80 607.37 626.96 597.50
  Q 629.53 592.63 629.26 587.73
  A 2.42 2.41 81.9 0 1 631.12 585.24
  C 634.88 584.36 636.75 585.92 636.54 589.73
  C 635.74 604.44 627.60 613.70 614.74 619.62
  Q 614.22 619.86 614.33 620.41
  C 615.35 625.50 618.56 639.94 621.88 643.53
  A 0.53 0.52 -60.2 0 0 622.78 643.28
  C 623.35 640.71 624.93 633.07 627.26 632.06
  C 629.59 631.05 632.30 632.44 632.73 634.85
  C 633.10 636.93 631.67 639.88 631.21 642.25
  Z"
/>
<path fill="#a1d51c" d="
  M 626.96 597.50
  Q 623.80 607.37 614.25 611.52
  A 0.54 0.54 0.0 0 1 613.50 611.05
  L 613.13 603.79
  Q 620.66 602.08 626.96 597.50
  Z"
/>
<path fill="#a1d51c" d="
  M 661.83 620.50
  Q 657.64 637.69 655.71 655.23
  Q 651.92 657.33 649.55 660.47
  A 0.38 0.38 0.0 0 1 648.87 660.29
  C 647.19 646.59 650.86 629.71 661.83 620.50
  Z"
/>
<path fill="#a1d51c" d="
  M 631.21 642.25
  Q 634.63 646.09 633.77 650.51
  Q 629.48 672.71 625.94 685.18
  Q 625.13 688.03 627.25 688.54
  L 622.67 698.79
  A 0.35 0.35 0.0 0 1 622.01 698.60
  C 622.86 693.23 622.63 687.14 623.16 682.48
  Q 625.47 662.04 631.21 642.25
  Z"
/>
<path fill="#a1d51c" d="
  M 596.33 658.09
  Q 603.40 680.21 610.17 702.41
  Q 610.46 703.36 611.47 703.44
  A 0.42 0.42 0.0 0 0 611.92 703.00
  Q 610.90 689.03 610.78 675.40
  C 610.72 668.33 612.48 663.86 618.46 660.50
  Q 618.60 661.09 618.48 661.64
  C 615.74 674.94 615.05 688.84 614.06 702.36
  C 613.61 708.46 614.29 714.46 614.00 720.59
  A 0.33 0.32 -57.7 0 1 613.39 720.73
  Q 599.47 694.73 596.17 665.11
  Q 596.16 665.03 595.76 662.91
  Q 595.32 660.61 596.33 658.09
  Z"
/>
<path fill="#a1d51c" d="
  M 640.46 664.75
  C 641.82 668.88 636.59 674.44 633.04 678.75
  Q 636.25 671.49 640.46 664.75
  Z"
/>
<path fill="#c79a83" d="
  M 599.29 750.50
  L 607.75 755.96
  Q 602.75 754.37 599.29 750.50
  Z"
/>
</svg>
